<svg width="100" height="100" viewBox="0 0 100 100" fill="none" xmlns="http://www.w3.org/2000/svg">
<path d="M91.6666 45.8333V83.3333C91.6666 84.4384 91.2277 85.4982 90.4463 86.2796C89.6649 87.061 88.605 87.5 87.5 87.5H12.5C11.3949 87.5 10.3351 87.061 9.55372 86.2796C8.77232 85.4982 8.33334 84.4384 8.33334 83.3333V45.8333H91.6666ZM91.6666 29.1667H8.33334V16.6667C8.33334 15.5616 8.77232 14.5018 9.55372 13.7204C10.3351 12.939 11.3949 12.5 12.5 12.5H87.5C88.605 12.5 89.6649 12.939 90.4463 13.7204C91.2277 14.5018 91.6666 15.5616 91.6666 16.6667V29.1667Z" fill="#333333"/>
</svg>
