<svg width="100" height="92" viewBox="0 0 100 92" fill="none" xmlns="http://www.w3.org/2000/svg">
<path d="M25 34.2232H83.075L85.1583 26.6181H33.3333V19.0129H90.5C91.1333 19.0129 91.7584 19.1447 92.3275 19.3983C92.8967 19.6518 93.3951 20.0204 93.7847 20.4761C94.1744 20.9318 94.4451 21.4625 94.5762 22.028C94.7074 22.5935 94.6956 23.1788 94.5417 23.7395L84.125 61.7654C83.8993 62.5877 83.379 63.3175 82.6467 63.8391C81.9144 64.3606 81.0122 64.6439 80.0833 64.6439H20.8333C19.7282 64.6439 18.6684 64.2433 17.887 63.5302C17.1056 62.817 16.6666 61.8498 16.6666 60.8413V15.2103H8.33331V7.60516H20.8333C21.9384 7.60516 22.9982 8.00579 23.7796 8.71891C24.561 9.43204 25 10.3992 25 11.4077V34.2232ZM25 87.4594C22.7898 87.4594 20.6702 86.6581 19.1074 85.2319C17.5446 83.8057 16.6666 81.8713 16.6666 79.8542C16.6666 77.8372 17.5446 75.9028 19.1074 74.4766C20.6702 73.0503 22.7898 72.2491 25 72.2491C27.2101 72.2491 29.3297 73.0503 30.8925 74.4766C32.4553 75.9028 33.3333 77.8372 33.3333 79.8542C33.3333 81.8713 32.4553 83.8057 30.8925 85.2319C29.3297 86.6581 27.2101 87.4594 25 87.4594ZM75 87.4594C72.7898 87.4594 70.6702 86.6581 69.1074 85.2319C67.5446 83.8057 66.6666 81.8713 66.6666 79.8542C66.6666 77.8372 67.5446 75.9028 69.1074 74.4766C70.6702 73.0503 72.7898 72.2491 75 72.2491C77.2101 72.2491 79.3297 73.0503 80.8925 74.4766C82.4553 75.9028 83.3333 77.8372 83.3333 79.8542C83.3333 81.8713 82.4553 83.8057 80.8925 85.2319C79.3297 86.6581 77.2101 87.4594 75 87.4594Z" fill="#333333"/>
</svg>
