<svg width="130" height="126" viewBox="0 0 130 126" fill="none" xmlns="http://www.w3.org/2000/svg">
<path d="M25.5 41.9523H112.613L115.738 30.0457H38V18.1391H123.75C124.7 18.1392 125.638 18.3455 126.491 18.7424C127.345 19.1394 128.093 19.7165 128.677 20.4299C129.262 21.1433 129.668 21.9742 129.864 22.8596C130.061 23.7449 130.043 24.6613 129.813 25.5391L114.188 85.0719C113.849 86.3593 113.068 87.502 111.97 88.3185C110.872 89.135 109.518 89.5785 108.125 89.5785H19.25C17.5924 89.5785 16.0027 88.9513 14.8306 87.8348C13.6585 86.7184 13 85.2041 13 83.6252V12.1859H0.5V0.279297H19.25C20.9076 0.279297 22.4973 0.906516 23.6694 2.02297C24.8415 3.13943 25.5 4.65367 25.5 6.23258V41.9523ZM25.5 125.298C22.1848 125.298 19.0054 124.044 16.6612 121.811C14.317 119.578 13 116.549 13 113.392C13 110.234 14.317 107.205 16.6612 104.972C19.0054 102.74 22.1848 101.485 25.5 101.485C28.8152 101.485 31.9946 102.74 34.3388 104.972C36.683 107.205 38 110.234 38 113.392C38 116.549 36.683 119.578 34.3388 121.811C31.9946 124.044 28.8152 125.298 25.5 125.298ZM100.5 125.298C97.1848 125.298 94.0054 124.044 91.6612 121.811C89.317 119.578 88 116.549 88 113.392C88 110.234 89.317 107.205 91.6612 104.972C94.0054 102.74 97.1848 101.485 100.5 101.485C103.815 101.485 106.995 102.74 109.339 104.972C111.683 107.205 113 110.234 113 113.392C113 116.549 111.683 119.578 109.339 121.811C106.995 124.044 103.815 125.298 100.5 125.298Z" fill="white"/>
</svg>
