<svg width="100" height="100" viewBox="0 0 100 100" fill="none" xmlns="http://www.w3.org/2000/svg">
<path d="M58.3333 8.33332C65.9582 8.32968 73.3539 10.9403 79.2869 15.7297C85.2199 20.5191 89.3316 27.1978 90.9361 34.6519C92.5407 42.1061 91.5413 49.885 88.1044 56.6914C84.6675 63.4978 79.0011 68.9202 72.05 72.0542C69.8282 76.9663 66.448 81.2662 62.1994 84.5851C57.9509 87.904 52.9607 90.1429 47.6568 91.1097C42.353 92.0766 36.8938 91.7425 31.7474 90.1362C26.601 88.5298 21.921 85.6992 18.1088 81.887C14.2966 78.0748 11.466 73.3949 9.85966 68.2485C8.25333 63.1021 7.91926 57.6429 8.88609 52.339C9.85293 47.0352 12.0918 42.045 15.4107 37.7964C18.7296 33.5478 23.0296 30.1677 27.9417 27.9458C30.5839 22.0995 34.8566 17.1396 40.2473 13.6608C45.6379 10.1821 51.9177 8.33233 58.3333 8.33332ZM45.8333 37.5H37.5V41.6667C34.7922 41.6601 32.1882 42.7082 30.2399 44.5889C28.2917 46.4696 27.1525 49.0351 27.0636 51.7415C26.9748 54.4479 27.9433 57.0825 29.7639 59.087C31.5846 61.0914 34.1142 62.3081 36.8167 62.4792L37.5 62.5H45.8333L46.2083 62.5333C46.6887 62.6203 47.1232 62.8732 47.4362 63.2478C47.7491 63.6225 47.9205 64.0952 47.9205 64.5833C47.9205 65.0715 47.7491 65.5441 47.4362 65.9188C47.1232 66.2935 46.6887 66.5463 46.2083 66.6333L45.8333 66.6667H29.1667V75H37.5V79.1666H45.8333V75C48.5412 75.0066 51.1452 73.9584 53.0934 72.0777C55.0416 70.197 56.1809 67.6316 56.2697 64.9252C56.3586 62.2188 55.3901 59.5841 53.5694 57.5797C51.7488 55.5752 49.2191 54.3585 46.5167 54.1875L45.8333 54.1667H37.5L37.125 54.1333C36.6447 54.0463 36.2101 53.7935 35.8972 53.4188C35.5843 53.0441 35.4129 52.5715 35.4129 52.0833C35.4129 51.5952 35.5843 51.1225 35.8972 50.7478C36.2101 50.3732 36.6447 50.1203 37.125 50.0333L37.5 50H54.1667V41.6667H45.8333V37.5ZM58.3333 16.6667C54.8029 16.6625 51.3118 17.4081 48.0909 18.854C44.8701 20.2999 41.993 22.4132 39.65 25.0542C44.3594 24.7683 49.0759 25.4854 53.4875 27.1581C57.8992 28.8308 61.9055 31.421 65.2415 34.7574C68.5775 38.0938 71.1672 42.1004 72.8394 46.5122C74.5116 50.924 75.2281 55.6406 74.9417 60.35C78.7301 56.9818 81.405 52.5414 82.6118 47.618C83.8185 42.6945 83.5 37.5205 81.6985 32.7822C79.897 28.0439 76.6976 23.9651 72.5247 21.087C68.3518 18.2088 63.4026 16.6672 58.3333 16.6667Z" fill="#333333"/>
</svg>
