<svg width="38" height="40" viewBox="0 0 38 40" fill="none" xmlns="http://www.w3.org/2000/svg">
<path d="M20.5834 33.2302C23.7774 32.8024 26.6968 31.1104 28.7483 28.4981C30.7998 25.8859 31.8293 22.5494 31.6277 19.1668C31.4261 15.7842 30.0084 12.6093 27.6628 10.2875C25.3173 7.96562 22.2198 6.67103 19 6.66683C15.7763 6.6643 12.6729 7.95573 10.3223 10.278C7.97167 12.6002 6.55065 15.7785 6.34878 19.1652C6.14691 22.552 7.17939 25.8923 9.23583 28.5056C11.2923 31.1189 14.2179 32.8085 17.4167 33.2302V23.3335H14.25V20.0002H17.4167V17.2435C17.4167 15.0152 17.6384 14.2068 18.05 13.3918C18.4555 12.5855 19.0823 11.9263 19.8487 11.5002C20.4535 11.1585 21.2056 10.9535 22.5198 10.8652C23.0407 10.8302 23.7152 10.8735 24.5433 10.9985V14.1652H23.75C22.2981 14.1652 21.698 14.2368 21.3402 14.4385C21.1267 14.5541 20.9528 14.7371 20.843 14.9618C20.653 15.3385 20.5834 15.7118 20.5834 17.2418V20.0002H24.5417L23.75 23.3335H20.5834V33.2302ZM19 36.6668C10.2553 36.6668 3.16669 29.2052 3.16669 20.0002C3.16669 10.7952 10.2553 3.3335 19 3.3335C27.7448 3.3335 34.8334 10.7952 34.8334 20.0002C34.8334 29.2052 27.7448 36.6668 19 36.6668Z" fill="#F2F2F2"/>
</svg>
