<svg width="806" height="224" viewBox="0 0 806 224" fill="none" xmlns="http://www.w3.org/2000/svg">
<path d="M207.024 47.576C204.368 47.576 201.792 47.224 199.296 46.52C196.832 45.784 194.848 44.84 193.344 43.688L195.984 37.832C197.424 38.888 199.136 39.736 201.12 40.376C203.104 41.016 205.088 41.336 207.072 41.336C209.28 41.336 210.912 41.016 211.968 40.376C213.024 39.704 213.552 38.824 213.552 37.736C213.552 36.936 213.232 36.28 212.592 35.768C211.984 35.224 211.184 34.792 210.192 34.472C209.232 34.152 207.92 33.8 206.256 33.416C203.696 32.808 201.6 32.2 199.968 31.592C198.336 30.984 196.928 30.008 195.744 28.664C194.592 27.32 194.016 25.528 194.016 23.288C194.016 21.336 194.544 19.576 195.6 18.008C196.656 16.408 198.24 15.144 200.352 14.216C202.496 13.288 205.104 12.824 208.176 12.824C210.32 12.824 212.416 13.08 214.464 13.592C216.512 14.104 218.304 14.84 219.84 15.8L217.44 21.704C214.336 19.944 211.232 19.064 208.128 19.064C205.952 19.064 204.336 19.416 203.28 20.12C202.256 20.824 201.744 21.752 201.744 22.904C201.744 24.056 202.336 24.92 203.52 25.496C204.736 26.04 206.576 26.584 209.04 27.128C211.6 27.736 213.696 28.344 215.328 28.952C216.96 29.56 218.352 30.52 219.504 31.832C220.688 33.144 221.28 34.92 221.28 37.16C221.28 39.08 220.736 40.84 219.648 42.44C218.592 44.008 216.992 45.256 214.848 46.184C212.704 47.112 210.096 47.576 207.024 47.576ZM226.065 21.176H233.553V47H226.065V21.176ZM229.809 17.576C228.433 17.576 227.313 17.176 226.449 16.376C225.585 15.576 225.153 14.584 225.153 13.4C225.153 12.216 225.585 11.224 226.449 10.424C227.313 9.624 228.433 9.224 229.809 9.224C231.185 9.224 232.305 9.608 233.169 10.376C234.033 11.144 234.465 12.104 234.465 13.256C234.465 14.504 234.033 15.544 233.169 16.376C232.305 17.176 231.185 17.576 229.809 17.576ZM267.143 21.176V42.68C267.143 47.416 265.911 50.936 263.447 53.24C260.983 55.544 257.383 56.696 252.647 56.696C250.151 56.696 247.783 56.392 245.543 55.784C243.303 55.176 241.447 54.296 239.975 53.144L242.951 47.768C244.039 48.664 245.415 49.368 247.079 49.88C248.743 50.424 250.407 50.696 252.071 50.696C254.663 50.696 256.567 50.104 257.783 48.92C259.031 47.768 259.655 46.008 259.655 43.64V42.536C257.703 44.68 254.983 45.752 251.495 45.752C249.127 45.752 246.951 45.24 244.967 44.216C243.015 43.16 241.463 41.688 240.311 39.8C239.159 37.912 238.583 35.736 238.583 33.272C238.583 30.808 239.159 28.632 240.311 26.744C241.463 24.856 243.015 23.4 244.967 22.376C246.951 21.32 249.127 20.792 251.495 20.792C255.239 20.792 258.087 22.024 260.039 24.488V21.176H267.143ZM252.983 39.608C254.967 39.608 256.583 39.032 257.831 37.88C259.111 36.696 259.751 35.16 259.751 33.272C259.751 31.384 259.111 29.864 257.831 28.712C256.583 27.528 254.967 26.936 252.983 26.936C250.999 26.936 249.367 27.528 248.087 28.712C246.807 29.864 246.167 31.384 246.167 33.272C246.167 35.16 246.807 36.696 248.087 37.88C249.367 39.032 250.999 39.608 252.983 39.608ZM289.808 20.792C293.008 20.792 295.584 21.752 297.536 23.672C299.52 25.592 300.512 28.44 300.512 32.216V47H293.024V33.368C293.024 31.32 292.576 29.8 291.68 28.808C290.784 27.784 289.488 27.272 287.792 27.272C285.904 27.272 284.4 27.864 283.28 29.048C282.16 30.2 281.6 31.928 281.6 34.232V47H274.112V21.176H281.264V24.2C282.256 23.112 283.488 22.28 284.96 21.704C286.432 21.096 288.048 20.792 289.808 20.792ZM336.35 47.576C331.55 47.576 327.806 46.248 325.118 43.592C322.462 40.936 321.134 37.144 321.134 32.216V13.4H328.91V31.928C328.91 37.944 331.406 40.952 336.398 40.952C338.83 40.952 340.686 40.232 341.966 38.792C343.246 37.32 343.885 35.032 343.885 31.928V13.4H351.566V32.216C351.566 37.144 350.222 40.936 347.534 43.592C344.878 46.248 341.15 47.576 336.35 47.576ZM373.986 20.792C376.386 20.792 378.562 21.352 380.514 22.472C382.498 23.56 384.05 25.112 385.17 27.128C386.29 29.112 386.85 31.432 386.85 34.088C386.85 36.744 386.29 39.08 385.17 41.096C384.05 43.08 382.498 44.632 380.514 45.752C378.562 46.84 376.386 47.384 373.986 47.384C370.69 47.384 368.098 46.344 366.21 44.264V56.312H358.722V21.176H365.874V24.152C367.73 21.912 370.434 20.792 373.986 20.792ZM372.69 41.24C374.61 41.24 376.178 40.6 377.394 39.32C378.642 38.008 379.266 36.264 379.266 34.088C379.266 31.912 378.642 30.184 377.394 28.904C376.178 27.592 374.61 26.936 372.69 26.936C370.77 26.936 369.186 27.592 367.938 28.904C366.722 30.184 366.114 31.912 366.114 34.088C366.114 36.264 366.722 38.008 367.938 39.32C369.186 40.6 370.77 41.24 372.69 41.24ZM390.902 13.4H399.83L398.342 35.336H392.39L390.902 13.4ZM395.366 47.384C394.054 47.384 392.95 46.968 392.054 46.136C391.19 45.272 390.758 44.232 390.758 43.016C390.758 41.8 391.19 40.792 392.054 39.992C392.918 39.16 394.022 38.744 395.366 38.744C396.71 38.744 397.814 39.16 398.678 39.992C399.542 40.792 399.974 41.8 399.974 43.016C399.974 44.232 399.526 45.272 398.63 46.136C397.766 46.968 396.678 47.384 395.366 47.384Z" fill="white"/>
<path d="M195.78 101.8H199.38V123.868H213.024V127H195.78V101.8ZM216.651 107.92H220.107V127H216.651V107.92ZM218.379 104.248C217.707 104.248 217.143 104.032 216.687 103.6C216.255 103.168 216.039 102.64 216.039 102.016C216.039 101.392 216.255 100.864 216.687 100.432C217.143 99.976 217.707 99.748 218.379 99.748C219.051 99.748 219.603 99.964 220.035 100.396C220.491 100.804 220.719 101.32 220.719 101.944C220.719 102.592 220.491 103.144 220.035 103.6C219.603 104.032 219.051 104.248 218.379 104.248ZM237.434 125.884C236.93 126.316 236.306 126.652 235.562 126.892C234.818 127.108 234.05 127.216 233.258 127.216C231.338 127.216 229.85 126.7 228.794 125.668C227.738 124.636 227.21 123.16 227.21 121.24V110.764H223.97V107.92H227.21V103.744H230.666V107.92H236.138V110.764H230.666V121.096C230.666 122.128 230.918 122.92 231.422 123.472C231.95 124.024 232.694 124.3 233.654 124.3C234.71 124.3 235.61 124 236.354 123.4L237.434 125.884ZM258.223 117.568C258.223 117.832 258.199 118.18 258.151 118.612H242.671C242.887 120.292 243.619 121.648 244.867 122.68C246.139 123.688 247.711 124.192 249.583 124.192C251.863 124.192 253.699 123.424 255.091 121.888L256.999 124.12C256.135 125.128 255.055 125.896 253.759 126.424C252.487 126.952 251.059 127.216 249.475 127.216C247.459 127.216 245.671 126.808 244.111 125.992C242.551 125.152 241.339 123.988 240.475 122.5C239.635 121.012 239.215 119.332 239.215 117.46C239.215 115.612 239.623 113.944 240.439 112.456C241.279 110.968 242.419 109.816 243.859 109C245.323 108.16 246.967 107.74 248.791 107.74C250.615 107.74 252.235 108.16 253.651 109C255.091 109.816 256.207 110.968 256.999 112.456C257.815 113.944 258.223 115.648 258.223 117.568ZM248.791 110.656C247.135 110.656 245.743 111.16 244.615 112.168C243.511 113.176 242.863 114.496 242.671 116.128H254.911C254.719 114.52 254.059 113.212 252.931 112.204C251.827 111.172 250.447 110.656 248.791 110.656ZM266.334 111.124C266.934 110.02 267.822 109.18 268.998 108.604C270.174 108.028 271.602 107.74 273.282 107.74V111.088C273.09 111.064 272.826 111.052 272.49 111.052C270.618 111.052 269.142 111.616 268.062 112.744C267.006 113.848 266.478 115.432 266.478 117.496V127H263.022V107.92H266.334V111.124ZM284.454 107.74C287.094 107.74 289.11 108.388 290.502 109.684C291.918 110.98 292.626 112.912 292.626 115.48V127H289.35V124.48C288.774 125.368 287.946 126.052 286.866 126.532C285.81 126.988 284.55 127.216 283.086 127.216C280.95 127.216 279.234 126.7 277.938 125.668C276.666 124.636 276.03 123.28 276.03 121.6C276.03 119.92 276.642 118.576 277.866 117.568C279.09 116.536 281.034 116.02 283.698 116.02H289.17V115.336C289.17 113.848 288.738 112.708 287.874 111.916C287.01 111.124 285.738 110.728 284.058 110.728C282.93 110.728 281.826 110.92 280.746 111.304C279.666 111.664 278.754 112.156 278.01 112.78L276.57 110.188C277.554 109.396 278.73 108.796 280.098 108.388C281.466 107.956 282.918 107.74 284.454 107.74ZM283.662 124.552C284.982 124.552 286.122 124.264 287.082 123.688C288.042 123.088 288.738 122.248 289.17 121.168V118.504H283.842C280.914 118.504 279.45 119.488 279.45 121.456C279.45 122.416 279.822 123.172 280.566 123.724C281.31 124.276 282.342 124.552 283.662 124.552ZM299.022 100.288H302.478V127H299.022V100.288ZM309.077 100.288H312.533V127H309.077V100.288ZM336.015 107.92L326.763 128.908C325.947 130.852 324.987 132.22 323.883 133.012C322.803 133.804 321.495 134.2 319.959 134.2C319.023 134.2 318.111 134.044 317.223 133.732C316.359 133.444 315.639 133.012 315.063 132.436L316.539 129.844C317.523 130.78 318.663 131.248 319.959 131.248C320.799 131.248 321.495 131.02 322.047 130.564C322.623 130.132 323.139 129.376 323.595 128.296L324.207 126.964L315.783 107.92H319.383L326.043 123.184L332.631 107.92H336.015ZM359.637 125.884C359.133 126.316 358.509 126.652 357.765 126.892C357.021 127.108 356.253 127.216 355.461 127.216C353.541 127.216 352.053 126.7 350.997 125.668C349.941 124.636 349.413 123.16 349.413 121.24V110.764H346.173V107.92H349.413V103.744H352.869V107.92H358.341V110.764H352.869V121.096C352.869 122.128 353.121 122.92 353.625 123.472C354.153 124.024 354.897 124.3 355.857 124.3C356.913 124.3 357.813 124 358.557 123.4L359.637 125.884ZM370.763 107.74C373.403 107.74 375.419 108.388 376.811 109.684C378.227 110.98 378.935 112.912 378.935 115.48V127H375.659V124.48C375.083 125.368 374.255 126.052 373.175 126.532C372.119 126.988 370.859 127.216 369.395 127.216C367.259 127.216 365.543 126.7 364.247 125.668C362.975 124.636 362.339 123.28 362.339 121.6C362.339 119.92 362.951 118.576 364.175 117.568C365.399 116.536 367.343 116.02 370.007 116.02H375.479V115.336C375.479 113.848 375.047 112.708 374.183 111.916C373.319 111.124 372.047 110.728 370.367 110.728C369.239 110.728 368.135 110.92 367.055 111.304C365.975 111.664 365.063 112.156 364.319 112.78L362.879 110.188C363.863 109.396 365.039 108.796 366.407 108.388C367.775 107.956 369.227 107.74 370.763 107.74ZM369.971 124.552C371.291 124.552 372.431 124.264 373.391 123.688C374.351 123.088 375.047 122.248 375.479 121.168V118.504H370.151C367.223 118.504 365.759 119.488 365.759 121.456C365.759 122.416 366.131 123.172 366.875 123.724C367.619 124.276 368.651 124.552 369.971 124.552ZM392.747 118.108L388.787 121.78V127H385.331V100.288H388.787V117.424L399.191 107.92H403.367L395.339 115.804L404.159 127H399.911L392.747 118.108ZM423.95 117.568C423.95 117.832 423.926 118.18 423.878 118.612H408.398C408.614 120.292 409.346 121.648 410.594 122.68C411.866 123.688 413.438 124.192 415.31 124.192C417.59 124.192 419.426 123.424 420.818 121.888L422.726 124.12C421.862 125.128 420.782 125.896 419.486 126.424C418.214 126.952 416.786 127.216 415.202 127.216C413.186 127.216 411.398 126.808 409.838 125.992C408.278 125.152 407.066 123.988 406.202 122.5C405.362 121.012 404.942 119.332 404.942 117.46C404.942 115.612 405.35 113.944 406.166 112.456C407.006 110.968 408.146 109.816 409.586 109C411.05 108.16 412.694 107.74 414.518 107.74C416.342 107.74 417.962 108.16 419.378 109C420.818 109.816 421.934 110.968 422.726 112.456C423.542 113.944 423.95 115.648 423.95 117.568ZM414.518 110.656C412.862 110.656 411.47 111.16 410.342 112.168C409.238 113.176 408.59 114.496 408.398 116.128H420.638C420.446 114.52 419.786 113.212 418.658 112.204C417.554 111.172 416.174 110.656 414.518 110.656ZM434.221 127.216C432.661 127.216 431.161 127.012 429.721 126.604C428.281 126.172 427.153 125.632 426.337 124.984L427.777 122.248C428.617 122.848 429.637 123.328 430.837 123.688C432.037 124.048 433.249 124.228 434.473 124.228C437.497 124.228 439.009 123.364 439.009 121.636C439.009 121.06 438.805 120.604 438.397 120.268C437.989 119.932 437.473 119.692 436.849 119.548C436.249 119.38 435.385 119.2 434.257 119.008C432.721 118.768 431.461 118.492 430.477 118.18C429.517 117.868 428.689 117.34 427.993 116.596C427.297 115.852 426.949 114.808 426.949 113.464C426.949 111.736 427.669 110.356 429.109 109.324C430.549 108.268 432.481 107.74 434.905 107.74C436.177 107.74 437.449 107.896 438.721 108.208C439.993 108.52 441.037 108.94 441.853 109.468L440.377 112.204C438.817 111.196 436.981 110.692 434.869 110.692C433.405 110.692 432.289 110.932 431.521 111.412C430.753 111.892 430.369 112.528 430.369 113.32C430.369 113.944 430.585 114.436 431.017 114.796C431.449 115.156 431.977 115.42 432.601 115.588C433.249 115.756 434.149 115.948 435.301 116.164C436.837 116.428 438.073 116.716 439.009 117.028C439.969 117.316 440.785 117.82 441.457 118.54C442.129 119.26 442.465 120.268 442.465 121.564C442.465 123.292 441.721 124.672 440.233 125.704C438.769 126.712 436.765 127.216 434.221 127.216ZM467.18 125.884C466.676 126.316 466.052 126.652 465.308 126.892C464.564 127.108 463.796 127.216 463.004 127.216C461.084 127.216 459.596 126.7 458.54 125.668C457.484 124.636 456.956 123.16 456.956 121.24V110.764H453.716V107.92H456.956V103.744H460.412V107.92H465.884V110.764H460.412V121.096C460.412 122.128 460.664 122.92 461.168 123.472C461.696 124.024 462.44 124.3 463.4 124.3C464.456 124.3 465.356 124 466.1 123.4L467.18 125.884ZM499.878 107.92L492.75 127H489.438L483.93 112.528L478.35 127H475.038L467.946 107.92H471.222L476.766 123.112L482.526 107.92H485.442L491.094 123.184L496.782 107.92H499.878ZM511.03 127.216C509.134 127.216 507.43 126.796 505.918 125.956C504.406 125.116 503.218 123.964 502.354 122.5C501.514 121.012 501.094 119.332 501.094 117.46C501.094 115.588 501.514 113.92 502.354 112.456C503.218 110.968 504.406 109.816 505.918 109C507.43 108.16 509.134 107.74 511.03 107.74C512.926 107.74 514.618 108.16 516.106 109C517.618 109.816 518.794 110.968 519.634 112.456C520.498 113.92 520.93 115.588 520.93 117.46C520.93 119.332 520.498 121.012 519.634 122.5C518.794 123.964 517.618 125.116 516.106 125.956C514.618 126.796 512.926 127.216 511.03 127.216ZM511.03 124.192C512.254 124.192 513.346 123.916 514.306 123.364C515.29 122.788 516.058 121.996 516.61 120.988C517.162 119.956 517.438 118.78 517.438 117.46C517.438 116.14 517.162 114.976 516.61 113.968C516.058 112.936 515.29 112.144 514.306 111.592C513.346 111.04 512.254 110.764 511.03 110.764C509.806 110.764 508.702 111.04 507.718 111.592C506.758 112.144 505.99 112.936 505.414 113.968C504.862 114.976 504.586 116.14 504.586 117.46C504.586 118.78 504.862 119.956 505.414 120.988C505.99 121.996 506.758 122.788 507.718 123.364C508.702 123.916 509.806 124.192 511.03 124.192ZM559.246 107.74C561.646 107.74 563.542 108.436 564.934 109.828C566.35 111.22 567.058 113.284 567.058 116.02V127H563.602V116.416C563.602 114.568 563.17 113.176 562.306 112.24C561.466 111.304 560.254 110.836 558.67 110.836C556.918 110.836 555.526 111.388 554.494 112.492C553.462 113.572 552.946 115.132 552.946 117.172V127H549.49V116.416C549.49 114.568 549.058 113.176 548.194 112.24C547.354 111.304 546.142 110.836 544.558 110.836C542.806 110.836 541.414 111.388 540.382 112.492C539.35 113.572 538.834 115.132 538.834 117.172V127H535.378V107.92H538.69V110.764C539.386 109.78 540.298 109.036 541.426 108.532C542.554 108.004 543.838 107.74 545.278 107.74C546.766 107.74 548.086 108.04 549.238 108.64C550.39 109.24 551.278 110.116 551.902 111.268C552.622 110.164 553.618 109.3 554.89 108.676C556.186 108.052 557.638 107.74 559.246 107.74ZM573.417 107.92H576.873V127H573.417V107.92ZM575.145 104.248C574.473 104.248 573.909 104.032 573.453 103.6C573.021 103.168 572.805 102.64 572.805 102.016C572.805 101.392 573.021 100.864 573.453 100.432C573.909 99.976 574.473 99.748 575.145 99.748C575.817 99.748 576.369 99.964 576.801 100.396C577.257 100.804 577.485 101.32 577.485 101.944C577.485 102.592 577.257 103.144 576.801 103.6C576.369 104.032 575.817 104.248 575.145 104.248ZM593.659 107.74C596.083 107.74 598.003 108.448 599.419 109.864C600.859 111.256 601.579 113.308 601.579 116.02V127H598.123V116.416C598.123 114.568 597.679 113.176 596.791 112.24C595.903 111.304 594.631 110.836 592.975 110.836C591.103 110.836 589.627 111.388 588.547 112.492C587.467 113.572 586.927 115.132 586.927 117.172V127H583.471V107.92H586.783V110.8C587.479 109.816 588.415 109.06 589.591 108.532C590.791 108.004 592.147 107.74 593.659 107.74ZM625.759 107.92V127H622.483V124.12C621.787 125.104 620.863 125.872 619.711 126.424C618.583 126.952 617.347 127.216 616.003 127.216C613.459 127.216 611.455 126.52 609.991 125.128C608.527 123.712 607.795 121.636 607.795 118.9V107.92H611.251V118.504C611.251 120.352 611.695 121.756 612.583 122.716C613.471 123.652 614.743 124.12 616.399 124.12C618.223 124.12 619.663 123.568 620.719 122.464C621.775 121.36 622.303 119.8 622.303 117.784V107.92H625.759ZM643.067 125.884C642.563 126.316 641.939 126.652 641.195 126.892C640.451 127.108 639.683 127.216 638.891 127.216C636.971 127.216 635.483 126.7 634.427 125.668C633.371 124.636 632.843 123.16 632.843 121.24V110.764H629.603V107.92H632.843V103.744H636.299V107.92H641.771V110.764H636.299V121.096C636.299 122.128 636.551 122.92 637.055 123.472C637.583 124.024 638.327 124.3 639.287 124.3C640.343 124.3 641.243 124 641.987 123.4L643.067 125.884ZM663.856 117.568C663.856 117.832 663.832 118.18 663.784 118.612H648.304C648.52 120.292 649.252 121.648 650.5 122.68C651.772 123.688 653.344 124.192 655.216 124.192C657.496 124.192 659.332 123.424 660.724 121.888L662.632 124.12C661.768 125.128 660.688 125.896 659.392 126.424C658.12 126.952 656.692 127.216 655.108 127.216C653.092 127.216 651.304 126.808 649.744 125.992C648.184 125.152 646.972 123.988 646.108 122.5C645.268 121.012 644.848 119.332 644.848 117.46C644.848 115.612 645.256 113.944 646.072 112.456C646.912 110.968 648.052 109.816 649.492 109C650.956 108.16 652.6 107.74 654.424 107.74C656.248 107.74 657.868 108.16 659.284 109C660.724 109.816 661.84 110.968 662.632 112.456C663.448 113.944 663.856 115.648 663.856 117.568ZM654.424 110.656C652.768 110.656 651.376 111.16 650.248 112.168C649.144 113.176 648.496 114.496 648.304 116.128H660.544C660.352 114.52 659.692 113.212 658.564 112.204C657.46 111.172 656.08 110.656 654.424 110.656ZM674.127 127.216C672.567 127.216 671.067 127.012 669.627 126.604C668.187 126.172 667.059 125.632 666.243 124.984L667.683 122.248C668.523 122.848 669.543 123.328 670.743 123.688C671.943 124.048 673.155 124.228 674.379 124.228C677.403 124.228 678.915 123.364 678.915 121.636C678.915 121.06 678.711 120.604 678.303 120.268C677.895 119.932 677.379 119.692 676.755 119.548C676.155 119.38 675.291 119.2 674.163 119.008C672.627 118.768 671.367 118.492 670.383 118.18C669.423 117.868 668.595 117.34 667.899 116.596C667.203 115.852 666.855 114.808 666.855 113.464C666.855 111.736 667.575 110.356 669.015 109.324C670.455 108.268 672.387 107.74 674.811 107.74C676.083 107.74 677.355 107.896 678.627 108.208C679.899 108.52 680.943 108.94 681.759 109.468L680.283 112.204C678.723 111.196 676.887 110.692 674.775 110.692C673.311 110.692 672.195 110.932 671.427 111.412C670.659 111.892 670.275 112.528 670.275 113.32C670.275 113.944 670.491 114.436 670.923 114.796C671.355 115.156 671.883 115.42 672.507 115.588C673.155 115.756 674.055 115.948 675.207 116.164C676.743 116.428 677.979 116.716 678.915 117.028C679.875 117.316 680.691 117.82 681.363 118.54C682.035 119.26 682.371 120.268 682.371 121.564C682.371 123.292 681.627 124.672 680.139 125.704C678.675 126.712 676.671 127.216 674.127 127.216ZM687.554 122.284C688.226 122.284 688.778 122.524 689.21 123.004C689.666 123.46 689.894 124.036 689.894 124.732C689.894 125.092 689.846 125.44 689.75 125.776C689.678 126.112 689.522 126.628 689.282 127.324L687.59 132.328H685.322L686.654 126.964C686.198 126.796 685.826 126.52 685.538 126.136C685.274 125.728 685.142 125.26 685.142 124.732C685.142 124.012 685.37 123.424 685.826 122.968C686.282 122.512 686.858 122.284 687.554 122.284ZM721.398 107.92L712.146 128.908C711.33 130.852 710.37 132.22 709.266 133.012C708.186 133.804 706.878 134.2 705.342 134.2C704.406 134.2 703.494 134.044 702.606 133.732C701.742 133.444 701.022 133.012 700.446 132.436L701.922 129.844C702.906 130.78 704.046 131.248 705.342 131.248C706.182 131.248 706.878 131.02 707.43 130.564C708.006 130.132 708.522 129.376 708.978 128.296L709.59 126.964L701.166 107.92H704.766L711.426 123.184L718.014 107.92H721.398ZM732.268 127.216C730.372 127.216 728.668 126.796 727.156 125.956C725.644 125.116 724.456 123.964 723.592 122.5C722.752 121.012 722.332 119.332 722.332 117.46C722.332 115.588 722.752 113.92 723.592 112.456C724.456 110.968 725.644 109.816 727.156 109C728.668 108.16 730.372 107.74 732.268 107.74C734.164 107.74 735.856 108.16 737.344 109C738.856 109.816 740.032 110.968 740.872 112.456C741.736 113.92 742.168 115.588 742.168 117.46C742.168 119.332 741.736 121.012 740.872 122.5C740.032 123.964 738.856 125.116 737.344 125.956C735.856 126.796 734.164 127.216 732.268 127.216ZM732.268 124.192C733.492 124.192 734.584 123.916 735.544 123.364C736.528 122.788 737.296 121.996 737.848 120.988C738.4 119.956 738.676 118.78 738.676 117.46C738.676 116.14 738.4 114.976 737.848 113.968C737.296 112.936 736.528 112.144 735.544 111.592C734.584 111.04 733.492 110.764 732.268 110.764C731.044 110.764 729.94 111.04 728.956 111.592C727.996 112.144 727.228 112.936 726.652 113.968C726.1 114.976 725.824 116.14 725.824 117.46C725.824 118.78 726.1 119.956 726.652 120.988C727.228 121.996 727.996 122.788 728.956 123.364C729.94 123.916 731.044 124.192 732.268 124.192ZM764.732 107.92V127H761.456V124.12C760.76 125.104 759.836 125.872 758.684 126.424C757.556 126.952 756.32 127.216 754.976 127.216C752.432 127.216 750.428 126.52 748.964 125.128C747.5 123.712 746.768 121.636 746.768 118.9V107.92H750.224V118.504C750.224 120.352 750.668 121.756 751.556 122.716C752.444 123.652 753.716 124.12 755.372 124.12C757.196 124.12 758.636 123.568 759.692 122.464C760.748 121.36 761.276 119.8 761.276 117.784V107.92H764.732ZM772.175 100.072C772.847 100.072 773.399 100.312 773.831 100.792C774.287 101.248 774.515 101.824 774.515 102.52C774.515 102.88 774.479 103.24 774.407 103.6C774.335 103.936 774.179 104.428 773.939 105.076L772.211 110.116H769.943L771.275 104.752C770.819 104.584 770.447 104.308 770.159 103.924C769.895 103.516 769.763 103.048 769.763 102.52C769.763 101.8 769.991 101.212 770.447 100.756C770.903 100.3 771.479 100.072 772.175 100.072ZM779.467 100.288H782.923V127H779.467V100.288ZM789.522 100.288H792.978V127H789.522V100.288ZM205.392 151.74C207.24 151.74 208.896 152.148 210.36 152.964C211.824 153.78 212.964 154.92 213.78 156.384C214.62 157.848 215.04 159.54 215.04 161.46C215.04 163.38 214.62 165.084 213.78 166.572C212.964 168.036 211.824 169.176 210.36 169.992C208.896 170.808 207.24 171.216 205.392 171.216C203.976 171.216 202.68 170.94 201.504 170.388C200.328 169.836 199.356 169.032 198.588 167.976V171H195.276V144.288H198.732V154.8C199.5 153.792 200.46 153.036 201.612 152.532C202.764 152.004 204.024 151.74 205.392 151.74ZM205.104 168.192C206.328 168.192 207.42 167.916 208.38 167.364C209.364 166.788 210.132 165.996 210.684 164.988C211.26 163.956 211.548 162.78 211.548 161.46C211.548 160.14 211.26 158.976 210.684 157.968C210.132 156.936 209.364 156.144 208.38 155.592C207.42 155.04 206.328 154.764 205.104 154.764C203.904 154.764 202.812 155.04 201.828 155.592C200.844 156.144 200.076 156.936 199.524 157.968C198.972 158.976 198.696 160.14 198.696 161.46C198.696 162.78 198.972 163.956 199.524 164.988C200.076 165.996 200.844 166.788 201.828 167.364C202.812 167.916 203.904 168.192 205.104 168.192ZM237.059 161.568C237.059 161.832 237.035 162.18 236.987 162.612H221.507C221.723 164.292 222.455 165.648 223.703 166.68C224.975 167.688 226.547 168.192 228.419 168.192C230.699 168.192 232.535 167.424 233.927 165.888L235.835 168.12C234.971 169.128 233.891 169.896 232.595 170.424C231.323 170.952 229.895 171.216 228.311 171.216C226.295 171.216 224.507 170.808 222.947 169.992C221.387 169.152 220.175 167.988 219.311 166.5C218.471 165.012 218.051 163.332 218.051 161.46C218.051 159.612 218.459 157.944 219.275 156.456C220.115 154.968 221.255 153.816 222.695 153C224.159 152.16 225.803 151.74 227.627 151.74C229.451 151.74 231.071 152.16 232.487 153C233.927 153.816 235.043 154.968 235.835 156.456C236.651 157.944 237.059 159.648 237.059 161.568ZM227.627 154.656C225.971 154.656 224.579 155.16 223.451 156.168C222.347 157.176 221.699 158.496 221.507 160.128H233.747C233.555 158.52 232.895 157.212 231.767 156.204C230.663 155.172 229.283 154.656 227.627 154.656ZM269.778 151.92V168.408C269.778 171.744 268.95 174.204 267.294 175.788C265.638 177.396 263.166 178.2 259.878 178.2C258.078 178.2 256.362 177.948 254.73 177.444C253.098 176.964 251.778 176.268 250.77 175.356L252.426 172.692C253.314 173.46 254.406 174.06 255.702 174.492C257.022 174.948 258.378 175.176 259.77 175.176C262.002 175.176 263.646 174.648 264.702 173.592C265.782 172.536 266.322 170.928 266.322 168.768V167.256C265.506 168.24 264.498 168.984 263.298 169.488C262.122 169.968 260.838 170.208 259.446 170.208C257.622 170.208 255.966 169.824 254.478 169.056C253.014 168.264 251.862 167.172 251.022 165.78C250.182 164.364 249.762 162.756 249.762 160.956C249.762 159.156 250.182 157.56 251.022 156.168C251.862 154.752 253.014 153.66 254.478 152.892C255.966 152.124 257.622 151.74 259.446 151.74C260.886 151.74 262.218 152.004 263.442 152.532C264.69 153.06 265.71 153.84 266.502 154.872V151.92H269.778ZM259.842 167.184C261.09 167.184 262.206 166.92 263.19 166.392C264.198 165.864 264.978 165.132 265.53 164.196C266.106 163.236 266.394 162.156 266.394 160.956C266.394 159.108 265.782 157.62 264.558 156.492C263.334 155.34 261.762 154.764 259.842 154.764C257.898 154.764 256.314 155.34 255.09 156.492C253.866 157.62 253.254 159.108 253.254 160.956C253.254 162.156 253.53 163.236 254.082 164.196C254.658 165.132 255.438 165.864 256.422 166.392C257.43 166.92 258.57 167.184 259.842 167.184ZM293.625 161.568C293.625 161.832 293.601 162.18 293.553 162.612H278.073C278.289 164.292 279.021 165.648 280.269 166.68C281.541 167.688 283.113 168.192 284.985 168.192C287.265 168.192 289.101 167.424 290.493 165.888L292.401 168.12C291.537 169.128 290.457 169.896 289.161 170.424C287.889 170.952 286.461 171.216 284.877 171.216C282.861 171.216 281.073 170.808 279.513 169.992C277.953 169.152 276.741 167.988 275.877 166.5C275.037 165.012 274.617 163.332 274.617 161.46C274.617 159.612 275.025 157.944 275.841 156.456C276.681 154.968 277.821 153.816 279.261 153C280.725 152.16 282.369 151.74 284.193 151.74C286.017 151.74 287.637 152.16 289.053 153C290.493 153.816 291.609 154.968 292.401 156.456C293.217 157.944 293.625 159.648 293.625 161.568ZM284.193 154.656C282.537 154.656 281.145 155.16 280.017 156.168C278.913 157.176 278.265 158.496 278.073 160.128H290.313C290.121 158.52 289.461 157.212 288.333 156.204C287.229 155.172 285.849 154.656 284.193 154.656ZM309.152 169.884C308.648 170.316 308.024 170.652 307.28 170.892C306.536 171.108 305.768 171.216 304.976 171.216C303.056 171.216 301.568 170.7 300.512 169.668C299.456 168.636 298.928 167.16 298.928 165.24V154.764H295.688V151.92H298.928V147.744H302.384V151.92H307.856V154.764H302.384V165.096C302.384 166.128 302.636 166.92 303.14 167.472C303.668 168.024 304.412 168.3 305.372 168.3C306.428 168.3 307.328 168 308.072 167.4L309.152 169.884ZM323.602 169.884C323.098 170.316 322.474 170.652 321.73 170.892C320.986 171.108 320.218 171.216 319.426 171.216C317.506 171.216 316.018 170.7 314.962 169.668C313.906 168.636 313.378 167.16 313.378 165.24V154.764H310.138V151.92H313.378V147.744H316.834V151.92H322.306V154.764H316.834V165.096C316.834 166.128 317.086 166.92 317.59 167.472C318.118 168.024 318.862 168.3 319.822 168.3C320.878 168.3 321.778 168 322.522 167.4L323.602 169.884ZM327.78 151.92H331.236V171H327.78V151.92ZM329.508 148.248C328.836 148.248 328.272 148.032 327.816 147.6C327.384 147.168 327.168 146.64 327.168 146.016C327.168 145.392 327.384 144.864 327.816 144.432C328.272 143.976 328.836 143.748 329.508 143.748C330.18 143.748 330.732 143.964 331.164 144.396C331.62 144.804 331.848 145.32 331.848 145.944C331.848 146.592 331.62 147.144 331.164 147.6C330.732 148.032 330.18 148.248 329.508 148.248ZM348.023 151.74C350.447 151.74 352.367 152.448 353.783 153.864C355.223 155.256 355.943 157.308 355.943 160.02V171H352.487V160.416C352.487 158.568 352.043 157.176 351.155 156.24C350.267 155.304 348.995 154.836 347.339 154.836C345.467 154.836 343.991 155.388 342.911 156.492C341.831 157.572 341.291 159.132 341.291 161.172V171H337.835V151.92H341.147V154.8C341.843 153.816 342.779 153.06 343.955 152.532C345.155 152.004 346.511 151.74 348.023 151.74ZM380.696 151.92V168.408C380.696 171.744 379.868 174.204 378.212 175.788C376.556 177.396 374.084 178.2 370.796 178.2C368.996 178.2 367.28 177.948 365.648 177.444C364.016 176.964 362.696 176.268 361.688 175.356L363.344 172.692C364.232 173.46 365.324 174.06 366.62 174.492C367.94 174.948 369.296 175.176 370.688 175.176C372.92 175.176 374.564 174.648 375.62 173.592C376.7 172.536 377.24 170.928 377.24 168.768V167.256C376.424 168.24 375.416 168.984 374.216 169.488C373.04 169.968 371.756 170.208 370.364 170.208C368.54 170.208 366.884 169.824 365.396 169.056C363.932 168.264 362.78 167.172 361.94 165.78C361.1 164.364 360.68 162.756 360.68 160.956C360.68 159.156 361.1 157.56 361.94 156.168C362.78 154.752 363.932 153.66 365.396 152.892C366.884 152.124 368.54 151.74 370.364 151.74C371.804 151.74 373.136 152.004 374.36 152.532C375.608 153.06 376.628 153.84 377.42 154.872V151.92H380.696ZM370.76 167.184C372.008 167.184 373.124 166.92 374.108 166.392C375.116 165.864 375.896 165.132 376.448 164.196C377.024 163.236 377.312 162.156 377.312 160.956C377.312 159.108 376.7 157.62 375.476 156.492C374.252 155.34 372.68 154.764 370.76 154.764C368.816 154.764 367.232 155.34 366.008 156.492C364.784 157.62 364.172 159.108 364.172 160.956C364.172 162.156 364.448 163.236 365 164.196C365.576 165.132 366.356 165.864 367.34 166.392C368.348 166.92 369.488 167.184 370.76 167.184ZM403.915 151.74C406.555 151.74 408.571 152.388 409.963 153.684C411.379 154.98 412.087 156.912 412.087 159.48V171H408.811V168.48C408.235 169.368 407.407 170.052 406.327 170.532C405.271 170.988 404.011 171.216 402.547 171.216C400.411 171.216 398.695 170.7 397.399 169.668C396.127 168.636 395.491 167.28 395.491 165.6C395.491 163.92 396.103 162.576 397.327 161.568C398.551 160.536 400.495 160.02 403.159 160.02H408.631V159.336C408.631 157.848 408.199 156.708 407.335 155.916C406.471 155.124 405.199 154.728 403.519 154.728C402.391 154.728 401.287 154.92 400.207 155.304C399.127 155.664 398.215 156.156 397.471 156.78L396.031 154.188C397.015 153.396 398.191 152.796 399.559 152.388C400.927 151.956 402.379 151.74 403.915 151.74ZM403.123 168.552C404.443 168.552 405.583 168.264 406.543 167.688C407.503 167.088 408.199 166.248 408.631 165.168V162.504H403.303C400.375 162.504 398.911 163.488 398.911 165.456C398.911 166.416 399.283 167.172 400.027 167.724C400.771 168.276 401.803 168.552 403.123 168.552ZM438.339 151.74C440.763 151.74 442.683 152.448 444.099 153.864C445.539 155.256 446.259 157.308 446.259 160.02V171H442.803V160.416C442.803 158.568 442.359 157.176 441.471 156.24C440.583 155.304 439.311 154.836 437.655 154.836C435.783 154.836 434.307 155.388 433.227 156.492C432.147 157.572 431.607 159.132 431.607 161.172V171H428.151V151.92H431.463V154.8C432.159 153.816 433.095 153.06 434.271 152.532C435.471 152.004 436.827 151.74 438.339 151.74ZM460.932 171.216C459.036 171.216 457.332 170.796 455.82 169.956C454.308 169.116 453.12 167.964 452.256 166.5C451.416 165.012 450.996 163.332 450.996 161.46C450.996 159.588 451.416 157.92 452.256 156.456C453.12 154.968 454.308 153.816 455.82 153C457.332 152.16 459.036 151.74 460.932 151.74C462.828 151.74 464.52 152.16 466.008 153C467.52 153.816 468.696 154.968 469.536 156.456C470.4 157.92 470.832 159.588 470.832 161.46C470.832 163.332 470.4 165.012 469.536 166.5C468.696 167.964 467.52 169.116 466.008 169.956C464.52 170.796 462.828 171.216 460.932 171.216ZM460.932 168.192C462.156 168.192 463.248 167.916 464.208 167.364C465.192 166.788 465.96 165.996 466.512 164.988C467.064 163.956 467.34 162.78 467.34 161.46C467.34 160.14 467.064 158.976 466.512 157.968C465.96 156.936 465.192 156.144 464.208 155.592C463.248 155.04 462.156 154.764 460.932 154.764C459.708 154.764 458.604 155.04 457.62 155.592C456.66 156.144 455.892 156.936 455.316 157.968C454.764 158.976 454.488 160.14 454.488 161.46C454.488 162.78 454.764 163.956 455.316 164.988C455.892 165.996 456.66 166.788 457.62 167.364C458.604 167.916 459.708 168.192 460.932 168.192ZM486.34 169.884C485.836 170.316 485.212 170.652 484.468 170.892C483.724 171.108 482.956 171.216 482.164 171.216C480.244 171.216 478.756 170.7 477.7 169.668C476.644 168.636 476.116 167.16 476.116 165.24V154.764H472.876V151.92H476.116V147.744H479.572V151.92H485.044V154.764H479.572V165.096C479.572 166.128 479.824 166.92 480.328 167.472C480.856 168.024 481.6 168.3 482.56 168.3C483.616 168.3 484.516 168 485.26 167.4L486.34 169.884ZM490.518 151.92H493.974V171H490.518V151.92ZM492.246 148.248C491.574 148.248 491.01 148.032 490.554 147.6C490.122 147.168 489.906 146.64 489.906 146.016C489.906 145.392 490.122 144.864 490.554 144.432C491.01 143.976 491.574 143.748 492.246 143.748C492.918 143.748 493.47 143.964 493.902 144.396C494.358 144.804 494.586 145.32 494.586 145.944C494.586 146.592 494.358 147.144 493.902 147.6C493.47 148.032 492.918 148.248 492.246 148.248ZM507.557 146.916C505.493 146.916 504.461 148.032 504.461 150.264V151.92H510.005V154.764H504.533V171H501.077V154.764H497.837V151.92H501.077V150.228C501.077 148.332 501.629 146.832 502.733 145.728C503.837 144.624 505.385 144.072 507.377 144.072C508.145 144.072 508.865 144.168 509.537 144.36C510.209 144.552 510.785 144.828 511.265 145.188L510.221 147.816C509.429 147.216 508.541 146.916 507.557 146.916ZM516.161 151.92H519.617V171H516.161V151.92ZM517.889 148.248C517.217 148.248 516.653 148.032 516.197 147.6C515.765 147.168 515.549 146.64 515.549 146.016C515.549 145.392 515.765 144.864 516.197 144.432C516.653 143.976 517.217 143.748 517.889 143.748C518.561 143.748 519.113 143.964 519.545 144.396C520.001 144.804 520.229 145.32 520.229 145.944C520.229 146.592 520.001 147.144 519.545 147.6C519.113 148.032 518.561 148.248 517.889 148.248ZM534.518 171.216C532.574 171.216 530.834 170.796 529.298 169.956C527.786 169.116 526.598 167.964 525.734 166.5C524.87 165.012 524.438 163.332 524.438 161.46C524.438 159.588 524.87 157.92 525.734 156.456C526.598 154.968 527.786 153.816 529.298 153C530.834 152.16 532.574 151.74 534.518 151.74C536.246 151.74 537.782 152.088 539.126 152.784C540.494 153.48 541.55 154.488 542.294 155.808L539.666 157.5C539.066 156.588 538.322 155.904 537.434 155.448C536.546 154.992 535.562 154.764 534.482 154.764C533.234 154.764 532.106 155.04 531.098 155.592C530.114 156.144 529.334 156.936 528.758 157.968C528.206 158.976 527.93 160.14 527.93 161.46C527.93 162.804 528.206 163.992 528.758 165.024C529.334 166.032 530.114 166.812 531.098 167.364C532.106 167.916 533.234 168.192 534.482 168.192C535.562 168.192 536.546 167.964 537.434 167.508C538.322 167.052 539.066 166.368 539.666 165.456L542.294 167.112C541.55 168.432 540.494 169.452 539.126 170.172C537.782 170.868 536.246 171.216 534.518 171.216ZM553.716 151.74C556.356 151.74 558.372 152.388 559.764 153.684C561.18 154.98 561.888 156.912 561.888 159.48V171H558.612V168.48C558.036 169.368 557.208 170.052 556.128 170.532C555.072 170.988 553.812 171.216 552.348 171.216C550.212 171.216 548.496 170.7 547.2 169.668C545.928 168.636 545.292 167.28 545.292 165.6C545.292 163.92 545.904 162.576 547.128 161.568C548.352 160.536 550.296 160.02 552.96 160.02H558.432V159.336C558.432 157.848 558 156.708 557.136 155.916C556.272 155.124 555 154.728 553.32 154.728C552.192 154.728 551.088 154.92 550.008 155.304C548.928 155.664 548.016 156.156 547.272 156.78L545.832 154.188C546.816 153.396 547.992 152.796 549.36 152.388C550.728 151.956 552.18 151.74 553.716 151.74ZM552.924 168.552C554.244 168.552 555.384 168.264 556.344 167.688C557.304 167.088 558 166.248 558.432 165.168V162.504H553.104C550.176 162.504 548.712 163.488 548.712 165.456C548.712 166.416 549.084 167.172 549.828 167.724C550.572 168.276 551.604 168.552 552.924 168.552ZM579.012 169.884C578.508 170.316 577.884 170.652 577.14 170.892C576.396 171.108 575.628 171.216 574.836 171.216C572.916 171.216 571.428 170.7 570.372 169.668C569.316 168.636 568.788 167.16 568.788 165.24V154.764H565.548V151.92H568.788V147.744H572.244V151.92H577.716V154.764H572.244V165.096C572.244 166.128 572.496 166.92 573 167.472C573.528 168.024 574.272 168.3 575.232 168.3C576.288 168.3 577.188 168 577.932 167.4L579.012 169.884ZM583.19 151.92H586.646V171H583.19V151.92ZM584.918 148.248C584.246 148.248 583.682 148.032 583.226 147.6C582.794 147.168 582.578 146.64 582.578 146.016C582.578 145.392 582.794 144.864 583.226 144.432C583.682 143.976 584.246 143.748 584.918 143.748C585.59 143.748 586.142 143.964 586.574 144.396C587.03 144.804 587.258 145.32 587.258 145.944C587.258 146.592 587.03 147.144 586.574 147.6C586.142 148.032 585.59 148.248 584.918 148.248ZM601.417 171.216C599.521 171.216 597.817 170.796 596.305 169.956C594.793 169.116 593.605 167.964 592.741 166.5C591.901 165.012 591.481 163.332 591.481 161.46C591.481 159.588 591.901 157.92 592.741 156.456C593.605 154.968 594.793 153.816 596.305 153C597.817 152.16 599.521 151.74 601.417 151.74C603.313 151.74 605.005 152.16 606.493 153C608.005 153.816 609.181 154.968 610.021 156.456C610.885 157.92 611.317 159.588 611.317 161.46C611.317 163.332 610.885 165.012 610.021 166.5C609.181 167.964 608.005 169.116 606.493 169.956C605.005 170.796 603.313 171.216 601.417 171.216ZM601.417 168.192C602.641 168.192 603.733 167.916 604.693 167.364C605.677 166.788 606.445 165.996 606.997 164.988C607.549 163.956 607.825 162.78 607.825 161.46C607.825 160.14 607.549 158.976 606.997 157.968C606.445 156.936 605.677 156.144 604.693 155.592C603.733 155.04 602.641 154.764 601.417 154.764C600.193 154.764 599.089 155.04 598.105 155.592C597.145 156.144 596.377 156.936 595.801 157.968C595.249 158.976 594.973 160.14 594.973 161.46C594.973 162.78 595.249 163.956 595.801 164.988C596.377 165.996 597.145 166.788 598.105 167.364C599.089 167.916 600.193 168.192 601.417 168.192ZM626.284 151.74C628.708 151.74 630.628 152.448 632.044 153.864C633.484 155.256 634.204 157.308 634.204 160.02V171H630.748V160.416C630.748 158.568 630.304 157.176 629.416 156.24C628.528 155.304 627.256 154.836 625.6 154.836C623.728 154.836 622.252 155.388 621.172 156.492C620.092 157.572 619.552 159.132 619.552 161.172V171H616.096V151.92H619.408V154.8C620.104 153.816 621.04 153.06 622.216 152.532C623.416 152.004 624.772 151.74 626.284 151.74ZM657.216 151.74C659.856 151.74 661.872 152.388 663.264 153.684C664.68 154.98 665.388 156.912 665.388 159.48V171H662.112V168.48C661.536 169.368 660.708 170.052 659.628 170.532C658.572 170.988 657.312 171.216 655.848 171.216C653.712 171.216 651.996 170.7 650.7 169.668C649.428 168.636 648.792 167.28 648.792 165.6C648.792 163.92 649.404 162.576 650.628 161.568C651.852 160.536 653.796 160.02 656.46 160.02H661.932V159.336C661.932 157.848 661.5 156.708 660.636 155.916C659.772 155.124 658.5 154.728 656.82 154.728C655.692 154.728 654.588 154.92 653.508 155.304C652.428 155.664 651.516 156.156 650.772 156.78L649.332 154.188C650.316 153.396 651.492 152.796 652.86 152.388C654.228 151.956 655.68 151.74 657.216 151.74ZM656.424 168.552C657.744 168.552 658.884 168.264 659.844 167.688C660.804 167.088 661.5 166.248 661.932 165.168V162.504H656.604C653.676 162.504 652.212 163.488 652.212 165.456C652.212 166.416 652.584 167.172 653.328 167.724C654.072 168.276 655.104 168.552 656.424 168.552ZM681.9 151.74C683.748 151.74 685.404 152.148 686.868 152.964C688.332 153.78 689.472 154.92 690.288 156.384C691.128 157.848 691.548 159.54 691.548 161.46C691.548 163.38 691.128 165.084 690.288 166.572C689.472 168.036 688.332 169.176 686.868 169.992C685.404 170.808 683.748 171.216 681.9 171.216C680.532 171.216 679.272 170.952 678.12 170.424C676.992 169.896 676.032 169.128 675.24 168.12V177.984H671.784V151.92H675.096V154.944C675.864 153.888 676.836 153.096 678.012 152.568C679.188 152.016 680.484 151.74 681.9 151.74ZM681.612 168.192C682.836 168.192 683.928 167.916 684.888 167.364C685.872 166.788 686.64 165.996 687.192 164.988C687.768 163.956 688.056 162.78 688.056 161.46C688.056 160.14 687.768 158.976 687.192 157.968C686.64 156.936 685.872 156.144 684.888 155.592C683.928 155.04 682.836 154.764 681.612 154.764C680.412 154.764 679.32 155.052 678.336 155.628C677.376 156.18 676.608 156.96 676.032 157.968C675.48 158.976 675.204 160.14 675.204 161.46C675.204 162.78 675.48 163.956 676.032 164.988C676.584 165.996 677.352 166.788 678.336 167.364C679.32 167.916 680.412 168.192 681.612 168.192ZM706.439 151.74C708.287 151.74 709.943 152.148 711.407 152.964C712.871 153.78 714.011 154.92 714.827 156.384C715.667 157.848 716.087 159.54 716.087 161.46C716.087 163.38 715.667 165.084 714.827 166.572C714.011 168.036 712.871 169.176 711.407 169.992C709.943 170.808 708.287 171.216 706.439 171.216C705.071 171.216 703.811 170.952 702.659 170.424C701.531 169.896 700.571 169.128 699.779 168.12V177.984H696.323V151.92H699.635V154.944C700.403 153.888 701.375 153.096 702.551 152.568C703.727 152.016 705.023 151.74 706.439 151.74ZM706.151 168.192C707.375 168.192 708.467 167.916 709.427 167.364C710.411 166.788 711.179 165.996 711.731 164.988C712.307 163.956 712.595 162.78 712.595 161.46C712.595 160.14 712.307 158.976 711.731 157.968C711.179 156.936 710.411 156.144 709.427 155.592C708.467 155.04 707.375 154.764 706.151 154.764C704.951 154.764 703.859 155.052 702.875 155.628C701.915 156.18 701.147 156.96 700.571 157.968C700.019 158.976 699.743 160.14 699.743 161.46C699.743 162.78 700.019 163.956 700.571 164.988C701.123 165.996 701.891 166.788 702.875 167.364C703.859 167.916 704.951 168.192 706.151 168.192ZM724.174 155.124C724.774 154.02 725.662 153.18 726.838 152.604C728.014 152.028 729.442 151.74 731.122 151.74V155.088C730.93 155.064 730.666 155.052 730.33 155.052C728.458 155.052 726.982 155.616 725.902 156.744C724.846 157.848 724.318 159.432 724.318 161.496V171H720.862V151.92H724.174V155.124ZM743.378 171.216C741.482 171.216 739.778 170.796 738.266 169.956C736.754 169.116 735.566 167.964 734.702 166.5C733.862 165.012 733.442 163.332 733.442 161.46C733.442 159.588 733.862 157.92 734.702 156.456C735.566 154.968 736.754 153.816 738.266 153C739.778 152.16 741.482 151.74 743.378 151.74C745.274 151.74 746.966 152.16 748.454 153C749.966 153.816 751.142 154.968 751.982 156.456C752.846 157.92 753.278 159.588 753.278 161.46C753.278 163.332 752.846 165.012 751.982 166.5C751.142 167.964 749.966 169.116 748.454 169.956C746.966 170.796 745.274 171.216 743.378 171.216ZM743.378 168.192C744.602 168.192 745.694 167.916 746.654 167.364C747.638 166.788 748.406 165.996 748.958 164.988C749.51 163.956 749.786 162.78 749.786 161.46C749.786 160.14 749.51 158.976 748.958 157.968C748.406 156.936 747.638 156.144 746.654 155.592C745.694 155.04 744.602 154.764 743.378 154.764C742.154 154.764 741.05 155.04 740.066 155.592C739.106 156.144 738.338 156.936 737.762 157.968C737.21 158.976 736.934 160.14 736.934 161.46C736.934 162.78 737.21 163.956 737.762 164.988C738.338 165.996 739.106 166.788 740.066 167.364C741.05 167.916 742.154 168.192 743.378 168.192ZM774.414 151.92L766.062 171H762.534L754.182 151.92H757.782L764.334 167.22L771.03 151.92H774.414ZM783.99 151.74C786.63 151.74 788.646 152.388 790.038 153.684C791.454 154.98 792.162 156.912 792.162 159.48V171H788.886V168.48C788.31 169.368 787.482 170.052 786.402 170.532C785.346 170.988 784.086 171.216 782.622 171.216C780.486 171.216 778.77 170.7 777.474 169.668C776.202 168.636 775.566 167.28 775.566 165.6C775.566 163.92 776.178 162.576 777.402 161.568C778.626 160.536 780.57 160.02 783.234 160.02H788.706V159.336C788.706 157.848 788.274 156.708 787.41 155.916C786.546 155.124 785.274 154.728 783.594 154.728C782.466 154.728 781.362 154.92 780.282 155.304C779.202 155.664 778.29 156.156 777.546 156.78L776.106 154.188C777.09 153.396 778.266 152.796 779.634 152.388C781.002 151.956 782.454 151.74 783.99 151.74ZM783.198 168.552C784.518 168.552 785.658 168.264 786.618 167.688C787.578 167.088 788.274 166.248 788.706 165.168V162.504H783.378C780.45 162.504 778.986 163.488 778.986 165.456C778.986 166.416 779.358 167.172 780.102 167.724C780.846 168.276 781.878 168.552 783.198 168.552ZM798.557 144.288H802.013V171H798.557V144.288ZM202.224 195.74C204.864 195.74 206.88 196.388 208.272 197.684C209.688 198.98 210.396 200.912 210.396 203.48V215H207.12V212.48C206.544 213.368 205.716 214.052 204.636 214.532C203.58 214.988 202.32 215.216 200.856 215.216C198.72 215.216 197.004 214.7 195.708 213.668C194.436 212.636 193.8 211.28 193.8 209.6C193.8 207.92 194.412 206.576 195.636 205.568C196.86 204.536 198.804 204.02 201.468 204.02H206.94V203.336C206.94 201.848 206.508 200.708 205.644 199.916C204.78 199.124 203.508 198.728 201.828 198.728C200.7 198.728 199.596 198.92 198.516 199.304C197.436 199.664 196.524 200.156 195.78 200.78L194.34 198.188C195.324 197.396 196.5 196.796 197.868 196.388C199.236 195.956 200.688 195.74 202.224 195.74ZM201.432 212.552C202.752 212.552 203.892 212.264 204.852 211.688C205.812 211.088 206.508 210.248 206.94 209.168V206.504H201.612C198.684 206.504 197.22 207.488 197.22 209.456C197.22 210.416 197.592 211.172 198.336 211.724C199.08 212.276 200.112 212.552 201.432 212.552ZM222.264 215.216C220.704 215.216 219.204 215.012 217.764 214.604C216.324 214.172 215.196 213.632 214.38 212.984L215.82 210.248C216.66 210.848 217.68 211.328 218.88 211.688C220.08 212.048 221.292 212.228 222.516 212.228C225.54 212.228 227.052 211.364 227.052 209.636C227.052 209.06 226.848 208.604 226.44 208.268C226.032 207.932 225.516 207.692 224.892 207.548C224.292 207.38 223.428 207.2 222.3 207.008C220.764 206.768 219.504 206.492 218.52 206.18C217.56 205.868 216.732 205.34 216.036 204.596C215.34 203.852 214.992 202.808 214.992 201.464C214.992 199.736 215.712 198.356 217.152 197.324C218.592 196.268 220.524 195.74 222.948 195.74C224.22 195.74 225.492 195.896 226.764 196.208C228.036 196.52 229.08 196.94 229.896 197.468L228.42 200.204C226.86 199.196 225.024 198.692 222.912 198.692C221.448 198.692 220.332 198.932 219.564 199.412C218.796 199.892 218.412 200.528 218.412 201.32C218.412 201.944 218.628 202.436 219.06 202.796C219.492 203.156 220.02 203.42 220.644 203.588C221.292 203.756 222.192 203.948 223.344 204.164C224.88 204.428 226.116 204.716 227.052 205.028C228.012 205.316 228.828 205.82 229.5 206.54C230.172 207.26 230.508 208.268 230.508 209.564C230.508 211.292 229.764 212.672 228.276 213.704C226.812 214.712 224.808 215.216 222.264 215.216ZM249.967 215.216C248.407 215.216 246.907 215.012 245.467 214.604C244.027 214.172 242.899 213.632 242.083 212.984L243.523 210.248C244.363 210.848 245.383 211.328 246.583 211.688C247.783 212.048 248.995 212.228 250.219 212.228C253.243 212.228 254.755 211.364 254.755 209.636C254.755 209.06 254.551 208.604 254.143 208.268C253.735 207.932 253.219 207.692 252.595 207.548C251.995 207.38 251.131 207.2 250.003 207.008C248.467 206.768 247.207 206.492 246.223 206.18C245.263 205.868 244.435 205.34 243.739 204.596C243.043 203.852 242.695 202.808 242.695 201.464C242.695 199.736 243.415 198.356 244.855 197.324C246.295 196.268 248.227 195.74 250.651 195.74C251.923 195.74 253.195 195.896 254.467 196.208C255.739 196.52 256.783 196.94 257.599 197.468L256.123 200.204C254.563 199.196 252.727 198.692 250.615 198.692C249.151 198.692 248.035 198.932 247.267 199.412C246.499 199.892 246.115 200.528 246.115 201.32C246.115 201.944 246.331 202.436 246.763 202.796C247.195 203.156 247.723 203.42 248.347 203.588C248.995 203.756 249.895 203.948 251.047 204.164C252.583 204.428 253.819 204.716 254.755 205.028C255.715 205.316 256.531 205.82 257.203 206.54C257.875 207.26 258.211 208.268 258.211 209.564C258.211 211.292 257.467 212.672 255.979 213.704C254.515 214.712 252.511 215.216 249.967 215.216ZM270.702 215.216C268.806 215.216 267.102 214.796 265.59 213.956C264.078 213.116 262.89 211.964 262.026 210.5C261.186 209.012 260.766 207.332 260.766 205.46C260.766 203.588 261.186 201.92 262.026 200.456C262.89 198.968 264.078 197.816 265.59 197C267.102 196.16 268.806 195.74 270.702 195.74C272.598 195.74 274.29 196.16 275.778 197C277.29 197.816 278.466 198.968 279.306 200.456C280.17 201.92 280.602 203.588 280.602 205.46C280.602 207.332 280.17 209.012 279.306 210.5C278.466 211.964 277.29 213.116 275.778 213.956C274.29 214.796 272.598 215.216 270.702 215.216ZM270.702 212.192C271.926 212.192 273.018 211.916 273.978 211.364C274.962 210.788 275.73 209.996 276.282 208.988C276.834 207.956 277.11 206.78 277.11 205.46C277.11 204.14 276.834 202.976 276.282 201.968C275.73 200.936 274.962 200.144 273.978 199.592C273.018 199.04 271.926 198.764 270.702 198.764C269.478 198.764 268.374 199.04 267.39 199.592C266.43 200.144 265.662 200.936 265.086 201.968C264.534 202.976 264.258 204.14 264.258 205.46C264.258 206.78 264.534 207.956 265.086 208.988C265.662 209.996 266.43 210.788 267.39 211.364C268.374 211.916 269.478 212.192 270.702 212.192ZM293.553 215.216C291.657 215.216 289.953 214.796 288.441 213.956C286.929 213.116 285.741 211.964 284.877 210.5C284.037 209.012 283.617 207.332 283.617 205.46C283.617 203.588 284.037 201.92 284.877 200.456C285.741 198.968 286.929 197.816 288.441 197C289.953 196.16 291.657 195.74 293.553 195.74C295.449 195.74 297.141 196.16 298.629 197C300.141 197.816 301.317 198.968 302.157 200.456C303.021 201.92 303.453 203.588 303.453 205.46C303.453 207.332 303.021 209.012 302.157 210.5C301.317 211.964 300.141 213.116 298.629 213.956C297.141 214.796 295.449 215.216 293.553 215.216ZM293.553 212.192C294.777 212.192 295.869 211.916 296.829 211.364C297.813 210.788 298.581 209.996 299.133 208.988C299.685 207.956 299.961 206.78 299.961 205.46C299.961 204.14 299.685 202.976 299.133 201.968C298.581 200.936 297.813 200.144 296.829 199.592C295.869 199.04 294.777 198.764 293.553 198.764C292.329 198.764 291.225 199.04 290.241 199.592C289.281 200.144 288.513 200.936 287.937 201.968C287.385 202.976 287.109 204.14 287.109 205.46C287.109 206.78 287.385 207.956 287.937 208.988C288.513 209.996 289.281 210.788 290.241 211.364C291.225 211.916 292.329 212.192 293.553 212.192ZM318.421 195.74C320.845 195.74 322.765 196.448 324.181 197.864C325.621 199.256 326.341 201.308 326.341 204.02V215H322.885V204.416C322.885 202.568 322.441 201.176 321.553 200.24C320.665 199.304 319.393 198.836 317.737 198.836C315.865 198.836 314.389 199.388 313.309 200.492C312.229 201.572 311.689 203.132 311.689 205.172V215H308.233V195.92H311.545V198.8C312.241 197.816 313.177 197.06 314.353 196.532C315.553 196.004 316.909 195.74 318.421 195.74ZM349.353 195.74C351.993 195.74 354.009 196.388 355.401 197.684C356.817 198.98 357.525 200.912 357.525 203.48V215H354.249V212.48C353.673 213.368 352.845 214.052 351.765 214.532C350.709 214.988 349.449 215.216 347.985 215.216C345.849 215.216 344.133 214.7 342.837 213.668C341.565 212.636 340.929 211.28 340.929 209.6C340.929 207.92 341.541 206.576 342.765 205.568C343.989 204.536 345.933 204.02 348.597 204.02H354.069V203.336C354.069 201.848 353.637 200.708 352.773 199.916C351.909 199.124 350.637 198.728 348.957 198.728C347.829 198.728 346.725 198.92 345.645 199.304C344.565 199.664 343.653 200.156 342.909 200.78L341.469 198.188C342.453 197.396 343.629 196.796 344.997 196.388C346.365 195.956 347.817 195.74 349.353 195.74ZM348.561 212.552C349.881 212.552 351.021 212.264 351.981 211.688C352.941 211.088 353.637 210.248 354.069 209.168V206.504H348.741C345.813 206.504 344.349 207.488 344.349 209.456C344.349 210.416 344.721 211.172 345.465 211.724C346.209 212.276 347.241 212.552 348.561 212.552ZM369.393 215.216C367.833 215.216 366.333 215.012 364.893 214.604C363.453 214.172 362.325 213.632 361.509 212.984L362.949 210.248C363.789 210.848 364.809 211.328 366.009 211.688C367.209 212.048 368.421 212.228 369.645 212.228C372.669 212.228 374.181 211.364 374.181 209.636C374.181 209.06 373.977 208.604 373.569 208.268C373.161 207.932 372.645 207.692 372.021 207.548C371.421 207.38 370.557 207.2 369.429 207.008C367.893 206.768 366.633 206.492 365.649 206.18C364.689 205.868 363.861 205.34 363.165 204.596C362.469 203.852 362.121 202.808 362.121 201.464C362.121 199.736 362.841 198.356 364.281 197.324C365.721 196.268 367.653 195.74 370.077 195.74C371.349 195.74 372.621 195.896 373.893 196.208C375.165 196.52 376.209 196.94 377.025 197.468L375.549 200.204C373.989 199.196 372.153 198.692 370.041 198.692C368.577 198.692 367.461 198.932 366.693 199.412C365.925 199.892 365.541 200.528 365.541 201.32C365.541 201.944 365.757 202.436 366.189 202.796C366.621 203.156 367.149 203.42 367.773 203.588C368.421 203.756 369.321 203.948 370.473 204.164C372.009 204.428 373.245 204.716 374.181 205.028C375.141 205.316 375.957 205.82 376.629 206.54C377.301 207.26 377.637 208.268 377.637 209.564C377.637 211.292 376.893 212.672 375.405 213.704C373.941 214.712 371.937 215.216 369.393 215.216ZM408.508 195.92L399.256 216.908C398.44 218.852 397.48 220.22 396.376 221.012C395.296 221.804 393.988 222.2 392.452 222.2C391.516 222.2 390.604 222.044 389.716 221.732C388.852 221.444 388.132 221.012 387.556 220.436L389.032 217.844C390.016 218.78 391.156 219.248 392.452 219.248C393.292 219.248 393.988 219.02 394.54 218.564C395.116 218.132 395.632 217.376 396.088 216.296L396.7 214.964L388.276 195.92H391.876L398.536 211.184L405.124 195.92H408.508ZM419.378 215.216C417.482 215.216 415.778 214.796 414.266 213.956C412.754 213.116 411.566 211.964 410.702 210.5C409.862 209.012 409.442 207.332 409.442 205.46C409.442 203.588 409.862 201.92 410.702 200.456C411.566 198.968 412.754 197.816 414.266 197C415.778 196.16 417.482 195.74 419.378 195.74C421.274 195.74 422.966 196.16 424.454 197C425.966 197.816 427.142 198.968 427.982 200.456C428.846 201.92 429.278 203.588 429.278 205.46C429.278 207.332 428.846 209.012 427.982 210.5C427.142 211.964 425.966 213.116 424.454 213.956C422.966 214.796 421.274 215.216 419.378 215.216ZM419.378 212.192C420.602 212.192 421.694 211.916 422.654 211.364C423.638 210.788 424.406 209.996 424.958 208.988C425.51 207.956 425.786 206.78 425.786 205.46C425.786 204.14 425.51 202.976 424.958 201.968C424.406 200.936 423.638 200.144 422.654 199.592C421.694 199.04 420.602 198.764 419.378 198.764C418.154 198.764 417.05 199.04 416.066 199.592C415.106 200.144 414.338 200.936 413.762 201.968C413.21 202.976 412.934 204.14 412.934 205.46C412.934 206.78 413.21 207.956 413.762 208.988C414.338 209.996 415.106 210.788 416.066 211.364C417.05 211.916 418.154 212.192 419.378 212.192ZM451.841 195.92V215H448.565V212.12C447.869 213.104 446.945 213.872 445.793 214.424C444.665 214.952 443.429 215.216 442.085 215.216C439.541 215.216 437.537 214.52 436.073 213.128C434.609 211.712 433.877 209.636 433.877 206.9V195.92H437.333V206.504C437.333 208.352 437.777 209.756 438.665 210.716C439.553 211.652 440.825 212.12 442.481 212.12C444.305 212.12 445.745 211.568 446.801 210.464C447.857 209.36 448.385 207.8 448.385 205.784V195.92H451.841ZM475.073 190.916C473.009 190.916 471.977 192.032 471.977 194.264V195.92H477.521V198.764H472.049V215H468.593V198.764H465.353V195.92H468.593V194.228C468.593 192.332 469.145 190.832 470.249 189.728C471.353 188.624 472.901 188.072 474.893 188.072C475.661 188.072 476.381 188.168 477.053 188.36C477.725 188.552 478.301 188.828 478.781 189.188L477.737 191.816C476.945 191.216 476.057 190.916 475.073 190.916ZM483.677 195.92H487.133V215H483.677V195.92ZM485.405 192.248C484.733 192.248 484.169 192.032 483.713 191.6C483.281 191.168 483.065 190.64 483.065 190.016C483.065 189.392 483.281 188.864 483.713 188.432C484.169 187.976 484.733 187.748 485.405 187.748C486.077 187.748 486.629 187.964 487.061 188.396C487.517 188.804 487.745 189.32 487.745 189.944C487.745 190.592 487.517 191.144 487.061 191.6C486.629 192.032 486.077 192.248 485.405 192.248ZM503.905 195.74C506.329 195.74 508.249 196.448 509.665 197.864C511.105 199.256 511.825 201.308 511.825 204.02V215H508.369V204.416C508.369 202.568 507.925 201.176 507.037 200.24C506.149 199.304 504.877 198.836 503.221 198.836C501.349 198.836 499.873 199.388 498.793 200.492C497.713 201.572 497.173 203.132 497.173 205.172V215H493.717V195.92H497.029V198.8C497.725 197.816 498.661 197.06 499.837 196.532C501.037 196.004 502.393 195.74 503.905 195.74ZM518.221 195.92H521.677V215H518.221V195.92ZM519.949 192.248C519.277 192.248 518.713 192.032 518.257 191.6C517.825 191.168 517.609 190.64 517.609 190.016C517.609 189.392 517.825 188.864 518.257 188.432C518.713 187.976 519.277 187.748 519.949 187.748C520.621 187.748 521.173 187.964 521.605 188.396C522.061 188.804 522.289 189.32 522.289 189.944C522.289 190.592 522.061 191.144 521.605 191.6C521.173 192.032 520.621 192.248 519.949 192.248ZM533.748 215.216C532.188 215.216 530.688 215.012 529.248 214.604C527.808 214.172 526.68 213.632 525.864 212.984L527.304 210.248C528.144 210.848 529.164 211.328 530.364 211.688C531.564 212.048 532.776 212.228 534 212.228C537.024 212.228 538.536 211.364 538.536 209.636C538.536 209.06 538.332 208.604 537.924 208.268C537.516 207.932 537 207.692 536.376 207.548C535.776 207.38 534.912 207.2 533.784 207.008C532.248 206.768 530.988 206.492 530.004 206.18C529.044 205.868 528.216 205.34 527.52 204.596C526.824 203.852 526.476 202.808 526.476 201.464C526.476 199.736 527.196 198.356 528.636 197.324C530.076 196.268 532.008 195.74 534.432 195.74C535.704 195.74 536.976 195.896 538.248 196.208C539.52 196.52 540.564 196.94 541.38 197.468L539.904 200.204C538.344 199.196 536.508 198.692 534.396 198.692C532.932 198.692 531.816 198.932 531.048 199.412C530.28 199.892 529.896 200.528 529.896 201.32C529.896 201.944 530.112 202.436 530.544 202.796C530.976 203.156 531.504 203.42 532.128 203.588C532.776 203.756 533.676 203.948 534.828 204.164C536.364 204.428 537.6 204.716 538.536 205.028C539.496 205.316 540.312 205.82 540.984 206.54C541.656 207.26 541.992 208.268 541.992 209.564C541.992 211.292 541.248 212.672 539.76 213.704C538.296 214.712 536.292 215.216 533.748 215.216ZM556.499 195.74C558.923 195.74 560.843 196.448 562.259 197.864C563.699 199.256 564.419 201.308 564.419 204.02V215H560.963V204.416C560.963 202.568 560.519 201.176 559.631 200.24C558.743 199.304 557.471 198.836 555.815 198.836C553.943 198.836 552.467 199.388 551.387 200.492C550.307 201.572 549.767 203.132 549.767 205.172V215H546.311V188.288H549.767V198.62C550.487 197.708 551.423 197 552.575 196.496C553.751 195.992 555.059 195.74 556.499 195.74ZM570.347 189.8H574.415L573.731 207.044H570.995L570.347 189.8ZM572.399 215.216C571.727 215.216 571.163 215 570.707 214.568C570.251 214.112 570.023 213.56 570.023 212.912C570.023 212.264 570.251 211.724 570.707 211.292C571.163 210.836 571.727 210.608 572.399 210.608C573.071 210.608 573.623 210.836 574.055 211.292C574.487 211.724 574.703 212.264 574.703 212.912C574.703 213.56 574.475 214.112 574.019 214.568C573.587 215 573.047 215.216 572.399 215.216Z" fill="white"/>
<circle cx="67.5" cy="67.5" r="67.5" fill="white"/>
<path d="M82.7907 65.0494C86.5437 68.7999 86.5437 74.8858 82.7907 78.6387L69.199 92.2304C68.262 93.1674 66.7387 93.1674 65.8017 92.2304L52.21 78.6387C48.457 74.8858 48.457 68.7999 52.21 65.047C55.9629 61.2941 62.0488 61.2941 65.8017 65.047L67.4979 66.7456L69.199 65.047C72.9519 61.2941 79.0378 61.2941 82.7907 65.047V65.0494ZM67.5003 41.071C72.8102 41.071 77.1109 45.3718 77.1109 50.6816C77.1109 55.9914 72.8102 60.2922 67.5003 60.2922C62.1905 60.2922 57.8898 55.9914 57.8898 50.6816C57.8898 45.3718 62.1905 41.071 67.5003 41.071Z" fill="#333333"/>
</svg>
