<svg width="785" height="224" viewBox="0 0 785 224" fill="none" xmlns="http://www.w3.org/2000/svg">
<path d="M203.124 127.288C201.228 127.288 199.392 127 197.616 126.424C195.864 125.824 194.484 125.056 193.476 124.12L194.808 121.312C195.768 122.176 196.992 122.884 198.48 123.436C199.992 123.964 201.54 124.228 203.124 124.228C205.212 124.228 206.772 123.88 207.804 123.184C208.836 122.464 209.352 121.516 209.352 120.34C209.352 119.476 209.064 118.78 208.488 118.252C207.936 117.7 207.24 117.28 206.4 116.992C205.584 116.704 204.42 116.38 202.908 116.02C201.012 115.564 199.476 115.108 198.3 114.652C197.148 114.196 196.152 113.5 195.312 112.564C194.496 111.604 194.088 110.32 194.088 108.712C194.088 107.368 194.436 106.156 195.132 105.076C195.852 103.996 196.932 103.132 198.372 102.484C199.812 101.836 201.6 101.512 203.736 101.512C205.224 101.512 206.688 101.704 208.128 102.088C209.568 102.472 210.804 103.024 211.836 103.744L210.648 106.624C209.592 105.952 208.464 105.448 207.264 105.112C206.064 104.752 204.888 104.572 203.736 104.572C201.696 104.572 200.16 104.944 199.128 105.688C198.12 106.432 197.616 107.392 197.616 108.568C197.616 109.432 197.904 110.14 198.48 110.692C199.056 111.22 199.764 111.64 200.604 111.952C201.468 112.24 202.632 112.552 204.096 112.888C205.992 113.344 207.516 113.8 208.668 114.256C209.82 114.712 210.804 115.408 211.62 116.344C212.46 117.28 212.88 118.54 212.88 120.124C212.88 121.444 212.52 122.656 211.8 123.76C211.08 124.84 209.988 125.704 208.524 126.352C207.06 126.976 205.26 127.288 203.124 127.288ZM228.363 125.884C227.859 126.316 227.235 126.652 226.491 126.892C225.747 127.108 224.979 127.216 224.187 127.216C222.267 127.216 220.779 126.7 219.723 125.668C218.667 124.636 218.139 123.16 218.139 121.24V110.764H214.899V107.92H218.139V103.744H221.595V107.92H227.067V110.764H221.595V121.096C221.595 122.128 221.847 122.92 222.351 123.472C222.879 124.024 223.623 124.3 224.583 124.3C225.639 124.3 226.539 124 227.283 123.4L228.363 125.884ZM239.49 107.74C242.13 107.74 244.146 108.388 245.538 109.684C246.954 110.98 247.662 112.912 247.662 115.48V127H244.386V124.48C243.81 125.368 242.982 126.052 241.902 126.532C240.846 126.988 239.586 127.216 238.122 127.216C235.986 127.216 234.27 126.7 232.974 125.668C231.702 124.636 231.066 123.28 231.066 121.6C231.066 119.92 231.678 118.576 232.902 117.568C234.126 116.536 236.07 116.02 238.734 116.02H244.206V115.336C244.206 113.848 243.774 112.708 242.91 111.916C242.046 111.124 240.774 110.728 239.094 110.728C237.966 110.728 236.862 110.92 235.782 111.304C234.702 111.664 233.79 112.156 233.046 112.78L231.606 110.188C232.59 109.396 233.766 108.796 235.134 108.388C236.502 107.956 237.954 107.74 239.49 107.74ZM238.698 124.552C240.018 124.552 241.158 124.264 242.118 123.688C243.078 123.088 243.774 122.248 244.206 121.168V118.504H238.878C235.95 118.504 234.486 119.488 234.486 121.456C234.486 122.416 234.858 123.172 235.602 123.724C236.346 124.276 237.378 124.552 238.698 124.552ZM257.369 111.124C257.969 110.02 258.857 109.18 260.033 108.604C261.209 108.028 262.637 107.74 264.317 107.74V111.088C264.125 111.064 263.861 111.052 263.525 111.052C261.653 111.052 260.177 111.616 259.097 112.744C258.041 113.848 257.513 115.432 257.513 117.496V127H254.057V107.92H257.369V111.124ZM280.078 125.884C279.574 126.316 278.95 126.652 278.206 126.892C277.462 127.108 276.694 127.216 275.902 127.216C273.982 127.216 272.494 126.7 271.438 125.668C270.382 124.636 269.854 123.16 269.854 121.24V110.764H266.614V107.92H269.854V103.744H273.31V107.92H278.782V110.764H273.31V121.096C273.31 122.128 273.562 122.92 274.066 123.472C274.594 124.024 275.338 124.3 276.298 124.3C277.354 124.3 278.254 124 278.998 123.4L280.078 125.884ZM299.396 127.216C297.836 127.216 296.336 127.012 294.896 126.604C293.456 126.172 292.328 125.632 291.512 124.984L292.952 122.248C293.792 122.848 294.812 123.328 296.012 123.688C297.212 124.048 298.424 124.228 299.648 124.228C302.672 124.228 304.184 123.364 304.184 121.636C304.184 121.06 303.98 120.604 303.572 120.268C303.164 119.932 302.648 119.692 302.024 119.548C301.424 119.38 300.56 119.2 299.432 119.008C297.896 118.768 296.636 118.492 295.652 118.18C294.692 117.868 293.864 117.34 293.168 116.596C292.472 115.852 292.124 114.808 292.124 113.464C292.124 111.736 292.844 110.356 294.284 109.324C295.724 108.268 297.656 107.74 300.08 107.74C301.352 107.74 302.624 107.896 303.896 108.208C305.168 108.52 306.212 108.94 307.028 109.468L305.552 112.204C303.992 111.196 302.156 110.692 300.044 110.692C298.58 110.692 297.464 110.932 296.696 111.412C295.928 111.892 295.544 112.528 295.544 113.32C295.544 113.944 295.76 114.436 296.192 114.796C296.624 115.156 297.152 115.42 297.776 115.588C298.424 115.756 299.324 115.948 300.476 116.164C302.012 116.428 303.248 116.716 304.184 117.028C305.144 117.316 305.96 117.82 306.632 118.54C307.304 119.26 307.64 120.268 307.64 121.564C307.64 123.292 306.896 124.672 305.408 125.704C303.944 126.712 301.94 127.216 299.396 127.216ZM322.148 107.74C324.572 107.74 326.492 108.448 327.908 109.864C329.348 111.256 330.068 113.308 330.068 116.02V127H326.612V116.416C326.612 114.568 326.168 113.176 325.28 112.24C324.392 111.304 323.12 110.836 321.464 110.836C319.592 110.836 318.116 111.388 317.036 112.492C315.956 113.572 315.416 115.132 315.416 117.172V127H311.96V100.288H315.416V110.62C316.136 109.708 317.072 109 318.224 108.496C319.4 107.992 320.708 107.74 322.148 107.74ZM344.741 127.216C342.845 127.216 341.141 126.796 339.629 125.956C338.117 125.116 336.929 123.964 336.065 122.5C335.225 121.012 334.805 119.332 334.805 117.46C334.805 115.588 335.225 113.92 336.065 112.456C336.929 110.968 338.117 109.816 339.629 109C341.141 108.16 342.845 107.74 344.741 107.74C346.637 107.74 348.329 108.16 349.817 109C351.329 109.816 352.505 110.968 353.345 112.456C354.209 113.92 354.641 115.588 354.641 117.46C354.641 119.332 354.209 121.012 353.345 122.5C352.505 123.964 351.329 125.116 349.817 125.956C348.329 126.796 346.637 127.216 344.741 127.216ZM344.741 124.192C345.965 124.192 347.057 123.916 348.017 123.364C349.001 122.788 349.769 121.996 350.321 120.988C350.873 119.956 351.149 118.78 351.149 117.46C351.149 116.14 350.873 114.976 350.321 113.968C349.769 112.936 349.001 112.144 348.017 111.592C347.057 111.04 345.965 110.764 344.741 110.764C343.517 110.764 342.413 111.04 341.429 111.592C340.469 112.144 339.701 112.936 339.125 113.968C338.573 114.976 338.297 116.14 338.297 117.46C338.297 118.78 338.573 119.956 339.125 120.988C339.701 121.996 340.469 122.788 341.429 123.364C342.413 123.916 343.517 124.192 344.741 124.192ZM369.537 107.74C371.385 107.74 373.041 108.148 374.505 108.964C375.969 109.78 377.109 110.92 377.925 112.384C378.765 113.848 379.185 115.54 379.185 117.46C379.185 119.38 378.765 121.084 377.925 122.572C377.109 124.036 375.969 125.176 374.505 125.992C373.041 126.808 371.385 127.216 369.537 127.216C368.169 127.216 366.909 126.952 365.757 126.424C364.629 125.896 363.669 125.128 362.877 124.12V133.984H359.421V107.92H362.733V110.944C363.501 109.888 364.473 109.096 365.649 108.568C366.825 108.016 368.121 107.74 369.537 107.74ZM369.249 124.192C370.473 124.192 371.565 123.916 372.525 123.364C373.509 122.788 374.277 121.996 374.829 120.988C375.405 119.956 375.693 118.78 375.693 117.46C375.693 116.14 375.405 114.976 374.829 113.968C374.277 112.936 373.509 112.144 372.525 111.592C371.565 111.04 370.473 110.764 369.249 110.764C368.049 110.764 366.957 111.052 365.973 111.628C365.013 112.18 364.245 112.96 363.669 113.968C363.117 114.976 362.841 116.14 362.841 117.46C362.841 118.78 363.117 119.956 363.669 120.988C364.221 121.996 364.989 122.788 365.973 123.364C366.957 123.916 368.049 124.192 369.249 124.192ZM394.076 107.74C395.924 107.74 397.58 108.148 399.044 108.964C400.508 109.78 401.648 110.92 402.464 112.384C403.304 113.848 403.724 115.54 403.724 117.46C403.724 119.38 403.304 121.084 402.464 122.572C401.648 124.036 400.508 125.176 399.044 125.992C397.58 126.808 395.924 127.216 394.076 127.216C392.708 127.216 391.448 126.952 390.296 126.424C389.168 125.896 388.208 125.128 387.416 124.12V133.984H383.96V107.92H387.272V110.944C388.04 109.888 389.012 109.096 390.188 108.568C391.364 108.016 392.66 107.74 394.076 107.74ZM393.788 124.192C395.012 124.192 396.104 123.916 397.064 123.364C398.048 122.788 398.816 121.996 399.368 120.988C399.944 119.956 400.232 118.78 400.232 117.46C400.232 116.14 399.944 114.976 399.368 113.968C398.816 112.936 398.048 112.144 397.064 111.592C396.104 111.04 395.012 110.764 393.788 110.764C392.588 110.764 391.496 111.052 390.512 111.628C389.552 112.18 388.784 112.96 388.208 113.968C387.656 114.976 387.38 116.14 387.38 117.46C387.38 118.78 387.656 119.956 388.208 120.988C388.76 121.996 389.528 122.788 390.512 123.364C391.496 123.916 392.588 124.192 393.788 124.192ZM408.499 107.92H411.955V127H408.499V107.92ZM410.227 104.248C409.555 104.248 408.991 104.032 408.535 103.6C408.103 103.168 407.887 102.64 407.887 102.016C407.887 101.392 408.103 100.864 408.535 100.432C408.991 99.976 409.555 99.748 410.227 99.748C410.899 99.748 411.451 99.964 411.883 100.396C412.339 100.804 412.567 101.32 412.567 101.944C412.567 102.592 412.339 103.144 411.883 103.6C411.451 104.032 410.899 104.248 410.227 104.248ZM428.741 107.74C431.165 107.74 433.085 108.448 434.501 109.864C435.941 111.256 436.661 113.308 436.661 116.02V127H433.205V116.416C433.205 114.568 432.761 113.176 431.873 112.24C430.985 111.304 429.713 110.836 428.057 110.836C426.185 110.836 424.709 111.388 423.629 112.492C422.549 113.572 422.009 115.132 422.009 117.172V127H418.553V107.92H421.865V110.8C422.561 109.816 423.497 109.06 424.673 108.532C425.873 108.004 427.229 107.74 428.741 107.74ZM461.415 107.92V124.408C461.415 127.744 460.587 130.204 458.931 131.788C457.275 133.396 454.803 134.2 451.515 134.2C449.715 134.2 447.999 133.948 446.367 133.444C444.735 132.964 443.415 132.268 442.407 131.356L444.063 128.692C444.951 129.46 446.043 130.06 447.339 130.492C448.659 130.948 450.015 131.176 451.407 131.176C453.639 131.176 455.283 130.648 456.339 129.592C457.419 128.536 457.959 126.928 457.959 124.768V123.256C457.143 124.24 456.135 124.984 454.935 125.488C453.759 125.968 452.475 126.208 451.083 126.208C449.259 126.208 447.603 125.824 446.115 125.056C444.651 124.264 443.499 123.172 442.659 121.78C441.819 120.364 441.399 118.756 441.399 116.956C441.399 115.156 441.819 113.56 442.659 112.168C443.499 110.752 444.651 109.66 446.115 108.892C447.603 108.124 449.259 107.74 451.083 107.74C452.523 107.74 453.855 108.004 455.079 108.532C456.327 109.06 457.347 109.84 458.139 110.872V107.92H461.415ZM451.479 123.184C452.727 123.184 453.843 122.92 454.827 122.392C455.835 121.864 456.615 121.132 457.167 120.196C457.743 119.236 458.031 118.156 458.031 116.956C458.031 115.108 457.419 113.62 456.195 112.492C454.971 111.34 453.399 110.764 451.479 110.764C449.535 110.764 447.951 111.34 446.727 112.492C445.503 113.62 444.891 115.108 444.891 116.956C444.891 118.156 445.167 119.236 445.719 120.196C446.295 121.132 447.075 121.864 448.059 122.392C449.067 122.92 450.207 123.184 451.479 123.184ZM484.67 102.916C482.606 102.916 481.574 104.032 481.574 106.264V107.92H487.118V110.764H481.646V127H478.19V110.764H474.95V107.92H478.19V106.228C478.19 104.332 478.742 102.832 479.846 101.728C480.95 100.624 482.498 100.072 484.49 100.072C485.258 100.072 485.978 100.168 486.65 100.36C487.322 100.552 487.898 100.828 488.378 101.188L487.334 103.816C486.542 103.216 485.654 102.916 484.67 102.916ZM496.572 111.124C497.172 110.02 498.06 109.18 499.236 108.604C500.412 108.028 501.84 107.74 503.52 107.74V111.088C503.328 111.064 503.064 111.052 502.728 111.052C500.856 111.052 499.38 111.616 498.3 112.744C497.244 113.848 496.716 115.432 496.716 117.496V127H493.26V107.92H496.572V111.124ZM515.776 127.216C513.88 127.216 512.176 126.796 510.664 125.956C509.152 125.116 507.964 123.964 507.1 122.5C506.26 121.012 505.84 119.332 505.84 117.46C505.84 115.588 506.26 113.92 507.1 112.456C507.964 110.968 509.152 109.816 510.664 109C512.176 108.16 513.88 107.74 515.776 107.74C517.672 107.74 519.364 108.16 520.852 109C522.364 109.816 523.54 110.968 524.38 112.456C525.244 113.92 525.676 115.588 525.676 117.46C525.676 119.332 525.244 121.012 524.38 122.5C523.54 123.964 522.364 125.116 520.852 125.956C519.364 126.796 517.672 127.216 515.776 127.216ZM515.776 124.192C517 124.192 518.092 123.916 519.052 123.364C520.036 122.788 520.804 121.996 521.356 120.988C521.908 119.956 522.184 118.78 522.184 117.46C522.184 116.14 521.908 114.976 521.356 113.968C520.804 112.936 520.036 112.144 519.052 111.592C518.092 111.04 517 110.764 515.776 110.764C514.552 110.764 513.448 111.04 512.464 111.592C511.504 112.144 510.736 112.936 510.16 113.968C509.608 114.976 509.332 116.14 509.332 117.46C509.332 118.78 509.608 119.956 510.16 120.988C510.736 121.996 511.504 122.788 512.464 123.364C513.448 123.916 514.552 124.192 515.776 124.192ZM554.324 107.74C556.724 107.74 558.62 108.436 560.012 109.828C561.428 111.22 562.136 113.284 562.136 116.02V127H558.68V116.416C558.68 114.568 558.248 113.176 557.384 112.24C556.544 111.304 555.332 110.836 553.748 110.836C551.996 110.836 550.604 111.388 549.572 112.492C548.54 113.572 548.024 115.132 548.024 117.172V127H544.568V116.416C544.568 114.568 544.136 113.176 543.272 112.24C542.432 111.304 541.22 110.836 539.636 110.836C537.884 110.836 536.492 111.388 535.46 112.492C534.428 113.572 533.912 115.132 533.912 117.172V127H530.456V107.92H533.768V110.764C534.464 109.78 535.376 109.036 536.504 108.532C537.632 108.004 538.916 107.74 540.356 107.74C541.844 107.74 543.164 108.04 544.316 108.64C545.468 109.24 546.356 110.116 546.98 111.268C547.7 110.164 548.696 109.3 549.968 108.676C551.264 108.052 552.716 107.74 554.324 107.74ZM586.335 127.216C584.439 127.216 582.735 126.796 581.223 125.956C579.711 125.116 578.523 123.964 577.659 122.5C576.819 121.012 576.399 119.332 576.399 117.46C576.399 115.588 576.819 113.92 577.659 112.456C578.523 110.968 579.711 109.816 581.223 109C582.735 108.16 584.439 107.74 586.335 107.74C588.231 107.74 589.923 108.16 591.411 109C592.923 109.816 594.099 110.968 594.939 112.456C595.803 113.92 596.235 115.588 596.235 117.46C596.235 119.332 595.803 121.012 594.939 122.5C594.099 123.964 592.923 125.116 591.411 125.956C589.923 126.796 588.231 127.216 586.335 127.216ZM586.335 124.192C587.559 124.192 588.651 123.916 589.611 123.364C590.595 122.788 591.363 121.996 591.915 120.988C592.467 119.956 592.743 118.78 592.743 117.46C592.743 116.14 592.467 114.976 591.915 113.968C591.363 112.936 590.595 112.144 589.611 111.592C588.651 111.04 587.559 110.764 586.335 110.764C585.111 110.764 584.007 111.04 583.023 111.592C582.063 112.144 581.295 112.936 580.719 113.968C580.167 114.976 579.891 116.14 579.891 117.46C579.891 118.78 580.167 119.956 580.719 120.988C581.295 121.996 582.063 122.788 583.023 123.364C584.007 123.916 585.111 124.192 586.335 124.192ZM618.798 107.92V127H615.522V124.12C614.826 125.104 613.902 125.872 612.75 126.424C611.622 126.952 610.386 127.216 609.042 127.216C606.498 127.216 604.494 126.52 603.03 125.128C601.566 123.712 600.834 121.636 600.834 118.9V107.92H604.29V118.504C604.29 120.352 604.734 121.756 605.622 122.716C606.51 123.652 607.782 124.12 609.438 124.12C611.262 124.12 612.702 123.568 613.758 122.464C614.814 121.36 615.342 119.8 615.342 117.784V107.92H618.798ZM628.69 111.124C629.29 110.02 630.178 109.18 631.354 108.604C632.53 108.028 633.958 107.74 635.638 107.74V111.088C635.446 111.064 635.182 111.052 634.846 111.052C632.974 111.052 631.498 111.616 630.418 112.744C629.362 113.848 628.834 115.432 628.834 117.496V127H625.378V107.92H628.69V111.124ZM659.927 107.74C661.775 107.74 663.431 108.148 664.895 108.964C666.359 109.78 667.499 110.92 668.315 112.384C669.155 113.848 669.575 115.54 669.575 117.46C669.575 119.38 669.155 121.084 668.315 122.572C667.499 124.036 666.359 125.176 664.895 125.992C663.431 126.808 661.775 127.216 659.927 127.216C658.559 127.216 657.299 126.952 656.147 126.424C655.019 125.896 654.059 125.128 653.267 124.12V133.984H649.811V107.92H653.123V110.944C653.891 109.888 654.863 109.096 656.039 108.568C657.215 108.016 658.511 107.74 659.927 107.74ZM659.639 124.192C660.863 124.192 661.955 123.916 662.915 123.364C663.899 122.788 664.667 121.996 665.219 120.988C665.795 119.956 666.083 118.78 666.083 117.46C666.083 116.14 665.795 114.976 665.219 113.968C664.667 112.936 663.899 112.144 662.915 111.592C661.955 111.04 660.863 110.764 659.639 110.764C658.439 110.764 657.347 111.052 656.363 111.628C655.403 112.18 654.635 112.96 654.059 113.968C653.507 114.976 653.231 116.14 653.231 117.46C653.231 118.78 653.507 119.956 654.059 120.988C654.611 121.996 655.379 122.788 656.363 123.364C657.347 123.916 658.439 124.192 659.639 124.192ZM681.122 107.74C683.762 107.74 685.778 108.388 687.17 109.684C688.586 110.98 689.294 112.912 689.294 115.48V127H686.018V124.48C685.442 125.368 684.614 126.052 683.534 126.532C682.478 126.988 681.218 127.216 679.754 127.216C677.618 127.216 675.902 126.7 674.606 125.668C673.334 124.636 672.698 123.28 672.698 121.6C672.698 119.92 673.31 118.576 674.534 117.568C675.758 116.536 677.702 116.02 680.366 116.02H685.838V115.336C685.838 113.848 685.406 112.708 684.542 111.916C683.678 111.124 682.406 110.728 680.726 110.728C679.598 110.728 678.494 110.92 677.414 111.304C676.334 111.664 675.422 112.156 674.678 112.78L673.238 110.188C674.222 109.396 675.398 108.796 676.766 108.388C678.134 107.956 679.586 107.74 681.122 107.74ZM680.33 124.552C681.65 124.552 682.79 124.264 683.75 123.688C684.71 123.088 685.406 122.248 685.838 121.168V118.504H680.51C677.582 118.504 676.118 119.488 676.118 121.456C676.118 122.416 676.49 123.172 677.234 123.724C677.978 124.276 679.01 124.552 680.33 124.552ZM699.002 111.124C699.602 110.02 700.49 109.18 701.666 108.604C702.842 108.028 704.27 107.74 705.95 107.74V111.088C705.758 111.064 705.494 111.052 705.158 111.052C703.286 111.052 701.81 111.616 700.73 112.744C699.674 113.848 699.146 115.432 699.146 117.496V127H695.69V107.92H699.002V111.124ZM721.711 125.884C721.207 126.316 720.583 126.652 719.839 126.892C719.095 127.108 718.327 127.216 717.535 127.216C715.615 127.216 714.127 126.7 713.071 125.668C712.015 124.636 711.487 123.16 711.487 121.24V110.764H708.247V107.92H711.487V103.744H714.943V107.92H720.415V110.764H714.943V121.096C714.943 122.128 715.195 122.92 715.699 123.472C716.227 124.024 716.971 124.3 717.931 124.3C718.987 124.3 719.887 124 720.631 123.4L721.711 125.884ZM736.077 107.74C738.501 107.74 740.421 108.448 741.837 109.864C743.277 111.256 743.997 113.308 743.997 116.02V127H740.541V116.416C740.541 114.568 740.097 113.176 739.209 112.24C738.321 111.304 737.049 110.836 735.393 110.836C733.521 110.836 732.045 111.388 730.965 112.492C729.885 113.572 729.345 115.132 729.345 117.172V127H725.889V107.92H729.201V110.8C729.897 109.816 730.833 109.06 732.009 108.532C733.209 108.004 734.565 107.74 736.077 107.74ZM767.743 117.568C767.743 117.832 767.719 118.18 767.671 118.612H752.191C752.407 120.292 753.139 121.648 754.387 122.68C755.659 123.688 757.231 124.192 759.103 124.192C761.383 124.192 763.219 123.424 764.611 121.888L766.519 124.12C765.655 125.128 764.575 125.896 763.279 126.424C762.007 126.952 760.579 127.216 758.995 127.216C756.979 127.216 755.191 126.808 753.631 125.992C752.071 125.152 750.859 123.988 749.995 122.5C749.155 121.012 748.735 119.332 748.735 117.46C748.735 115.612 749.143 113.944 749.959 112.456C750.799 110.968 751.939 109.816 753.379 109C754.843 108.16 756.487 107.74 758.311 107.74C760.135 107.74 761.755 108.16 763.171 109C764.611 109.816 765.727 110.968 766.519 112.456C767.335 113.944 767.743 115.648 767.743 117.568ZM758.311 110.656C756.655 110.656 755.263 111.16 754.135 112.168C753.031 113.176 752.383 114.496 752.191 116.128H764.431C764.239 114.52 763.579 113.212 762.451 112.204C761.347 111.172 759.967 110.656 758.311 110.656ZM775.854 111.124C776.454 110.02 777.342 109.18 778.518 108.604C779.694 108.028 781.122 107.74 782.802 107.74V111.088C782.61 111.064 782.346 111.052 782.01 111.052C780.138 111.052 778.662 111.616 777.582 112.744C776.526 113.848 775.998 115.432 775.998 117.496V127H772.542V107.92H775.854V111.124ZM205.392 151.74C207.24 151.74 208.896 152.148 210.36 152.964C211.824 153.78 212.964 154.92 213.78 156.384C214.62 157.848 215.04 159.54 215.04 161.46C215.04 163.38 214.62 165.084 213.78 166.572C212.964 168.036 211.824 169.176 210.36 169.992C208.896 170.808 207.24 171.216 205.392 171.216C203.976 171.216 202.68 170.94 201.504 170.388C200.328 169.836 199.356 169.032 198.588 167.976V171H195.276V144.288H198.732V154.8C199.5 153.792 200.46 153.036 201.612 152.532C202.764 152.004 204.024 151.74 205.392 151.74ZM205.104 168.192C206.328 168.192 207.42 167.916 208.38 167.364C209.364 166.788 210.132 165.996 210.684 164.988C211.26 163.956 211.548 162.78 211.548 161.46C211.548 160.14 211.26 158.976 210.684 157.968C210.132 156.936 209.364 156.144 208.38 155.592C207.42 155.04 206.328 154.764 205.104 154.764C203.904 154.764 202.812 155.04 201.828 155.592C200.844 156.144 200.076 156.936 199.524 157.968C198.972 158.976 198.696 160.14 198.696 161.46C198.696 162.78 198.972 163.956 199.524 164.988C200.076 165.996 200.844 166.788 201.828 167.364C202.812 167.916 203.904 168.192 205.104 168.192ZM223.127 155.124C223.727 154.02 224.615 153.18 225.791 152.604C226.967 152.028 228.395 151.74 230.075 151.74V155.088C229.883 155.064 229.619 155.052 229.283 155.052C227.411 155.052 225.935 155.616 224.855 156.744C223.799 157.848 223.271 159.432 223.271 161.496V171H219.815V151.92H223.127V155.124ZM241.247 151.74C243.887 151.74 245.903 152.388 247.295 153.684C248.711 154.98 249.419 156.912 249.419 159.48V171H246.143V168.48C245.567 169.368 244.739 170.052 243.659 170.532C242.603 170.988 241.343 171.216 239.879 171.216C237.743 171.216 236.027 170.7 234.731 169.668C233.459 168.636 232.823 167.28 232.823 165.6C232.823 163.92 233.435 162.576 234.659 161.568C235.883 160.536 237.827 160.02 240.491 160.02H245.963V159.336C245.963 157.848 245.531 156.708 244.667 155.916C243.803 155.124 242.531 154.728 240.851 154.728C239.723 154.728 238.619 154.92 237.539 155.304C236.459 155.664 235.547 156.156 234.803 156.78L233.363 154.188C234.347 153.396 235.523 152.796 236.891 152.388C238.259 151.956 239.711 151.74 241.247 151.74ZM240.455 168.552C241.775 168.552 242.915 168.264 243.875 167.688C244.835 167.088 245.531 166.248 245.963 165.168V162.504H240.635C237.707 162.504 236.243 163.488 236.243 165.456C236.243 166.416 236.615 167.172 237.359 167.724C238.103 168.276 239.135 168.552 240.455 168.552ZM266.003 151.74C268.427 151.74 270.347 152.448 271.763 153.864C273.203 155.256 273.923 157.308 273.923 160.02V171H270.467V160.416C270.467 158.568 270.023 157.176 269.135 156.24C268.247 155.304 266.975 154.836 265.319 154.836C263.447 154.836 261.971 155.388 260.891 156.492C259.811 157.572 259.271 159.132 259.271 161.172V171H255.815V151.92H259.127V154.8C259.823 153.816 260.759 153.06 261.935 152.532C263.135 152.004 264.491 151.74 266.003 151.74ZM298.424 144.288V171H295.112V167.976C294.344 169.032 293.372 169.836 292.196 170.388C291.02 170.94 289.724 171.216 288.308 171.216C286.46 171.216 284.804 170.808 283.34 169.992C281.876 169.176 280.724 168.036 279.884 166.572C279.068 165.084 278.66 163.38 278.66 161.46C278.66 159.54 279.068 157.848 279.884 156.384C280.724 154.92 281.876 153.78 283.34 152.964C284.804 152.148 286.46 151.74 288.308 151.74C289.676 151.74 290.936 152.004 292.088 152.532C293.24 153.036 294.2 153.792 294.968 154.8V144.288H298.424ZM288.596 168.192C289.796 168.192 290.888 167.916 291.872 167.364C292.856 166.788 293.624 165.996 294.176 164.988C294.728 163.956 295.004 162.78 295.004 161.46C295.004 160.14 294.728 158.976 294.176 157.968C293.624 156.936 292.856 156.144 291.872 155.592C290.888 155.04 289.796 154.764 288.596 154.764C287.372 154.764 286.268 155.04 285.284 155.592C284.324 156.144 283.556 156.936 282.98 157.968C282.428 158.976 282.152 160.14 282.152 161.46C282.152 162.78 282.428 163.956 282.98 164.988C283.556 165.996 284.324 166.788 285.284 167.364C286.268 167.916 287.372 168.192 288.596 168.192ZM310.436 171.216C308.876 171.216 307.376 171.012 305.936 170.604C304.496 170.172 303.368 169.632 302.552 168.984L303.992 166.248C304.832 166.848 305.852 167.328 307.052 167.688C308.252 168.048 309.464 168.228 310.688 168.228C313.712 168.228 315.224 167.364 315.224 165.636C315.224 165.06 315.02 164.604 314.612 164.268C314.204 163.932 313.688 163.692 313.064 163.548C312.464 163.38 311.6 163.2 310.472 163.008C308.936 162.768 307.676 162.492 306.692 162.18C305.732 161.868 304.904 161.34 304.208 160.596C303.512 159.852 303.164 158.808 303.164 157.464C303.164 155.736 303.884 154.356 305.324 153.324C306.764 152.268 308.696 151.74 311.12 151.74C312.392 151.74 313.664 151.896 314.936 152.208C316.208 152.52 317.252 152.94 318.068 153.468L316.592 156.204C315.032 155.196 313.196 154.692 311.084 154.692C309.62 154.692 308.504 154.932 307.736 155.412C306.968 155.892 306.584 156.528 306.584 157.32C306.584 157.944 306.8 158.436 307.232 158.796C307.664 159.156 308.192 159.42 308.816 159.588C309.464 159.756 310.364 159.948 311.516 160.164C313.052 160.428 314.288 160.716 315.224 161.028C316.184 161.316 317 161.82 317.672 162.54C318.344 163.26 318.68 164.268 318.68 165.564C318.68 167.292 317.936 168.672 316.448 169.704C314.984 170.712 312.98 171.216 310.436 171.216ZM339.615 151.74C342.255 151.74 344.271 152.388 345.663 153.684C347.079 154.98 347.787 156.912 347.787 159.48V171H344.511V168.48C343.935 169.368 343.107 170.052 342.027 170.532C340.971 170.988 339.711 171.216 338.247 171.216C336.111 171.216 334.395 170.7 333.099 169.668C331.827 168.636 331.191 167.28 331.191 165.6C331.191 163.92 331.803 162.576 333.027 161.568C334.251 160.536 336.195 160.02 338.859 160.02H344.331V159.336C344.331 157.848 343.899 156.708 343.035 155.916C342.171 155.124 340.899 154.728 339.219 154.728C338.091 154.728 336.987 154.92 335.907 155.304C334.827 155.664 333.915 156.156 333.171 156.78L331.731 154.188C332.715 153.396 333.891 152.796 335.259 152.388C336.627 151.956 338.079 151.74 339.615 151.74ZM338.823 168.552C340.143 168.552 341.283 168.264 342.243 167.688C343.203 167.088 343.899 166.248 344.331 165.168V162.504H339.003C336.075 162.504 334.611 163.488 334.611 165.456C334.611 166.416 334.983 167.172 335.727 167.724C336.471 168.276 337.503 168.552 338.823 168.552ZM364.37 151.74C366.794 151.74 368.714 152.448 370.13 153.864C371.57 155.256 372.29 157.308 372.29 160.02V171H368.834V160.416C368.834 158.568 368.39 157.176 367.502 156.24C366.614 155.304 365.342 154.836 363.686 154.836C361.814 154.836 360.338 155.388 359.258 156.492C358.178 157.572 357.638 159.132 357.638 161.172V171H354.182V151.92H357.494V154.8C358.19 153.816 359.126 153.06 360.302 152.532C361.502 152.004 362.858 151.74 364.37 151.74ZM396.792 144.288V171H393.48V167.976C392.712 169.032 391.74 169.836 390.564 170.388C389.388 170.94 388.092 171.216 386.676 171.216C384.828 171.216 383.172 170.808 381.708 169.992C380.244 169.176 379.092 168.036 378.252 166.572C377.436 165.084 377.028 163.38 377.028 161.46C377.028 159.54 377.436 157.848 378.252 156.384C379.092 154.92 380.244 153.78 381.708 152.964C383.172 152.148 384.828 151.74 386.676 151.74C388.044 151.74 389.304 152.004 390.456 152.532C391.608 153.036 392.568 153.792 393.336 154.8V144.288H396.792ZM386.964 168.192C388.164 168.192 389.256 167.916 390.24 167.364C391.224 166.788 391.992 165.996 392.544 164.988C393.096 163.956 393.372 162.78 393.372 161.46C393.372 160.14 393.096 158.976 392.544 157.968C391.992 156.936 391.224 156.144 390.24 155.592C389.256 155.04 388.164 154.764 386.964 154.764C385.74 154.764 384.636 155.04 383.652 155.592C382.692 156.144 381.924 156.936 381.348 157.968C380.796 158.976 380.52 160.14 380.52 161.46C380.52 162.78 380.796 163.956 381.348 164.988C381.924 165.996 382.692 166.788 383.652 167.364C384.636 167.916 385.74 168.192 386.964 168.192ZM430.243 161.568C430.243 161.832 430.219 162.18 430.171 162.612H414.691C414.907 164.292 415.639 165.648 416.887 166.68C418.159 167.688 419.731 168.192 421.603 168.192C423.883 168.192 425.719 167.424 427.111 165.888L429.019 168.12C428.155 169.128 427.075 169.896 425.779 170.424C424.507 170.952 423.079 171.216 421.495 171.216C419.479 171.216 417.691 170.808 416.131 169.992C414.571 169.152 413.359 167.988 412.495 166.5C411.655 165.012 411.235 163.332 411.235 161.46C411.235 159.612 411.643 157.944 412.459 156.456C413.299 154.968 414.439 153.816 415.879 153C417.343 152.16 418.987 151.74 420.811 151.74C422.635 151.74 424.255 152.16 425.671 153C427.111 153.816 428.227 154.968 429.019 156.456C429.835 157.944 430.243 159.648 430.243 161.568ZM420.811 154.656C419.155 154.656 417.763 155.16 416.635 156.168C415.531 157.176 414.883 158.496 414.691 160.128H426.931C426.739 158.52 426.079 157.212 424.951 156.204C423.847 155.172 422.467 154.656 420.811 154.656ZM445.23 151.74C447.654 151.74 449.574 152.448 450.99 153.864C452.43 155.256 453.15 157.308 453.15 160.02V171H449.694V160.416C449.694 158.568 449.25 157.176 448.362 156.24C447.474 155.304 446.202 154.836 444.546 154.836C442.674 154.836 441.198 155.388 440.118 156.492C439.038 157.572 438.498 159.132 438.498 161.172V171H435.042V151.92H438.354V154.8C439.05 153.816 439.986 153.06 441.162 152.532C442.362 152.004 443.718 151.74 445.23 151.74ZM457.098 178.2C456.258 178.2 455.478 178.104 454.758 177.912C454.038 177.72 453.438 177.432 452.958 177.048L454.074 174.384C454.794 174.984 455.73 175.284 456.882 175.284C457.794 175.284 458.49 174.996 458.97 174.42C459.474 173.868 459.726 173.04 459.726 171.936V151.92H463.182V171.864C463.182 173.832 462.654 175.38 461.598 176.508C460.542 177.636 459.042 178.2 457.098 178.2ZM461.454 148.248C460.782 148.248 460.218 148.032 459.762 147.6C459.33 147.168 459.114 146.64 459.114 146.016C459.114 145.392 459.33 144.864 459.762 144.432C460.218 143.976 460.782 143.748 461.454 143.748C462.126 143.748 462.678 143.964 463.11 144.396C463.566 144.804 463.794 145.32 463.794 145.944C463.794 146.592 463.566 147.144 463.11 147.6C462.678 148.032 462.126 148.248 461.454 148.248ZM477.948 171.216C476.052 171.216 474.348 170.796 472.836 169.956C471.324 169.116 470.136 167.964 469.272 166.5C468.432 165.012 468.012 163.332 468.012 161.46C468.012 159.588 468.432 157.92 469.272 156.456C470.136 154.968 471.324 153.816 472.836 153C474.348 152.16 476.052 151.74 477.948 151.74C479.844 151.74 481.536 152.16 483.024 153C484.536 153.816 485.712 154.968 486.552 156.456C487.416 157.92 487.848 159.588 487.848 161.46C487.848 163.332 487.416 165.012 486.552 166.5C485.712 167.964 484.536 169.116 483.024 169.956C481.536 170.796 479.844 171.216 477.948 171.216ZM477.948 168.192C479.172 168.192 480.264 167.916 481.224 167.364C482.208 166.788 482.976 165.996 483.528 164.988C484.08 163.956 484.356 162.78 484.356 161.46C484.356 160.14 484.08 158.976 483.528 157.968C482.976 156.936 482.208 156.144 481.224 155.592C480.264 155.04 479.172 154.764 477.948 154.764C476.724 154.764 475.62 155.04 474.636 155.592C473.676 156.144 472.908 156.936 472.332 157.968C471.78 158.976 471.504 160.14 471.504 161.46C471.504 162.78 471.78 163.956 472.332 164.988C472.908 165.996 473.676 166.788 474.636 167.364C475.62 167.916 476.724 168.192 477.948 168.192ZM508.984 151.92L499.732 172.908C498.916 174.852 497.956 176.22 496.852 177.012C495.772 177.804 494.464 178.2 492.928 178.2C491.992 178.2 491.08 178.044 490.192 177.732C489.328 177.444 488.608 177.012 488.032 176.436L489.508 173.844C490.492 174.78 491.632 175.248 492.928 175.248C493.768 175.248 494.464 175.02 495.016 174.564C495.592 174.132 496.108 173.376 496.564 172.296L497.176 170.964L488.752 151.92H492.352L499.012 167.184L505.6 151.92H508.984ZM532.606 169.884C532.102 170.316 531.478 170.652 530.734 170.892C529.99 171.108 529.222 171.216 528.43 171.216C526.51 171.216 525.022 170.7 523.966 169.668C522.91 168.636 522.382 167.16 522.382 165.24V154.764H519.142V151.92H522.382V147.744H525.838V151.92H531.31V154.764H525.838V165.096C525.838 166.128 526.09 166.92 526.594 167.472C527.122 168.024 527.866 168.3 528.826 168.3C529.882 168.3 530.782 168 531.526 167.4L532.606 169.884ZM546.972 151.74C549.396 151.74 551.316 152.448 552.732 153.864C554.172 155.256 554.892 157.308 554.892 160.02V171H551.436V160.416C551.436 158.568 550.992 157.176 550.104 156.24C549.216 155.304 547.944 154.836 546.288 154.836C544.416 154.836 542.94 155.388 541.86 156.492C540.78 157.572 540.24 159.132 540.24 161.172V171H536.784V144.288H540.24V154.62C540.96 153.708 541.896 153 543.048 152.496C544.224 151.992 545.532 151.74 546.972 151.74ZM578.637 161.568C578.637 161.832 578.613 162.18 578.565 162.612H563.085C563.301 164.292 564.033 165.648 565.281 166.68C566.553 167.688 568.125 168.192 569.997 168.192C572.277 168.192 574.113 167.424 575.505 165.888L577.413 168.12C576.549 169.128 575.469 169.896 574.173 170.424C572.901 170.952 571.473 171.216 569.889 171.216C567.873 171.216 566.085 170.808 564.525 169.992C562.965 169.152 561.753 167.988 560.889 166.5C560.049 165.012 559.629 163.332 559.629 161.46C559.629 159.612 560.037 157.944 560.853 156.456C561.693 154.968 562.833 153.816 564.273 153C565.737 152.16 567.381 151.74 569.205 151.74C571.029 151.74 572.649 152.16 574.065 153C575.505 153.816 576.621 154.968 577.413 156.456C578.229 157.944 578.637 159.648 578.637 161.568ZM569.205 154.656C567.549 154.656 566.157 155.16 565.029 156.168C563.925 157.176 563.277 158.496 563.085 160.128H575.325C575.133 158.52 574.473 157.212 573.345 156.204C572.241 155.172 570.861 154.656 569.205 154.656ZM598.576 171.216C597.016 171.216 595.516 171.012 594.076 170.604C592.636 170.172 591.508 169.632 590.692 168.984L592.132 166.248C592.972 166.848 593.992 167.328 595.192 167.688C596.392 168.048 597.604 168.228 598.828 168.228C601.852 168.228 603.364 167.364 603.364 165.636C603.364 165.06 603.16 164.604 602.752 164.268C602.344 163.932 601.828 163.692 601.204 163.548C600.604 163.38 599.74 163.2 598.612 163.008C597.076 162.768 595.816 162.492 594.832 162.18C593.872 161.868 593.044 161.34 592.348 160.596C591.652 159.852 591.304 158.808 591.304 157.464C591.304 155.736 592.024 154.356 593.464 153.324C594.904 152.268 596.836 151.74 599.26 151.74C600.532 151.74 601.804 151.896 603.076 152.208C604.348 152.52 605.392 152.94 606.208 153.468L604.732 156.204C603.172 155.196 601.336 154.692 599.224 154.692C597.76 154.692 596.644 154.932 595.876 155.412C595.108 155.892 594.724 156.528 594.724 157.32C594.724 157.944 594.94 158.436 595.372 158.796C595.804 159.156 596.332 159.42 596.956 159.588C597.604 159.756 598.504 159.948 599.656 160.164C601.192 160.428 602.428 160.716 603.364 161.028C604.324 161.316 605.14 161.82 605.812 162.54C606.484 163.26 606.82 164.268 606.82 165.564C606.82 167.292 606.076 168.672 604.588 169.704C603.124 170.712 601.12 171.216 598.576 171.216ZM621.327 151.74C623.751 151.74 625.671 152.448 627.087 153.864C628.527 155.256 629.247 157.308 629.247 160.02V171H625.791V160.416C625.791 158.568 625.347 157.176 624.459 156.24C623.571 155.304 622.299 154.836 620.643 154.836C618.771 154.836 617.295 155.388 616.215 156.492C615.135 157.572 614.595 159.132 614.595 161.172V171H611.139V144.288H614.595V154.62C615.315 153.708 616.251 153 617.403 152.496C618.579 151.992 619.887 151.74 621.327 151.74ZM643.921 171.216C642.025 171.216 640.321 170.796 638.809 169.956C637.297 169.116 636.109 167.964 635.245 166.5C634.405 165.012 633.985 163.332 633.985 161.46C633.985 159.588 634.405 157.92 635.245 156.456C636.109 154.968 637.297 153.816 638.809 153C640.321 152.16 642.025 151.74 643.921 151.74C645.817 151.74 647.509 152.16 648.997 153C650.509 153.816 651.685 154.968 652.525 156.456C653.389 157.92 653.821 159.588 653.821 161.46C653.821 163.332 653.389 165.012 652.525 166.5C651.685 167.964 650.509 169.116 648.997 169.956C647.509 170.796 645.817 171.216 643.921 171.216ZM643.921 168.192C645.145 168.192 646.237 167.916 647.197 167.364C648.181 166.788 648.949 165.996 649.501 164.988C650.053 163.956 650.329 162.78 650.329 161.46C650.329 160.14 650.053 158.976 649.501 157.968C648.949 156.936 648.181 156.144 647.197 155.592C646.237 155.04 645.145 154.764 643.921 154.764C642.697 154.764 641.593 155.04 640.609 155.592C639.649 156.144 638.881 156.936 638.305 157.968C637.753 158.976 637.477 160.14 637.477 161.46C637.477 162.78 637.753 163.956 638.305 164.988C638.881 165.996 639.649 166.788 640.609 167.364C641.593 167.916 642.697 168.192 643.921 168.192ZM668.716 151.74C670.564 151.74 672.22 152.148 673.684 152.964C675.148 153.78 676.288 154.92 677.104 156.384C677.944 157.848 678.364 159.54 678.364 161.46C678.364 163.38 677.944 165.084 677.104 166.572C676.288 168.036 675.148 169.176 673.684 169.992C672.22 170.808 670.564 171.216 668.716 171.216C667.348 171.216 666.088 170.952 664.936 170.424C663.808 169.896 662.848 169.128 662.056 168.12V177.984H658.6V151.92H661.912V154.944C662.68 153.888 663.652 153.096 664.828 152.568C666.004 152.016 667.3 151.74 668.716 151.74ZM668.428 168.192C669.652 168.192 670.744 167.916 671.704 167.364C672.688 166.788 673.456 165.996 674.008 164.988C674.584 163.956 674.872 162.78 674.872 161.46C674.872 160.14 674.584 158.976 674.008 157.968C673.456 156.936 672.688 156.144 671.704 155.592C670.744 155.04 669.652 154.764 668.428 154.764C667.228 154.764 666.136 155.052 665.152 155.628C664.192 156.18 663.424 156.96 662.848 157.968C662.296 158.976 662.02 160.14 662.02 161.46C662.02 162.78 662.296 163.956 662.848 164.988C663.4 165.996 664.168 166.788 665.152 167.364C666.136 167.916 667.228 168.192 668.428 168.192ZM693.255 151.74C695.103 151.74 696.759 152.148 698.223 152.964C699.687 153.78 700.827 154.92 701.643 156.384C702.483 157.848 702.903 159.54 702.903 161.46C702.903 163.38 702.483 165.084 701.643 166.572C700.827 168.036 699.687 169.176 698.223 169.992C696.759 170.808 695.103 171.216 693.255 171.216C691.887 171.216 690.627 170.952 689.475 170.424C688.347 169.896 687.387 169.128 686.595 168.12V177.984H683.139V151.92H686.451V154.944C687.219 153.888 688.191 153.096 689.367 152.568C690.543 152.016 691.839 151.74 693.255 151.74ZM692.967 168.192C694.191 168.192 695.283 167.916 696.243 167.364C697.227 166.788 697.995 165.996 698.547 164.988C699.123 163.956 699.411 162.78 699.411 161.46C699.411 160.14 699.123 158.976 698.547 157.968C697.995 156.936 697.227 156.144 696.243 155.592C695.283 155.04 694.191 154.764 692.967 154.764C691.767 154.764 690.675 155.052 689.691 155.628C688.731 156.18 687.963 156.96 687.387 157.968C686.835 158.976 686.559 160.14 686.559 161.46C686.559 162.78 686.835 163.956 687.387 164.988C687.939 165.996 688.707 166.788 689.691 167.364C690.675 167.916 691.767 168.192 692.967 168.192ZM707.678 151.92H711.134V171H707.678V151.92ZM709.406 148.248C708.734 148.248 708.17 148.032 707.714 147.6C707.282 147.168 707.066 146.64 707.066 146.016C707.066 145.392 707.282 144.864 707.714 144.432C708.17 143.976 708.734 143.748 709.406 143.748C710.078 143.748 710.63 143.964 711.062 144.396C711.518 144.804 711.746 145.32 711.746 145.944C711.746 146.592 711.518 147.144 711.062 147.6C710.63 148.032 710.078 148.248 709.406 148.248ZM727.921 151.74C730.345 151.74 732.265 152.448 733.681 153.864C735.121 155.256 735.841 157.308 735.841 160.02V171H732.385V160.416C732.385 158.568 731.941 157.176 731.053 156.24C730.165 155.304 728.893 154.836 727.237 154.836C725.365 154.836 723.889 155.388 722.809 156.492C721.729 157.572 721.189 159.132 721.189 161.172V171H717.733V151.92H721.045V154.8C721.741 153.816 722.677 153.06 723.853 152.532C725.053 152.004 726.409 151.74 727.921 151.74ZM760.594 151.92V168.408C760.594 171.744 759.766 174.204 758.11 175.788C756.454 177.396 753.982 178.2 750.694 178.2C748.894 178.2 747.178 177.948 745.546 177.444C743.914 176.964 742.594 176.268 741.586 175.356L743.242 172.692C744.13 173.46 745.222 174.06 746.518 174.492C747.838 174.948 749.194 175.176 750.586 175.176C752.818 175.176 754.462 174.648 755.518 173.592C756.598 172.536 757.138 170.928 757.138 168.768V167.256C756.322 168.24 755.314 168.984 754.114 169.488C752.938 169.968 751.654 170.208 750.262 170.208C748.438 170.208 746.782 169.824 745.294 169.056C743.83 168.264 742.678 167.172 741.838 165.78C740.998 164.364 740.578 162.756 740.578 160.956C740.578 159.156 740.998 157.56 741.838 156.168C742.678 154.752 743.83 153.66 745.294 152.892C746.782 152.124 748.438 151.74 750.262 151.74C751.702 151.74 753.034 152.004 754.258 152.532C755.506 153.06 756.526 153.84 757.318 154.872V151.92H760.594ZM750.658 167.184C751.906 167.184 753.022 166.92 754.006 166.392C755.014 165.864 755.794 165.132 756.346 164.196C756.922 163.236 757.21 162.156 757.21 160.956C757.21 159.108 756.598 157.62 755.374 156.492C754.15 155.34 752.578 154.764 750.658 154.764C748.714 154.764 747.13 155.34 745.906 156.492C744.682 157.62 744.07 159.108 744.07 160.956C744.07 162.156 744.346 163.236 744.898 164.196C745.474 165.132 746.254 165.864 747.238 166.392C748.246 166.92 749.386 167.184 750.658 167.184ZM212.52 205.568C212.52 205.832 212.496 206.18 212.448 206.612H196.968C197.184 208.292 197.916 209.648 199.164 210.68C200.436 211.688 202.008 212.192 203.88 212.192C206.16 212.192 207.996 211.424 209.388 209.888L211.296 212.12C210.432 213.128 209.352 213.896 208.056 214.424C206.784 214.952 205.356 215.216 203.772 215.216C201.756 215.216 199.968 214.808 198.408 213.992C196.848 213.152 195.636 211.988 194.772 210.5C193.932 209.012 193.512 207.332 193.512 205.46C193.512 203.612 193.92 201.944 194.736 200.456C195.576 198.968 196.716 197.816 198.156 197C199.62 196.16 201.264 195.74 203.088 195.74C204.912 195.74 206.532 196.16 207.948 197C209.388 197.816 210.504 198.968 211.296 200.456C212.112 201.944 212.52 203.648 212.52 205.568ZM203.088 198.656C201.432 198.656 200.04 199.16 198.912 200.168C197.808 201.176 197.16 202.496 196.968 204.128H209.208C209.016 202.52 208.356 201.212 207.228 200.204C206.124 199.172 204.744 198.656 203.088 198.656ZM228.96 215L223.452 207.692L217.872 215H214.02L221.544 205.244L214.38 195.92H218.232L223.488 202.796L228.708 195.92H232.488L225.288 205.244L232.884 215H228.96ZM246.771 195.74C248.619 195.74 250.275 196.148 251.739 196.964C253.203 197.78 254.343 198.92 255.159 200.384C255.999 201.848 256.419 203.54 256.419 205.46C256.419 207.38 255.999 209.084 255.159 210.572C254.343 212.036 253.203 213.176 251.739 213.992C250.275 214.808 248.619 215.216 246.771 215.216C245.403 215.216 244.143 214.952 242.991 214.424C241.863 213.896 240.903 213.128 240.111 212.12V221.984H236.655V195.92H239.967V198.944C240.735 197.888 241.707 197.096 242.883 196.568C244.059 196.016 245.355 195.74 246.771 195.74ZM246.483 212.192C247.707 212.192 248.799 211.916 249.759 211.364C250.743 210.788 251.511 209.996 252.063 208.988C252.639 207.956 252.927 206.78 252.927 205.46C252.927 204.14 252.639 202.976 252.063 201.968C251.511 200.936 250.743 200.144 249.759 199.592C248.799 199.04 247.707 198.764 246.483 198.764C245.283 198.764 244.191 199.052 243.207 199.628C242.247 200.18 241.479 200.96 240.903 201.968C240.351 202.976 240.075 204.14 240.075 205.46C240.075 206.78 240.351 207.956 240.903 208.988C241.455 209.996 242.223 210.788 243.207 211.364C244.191 211.916 245.283 212.192 246.483 212.192ZM278.438 205.568C278.438 205.832 278.414 206.18 278.366 206.612H262.886C263.102 208.292 263.834 209.648 265.082 210.68C266.354 211.688 267.926 212.192 269.798 212.192C272.078 212.192 273.914 211.424 275.306 209.888L277.214 212.12C276.35 213.128 275.27 213.896 273.974 214.424C272.702 214.952 271.274 215.216 269.69 215.216C267.674 215.216 265.886 214.808 264.326 213.992C262.766 213.152 261.554 211.988 260.69 210.5C259.85 209.012 259.43 207.332 259.43 205.46C259.43 203.612 259.838 201.944 260.654 200.456C261.494 198.968 262.634 197.816 264.074 197C265.538 196.16 267.182 195.74 269.006 195.74C270.83 195.74 272.45 196.16 273.866 197C275.306 197.816 276.422 198.968 277.214 200.456C278.03 201.944 278.438 203.648 278.438 205.568ZM269.006 198.656C267.35 198.656 265.958 199.16 264.83 200.168C263.726 201.176 263.078 202.496 262.886 204.128H275.126C274.934 202.52 274.274 201.212 273.146 200.204C272.042 199.172 270.662 198.656 269.006 198.656ZM286.549 199.124C287.149 198.02 288.037 197.18 289.213 196.604C290.389 196.028 291.817 195.74 293.497 195.74V199.088C293.305 199.064 293.041 199.052 292.705 199.052C290.833 199.052 289.357 199.616 288.277 200.744C287.221 201.848 286.693 203.432 286.693 205.496V215H283.237V195.92H286.549V199.124ZM297.756 195.92H301.212V215H297.756V195.92ZM299.484 192.248C298.812 192.248 298.248 192.032 297.792 191.6C297.36 191.168 297.144 190.64 297.144 190.016C297.144 189.392 297.36 188.864 297.792 188.432C298.248 187.976 298.812 187.748 299.484 187.748C300.156 187.748 300.708 187.964 301.14 188.396C301.596 188.804 301.824 189.32 301.824 189.944C301.824 190.592 301.596 191.144 301.14 191.6C300.708 192.032 300.156 192.248 299.484 192.248ZM325.055 205.568C325.055 205.832 325.031 206.18 324.983 206.612H309.503C309.719 208.292 310.451 209.648 311.699 210.68C312.971 211.688 314.543 212.192 316.415 212.192C318.695 212.192 320.531 211.424 321.923 209.888L323.831 212.12C322.967 213.128 321.887 213.896 320.591 214.424C319.319 214.952 317.891 215.216 316.307 215.216C314.291 215.216 312.503 214.808 310.943 213.992C309.383 213.152 308.171 211.988 307.307 210.5C306.467 209.012 306.047 207.332 306.047 205.46C306.047 203.612 306.455 201.944 307.271 200.456C308.111 198.968 309.251 197.816 310.691 197C312.155 196.16 313.799 195.74 315.623 195.74C317.447 195.74 319.067 196.16 320.483 197C321.923 197.816 323.039 198.968 323.831 200.456C324.647 201.944 325.055 203.648 325.055 205.568ZM315.623 198.656C313.967 198.656 312.575 199.16 311.447 200.168C310.343 201.176 309.695 202.496 309.503 204.128H321.743C321.551 202.52 320.891 201.212 319.763 200.204C318.659 199.172 317.279 198.656 315.623 198.656ZM340.042 195.74C342.466 195.74 344.386 196.448 345.802 197.864C347.242 199.256 347.962 201.308 347.962 204.02V215H344.506V204.416C344.506 202.568 344.062 201.176 343.174 200.24C342.286 199.304 341.014 198.836 339.358 198.836C337.486 198.836 336.01 199.388 334.93 200.492C333.85 201.572 333.31 203.132 333.31 205.172V215H329.854V195.92H333.166V198.8C333.862 197.816 334.798 197.06 335.974 196.532C337.174 196.004 338.53 195.74 340.042 195.74ZM362.78 215.216C360.836 215.216 359.096 214.796 357.56 213.956C356.048 213.116 354.86 211.964 353.996 210.5C353.132 209.012 352.7 207.332 352.7 205.46C352.7 203.588 353.132 201.92 353.996 200.456C354.86 198.968 356.048 197.816 357.56 197C359.096 196.16 360.836 195.74 362.78 195.74C364.508 195.74 366.044 196.088 367.388 196.784C368.756 197.48 369.812 198.488 370.556 199.808L367.928 201.5C367.328 200.588 366.584 199.904 365.696 199.448C364.808 198.992 363.824 198.764 362.744 198.764C361.496 198.764 360.368 199.04 359.36 199.592C358.376 200.144 357.596 200.936 357.02 201.968C356.468 202.976 356.192 204.14 356.192 205.46C356.192 206.804 356.468 207.992 357.02 209.024C357.596 210.032 358.376 210.812 359.36 211.364C360.368 211.916 361.496 212.192 362.744 212.192C363.824 212.192 364.808 211.964 365.696 211.508C366.584 211.052 367.328 210.368 367.928 209.456L370.556 211.112C369.812 212.432 368.756 213.452 367.388 214.172C366.044 214.868 364.508 215.216 362.78 215.216ZM391.993 205.568C391.993 205.832 391.969 206.18 391.921 206.612H376.441C376.657 208.292 377.389 209.648 378.637 210.68C379.909 211.688 381.481 212.192 383.353 212.192C385.633 212.192 387.469 211.424 388.861 209.888L390.769 212.12C389.905 213.128 388.825 213.896 387.529 214.424C386.257 214.952 384.829 215.216 383.245 215.216C381.229 215.216 379.441 214.808 377.881 213.992C376.321 213.152 375.109 211.988 374.245 210.5C373.405 209.012 372.985 207.332 372.985 205.46C372.985 203.612 373.393 201.944 374.209 200.456C375.049 198.968 376.189 197.816 377.629 197C379.093 196.16 380.737 195.74 382.561 195.74C384.385 195.74 386.005 196.16 387.421 197C388.861 197.816 389.977 198.968 390.769 200.456C391.585 201.944 391.993 203.648 391.993 205.568ZM382.561 198.656C380.905 198.656 379.513 199.16 378.385 200.168C377.281 201.176 376.633 202.496 376.441 204.128H388.681C388.489 202.52 387.829 201.212 386.701 200.204C385.597 199.172 384.217 198.656 382.561 198.656ZM396.324 189.8H400.392L399.708 207.044H396.972L396.324 189.8ZM398.376 215.216C397.704 215.216 397.14 215 396.684 214.568C396.228 214.112 396 213.56 396 212.912C396 212.264 396.228 211.724 396.684 211.292C397.14 210.836 397.704 210.608 398.376 210.608C399.048 210.608 399.6 210.836 400.032 211.292C400.464 211.724 400.68 212.264 400.68 212.912C400.68 213.56 400.452 214.112 399.996 214.568C399.564 215 399.024 215.216 398.376 215.216Z" fill="white"/>
<path d="M215.024 47.576C212.368 47.576 209.792 47.224 207.296 46.52C204.832 45.784 202.848 44.84 201.344 43.688L203.984 37.832C205.424 38.888 207.136 39.736 209.12 40.376C211.104 41.016 213.088 41.336 215.072 41.336C217.28 41.336 218.912 41.016 219.968 40.376C221.024 39.704 221.552 38.824 221.552 37.736C221.552 36.936 221.232 36.28 220.592 35.768C219.984 35.224 219.184 34.792 218.192 34.472C217.232 34.152 215.92 33.8 214.256 33.416C211.696 32.808 209.6 32.2 207.968 31.592C206.336 30.984 204.928 30.008 203.744 28.664C202.592 27.32 202.016 25.528 202.016 23.288C202.016 21.336 202.544 19.576 203.6 18.008C204.656 16.408 206.24 15.144 208.352 14.216C210.496 13.288 213.104 12.824 216.176 12.824C218.32 12.824 220.416 13.08 222.464 13.592C224.512 14.104 226.304 14.84 227.84 15.8L225.44 21.704C222.336 19.944 219.232 19.064 216.128 19.064C213.952 19.064 212.336 19.416 211.28 20.12C210.256 20.824 209.744 21.752 209.744 22.904C209.744 24.056 210.336 24.92 211.52 25.496C212.736 26.04 214.576 26.584 217.04 27.128C219.6 27.736 221.696 28.344 223.328 28.952C224.96 29.56 226.352 30.52 227.504 31.832C228.688 33.144 229.28 34.92 229.28 37.16C229.28 39.08 228.736 40.84 227.648 42.44C226.592 44.008 224.992 45.256 222.848 46.184C220.704 47.112 218.096 47.576 215.024 47.576ZM250.721 45.752C249.985 46.296 249.073 46.712 247.985 47C246.929 47.256 245.809 47.384 244.625 47.384C241.553 47.384 239.169 46.6 237.473 45.032C235.809 43.464 234.977 41.16 234.977 38.12V27.512H230.993V21.752H234.977V15.464H242.465V21.752H248.897V27.512H242.465V38.024C242.465 39.112 242.737 39.96 243.281 40.568C243.857 41.144 244.657 41.432 245.681 41.432C246.865 41.432 247.873 41.112 248.705 40.472L250.721 45.752ZM265.341 20.792C269.341 20.792 272.413 21.752 274.557 23.672C276.701 25.56 277.773 28.424 277.773 32.264V47H270.765V43.784C269.357 46.184 266.733 47.384 262.893 47.384C260.909 47.384 259.181 47.048 257.709 46.376C256.269 45.704 255.165 44.776 254.397 43.592C253.629 42.408 253.245 41.064 253.245 39.56C253.245 37.16 254.141 35.272 255.933 33.896C257.757 32.52 260.557 31.832 264.333 31.832H270.285C270.285 30.2 269.789 28.952 268.797 28.088C267.805 27.192 266.317 26.744 264.333 26.744C262.957 26.744 261.597 26.968 260.253 27.416C258.941 27.832 257.821 28.408 256.893 29.144L254.205 23.912C255.613 22.92 257.293 22.152 259.245 21.608C261.229 21.064 263.261 20.792 265.341 20.792ZM264.765 42.344C266.045 42.344 267.181 42.056 268.173 41.48C269.165 40.872 269.869 39.992 270.285 38.84V36.2H265.149C262.077 36.2 260.541 37.208 260.541 39.224C260.541 40.184 260.909 40.952 261.645 41.528C262.413 42.072 263.453 42.344 264.765 42.344ZM291.702 24.584C292.598 23.336 293.798 22.392 295.302 21.752C296.838 21.112 298.598 20.792 300.582 20.792V27.704C299.75 27.64 299.19 27.608 298.902 27.608C296.758 27.608 295.078 28.216 293.862 29.432C292.646 30.616 292.038 32.408 292.038 34.808V47H284.55V21.176H291.702V24.584ZM322.581 45.752C321.845 46.296 320.933 46.712 319.845 47C318.789 47.256 317.669 47.384 316.485 47.384C313.413 47.384 311.029 46.6 309.333 45.032C307.669 43.464 306.837 41.16 306.837 38.12V27.512H302.853V21.752H306.837V15.464H314.325V21.752H320.757V27.512H314.325V38.024C314.325 39.112 314.597 39.96 315.141 40.568C315.717 41.144 316.517 41.432 317.541 41.432C318.725 41.432 319.733 41.112 320.565 40.472L322.581 45.752ZM351.946 47.576C349.29 47.576 346.714 47.224 344.218 46.52C341.754 45.784 339.77 44.84 338.266 43.688L340.906 37.832C342.346 38.888 344.058 39.736 346.042 40.376C348.026 41.016 350.01 41.336 351.994 41.336C354.202 41.336 355.834 41.016 356.89 40.376C357.946 39.704 358.474 38.824 358.474 37.736C358.474 36.936 358.154 36.28 357.514 35.768C356.906 35.224 356.106 34.792 355.114 34.472C354.154 34.152 352.842 33.8 351.178 33.416C348.618 32.808 346.522 32.2 344.89 31.592C343.258 30.984 341.85 30.008 340.666 28.664C339.514 27.32 338.938 25.528 338.938 23.288C338.938 21.336 339.466 19.576 340.522 18.008C341.578 16.408 343.162 15.144 345.274 14.216C347.418 13.288 350.026 12.824 353.098 12.824C355.242 12.824 357.338 13.08 359.386 13.592C361.434 14.104 363.226 14.84 364.762 15.8L362.362 21.704C359.258 19.944 356.154 19.064 353.05 19.064C350.874 19.064 349.258 19.416 348.202 20.12C347.178 20.824 346.666 21.752 346.666 22.904C346.666 24.056 347.258 24.92 348.442 25.496C349.658 26.04 351.498 26.584 353.962 27.128C356.522 27.736 358.618 28.344 360.25 28.952C361.882 29.56 363.274 30.52 364.426 31.832C365.61 33.144 366.202 34.92 366.202 37.16C366.202 39.08 365.658 40.84 364.57 42.44C363.514 44.008 361.914 45.256 359.77 46.184C357.626 47.112 355.018 47.576 351.946 47.576ZM386.683 20.792C389.883 20.792 392.459 21.752 394.411 23.672C396.395 25.592 397.387 28.44 397.387 32.216V47H389.899V33.368C389.899 31.32 389.451 29.8 388.555 28.808C387.659 27.784 386.363 27.272 384.667 27.272C382.779 27.272 381.275 27.864 380.155 29.048C379.035 30.2 378.475 31.928 378.475 34.232V47H370.987V11.384H378.475V23.864C379.467 22.872 380.667 22.12 382.075 21.608C383.483 21.064 385.019 20.792 386.683 20.792ZM416.744 47.384C414.024 47.384 411.576 46.824 409.4 45.704C407.256 44.552 405.576 42.968 404.36 40.952C403.144 38.936 402.536 36.648 402.536 34.088C402.536 31.528 403.144 29.24 404.36 27.224C405.576 25.208 407.256 23.64 409.4 22.52C411.576 21.368 414.024 20.792 416.744 20.792C419.464 20.792 421.896 21.368 424.04 22.52C426.184 23.64 427.864 25.208 429.08 27.224C430.296 29.24 430.904 31.528 430.904 34.088C430.904 36.648 430.296 38.936 429.08 40.952C427.864 42.968 426.184 44.552 424.04 45.704C421.896 46.824 419.464 47.384 416.744 47.384ZM416.744 41.24C418.664 41.24 420.232 40.6 421.448 39.32C422.696 38.008 423.32 36.264 423.32 34.088C423.32 31.912 422.696 30.184 421.448 28.904C420.232 27.592 418.664 26.936 416.744 26.936C414.824 26.936 413.24 27.592 411.992 28.904C410.744 30.184 410.12 31.912 410.12 34.088C410.12 36.264 410.744 38.008 411.992 39.32C413.24 40.6 414.824 41.24 416.744 41.24ZM451.173 20.792C453.573 20.792 455.749 21.352 457.701 22.472C459.685 23.56 461.237 25.112 462.357 27.128C463.477 29.112 464.037 31.432 464.037 34.088C464.037 36.744 463.477 39.08 462.357 41.096C461.237 43.08 459.685 44.632 457.701 45.752C455.749 46.84 453.573 47.384 451.173 47.384C447.877 47.384 445.285 46.344 443.397 44.264V56.312H435.909V21.176H443.061V24.152C444.917 21.912 447.621 20.792 451.173 20.792ZM449.877 41.24C451.797 41.24 453.365 40.6 454.581 39.32C455.829 38.008 456.453 36.264 456.453 34.088C456.453 31.912 455.829 30.184 454.581 28.904C453.365 27.592 451.797 26.936 449.877 26.936C447.957 26.936 446.373 27.592 445.125 28.904C443.909 30.184 443.301 31.912 443.301 34.088C443.301 36.264 443.909 38.008 445.125 39.32C446.373 40.6 447.957 41.24 449.877 41.24ZM484.314 20.792C486.714 20.792 488.89 21.352 490.842 22.472C492.826 23.56 494.378 25.112 495.498 27.128C496.618 29.112 497.178 31.432 497.178 34.088C497.178 36.744 496.618 39.08 495.498 41.096C494.378 43.08 492.826 44.632 490.842 45.752C488.89 46.84 486.714 47.384 484.314 47.384C481.018 47.384 478.426 46.344 476.538 44.264V56.312H469.05V21.176H476.202V24.152C478.058 21.912 480.762 20.792 484.314 20.792ZM483.018 41.24C484.938 41.24 486.506 40.6 487.722 39.32C488.97 38.008 489.594 36.264 489.594 34.088C489.594 31.912 488.97 30.184 487.722 28.904C486.506 27.592 484.938 26.936 483.018 26.936C481.098 26.936 479.514 27.592 478.266 28.904C477.05 30.184 476.442 31.912 476.442 34.088C476.442 36.264 477.05 38.008 478.266 39.32C479.514 40.6 481.098 41.24 483.018 41.24ZM502.19 21.176H509.678V47H502.19V21.176ZM505.934 17.576C504.558 17.576 503.438 17.176 502.574 16.376C501.71 15.576 501.278 14.584 501.278 13.4C501.278 12.216 501.71 11.224 502.574 10.424C503.438 9.624 504.558 9.224 505.934 9.224C507.31 9.224 508.43 9.608 509.294 10.376C510.158 11.144 510.59 12.104 510.59 13.256C510.59 14.504 510.158 15.544 509.294 16.376C508.43 17.176 507.31 17.576 505.934 17.576ZM532.324 20.792C535.524 20.792 538.1 21.752 540.052 23.672C542.036 25.592 543.028 28.44 543.028 32.216V47H535.54V33.368C535.54 31.32 535.092 29.8 534.196 28.808C533.3 27.784 532.004 27.272 530.308 27.272C528.42 27.272 526.916 27.864 525.796 29.048C524.676 30.2 524.116 31.928 524.116 34.232V47H516.628V21.176H523.78V24.2C524.772 23.112 526.004 22.28 527.476 21.704C528.948 21.096 530.564 20.792 532.324 20.792ZM576.737 21.176V42.68C576.737 47.416 575.505 50.936 573.041 53.24C570.577 55.544 566.977 56.696 562.241 56.696C559.745 56.696 557.377 56.392 555.137 55.784C552.897 55.176 551.041 54.296 549.569 53.144L552.545 47.768C553.633 48.664 555.009 49.368 556.673 49.88C558.337 50.424 560.001 50.696 561.665 50.696C564.257 50.696 566.161 50.104 567.377 48.92C568.625 47.768 569.249 46.008 569.249 43.64V42.536C567.297 44.68 564.577 45.752 561.089 45.752C558.721 45.752 556.545 45.24 554.561 44.216C552.609 43.16 551.057 41.688 549.905 39.8C548.753 37.912 548.177 35.736 548.177 33.272C548.177 30.808 548.753 28.632 549.905 26.744C551.057 24.856 552.609 23.4 554.561 22.376C556.545 21.32 558.721 20.792 561.089 20.792C564.833 20.792 567.681 22.024 569.633 24.488V21.176H576.737ZM562.577 39.608C564.561 39.608 566.177 39.032 567.425 37.88C568.705 36.696 569.345 35.16 569.345 33.272C569.345 31.384 568.705 29.864 567.425 28.712C566.177 27.528 564.561 26.936 562.577 26.936C560.593 26.936 558.961 27.528 557.681 28.712C556.401 29.864 555.761 31.384 555.761 33.272C555.761 35.16 556.401 36.696 557.681 37.88C558.961 39.032 560.593 39.608 562.577 39.608ZM582.746 13.4H591.674L590.186 35.336H584.234L582.746 13.4ZM587.21 47.384C585.898 47.384 584.794 46.968 583.898 46.136C583.034 45.272 582.602 44.232 582.602 43.016C582.602 41.8 583.034 40.792 583.898 39.992C584.762 39.16 585.866 38.744 587.21 38.744C588.554 38.744 589.658 39.16 590.522 39.992C591.386 40.792 591.818 41.8 591.818 43.016C591.818 44.232 591.37 45.272 590.474 46.136C589.61 46.968 588.522 47.384 587.21 47.384Z" fill="white"/>
<circle cx="67.5" cy="67.5" r="67.5" fill="white"/>
<path d="M67.5002 41.071C69.0778 41.071 70.6399 41.3818 72.0975 41.9855C73.555 42.5892 74.8793 43.4741 75.9948 44.5896C77.1103 45.7052 77.9952 47.0295 78.5989 48.487C79.2027 49.9445 79.5134 51.5066 79.5134 53.0842V57.8895H86.7213C87.3585 57.8895 87.9697 58.1426 88.4202 58.5932C88.8708 59.0438 89.1239 59.6549 89.1239 60.2922V89.1238C89.1239 89.761 88.8708 90.3722 88.4202 90.8227C87.9697 91.2733 87.3585 91.5265 86.7213 91.5265H48.2791C47.6419 91.5265 47.0308 91.2733 46.5802 90.8227C46.1296 90.3722 45.8765 89.761 45.8765 89.1238V60.2922C45.8765 59.6549 46.1296 59.0438 46.5802 58.5932C47.0308 58.1426 47.6419 57.8895 48.2791 57.8895H55.487V53.0842C55.487 49.8981 56.7527 46.8425 59.0056 44.5896C61.2585 42.3367 64.3141 41.071 67.5002 41.071ZM79.5134 65.0974H74.7081V67.5001C74.7088 68.1125 74.9433 68.7015 75.3637 69.1468C75.7841 69.5921 76.3586 69.86 76.97 69.8959C77.5813 69.9318 78.1832 69.7329 78.6528 69.3399C79.1225 68.9468 79.4243 68.3893 79.4966 67.7812L79.5134 67.5001V65.0974ZM60.2923 65.0974H55.487V67.5001C55.4877 68.1125 55.7222 68.7015 56.1426 69.1468C56.563 69.5921 57.1375 69.86 57.7488 69.8959C58.3602 69.9318 58.9621 69.7329 59.4317 69.3399C59.9013 68.9468 60.2031 68.3893 60.2755 67.7812L60.2923 67.5001V65.0974ZM67.5002 45.8763C65.6617 45.8762 63.8926 46.5787 62.555 47.84C61.2173 49.1012 60.4122 50.826 60.3043 52.6614L60.2923 53.0842V57.8895H74.7081V53.0842C74.7082 51.2457 74.0058 49.4766 72.7445 48.139C71.4832 46.8013 69.7584 45.9962 67.9231 45.8883L67.5002 45.8763Z" fill="#03053D"/>
</svg>
