<svg width="831" height="180" viewBox="0 0 831 180" fill="none" xmlns="http://www.w3.org/2000/svg">
<path d="M195.78 101.8H206.4C209.064 101.8 211.428 102.328 213.492 103.384C215.556 104.44 217.152 105.928 218.28 107.848C219.432 109.744 220.008 111.928 220.008 114.4C220.008 116.872 219.432 119.068 218.28 120.988C217.152 122.884 215.556 124.36 213.492 125.416C211.428 126.472 209.064 127 206.4 127H195.78V101.8ZM206.184 123.868C208.224 123.868 210.012 123.472 211.548 122.68C213.108 121.888 214.308 120.784 215.148 119.368C215.988 117.928 216.408 116.272 216.408 114.4C216.408 112.528 215.988 110.884 215.148 109.468C214.308 108.028 213.108 106.912 211.548 106.12C210.012 105.328 208.224 104.932 206.184 104.932H199.38V123.868H206.184ZM233.19 127.216C231.294 127.216 229.59 126.796 228.078 125.956C226.566 125.116 225.378 123.964 224.514 122.5C223.674 121.012 223.254 119.332 223.254 117.46C223.254 115.588 223.674 113.92 224.514 112.456C225.378 110.968 226.566 109.816 228.078 109C229.59 108.16 231.294 107.74 233.19 107.74C235.086 107.74 236.778 108.16 238.266 109C239.778 109.816 240.954 110.968 241.794 112.456C242.658 113.92 243.09 115.588 243.09 117.46C243.09 119.332 242.658 121.012 241.794 122.5C240.954 123.964 239.778 125.116 238.266 125.956C236.778 126.796 235.086 127.216 233.19 127.216ZM233.19 124.192C234.414 124.192 235.506 123.916 236.466 123.364C237.45 122.788 238.218 121.996 238.77 120.988C239.322 119.956 239.598 118.78 239.598 117.46C239.598 116.14 239.322 114.976 238.77 113.968C238.218 112.936 237.45 112.144 236.466 111.592C235.506 111.04 234.414 110.764 233.19 110.764C231.966 110.764 230.862 111.04 229.878 111.592C228.918 112.144 228.15 112.936 227.574 113.968C227.022 114.976 226.746 116.14 226.746 117.46C226.746 118.78 227.022 119.956 227.574 120.988C228.15 121.996 228.918 122.788 229.878 123.364C230.862 123.916 231.966 124.192 233.19 124.192ZM258.058 107.74C260.482 107.74 262.402 108.448 263.818 109.864C265.258 111.256 265.978 113.308 265.978 116.02V127H262.522V116.416C262.522 114.568 262.078 113.176 261.19 112.24C260.302 111.304 259.03 110.836 257.374 110.836C255.502 110.836 254.026 111.388 252.946 112.492C251.866 113.572 251.326 115.132 251.326 117.172V127H247.87V107.92H251.182V110.8C251.878 109.816 252.814 109.06 253.99 108.532C255.19 108.004 256.546 107.74 258.058 107.74ZM272.992 100.072C273.664 100.072 274.216 100.312 274.648 100.792C275.104 101.248 275.332 101.824 275.332 102.52C275.332 102.88 275.296 103.24 275.224 103.6C275.152 103.936 274.996 104.428 274.756 105.076L273.028 110.116H270.76L272.092 104.752C271.636 104.584 271.264 104.308 270.976 103.924C270.712 103.516 270.58 103.048 270.58 102.52C270.58 101.8 270.808 101.212 271.264 100.756C271.72 100.3 272.296 100.072 272.992 100.072ZM291.117 125.884C290.613 126.316 289.989 126.652 289.245 126.892C288.501 127.108 287.733 127.216 286.941 127.216C285.021 127.216 283.533 126.7 282.477 125.668C281.421 124.636 280.893 123.16 280.893 121.24V110.764H277.653V107.92H280.893V103.744H284.349V107.92H289.821V110.764H284.349V121.096C284.349 122.128 284.601 122.92 285.105 123.472C285.633 124.024 286.377 124.3 287.337 124.3C288.393 124.3 289.293 124 290.037 123.4L291.117 125.884ZM311.948 102.916C309.884 102.916 308.852 104.032 308.852 106.264V107.92H314.396V110.764H308.924V127H305.468V110.764H302.228V107.92H305.468V106.228C305.468 104.332 306.02 102.832 307.124 101.728C308.228 100.624 309.776 100.072 311.768 100.072C312.536 100.072 313.256 100.168 313.928 100.36C314.6 100.552 315.176 100.828 315.656 101.188L314.612 103.816C313.82 103.216 312.932 102.916 311.948 102.916ZM325.546 127.216C323.65 127.216 321.946 126.796 320.434 125.956C318.922 125.116 317.734 123.964 316.87 122.5C316.03 121.012 315.61 119.332 315.61 117.46C315.61 115.588 316.03 113.92 316.87 112.456C317.734 110.968 318.922 109.816 320.434 109C321.946 108.16 323.65 107.74 325.546 107.74C327.442 107.74 329.134 108.16 330.622 109C332.134 109.816 333.31 110.968 334.15 112.456C335.014 113.92 335.446 115.588 335.446 117.46C335.446 119.332 335.014 121.012 334.15 122.5C333.31 123.964 332.134 125.116 330.622 125.956C329.134 126.796 327.442 127.216 325.546 127.216ZM325.546 124.192C326.77 124.192 327.862 123.916 328.822 123.364C329.806 122.788 330.574 121.996 331.126 120.988C331.678 119.956 331.954 118.78 331.954 117.46C331.954 116.14 331.678 114.976 331.126 113.968C330.574 112.936 329.806 112.144 328.822 111.592C327.862 111.04 326.77 110.764 325.546 110.764C324.322 110.764 323.218 111.04 322.234 111.592C321.274 112.144 320.506 112.936 319.93 113.968C319.378 114.976 319.102 116.14 319.102 117.46C319.102 118.78 319.378 119.956 319.93 120.988C320.506 121.996 321.274 122.788 322.234 123.364C323.218 123.916 324.322 124.192 325.546 124.192ZM343.537 111.124C344.137 110.02 345.025 109.18 346.201 108.604C347.377 108.028 348.805 107.74 350.485 107.74V111.088C350.293 111.064 350.029 111.052 349.693 111.052C347.821 111.052 346.345 111.616 345.265 112.744C344.209 113.848 343.681 115.432 343.681 117.496V127H340.225V107.92H343.537V111.124ZM372.821 107.92V124.408C372.821 127.744 371.993 130.204 370.337 131.788C368.681 133.396 366.209 134.2 362.921 134.2C361.121 134.2 359.405 133.948 357.773 133.444C356.141 132.964 354.821 132.268 353.813 131.356L355.469 128.692C356.357 129.46 357.449 130.06 358.745 130.492C360.065 130.948 361.421 131.176 362.813 131.176C365.045 131.176 366.689 130.648 367.745 129.592C368.825 128.536 369.365 126.928 369.365 124.768V123.256C368.549 124.24 367.541 124.984 366.341 125.488C365.165 125.968 363.881 126.208 362.489 126.208C360.665 126.208 359.009 125.824 357.521 125.056C356.057 124.264 354.905 123.172 354.065 121.78C353.225 120.364 352.805 118.756 352.805 116.956C352.805 115.156 353.225 113.56 354.065 112.168C354.905 110.752 356.057 109.66 357.521 108.892C359.009 108.124 360.665 107.74 362.489 107.74C363.929 107.74 365.261 108.004 366.485 108.532C367.733 109.06 368.753 109.84 369.545 110.872V107.92H372.821ZM362.885 123.184C364.133 123.184 365.249 122.92 366.233 122.392C367.241 121.864 368.021 121.132 368.573 120.196C369.149 119.236 369.437 118.156 369.437 116.956C369.437 115.108 368.825 113.62 367.601 112.492C366.377 111.34 364.805 110.764 362.885 110.764C360.941 110.764 359.357 111.34 358.133 112.492C356.909 113.62 356.297 115.108 356.297 116.956C356.297 118.156 356.573 119.236 357.125 120.196C357.701 121.132 358.481 121.864 359.465 122.392C360.473 122.92 361.613 123.184 362.885 123.184ZM396.668 117.568C396.668 117.832 396.644 118.18 396.596 118.612H381.116C381.332 120.292 382.064 121.648 383.312 122.68C384.584 123.688 386.156 124.192 388.028 124.192C390.308 124.192 392.144 123.424 393.536 121.888L395.444 124.12C394.58 125.128 393.5 125.896 392.204 126.424C390.932 126.952 389.504 127.216 387.92 127.216C385.904 127.216 384.116 126.808 382.556 125.992C380.996 125.152 379.784 123.988 378.92 122.5C378.08 121.012 377.66 119.332 377.66 117.46C377.66 115.612 378.068 113.944 378.884 112.456C379.724 110.968 380.864 109.816 382.304 109C383.768 108.16 385.412 107.74 387.236 107.74C389.06 107.74 390.68 108.16 392.096 109C393.536 109.816 394.652 110.968 395.444 112.456C396.26 113.944 396.668 115.648 396.668 117.568ZM387.236 110.656C385.58 110.656 384.188 111.16 383.06 112.168C381.956 113.176 381.308 114.496 381.116 116.128H393.356C393.164 114.52 392.504 113.212 391.376 112.204C390.272 111.172 388.892 110.656 387.236 110.656ZM412.195 125.884C411.691 126.316 411.067 126.652 410.323 126.892C409.579 127.108 408.811 127.216 408.019 127.216C406.099 127.216 404.611 126.7 403.555 125.668C402.499 124.636 401.971 123.16 401.971 121.24V110.764H398.731V107.92H401.971V103.744H405.427V107.92H410.899V110.764H405.427V121.096C405.427 122.128 405.679 122.92 406.183 123.472C406.711 124.024 407.455 124.3 408.415 124.3C409.471 124.3 410.371 124 411.115 123.4L412.195 125.884ZM436.77 125.884C436.266 126.316 435.642 126.652 434.898 126.892C434.154 127.108 433.386 127.216 432.594 127.216C430.674 127.216 429.186 126.7 428.13 125.668C427.074 124.636 426.546 123.16 426.546 121.24V110.764H423.306V107.92H426.546V103.744H430.002V107.92H435.474V110.764H430.002V121.096C430.002 122.128 430.254 122.92 430.758 123.472C431.286 124.024 432.03 124.3 432.99 124.3C434.046 124.3 434.946 124 435.69 123.4L436.77 125.884ZM448.487 127.216C446.591 127.216 444.887 126.796 443.375 125.956C441.863 125.116 440.675 123.964 439.811 122.5C438.971 121.012 438.551 119.332 438.551 117.46C438.551 115.588 438.971 113.92 439.811 112.456C440.675 110.968 441.863 109.816 443.375 109C444.887 108.16 446.591 107.74 448.487 107.74C450.383 107.74 452.075 108.16 453.563 109C455.075 109.816 456.251 110.968 457.091 112.456C457.955 113.92 458.387 115.588 458.387 117.46C458.387 119.332 457.955 121.012 457.091 122.5C456.251 123.964 455.075 125.116 453.563 125.956C452.075 126.796 450.383 127.216 448.487 127.216ZM448.487 124.192C449.711 124.192 450.803 123.916 451.763 123.364C452.747 122.788 453.515 121.996 454.067 120.988C454.619 119.956 454.895 118.78 454.895 117.46C454.895 116.14 454.619 114.976 454.067 113.968C453.515 112.936 452.747 112.144 451.763 111.592C450.803 111.04 449.711 110.764 448.487 110.764C447.263 110.764 446.159 111.04 445.175 111.592C444.215 112.144 443.447 112.936 442.871 113.968C442.319 114.976 442.043 116.14 442.043 117.46C442.043 118.78 442.319 119.956 442.871 120.988C443.447 121.996 444.215 122.788 445.175 123.364C446.159 123.916 447.263 124.192 448.487 124.192ZM481.151 127.216C479.207 127.216 477.467 126.796 475.931 125.956C474.419 125.116 473.231 123.964 472.367 122.5C471.503 121.012 471.071 119.332 471.071 117.46C471.071 115.588 471.503 113.92 472.367 112.456C473.231 110.968 474.419 109.816 475.931 109C477.467 108.16 479.207 107.74 481.151 107.74C482.879 107.74 484.415 108.088 485.759 108.784C487.127 109.48 488.183 110.488 488.927 111.808L486.299 113.5C485.699 112.588 484.955 111.904 484.067 111.448C483.179 110.992 482.195 110.764 481.115 110.764C479.867 110.764 478.739 111.04 477.731 111.592C476.747 112.144 475.967 112.936 475.391 113.968C474.839 114.976 474.563 116.14 474.563 117.46C474.563 118.804 474.839 119.992 475.391 121.024C475.967 122.032 476.747 122.812 477.731 123.364C478.739 123.916 479.867 124.192 481.115 124.192C482.195 124.192 483.179 123.964 484.067 123.508C484.955 123.052 485.699 122.368 486.299 121.456L488.927 123.112C488.183 124.432 487.127 125.452 485.759 126.172C484.415 126.868 482.879 127.216 481.151 127.216ZM503.343 107.74C505.767 107.74 507.687 108.448 509.103 109.864C510.543 111.256 511.263 113.308 511.263 116.02V127H507.807V116.416C507.807 114.568 507.363 113.176 506.475 112.24C505.587 111.304 504.315 110.836 502.659 110.836C500.787 110.836 499.311 111.388 498.231 112.492C497.151 113.572 496.611 115.132 496.611 117.172V127H493.155V100.288H496.611V110.62C497.331 109.708 498.267 109 499.419 108.496C500.595 107.992 501.903 107.74 503.343 107.74ZM525.936 127.216C524.04 127.216 522.336 126.796 520.824 125.956C519.312 125.116 518.124 123.964 517.26 122.5C516.42 121.012 516 119.332 516 117.46C516 115.588 516.42 113.92 517.26 112.456C518.124 110.968 519.312 109.816 520.824 109C522.336 108.16 524.04 107.74 525.936 107.74C527.832 107.74 529.524 108.16 531.012 109C532.524 109.816 533.7 110.968 534.54 112.456C535.404 113.92 535.836 115.588 535.836 117.46C535.836 119.332 535.404 121.012 534.54 122.5C533.7 123.964 532.524 125.116 531.012 125.956C529.524 126.796 527.832 127.216 525.936 127.216ZM525.936 124.192C527.16 124.192 528.252 123.916 529.212 123.364C530.196 122.788 530.964 121.996 531.516 120.988C532.068 119.956 532.344 118.78 532.344 117.46C532.344 116.14 532.068 114.976 531.516 113.968C530.964 112.936 530.196 112.144 529.212 111.592C528.252 111.04 527.16 110.764 525.936 110.764C524.712 110.764 523.608 111.04 522.624 111.592C521.664 112.144 520.896 112.936 520.32 113.968C519.768 114.976 519.492 116.14 519.492 117.46C519.492 118.78 519.768 119.956 520.32 120.988C520.896 121.996 521.664 122.788 522.624 123.364C523.608 123.916 524.712 124.192 525.936 124.192ZM548.788 127.216C546.892 127.216 545.188 126.796 543.676 125.956C542.164 125.116 540.976 123.964 540.112 122.5C539.272 121.012 538.852 119.332 538.852 117.46C538.852 115.588 539.272 113.92 540.112 112.456C540.976 110.968 542.164 109.816 543.676 109C545.188 108.16 546.892 107.74 548.788 107.74C550.684 107.74 552.376 108.16 553.864 109C555.376 109.816 556.552 110.968 557.392 112.456C558.256 113.92 558.688 115.588 558.688 117.46C558.688 119.332 558.256 121.012 557.392 122.5C556.552 123.964 555.376 125.116 553.864 125.956C552.376 126.796 550.684 127.216 548.788 127.216ZM548.788 124.192C550.012 124.192 551.104 123.916 552.064 123.364C553.048 122.788 553.816 121.996 554.368 120.988C554.92 119.956 555.196 118.78 555.196 117.46C555.196 116.14 554.92 114.976 554.368 113.968C553.816 112.936 553.048 112.144 552.064 111.592C551.104 111.04 550.012 110.764 548.788 110.764C547.564 110.764 546.46 111.04 545.476 111.592C544.516 112.144 543.748 112.936 543.172 113.968C542.62 114.976 542.344 116.14 542.344 117.46C542.344 118.78 542.62 119.956 543.172 120.988C543.748 121.996 544.516 122.788 545.476 123.364C546.46 123.916 547.564 124.192 548.788 124.192ZM568.939 127.216C567.379 127.216 565.879 127.012 564.439 126.604C562.999 126.172 561.871 125.632 561.055 124.984L562.495 122.248C563.335 122.848 564.355 123.328 565.555 123.688C566.755 124.048 567.967 124.228 569.191 124.228C572.215 124.228 573.727 123.364 573.727 121.636C573.727 121.06 573.523 120.604 573.115 120.268C572.707 119.932 572.191 119.692 571.567 119.548C570.967 119.38 570.103 119.2 568.975 119.008C567.439 118.768 566.179 118.492 565.195 118.18C564.235 117.868 563.407 117.34 562.711 116.596C562.015 115.852 561.667 114.808 561.667 113.464C561.667 111.736 562.387 110.356 563.827 109.324C565.267 108.268 567.199 107.74 569.623 107.74C570.895 107.74 572.167 107.896 573.439 108.208C574.711 108.52 575.755 108.94 576.571 109.468L575.095 112.204C573.535 111.196 571.699 110.692 569.587 110.692C568.123 110.692 567.007 110.932 566.239 111.412C565.471 111.892 565.087 112.528 565.087 113.32C565.087 113.944 565.303 114.436 565.735 114.796C566.167 115.156 566.695 115.42 567.319 115.588C567.967 115.756 568.867 115.948 570.019 116.164C571.555 116.428 572.791 116.716 573.727 117.028C574.687 117.316 575.503 117.82 576.175 118.54C576.847 119.26 577.183 120.268 577.183 121.564C577.183 123.292 576.439 124.672 574.951 125.704C573.487 126.712 571.483 127.216 568.939 127.216ZM598.747 117.568C598.747 117.832 598.723 118.18 598.675 118.612H583.195C583.411 120.292 584.143 121.648 585.391 122.68C586.663 123.688 588.235 124.192 590.107 124.192C592.387 124.192 594.223 123.424 595.615 121.888L597.523 124.12C596.659 125.128 595.579 125.896 594.283 126.424C593.011 126.952 591.583 127.216 589.999 127.216C587.983 127.216 586.195 126.808 584.635 125.992C583.075 125.152 581.863 123.988 580.999 122.5C580.159 121.012 579.739 119.332 579.739 117.46C579.739 115.612 580.147 113.944 580.963 112.456C581.803 110.968 582.943 109.816 584.383 109C585.847 108.16 587.491 107.74 589.315 107.74C591.139 107.74 592.759 108.16 594.175 109C595.615 109.816 596.731 110.968 597.523 112.456C598.339 113.944 598.747 115.648 598.747 117.568ZM589.315 110.656C587.659 110.656 586.267 111.16 585.139 112.168C584.035 113.176 583.387 114.496 583.195 116.128H595.435C595.243 114.52 594.583 113.212 593.455 112.204C592.351 111.172 590.971 110.656 589.315 110.656ZM630.998 107.92V127H627.722V124.12C627.026 125.104 626.102 125.872 624.95 126.424C623.822 126.952 622.586 127.216 621.242 127.216C618.698 127.216 616.694 126.52 615.229 125.128C613.766 123.712 613.034 121.636 613.034 118.9V107.92H616.49V118.504C616.49 120.352 616.934 121.756 617.822 122.716C618.71 123.652 619.982 124.12 621.638 124.12C623.462 124.12 624.902 123.568 625.958 122.464C627.014 121.36 627.542 119.8 627.542 117.784V107.92H630.998ZM643.049 127.216C641.489 127.216 639.989 127.012 638.549 126.604C637.109 126.172 635.981 125.632 635.165 124.984L636.605 122.248C637.445 122.848 638.465 123.328 639.665 123.688C640.865 124.048 642.077 124.228 643.301 124.228C646.325 124.228 647.837 123.364 647.837 121.636C647.837 121.06 647.633 120.604 647.225 120.268C646.817 119.932 646.301 119.692 645.677 119.548C645.077 119.38 644.213 119.2 643.085 119.008C641.549 118.768 640.289 118.492 639.305 118.18C638.345 117.868 637.517 117.34 636.821 116.596C636.125 115.852 635.777 114.808 635.777 113.464C635.777 111.736 636.497 110.356 637.937 109.324C639.377 108.268 641.309 107.74 643.733 107.74C645.005 107.74 646.277 107.896 647.549 108.208C648.821 108.52 649.865 108.94 650.681 109.468L649.205 112.204C647.645 111.196 645.809 110.692 643.697 110.692C642.233 110.692 641.117 110.932 640.349 111.412C639.581 111.892 639.197 112.528 639.197 113.32C639.197 113.944 639.413 114.436 639.845 114.796C640.277 115.156 640.805 115.42 641.429 115.588C642.077 115.756 642.977 115.948 644.129 116.164C645.665 116.428 646.901 116.716 647.837 117.028C648.797 117.316 649.613 117.82 650.285 118.54C650.957 119.26 651.293 120.268 651.293 121.564C651.293 123.292 650.549 124.672 649.061 125.704C647.597 126.712 645.593 127.216 643.049 127.216ZM672.228 107.74C674.868 107.74 676.884 108.388 678.276 109.684C679.692 110.98 680.4 112.912 680.4 115.48V127H677.124V124.48C676.548 125.368 675.72 126.052 674.64 126.532C673.584 126.988 672.324 127.216 670.86 127.216C668.724 127.216 667.008 126.7 665.712 125.668C664.44 124.636 663.804 123.28 663.804 121.6C663.804 119.92 664.416 118.576 665.64 117.568C666.864 116.536 668.808 116.02 671.472 116.02H676.944V115.336C676.944 113.848 676.512 112.708 675.648 111.916C674.784 111.124 673.512 110.728 671.832 110.728C670.704 110.728 669.6 110.92 668.52 111.304C667.44 111.664 666.528 112.156 665.784 112.78L664.344 110.188C665.328 109.396 666.504 108.796 667.872 108.388C669.24 107.956 670.692 107.74 672.228 107.74ZM671.436 124.552C672.756 124.552 673.896 124.264 674.856 123.688C675.816 123.088 676.512 122.248 676.944 121.168V118.504H671.616C668.688 118.504 667.224 119.488 667.224 121.456C667.224 122.416 667.596 123.172 668.34 123.724C669.084 124.276 670.116 124.552 671.436 124.552ZM697.524 125.884C697.02 126.316 696.396 126.652 695.652 126.892C694.908 127.108 694.14 127.216 693.348 127.216C691.428 127.216 689.94 126.7 688.884 125.668C687.828 124.636 687.3 123.16 687.3 121.24V110.764H684.06V107.92H687.3V103.744H690.756V107.92H696.228V110.764H690.756V121.096C690.756 122.128 691.008 122.92 691.512 123.472C692.04 124.024 692.784 124.3 693.744 124.3C694.8 124.3 695.7 124 696.444 123.4L697.524 125.884ZM719.686 127.216C717.742 127.216 716.002 126.796 714.466 125.956C712.954 125.116 711.766 123.964 710.902 122.5C710.038 121.012 709.606 119.332 709.606 117.46C709.606 115.588 710.038 113.92 710.902 112.456C711.766 110.968 712.954 109.816 714.466 109C716.002 108.16 717.742 107.74 719.686 107.74C721.414 107.74 722.95 108.088 724.294 108.784C725.662 109.48 726.718 110.488 727.462 111.808L724.834 113.5C724.234 112.588 723.49 111.904 722.602 111.448C721.714 110.992 720.73 110.764 719.65 110.764C718.402 110.764 717.274 111.04 716.266 111.592C715.282 112.144 714.502 112.936 713.926 113.968C713.374 114.976 713.098 116.14 713.098 117.46C713.098 118.804 713.374 119.992 713.926 121.024C714.502 122.032 715.282 122.812 716.266 123.364C717.274 123.916 718.402 124.192 719.65 124.192C720.73 124.192 721.714 123.964 722.602 123.508C723.49 123.052 724.234 122.368 724.834 121.456L727.462 123.112C726.718 124.432 725.662 125.452 724.294 126.172C722.95 126.868 721.414 127.216 719.686 127.216ZM741.878 107.74C744.302 107.74 746.222 108.448 747.638 109.864C749.078 111.256 749.798 113.308 749.798 116.02V127H746.342V116.416C746.342 114.568 745.898 113.176 745.01 112.24C744.122 111.304 742.85 110.836 741.194 110.836C739.322 110.836 737.846 111.388 736.766 112.492C735.686 113.572 735.146 115.132 735.146 117.172V127H731.69V100.288H735.146V110.62C735.866 109.708 736.802 109 737.954 108.496C739.13 107.992 740.438 107.74 741.878 107.74ZM773.543 117.568C773.543 117.832 773.519 118.18 773.471 118.612H757.991C758.207 120.292 758.939 121.648 760.187 122.68C761.459 123.688 763.031 124.192 764.903 124.192C767.183 124.192 769.019 123.424 770.411 121.888L772.319 124.12C771.455 125.128 770.375 125.896 769.079 126.424C767.807 126.952 766.379 127.216 764.795 127.216C762.779 127.216 760.991 126.808 759.431 125.992C757.871 125.152 756.659 123.988 755.795 122.5C754.955 121.012 754.535 119.332 754.535 117.46C754.535 115.612 754.943 113.944 755.759 112.456C756.599 110.968 757.739 109.816 759.179 109C760.643 108.16 762.287 107.74 764.111 107.74C765.935 107.74 767.555 108.16 768.971 109C770.411 109.816 771.527 110.968 772.319 112.456C773.135 113.944 773.543 115.648 773.543 117.568ZM764.111 110.656C762.455 110.656 761.063 111.16 759.935 112.168C758.831 113.176 758.183 114.496 757.991 116.128H770.231C770.039 114.52 769.379 113.212 768.251 112.204C767.147 111.172 765.767 110.656 764.111 110.656ZM786.658 127.216C784.714 127.216 782.974 126.796 781.438 125.956C779.926 125.116 778.738 123.964 777.874 122.5C777.01 121.012 776.578 119.332 776.578 117.46C776.578 115.588 777.01 113.92 777.874 112.456C778.738 110.968 779.926 109.816 781.438 109C782.974 108.16 784.714 107.74 786.658 107.74C788.386 107.74 789.922 108.088 791.266 108.784C792.634 109.48 793.69 110.488 794.434 111.808L791.806 113.5C791.206 112.588 790.462 111.904 789.574 111.448C788.686 110.992 787.702 110.764 786.622 110.764C785.374 110.764 784.246 111.04 783.238 111.592C782.254 112.144 781.474 112.936 780.898 113.968C780.346 114.976 780.07 116.14 780.07 117.46C780.07 118.804 780.346 119.992 780.898 121.024C781.474 122.032 782.254 122.812 783.238 123.364C784.246 123.916 785.374 124.192 786.622 124.192C787.702 124.192 788.686 123.964 789.574 123.508C790.462 123.052 791.206 122.368 791.806 121.456L794.434 123.112C793.69 124.432 792.634 125.452 791.266 126.172C789.922 126.868 788.386 127.216 786.658 127.216ZM806.079 118.108L802.119 121.78V127H798.663V100.288H802.119V117.424L812.523 107.92H816.699L808.671 115.804L817.491 127H813.243L806.079 118.108ZM818.779 115.624H828.463V118.612H818.779V115.624ZM203.448 171.216C201.552 171.216 199.848 170.796 198.336 169.956C196.824 169.116 195.636 167.964 194.772 166.5C193.932 165.012 193.512 163.332 193.512 161.46C193.512 159.588 193.932 157.92 194.772 156.456C195.636 154.968 196.824 153.816 198.336 153C199.848 152.16 201.552 151.74 203.448 151.74C205.344 151.74 207.036 152.16 208.524 153C210.036 153.816 211.212 154.968 212.052 156.456C212.916 157.92 213.348 159.588 213.348 161.46C213.348 163.332 212.916 165.012 212.052 166.5C211.212 167.964 210.036 169.116 208.524 169.956C207.036 170.796 205.344 171.216 203.448 171.216ZM203.448 168.192C204.672 168.192 205.764 167.916 206.724 167.364C207.708 166.788 208.476 165.996 209.028 164.988C209.58 163.956 209.856 162.78 209.856 161.46C209.856 160.14 209.58 158.976 209.028 157.968C208.476 156.936 207.708 156.144 206.724 155.592C205.764 155.04 204.672 154.764 203.448 154.764C202.224 154.764 201.12 155.04 200.136 155.592C199.176 156.144 198.408 156.936 197.832 157.968C197.28 158.976 197.004 160.14 197.004 161.46C197.004 162.78 197.28 163.956 197.832 164.988C198.408 165.996 199.176 166.788 200.136 167.364C201.12 167.916 202.224 168.192 203.448 168.192ZM235.912 151.92V171H232.636V168.12C231.94 169.104 231.016 169.872 229.864 170.424C228.736 170.952 227.5 171.216 226.156 171.216C223.612 171.216 221.608 170.52 220.144 169.128C218.68 167.712 217.948 165.636 217.948 162.9V151.92H221.404V162.504C221.404 164.352 221.848 165.756 222.736 166.716C223.624 167.652 224.896 168.12 226.552 168.12C228.376 168.12 229.816 167.568 230.872 166.464C231.928 165.36 232.456 163.8 232.456 161.784V151.92H235.912ZM253.219 169.884C252.715 170.316 252.091 170.652 251.347 170.892C250.603 171.108 249.835 171.216 249.043 171.216C247.123 171.216 245.635 170.7 244.579 169.668C243.523 168.636 242.995 167.16 242.995 165.24V154.764H239.755V151.92H242.995V147.744H246.451V151.92H251.923V154.764H246.451V165.096C246.451 166.128 246.703 166.92 247.207 167.472C247.735 168.024 248.479 168.3 249.439 168.3C250.495 168.3 251.395 168 252.139 167.4L253.219 169.884ZM274.013 151.74C276.653 151.74 278.669 152.388 280.061 153.684C281.477 154.98 282.185 156.912 282.185 159.48V171H278.909V168.48C278.333 169.368 277.505 170.052 276.425 170.532C275.369 170.988 274.109 171.216 272.645 171.216C270.509 171.216 268.793 170.7 267.497 169.668C266.225 168.636 265.589 167.28 265.589 165.6C265.589 163.92 266.201 162.576 267.425 161.568C268.649 160.536 270.593 160.02 273.257 160.02H278.729V159.336C278.729 157.848 278.297 156.708 277.433 155.916C276.569 155.124 275.297 154.728 273.617 154.728C272.489 154.728 271.385 154.92 270.305 155.304C269.225 155.664 268.313 156.156 267.569 156.78L266.129 154.188C267.113 153.396 268.289 152.796 269.657 152.388C271.025 151.956 272.477 151.74 274.013 151.74ZM273.221 168.552C274.541 168.552 275.681 168.264 276.641 167.688C277.601 167.088 278.297 166.248 278.729 165.168V162.504H273.401C270.473 162.504 269.009 163.488 269.009 165.456C269.009 166.416 269.381 167.172 270.125 167.724C270.869 168.276 271.901 168.552 273.221 168.552ZM294.053 171.216C292.493 171.216 290.993 171.012 289.553 170.604C288.113 170.172 286.985 169.632 286.169 168.984L287.609 166.248C288.449 166.848 289.469 167.328 290.669 167.688C291.869 168.048 293.081 168.228 294.305 168.228C297.329 168.228 298.841 167.364 298.841 165.636C298.841 165.06 298.637 164.604 298.229 164.268C297.821 163.932 297.305 163.692 296.681 163.548C296.081 163.38 295.217 163.2 294.089 163.008C292.553 162.768 291.293 162.492 290.309 162.18C289.349 161.868 288.521 161.34 287.825 160.596C287.129 159.852 286.781 158.808 286.781 157.464C286.781 155.736 287.501 154.356 288.941 153.324C290.381 152.268 292.313 151.74 294.737 151.74C296.009 151.74 297.281 151.896 298.553 152.208C299.825 152.52 300.869 152.94 301.685 153.468L300.209 156.204C298.649 155.196 296.813 154.692 294.701 154.692C293.237 154.692 292.121 154.932 291.353 155.412C290.585 155.892 290.201 156.528 290.201 157.32C290.201 157.944 290.417 158.436 290.849 158.796C291.281 159.156 291.809 159.42 292.433 159.588C293.081 159.756 293.981 159.948 295.133 160.164C296.669 160.428 297.905 160.716 298.841 161.028C299.801 161.316 300.617 161.82 301.289 162.54C301.961 163.26 302.297 164.268 302.297 165.564C302.297 167.292 301.553 168.672 300.065 169.704C298.601 170.712 296.597 171.216 294.053 171.216ZM333.168 151.92L323.916 172.908C323.1 174.852 322.14 176.22 321.036 177.012C319.956 177.804 318.648 178.2 317.112 178.2C316.176 178.2 315.264 178.044 314.376 177.732C313.512 177.444 312.792 177.012 312.216 176.436L313.692 173.844C314.676 174.78 315.816 175.248 317.112 175.248C317.952 175.248 318.648 175.02 319.2 174.564C319.776 174.132 320.292 173.376 320.748 172.296L321.36 170.964L312.936 151.92H316.536L323.196 167.184L329.784 151.92H333.168ZM344.038 171.216C342.142 171.216 340.438 170.796 338.926 169.956C337.414 169.116 336.226 167.964 335.362 166.5C334.522 165.012 334.102 163.332 334.102 161.46C334.102 159.588 334.522 157.92 335.362 156.456C336.226 154.968 337.414 153.816 338.926 153C340.438 152.16 342.142 151.74 344.038 151.74C345.934 151.74 347.626 152.16 349.114 153C350.626 153.816 351.802 154.968 352.642 156.456C353.506 157.92 353.938 159.588 353.938 161.46C353.938 163.332 353.506 165.012 352.642 166.5C351.802 167.964 350.626 169.116 349.114 169.956C347.626 170.796 345.934 171.216 344.038 171.216ZM344.038 168.192C345.262 168.192 346.354 167.916 347.314 167.364C348.298 166.788 349.066 165.996 349.618 164.988C350.17 163.956 350.446 162.78 350.446 161.46C350.446 160.14 350.17 158.976 349.618 157.968C349.066 156.936 348.298 156.144 347.314 155.592C346.354 155.04 345.262 154.764 344.038 154.764C342.814 154.764 341.71 155.04 340.726 155.592C339.766 156.144 338.998 156.936 338.422 157.968C337.87 158.976 337.594 160.14 337.594 161.46C337.594 162.78 337.87 163.956 338.422 164.988C338.998 165.996 339.766 166.788 340.726 167.364C341.71 167.916 342.814 168.192 344.038 168.192ZM376.501 151.92V171H373.225V168.12C372.529 169.104 371.605 169.872 370.453 170.424C369.325 170.952 368.089 171.216 366.745 171.216C364.201 171.216 362.197 170.52 360.733 169.128C359.269 167.712 358.537 165.636 358.537 162.9V151.92H361.993V162.504C361.993 164.352 362.437 165.756 363.325 166.716C364.213 167.652 365.485 168.12 367.141 168.12C368.965 168.12 370.405 167.568 371.461 166.464C372.517 165.36 373.045 163.8 373.045 161.784V151.92H376.501ZM386.393 155.124C386.993 154.02 387.881 153.18 389.057 152.604C390.233 152.028 391.661 151.74 393.341 151.74V155.088C393.149 155.064 392.885 155.052 392.549 155.052C390.677 155.052 389.201 155.616 388.121 156.744C387.065 157.848 386.537 159.432 386.537 161.496V171H383.081V151.92H386.393V155.124ZM417.63 151.74C419.478 151.74 421.134 152.148 422.598 152.964C424.062 153.78 425.202 154.92 426.018 156.384C426.858 157.848 427.278 159.54 427.278 161.46C427.278 163.38 426.858 165.084 426.018 166.572C425.202 168.036 424.062 169.176 422.598 169.992C421.134 170.808 419.478 171.216 417.63 171.216C416.262 171.216 415.002 170.952 413.85 170.424C412.722 169.896 411.762 169.128 410.97 168.12V177.984H407.514V151.92H410.826V154.944C411.594 153.888 412.566 153.096 413.742 152.568C414.918 152.016 416.214 151.74 417.63 151.74ZM417.342 168.192C418.566 168.192 419.658 167.916 420.618 167.364C421.602 166.788 422.37 165.996 422.922 164.988C423.498 163.956 423.786 162.78 423.786 161.46C423.786 160.14 423.498 158.976 422.922 157.968C422.37 156.936 421.602 156.144 420.618 155.592C419.658 155.04 418.566 154.764 417.342 154.764C416.142 154.764 415.05 155.052 414.066 155.628C413.106 156.18 412.338 156.96 411.762 157.968C411.21 158.976 410.934 160.14 410.934 161.46C410.934 162.78 411.21 163.956 411.762 164.988C412.314 165.996 413.082 166.788 414.066 167.364C415.05 167.916 416.142 168.192 417.342 168.192ZM438.826 151.74C441.466 151.74 443.482 152.388 444.874 153.684C446.29 154.98 446.998 156.912 446.998 159.48V171H443.722V168.48C443.146 169.368 442.318 170.052 441.238 170.532C440.182 170.988 438.922 171.216 437.458 171.216C435.322 171.216 433.606 170.7 432.31 169.668C431.038 168.636 430.402 167.28 430.402 165.6C430.402 163.92 431.014 162.576 432.238 161.568C433.462 160.536 435.406 160.02 438.07 160.02H443.542V159.336C443.542 157.848 443.11 156.708 442.246 155.916C441.382 155.124 440.11 154.728 438.43 154.728C437.302 154.728 436.198 154.92 435.118 155.304C434.038 155.664 433.126 156.156 432.382 156.78L430.942 154.188C431.926 153.396 433.102 152.796 434.47 152.388C435.838 151.956 437.29 151.74 438.826 151.74ZM438.034 168.552C439.354 168.552 440.494 168.264 441.454 167.688C442.414 167.088 443.11 166.248 443.542 165.168V162.504H438.214C435.286 162.504 433.822 163.488 433.822 165.456C433.822 166.416 434.194 167.172 434.938 167.724C435.682 168.276 436.714 168.552 438.034 168.552ZM469.926 151.92L460.674 172.908C459.858 174.852 458.898 176.22 457.794 177.012C456.714 177.804 455.406 178.2 453.87 178.2C452.934 178.2 452.022 178.044 451.134 177.732C450.27 177.444 449.55 177.012 448.974 176.436L450.45 173.844C451.434 174.78 452.574 175.248 453.87 175.248C454.71 175.248 455.406 175.02 455.958 174.564C456.534 174.132 457.05 173.376 457.506 172.296L458.118 170.964L449.694 151.92H453.294L459.954 167.184L466.542 151.92H469.926ZM497.019 151.74C499.419 151.74 501.315 152.436 502.707 153.828C504.123 155.22 504.831 157.284 504.831 160.02V171H501.375V160.416C501.375 158.568 500.943 157.176 500.079 156.24C499.239 155.304 498.027 154.836 496.443 154.836C494.691 154.836 493.299 155.388 492.267 156.492C491.235 157.572 490.719 159.132 490.719 161.172V171H487.263V160.416C487.263 158.568 486.831 157.176 485.967 156.24C485.127 155.304 483.915 154.836 482.331 154.836C480.579 154.836 479.187 155.388 478.155 156.492C477.123 157.572 476.607 159.132 476.607 161.172V171H473.151V151.92H476.463V154.764C477.159 153.78 478.071 153.036 479.199 152.532C480.327 152.004 481.611 151.74 483.051 151.74C484.539 151.74 485.859 152.04 487.011 152.64C488.163 153.24 489.051 154.116 489.675 155.268C490.395 154.164 491.391 153.3 492.663 152.676C493.959 152.052 495.411 151.74 497.019 151.74ZM528.54 161.568C528.54 161.832 528.516 162.18 528.468 162.612H512.988C513.204 164.292 513.936 165.648 515.184 166.68C516.456 167.688 518.028 168.192 519.9 168.192C522.18 168.192 524.016 167.424 525.408 165.888L527.316 168.12C526.452 169.128 525.372 169.896 524.076 170.424C522.804 170.952 521.376 171.216 519.792 171.216C517.776 171.216 515.988 170.808 514.428 169.992C512.868 169.152 511.656 167.988 510.792 166.5C509.952 165.012 509.532 163.332 509.532 161.46C509.532 159.612 509.94 157.944 510.756 156.456C511.596 154.968 512.736 153.816 514.176 153C515.64 152.16 517.284 151.74 519.108 151.74C520.932 151.74 522.552 152.16 523.968 153C525.408 153.816 526.524 154.968 527.316 156.456C528.132 157.944 528.54 159.648 528.54 161.568ZM519.108 154.656C517.452 154.656 516.06 155.16 514.932 156.168C513.828 157.176 513.18 158.496 512.988 160.128H525.228C525.036 158.52 524.376 157.212 523.248 156.204C522.144 155.172 520.764 154.656 519.108 154.656ZM543.527 151.74C545.951 151.74 547.871 152.448 549.287 153.864C550.727 155.256 551.447 157.308 551.447 160.02V171H547.991V160.416C547.991 158.568 547.547 157.176 546.659 156.24C545.771 155.304 544.499 154.836 542.843 154.836C540.971 154.836 539.495 155.388 538.415 156.492C537.335 157.572 536.795 159.132 536.795 161.172V171H533.339V151.92H536.651V154.8C537.347 153.816 538.283 153.06 539.459 152.532C540.659 152.004 542.015 151.74 543.527 151.74ZM568.57 169.884C568.066 170.316 567.442 170.652 566.698 170.892C565.954 171.108 565.186 171.216 564.394 171.216C562.474 171.216 560.986 170.7 559.93 169.668C558.874 168.636 558.346 167.16 558.346 165.24V154.764H555.106V151.92H558.346V147.744H561.802V151.92H567.274V154.764H561.802V165.096C561.802 166.128 562.054 166.92 562.558 167.472C563.086 168.024 563.83 168.3 564.79 168.3C565.846 168.3 566.746 168 567.49 167.4L568.57 169.884ZM590.589 171.216C588.693 171.216 586.989 170.796 585.477 169.956C583.965 169.116 582.777 167.964 581.913 166.5C581.073 165.012 580.653 163.332 580.653 161.46C580.653 159.588 581.073 157.92 581.913 156.456C582.777 154.968 583.965 153.816 585.477 153C586.989 152.16 588.693 151.74 590.589 151.74C592.485 151.74 594.177 152.16 595.665 153C597.177 153.816 598.353 154.968 599.193 156.456C600.057 157.92 600.489 159.588 600.489 161.46C600.489 163.332 600.057 165.012 599.193 166.5C598.353 167.964 597.177 169.116 595.665 169.956C594.177 170.796 592.485 171.216 590.589 171.216ZM590.589 168.192C591.813 168.192 592.905 167.916 593.865 167.364C594.849 166.788 595.617 165.996 596.169 164.988C596.721 163.956 596.997 162.78 596.997 161.46C596.997 160.14 596.721 158.976 596.169 157.968C595.617 156.936 594.849 156.144 593.865 155.592C592.905 155.04 591.813 154.764 590.589 154.764C589.365 154.764 588.261 155.04 587.277 155.592C586.317 156.144 585.549 156.936 584.973 157.968C584.421 158.976 584.145 160.14 584.145 161.46C584.145 162.78 584.421 163.956 584.973 164.988C585.549 165.996 586.317 166.788 587.277 167.364C588.261 167.916 589.365 168.192 590.589 168.192ZM615.384 151.74C617.232 151.74 618.888 152.148 620.352 152.964C621.816 153.78 622.956 154.92 623.772 156.384C624.612 157.848 625.032 159.54 625.032 161.46C625.032 163.38 624.612 165.084 623.772 166.572C622.956 168.036 621.816 169.176 620.352 169.992C618.888 170.808 617.232 171.216 615.384 171.216C614.016 171.216 612.756 170.952 611.604 170.424C610.476 169.896 609.516 169.128 608.724 168.12V177.984H605.268V151.92H608.58V154.944C609.348 153.888 610.32 153.096 611.496 152.568C612.672 152.016 613.968 151.74 615.384 151.74ZM615.096 168.192C616.32 168.192 617.412 167.916 618.372 167.364C619.356 166.788 620.124 165.996 620.676 164.988C621.252 163.956 621.54 162.78 621.54 161.46C621.54 160.14 621.252 158.976 620.676 157.968C620.124 156.936 619.356 156.144 618.372 155.592C617.412 155.04 616.32 154.764 615.096 154.764C613.896 154.764 612.804 155.052 611.82 155.628C610.86 156.18 610.092 156.96 609.516 157.968C608.964 158.976 608.688 160.14 608.688 161.46C608.688 162.78 608.964 163.956 609.516 164.988C610.068 165.996 610.836 166.788 611.82 167.364C612.804 167.916 613.896 168.192 615.096 168.192ZM640.535 169.884C640.031 170.316 639.407 170.652 638.663 170.892C637.919 171.108 637.151 171.216 636.359 171.216C634.439 171.216 632.951 170.7 631.895 169.668C630.839 168.636 630.311 167.16 630.311 165.24V154.764H627.071V151.92H630.311V147.744H633.767V151.92H639.239V154.764H633.767V165.096C633.767 166.128 634.019 166.92 634.523 167.472C635.051 168.024 635.795 168.3 636.755 168.3C637.811 168.3 638.711 168 639.455 167.4L640.535 169.884ZM644.714 151.92H648.17V171H644.714V151.92ZM646.442 148.248C645.77 148.248 645.206 148.032 644.75 147.6C644.318 147.168 644.102 146.64 644.102 146.016C644.102 145.392 644.318 144.864 644.75 144.432C645.206 143.976 645.77 143.748 646.442 143.748C647.114 143.748 647.666 143.964 648.098 144.396C648.554 144.804 648.782 145.32 648.782 145.944C648.782 146.592 648.554 147.144 648.098 147.6C647.666 148.032 647.114 148.248 646.442 148.248ZM662.94 171.216C661.044 171.216 659.34 170.796 657.828 169.956C656.316 169.116 655.128 167.964 654.264 166.5C653.424 165.012 653.004 163.332 653.004 161.46C653.004 159.588 653.424 157.92 654.264 156.456C655.128 154.968 656.316 153.816 657.828 153C659.34 152.16 661.044 151.74 662.94 151.74C664.836 151.74 666.528 152.16 668.016 153C669.528 153.816 670.704 154.968 671.544 156.456C672.408 157.92 672.84 159.588 672.84 161.46C672.84 163.332 672.408 165.012 671.544 166.5C670.704 167.964 669.528 169.116 668.016 169.956C666.528 170.796 664.836 171.216 662.94 171.216ZM662.94 168.192C664.164 168.192 665.256 167.916 666.216 167.364C667.2 166.788 667.968 165.996 668.52 164.988C669.072 163.956 669.348 162.78 669.348 161.46C669.348 160.14 669.072 158.976 668.52 157.968C667.968 156.936 667.2 156.144 666.216 155.592C665.256 155.04 664.164 154.764 662.94 154.764C661.716 154.764 660.612 155.04 659.628 155.592C658.668 156.144 657.9 156.936 657.324 157.968C656.772 158.976 656.496 160.14 656.496 161.46C656.496 162.78 656.772 163.956 657.324 164.988C657.9 165.996 658.668 166.788 659.628 167.364C660.612 167.916 661.716 168.192 662.94 168.192ZM687.808 151.74C690.232 151.74 692.152 152.448 693.568 153.864C695.008 155.256 695.728 157.308 695.728 160.02V171H692.272V160.416C692.272 158.568 691.828 157.176 690.94 156.24C690.052 155.304 688.78 154.836 687.124 154.836C685.252 154.836 683.776 155.388 682.696 156.492C681.616 157.572 681.076 159.132 681.076 161.172V171H677.62V151.92H680.932V154.8C681.628 153.816 682.564 153.06 683.74 152.532C684.94 152.004 686.296 151.74 687.808 151.74ZM701.656 145.8H705.724L705.04 163.044H702.304L701.656 145.8ZM703.708 171.216C703.036 171.216 702.472 171 702.016 170.568C701.56 170.112 701.332 169.56 701.332 168.912C701.332 168.264 701.56 167.724 702.016 167.292C702.472 166.836 703.036 166.608 703.708 166.608C704.38 166.608 704.932 166.836 705.364 167.292C705.796 167.724 706.012 168.264 706.012 168.912C706.012 169.56 705.784 170.112 705.328 170.568C704.896 171 704.356 171.216 703.708 171.216Z" fill="white"/>
<path d="M220.064 47.576C216.64 47.576 213.536 46.84 210.752 45.368C208 43.864 205.824 41.8 204.224 39.176C202.656 36.52 201.872 33.528 201.872 30.2C201.872 26.872 202.656 23.896 204.224 21.272C205.824 18.616 208 16.552 210.752 15.08C213.536 13.576 216.656 12.824 220.112 12.824C223.024 12.824 225.648 13.336 227.984 14.36C230.352 15.384 232.336 16.856 233.936 18.776L228.944 23.384C226.672 20.76 223.856 19.448 220.496 19.448C218.416 19.448 216.56 19.912 214.928 20.84C213.296 21.736 212.016 23 211.088 24.632C210.192 26.264 209.744 28.12 209.744 30.2C209.744 32.28 210.192 34.136 211.088 35.768C212.016 37.4 213.296 38.68 214.928 39.608C216.56 40.504 218.416 40.952 220.496 40.952C223.856 40.952 226.672 39.624 228.944 36.968L233.936 41.576C232.336 43.528 230.352 45.016 227.984 46.04C225.616 47.064 222.976 47.576 220.064 47.576ZM254.355 20.792C257.555 20.792 260.131 21.752 262.083 23.672C264.067 25.592 265.059 28.44 265.059 32.216V47H257.571V33.368C257.571 31.32 257.123 29.8 256.227 28.808C255.331 27.784 254.035 27.272 252.339 27.272C250.451 27.272 248.947 27.864 247.827 29.048C246.707 30.2 246.147 31.928 246.147 34.232V47H238.659V11.384H246.147V23.864C247.139 22.872 248.339 22.12 249.747 21.608C251.155 21.064 252.691 20.792 254.355 20.792ZM284.416 47.384C281.696 47.384 279.248 46.824 277.072 45.704C274.928 44.552 273.248 42.968 272.032 40.952C270.816 38.936 270.208 36.648 270.208 34.088C270.208 31.528 270.816 29.24 272.032 27.224C273.248 25.208 274.928 23.64 277.072 22.52C279.248 21.368 281.696 20.792 284.416 20.792C287.136 20.792 289.568 21.368 291.712 22.52C293.856 23.64 295.536 25.208 296.752 27.224C297.968 29.24 298.576 31.528 298.576 34.088C298.576 36.648 297.968 38.936 296.752 40.952C295.536 42.968 293.856 44.552 291.712 45.704C289.568 46.824 287.136 47.384 284.416 47.384ZM284.416 41.24C286.336 41.24 287.904 40.6 289.12 39.32C290.368 38.008 290.992 36.264 290.992 34.088C290.992 31.912 290.368 30.184 289.12 28.904C287.904 27.592 286.336 26.936 284.416 26.936C282.496 26.936 280.912 27.592 279.664 28.904C278.416 30.184 277.792 31.912 277.792 34.088C277.792 36.264 278.416 38.008 279.664 39.32C280.912 40.6 282.496 41.24 284.416 41.24ZM315.869 47.384C313.149 47.384 310.701 46.824 308.525 45.704C306.381 44.552 304.701 42.968 303.485 40.952C302.269 38.936 301.661 36.648 301.661 34.088C301.661 31.528 302.269 29.24 303.485 27.224C304.701 25.208 306.381 23.64 308.525 22.52C310.701 21.368 313.149 20.792 315.869 20.792C318.589 20.792 321.021 21.368 323.165 22.52C325.309 23.64 326.989 25.208 328.205 27.224C329.421 29.24 330.029 31.528 330.029 34.088C330.029 36.648 329.421 38.936 328.205 40.952C326.989 42.968 325.309 44.552 323.165 45.704C321.021 46.824 318.589 47.384 315.869 47.384ZM315.869 41.24C317.789 41.24 319.357 40.6 320.573 39.32C321.821 38.008 322.445 36.264 322.445 34.088C322.445 31.912 321.821 30.184 320.573 28.904C319.357 27.592 317.789 26.936 315.869 26.936C313.949 26.936 312.365 27.592 311.117 28.904C309.869 30.184 309.245 31.912 309.245 34.088C309.245 36.264 309.869 38.008 311.117 39.32C312.365 40.6 313.949 41.24 315.869 41.24ZM343.722 47.384C341.578 47.384 339.482 47.128 337.434 46.616C335.386 46.072 333.754 45.4 332.538 44.6L335.034 39.224C336.186 39.96 337.578 40.568 339.21 41.048C340.842 41.496 342.442 41.72 344.01 41.72C347.178 41.72 348.762 40.936 348.762 39.368C348.762 38.632 348.33 38.104 347.466 37.784C346.602 37.464 345.274 37.192 343.482 36.968C341.37 36.648 339.626 36.28 338.25 35.864C336.874 35.448 335.674 34.712 334.65 33.656C333.658 32.6 333.162 31.096 333.162 29.144C333.162 27.512 333.626 26.072 334.554 24.824C335.514 23.544 336.89 22.552 338.682 21.848C340.506 21.144 342.65 20.792 345.114 20.792C346.938 20.792 348.746 21 350.538 21.416C352.362 21.8 353.866 22.344 355.05 23.048L352.554 28.376C350.282 27.096 347.802 26.456 345.114 26.456C343.514 26.456 342.314 26.68 341.514 27.128C340.714 27.576 340.314 28.152 340.314 28.856C340.314 29.656 340.746 30.216 341.61 30.536C342.474 30.856 343.85 31.16 345.738 31.448C347.85 31.8 349.578 32.184 350.922 32.6C352.266 32.984 353.434 33.704 354.426 34.76C355.418 35.816 355.914 37.288 355.914 39.176C355.914 40.776 355.434 42.2 354.474 43.448C353.514 44.696 352.106 45.672 350.25 46.376C348.426 47.048 346.25 47.384 343.722 47.384ZM385.83 34.184C385.83 34.28 385.782 34.952 385.686 36.2H366.15C366.502 37.8 367.334 39.064 368.646 39.992C369.958 40.92 371.59 41.384 373.542 41.384C374.886 41.384 376.07 41.192 377.094 40.808C378.15 40.392 379.126 39.752 380.022 38.888L384.006 43.208C381.574 45.992 378.022 47.384 373.35 47.384C370.438 47.384 367.862 46.824 365.622 45.704C363.382 44.552 361.654 42.968 360.438 40.952C359.222 38.936 358.614 36.648 358.614 34.088C358.614 31.56 359.206 29.288 360.39 27.272C361.606 25.224 363.254 23.64 365.334 22.52C367.446 21.368 369.798 20.792 372.39 20.792C374.918 20.792 377.206 21.336 379.254 22.424C381.302 23.512 382.902 25.08 384.054 27.128C385.238 29.144 385.83 31.496 385.83 34.184ZM372.438 26.456C370.742 26.456 369.318 26.936 368.166 27.896C367.014 28.856 366.31 30.168 366.054 31.832H378.774C378.518 30.2 377.814 28.904 376.662 27.944C375.51 26.952 374.102 26.456 372.438 26.456ZM430.425 21.176V47H423.321V43.928C422.329 45.048 421.145 45.912 419.769 46.52C418.393 47.096 416.905 47.384 415.305 47.384C411.913 47.384 409.225 46.408 407.241 44.456C405.257 42.504 404.265 39.608 404.265 35.768V21.176H411.753V34.664C411.753 38.824 413.497 40.904 416.985 40.904C418.777 40.904 420.217 40.328 421.305 39.176C422.393 37.992 422.937 36.248 422.937 33.944V21.176H430.425ZM446.05 47.384C443.906 47.384 441.81 47.128 439.762 46.616C437.714 46.072 436.082 45.4 434.866 44.6L437.362 39.224C438.514 39.96 439.906 40.568 441.538 41.048C443.17 41.496 444.77 41.72 446.338 41.72C449.506 41.72 451.09 40.936 451.09 39.368C451.09 38.632 450.658 38.104 449.794 37.784C448.93 37.464 447.602 37.192 445.81 36.968C443.698 36.648 441.954 36.28 440.578 35.864C439.202 35.448 438.002 34.712 436.978 33.656C435.986 32.6 435.49 31.096 435.49 29.144C435.49 27.512 435.954 26.072 436.882 24.824C437.842 23.544 439.218 22.552 441.01 21.848C442.834 21.144 444.978 20.792 447.442 20.792C449.266 20.792 451.074 21 452.866 21.416C454.69 21.8 456.194 22.344 457.378 23.048L454.882 28.376C452.61 27.096 450.13 26.456 447.442 26.456C445.842 26.456 444.642 26.68 443.842 27.128C443.042 27.576 442.642 28.152 442.642 28.856C442.642 29.656 443.074 30.216 443.938 30.536C444.802 30.856 446.178 31.16 448.066 31.448C450.178 31.8 451.906 32.184 453.25 32.6C454.594 32.984 455.762 33.704 456.754 34.76C457.746 35.816 458.242 37.288 458.242 39.176C458.242 40.776 457.762 42.2 456.802 43.448C455.842 44.696 454.434 45.672 452.578 46.376C450.754 47.048 448.578 47.384 446.05 47.384ZM486.872 20.792C490.872 20.792 493.944 21.752 496.088 23.672C498.232 25.56 499.304 28.424 499.304 32.264V47H492.296V43.784C490.888 46.184 488.264 47.384 484.424 47.384C482.44 47.384 480.712 47.048 479.24 46.376C477.8 45.704 476.696 44.776 475.928 43.592C475.16 42.408 474.776 41.064 474.776 39.56C474.776 37.16 475.672 35.272 477.464 33.896C479.288 32.52 482.088 31.832 485.864 31.832H491.816C491.816 30.2 491.32 28.952 490.328 28.088C489.336 27.192 487.848 26.744 485.864 26.744C484.488 26.744 483.128 26.968 481.784 27.416C480.472 27.832 479.352 28.408 478.424 29.144L475.736 23.912C477.144 22.92 478.824 22.152 480.776 21.608C482.76 21.064 484.792 20.792 486.872 20.792ZM486.296 42.344C487.576 42.344 488.712 42.056 489.704 41.48C490.696 40.872 491.4 39.992 491.816 38.84V36.2H486.68C483.608 36.2 482.072 37.208 482.072 39.224C482.072 40.184 482.44 40.952 483.176 41.528C483.944 42.072 484.984 42.344 486.296 42.344ZM522.737 45.752C522.001 46.296 521.089 46.712 520.001 47C518.945 47.256 517.825 47.384 516.641 47.384C513.569 47.384 511.185 46.6 509.489 45.032C507.825 43.464 506.993 41.16 506.993 38.12V27.512H503.009V21.752H506.993V15.464H514.481V21.752H520.913V27.512H514.481V38.024C514.481 39.112 514.753 39.96 515.297 40.568C515.873 41.144 516.673 41.432 517.697 41.432C518.881 41.432 519.889 41.112 520.721 40.472L522.737 45.752ZM557.142 47.576C553.718 47.576 550.614 46.84 547.83 45.368C545.078 43.864 542.902 41.8 541.302 39.176C539.734 36.52 538.95 33.528 538.95 30.2C538.95 26.872 539.734 23.896 541.302 21.272C542.902 18.616 545.078 16.552 547.83 15.08C550.614 13.576 553.734 12.824 557.19 12.824C560.102 12.824 562.726 13.336 565.062 14.36C567.43 15.384 569.414 16.856 571.014 18.776L566.022 23.384C563.75 20.76 560.934 19.448 557.574 19.448C555.494 19.448 553.638 19.912 552.006 20.84C550.374 21.736 549.094 23 548.166 24.632C547.27 26.264 546.822 28.12 546.822 30.2C546.822 32.28 547.27 34.136 548.166 35.768C549.094 37.4 550.374 38.68 552.006 39.608C553.638 40.504 555.494 40.952 557.574 40.952C560.934 40.952 563.75 39.624 566.022 36.968L571.014 41.576C569.414 43.528 567.43 45.016 565.062 46.04C562.694 47.064 560.054 47.576 557.142 47.576ZM591.433 20.792C594.633 20.792 597.209 21.752 599.161 23.672C601.145 25.592 602.137 28.44 602.137 32.216V47H594.649V33.368C594.649 31.32 594.201 29.8 593.305 28.808C592.409 27.784 591.113 27.272 589.417 27.272C587.529 27.272 586.025 27.864 584.905 29.048C583.785 30.2 583.225 31.928 583.225 34.232V47H575.737V11.384H583.225V23.864C584.217 22.872 585.417 22.12 586.825 21.608C588.233 21.064 589.769 20.792 591.433 20.792ZM634.502 34.184C634.502 34.28 634.454 34.952 634.358 36.2H614.822C615.174 37.8 616.006 39.064 617.318 39.992C618.63 40.92 620.262 41.384 622.214 41.384C623.558 41.384 624.742 41.192 625.766 40.808C626.822 40.392 627.798 39.752 628.694 38.888L632.678 43.208C630.246 45.992 626.694 47.384 622.022 47.384C619.11 47.384 616.534 46.824 614.294 45.704C612.054 44.552 610.326 42.968 609.11 40.952C607.894 38.936 607.286 36.648 607.286 34.088C607.286 31.56 607.878 29.288 609.062 27.272C610.278 25.224 611.926 23.64 614.006 22.52C616.118 21.368 618.47 20.792 621.062 20.792C623.59 20.792 625.878 21.336 627.926 22.424C629.974 23.512 631.574 25.08 632.726 27.128C633.91 29.144 634.502 31.496 634.502 34.184ZM621.11 26.456C619.414 26.456 617.99 26.936 616.838 27.896C615.686 28.856 614.982 30.168 614.726 31.832H627.446C627.19 30.2 626.486 28.904 625.334 27.944C624.182 26.952 622.774 26.456 621.11 26.456ZM651.967 47.384C649.215 47.384 646.735 46.824 644.527 45.704C642.351 44.552 640.639 42.968 639.391 40.952C638.175 38.936 637.567 36.648 637.567 34.088C637.567 31.528 638.175 29.24 639.391 27.224C640.639 25.208 642.351 23.64 644.527 22.52C646.735 21.368 649.215 20.792 651.967 20.792C654.687 20.792 657.055 21.368 659.071 22.52C661.119 23.64 662.607 25.256 663.535 27.368L657.727 30.488C656.383 28.12 654.447 26.936 651.919 26.936C649.967 26.936 648.351 27.576 647.071 28.856C645.791 30.136 645.151 31.88 645.151 34.088C645.151 36.296 645.791 38.04 647.071 39.32C648.351 40.6 649.967 41.24 651.919 41.24C654.479 41.24 656.415 40.056 657.727 37.688L663.535 40.856C662.607 42.904 661.119 44.504 659.071 45.656C657.055 46.808 654.687 47.384 651.967 47.384ZM678.747 36.872L675.147 40.424V47H667.659V11.384H675.147V31.544L686.091 21.176H695.019L684.267 32.12L695.979 47H686.907L678.747 36.872ZM710.51 47.384C707.79 47.384 705.342 46.824 703.166 45.704C701.022 44.552 699.342 42.968 698.126 40.952C696.91 38.936 696.302 36.648 696.302 34.088C696.302 31.528 696.91 29.24 698.126 27.224C699.342 25.208 701.022 23.64 703.166 22.52C705.342 21.368 707.79 20.792 710.51 20.792C713.23 20.792 715.662 21.368 717.806 22.52C719.95 23.64 721.63 25.208 722.846 27.224C724.062 29.24 724.67 31.528 724.67 34.088C724.67 36.648 724.062 38.936 722.846 40.952C721.63 42.968 719.95 44.552 717.806 45.704C715.662 46.824 713.23 47.384 710.51 47.384ZM710.51 41.24C712.43 41.24 713.998 40.6 715.214 39.32C716.462 38.008 717.086 36.264 717.086 34.088C717.086 31.912 716.462 30.184 715.214 28.904C713.998 27.592 712.43 26.936 710.51 26.936C708.59 26.936 707.006 27.592 705.758 28.904C704.51 30.184 703.886 31.912 703.886 34.088C703.886 36.264 704.51 38.008 705.758 39.32C707.006 40.6 708.59 41.24 710.51 41.24ZM755.691 21.176V47H748.587V43.928C747.595 45.048 746.411 45.912 745.035 46.52C743.659 47.096 742.171 47.384 740.571 47.384C737.179 47.384 734.491 46.408 732.507 44.456C730.523 42.504 729.531 39.608 729.531 35.768V21.176H737.019V34.664C737.019 38.824 738.763 40.904 742.251 40.904C744.043 40.904 745.483 40.328 746.571 39.176C747.659 37.992 748.203 36.248 748.203 33.944V21.176H755.691ZM779.284 45.752C778.548 46.296 777.636 46.712 776.548 47C775.492 47.256 774.372 47.384 773.188 47.384C770.116 47.384 767.732 46.6 766.036 45.032C764.372 43.464 763.54 41.16 763.54 38.12V27.512H759.556V21.752H763.54V15.464H771.028V21.752H777.46V27.512H771.028V38.024C771.028 39.112 771.3 39.96 771.844 40.568C772.42 41.144 773.22 41.432 774.244 41.432C775.428 41.432 776.436 41.112 777.268 40.472L779.284 45.752ZM782.527 13.4H791.455L789.967 35.336H784.015L782.527 13.4ZM786.991 47.384C785.679 47.384 784.575 46.968 783.679 46.136C782.815 45.272 782.383 44.232 782.383 43.016C782.383 41.8 782.815 40.792 783.679 39.992C784.543 39.16 785.647 38.744 786.991 38.744C788.335 38.744 789.439 39.16 790.303 39.992C791.167 40.792 791.599 41.8 791.599 43.016C791.599 44.232 791.151 45.272 790.255 46.136C789.391 46.968 788.303 47.384 786.991 47.384Z" fill="white"/>
<circle cx="67.5" cy="67.5" r="67.5" fill="white"/>
<path d="M65.4458 46.7136L65.5393 46.8063L65.5432 46.81L74.7719 55.583V49.3785L68.8066 43.7077H68.8027C68.7598 43.667 68.717 43.6299 68.6702 43.5965C67.9762 42.9553 67.2276 42.3994 66.4478 41.9324C65.6212 41.4431 64.7401 41.0428 63.8199 40.7389C59.149 39.1822 53.7296 40.1718 50.01 43.7077L50.0061 43.7114C49.9593 43.7559 49.9203 43.8004 49.8814 43.8449C47.3822 46.2837 46.1306 49.4637 46.1306 52.6401C46.1306 55.8647 47.4212 59.1004 50.0022 61.5577L50.0061 61.5614L50.0022 61.5651L50.01 61.5725L52.7432 64.167C53.6399 65.0232 55.1059 65.0232 56.0065 64.167C56.9072 63.3108 56.9072 61.9246 56.0065 61.0685L53.2773 58.4703L53.2656 58.4629L53.2617 58.4666C51.5852 56.8654 50.743 54.7528 50.743 52.6364C50.743 50.5608 51.5501 48.489 53.1642 46.8989L53.2695 46.8063L53.2734 46.8026C55.7024 44.4898 59.2504 43.8449 62.3033 44.8604C62.8842 45.0531 63.4612 45.3126 64.0149 45.6425C64.5256 45.9501 65.0052 46.3059 65.4458 46.7136Z" fill="black"/>
<path d="M74.772 80.1012L73.0994 81.6912C73.0136 80.5756 72.7797 79.4748 72.3859 78.4111C72.0662 77.5364 71.6451 76.6987 71.1304 75.913C70.6431 75.1643 70.0582 74.4564 69.3837 73.7966C69.3486 73.7559 69.3096 73.7114 69.2668 73.6743L69.2629 73.6706L67.2042 71.7137C66.3036 70.8575 64.8415 70.8575 63.9409 71.7137C63.0402 72.5698 63.0402 73.956 63.9409 74.8159L65.9995 76.7728L66.0034 76.7765L66.1009 76.8655C66.5258 77.2843 66.9001 77.7402 67.2198 78.2257C67.5668 78.752 67.8437 79.2969 68.0464 79.8491C69.0835 82.6697 68.4714 85.9313 66.2139 88.2366L66.0073 88.4331H66.0034L65.5199 88.8926C64.6232 89.7488 64.6232 91.1387 65.5199 91.9912C66.4245 92.8473 67.8865 92.8473 68.7833 91.9912L68.8106 91.9689L74.7759 86.2982V80.1012H74.772Z" fill="black"/>
<path d="M75.6726 56.4394L73.1032 54.0005C72.881 56.9249 71.6021 59.7863 69.2589 62.0102L53.2734 77.2066L53.2695 77.2103L53.2656 77.2066C51.5891 78.8115 50.7469 80.9241 50.7469 83.0405C50.7469 85.1569 51.5852 87.2696 53.2656 88.8707L53.2695 88.867L53.2773 88.8745H53.2812L53.2851 88.8782L53.2812 88.8819C53.7491 89.3266 54.2637 89.7084 54.8096 90.0309C55.3632 90.357 55.9403 90.6239 56.5173 90.8166C59.574 91.8322 63.1181 91.1836 65.551 88.8745L81.6535 73.5631L81.6574 73.5669C81.7666 73.4594 81.864 73.3593 81.9459 73.274C82.3631 72.8219 82.7218 72.3252 83.022 71.7952C83.33 71.254 83.5679 70.7055 83.7316 70.1643C84.5816 67.3586 83.8525 64.2007 81.5404 62.0028L75.6726 56.4394ZM66.1593 47.3957L66.0033 47.2474L65.9994 47.2511L65.9955 47.2474L65.5121 46.7878L68.7481 43.667L68.7715 43.6855H68.7754L68.8027 43.7078L78.9282 53.3371L82.87 57.0806H82.8583L84.7882 58.919C88.3167 62.2733 89.4318 67.088 88.1374 71.3652C87.8684 72.2474 87.5136 73.0887 87.0691 73.8671C86.6168 74.664 86.0593 75.4312 85.3965 76.1502C85.2327 76.3281 85.0767 76.4912 84.9247 76.6358L84.9091 76.6617L68.8027 91.973C65.0832 95.5053 59.6637 96.4949 54.9928 94.9419C54.0766 94.6343 53.1915 94.2377 52.365 93.7484C51.5384 93.2555 50.7508 92.6661 50.0217 91.973H50.0139L50.01 91.9693L50.0022 91.9619V91.9545C47.4212 89.5008 46.1306 86.2688 46.1306 83.0405C46.1306 79.8085 47.4212 76.5765 50.0061 74.1191V74.1117L50.01 74.108L65.9994 58.9116C67.8787 57.1251 68.7092 54.6937 68.4947 52.3401C68.4479 51.8582 68.37 51.4023 68.253 50.9798C67.9021 49.6714 67.1964 48.4335 66.1593 47.3957Z" fill="black"/>
</svg>
