<svg width="827" height="272" viewBox="0 0 827 272" fill="none" xmlns="http://www.w3.org/2000/svg">
<path d="M231.384 149.8L222.96 175H219.18L212.304 154.876L205.428 175H201.576L193.152 149.8H196.86L203.664 170.284L210.756 149.8H214.068L221.016 170.392L227.964 149.8H231.384ZM251.086 165.568C251.086 165.832 251.062 166.18 251.014 166.612H235.534C235.75 168.292 236.482 169.648 237.73 170.68C239.002 171.688 240.574 172.192 242.446 172.192C244.726 172.192 246.562 171.424 247.954 169.888L249.862 172.12C248.998 173.128 247.918 173.896 246.622 174.424C245.35 174.952 243.922 175.216 242.338 175.216C240.322 175.216 238.534 174.808 236.974 173.992C235.414 173.152 234.202 171.988 233.338 170.5C232.498 169.012 232.078 167.332 232.078 165.46C232.078 163.612 232.486 161.944 233.302 160.456C234.142 158.968 235.282 157.816 236.722 157C238.186 156.16 239.83 155.74 241.654 155.74C243.478 155.74 245.098 156.16 246.514 157C247.954 157.816 249.07 158.968 249.862 160.456C250.678 161.944 251.086 163.648 251.086 165.568ZM241.654 158.656C239.998 158.656 238.606 159.16 237.478 160.168C236.374 161.176 235.726 162.496 235.534 164.128H247.774C247.582 162.52 246.922 161.212 245.794 160.204C244.69 159.172 243.31 158.656 241.654 158.656ZM275.741 155.74C278.165 155.74 280.085 156.448 281.501 157.864C282.941 159.256 283.661 161.308 283.661 164.02V175H280.205V164.416C280.205 162.568 279.761 161.176 278.873 160.24C277.985 159.304 276.713 158.836 275.057 158.836C273.185 158.836 271.709 159.388 270.629 160.492C269.549 161.572 269.009 163.132 269.009 165.172V175H265.553V148.288H269.009V158.62C269.729 157.708 270.665 157 271.817 156.496C272.993 155.992 274.301 155.74 275.741 155.74ZM297.005 155.74C299.645 155.74 301.661 156.388 303.053 157.684C304.469 158.98 305.177 160.912 305.177 163.48V175H301.901V172.48C301.325 173.368 300.497 174.052 299.417 174.532C298.361 174.988 297.101 175.216 295.637 175.216C293.501 175.216 291.785 174.7 290.489 173.668C289.217 172.636 288.581 171.28 288.581 169.6C288.581 167.92 289.193 166.576 290.417 165.568C291.641 164.536 293.585 164.02 296.249 164.02H301.721V163.336C301.721 161.848 301.289 160.708 300.425 159.916C299.561 159.124 298.289 158.728 296.609 158.728C295.481 158.728 294.377 158.92 293.297 159.304C292.217 159.664 291.305 160.156 290.561 160.78L289.121 158.188C290.105 157.396 291.281 156.796 292.649 156.388C294.017 155.956 295.469 155.74 297.005 155.74ZM296.213 172.552C297.533 172.552 298.673 172.264 299.633 171.688C300.593 171.088 301.289 170.248 301.721 169.168V166.504H296.393C293.465 166.504 292.001 167.488 292.001 169.456C292.001 170.416 292.373 171.172 293.117 171.724C293.861 172.276 294.893 172.552 296.213 172.552ZM328.105 155.92L319.753 175H316.225L307.873 155.92H311.473L318.025 171.22L324.721 155.92H328.105ZM348.047 165.568C348.047 165.832 348.023 166.18 347.975 166.612H332.495C332.711 168.292 333.443 169.648 334.691 170.68C335.963 171.688 337.535 172.192 339.407 172.192C341.687 172.192 343.523 171.424 344.915 169.888L346.823 172.12C345.959 173.128 344.879 173.896 343.583 174.424C342.311 174.952 340.883 175.216 339.299 175.216C337.283 175.216 335.495 174.808 333.935 173.992C332.375 173.152 331.163 171.988 330.299 170.5C329.459 169.012 329.039 167.332 329.039 165.46C329.039 163.612 329.447 161.944 330.263 160.456C331.103 158.968 332.243 157.816 333.683 157C335.147 156.16 336.791 155.74 338.615 155.74C340.439 155.74 342.059 156.16 343.475 157C344.915 157.816 346.031 158.968 346.823 160.456C347.639 161.944 348.047 163.648 348.047 165.568ZM338.615 158.656C336.959 158.656 335.567 159.16 334.439 160.168C333.335 161.176 332.687 162.496 332.495 164.128H344.735C344.543 162.52 343.883 161.212 342.755 160.204C341.651 159.172 340.271 158.656 338.615 158.656ZM379.398 155.92L371.046 175H367.518L359.166 155.92H362.766L369.318 171.22L376.014 155.92H379.398ZM388.974 155.74C391.614 155.74 393.63 156.388 395.022 157.684C396.438 158.98 397.146 160.912 397.146 163.48V175H393.87V172.48C393.294 173.368 392.466 174.052 391.386 174.532C390.33 174.988 389.07 175.216 387.606 175.216C385.47 175.216 383.754 174.7 382.458 173.668C381.186 172.636 380.55 171.28 380.55 169.6C380.55 167.92 381.162 166.576 382.386 165.568C383.61 164.536 385.554 164.02 388.218 164.02H393.69V163.336C393.69 161.848 393.258 160.708 392.394 159.916C391.53 159.124 390.258 158.728 388.578 158.728C387.45 158.728 386.346 158.92 385.266 159.304C384.186 159.664 383.274 160.156 382.53 160.78L381.09 158.188C382.074 157.396 383.25 156.796 384.618 156.388C385.986 155.956 387.438 155.74 388.974 155.74ZM388.182 172.552C389.502 172.552 390.642 172.264 391.602 171.688C392.562 171.088 393.258 170.248 393.69 169.168V166.504H388.362C385.434 166.504 383.97 167.488 383.97 169.456C383.97 170.416 384.342 171.172 385.086 171.724C385.83 172.276 386.862 172.552 388.182 172.552ZM406.854 159.124C407.454 158.02 408.342 157.18 409.518 156.604C410.694 156.028 412.122 155.74 413.802 155.74V159.088C413.61 159.064 413.346 159.052 413.01 159.052C411.138 159.052 409.662 159.616 408.582 160.744C407.526 161.848 406.998 163.432 406.998 165.496V175H403.542V155.92H406.854V159.124ZM418.061 155.92H421.517V175H418.061V155.92ZM419.789 152.248C419.117 152.248 418.553 152.032 418.097 151.6C417.665 151.168 417.449 150.64 417.449 150.016C417.449 149.392 417.665 148.864 418.097 148.432C418.553 147.976 419.117 147.748 419.789 147.748C420.461 147.748 421.013 147.964 421.445 148.396C421.901 148.804 422.129 149.32 422.129 149.944C422.129 150.592 421.901 151.144 421.445 151.6C421.013 152.032 420.461 152.248 419.789 152.248ZM436.288 175.216C434.392 175.216 432.688 174.796 431.176 173.956C429.664 173.116 428.476 171.964 427.612 170.5C426.772 169.012 426.352 167.332 426.352 165.46C426.352 163.588 426.772 161.92 427.612 160.456C428.476 158.968 429.664 157.816 431.176 157C432.688 156.16 434.392 155.74 436.288 155.74C438.184 155.74 439.876 156.16 441.364 157C442.876 157.816 444.052 158.968 444.892 160.456C445.756 161.92 446.188 163.588 446.188 165.46C446.188 167.332 445.756 169.012 444.892 170.5C444.052 171.964 442.876 173.116 441.364 173.956C439.876 174.796 438.184 175.216 436.288 175.216ZM436.288 172.192C437.512 172.192 438.604 171.916 439.564 171.364C440.548 170.788 441.316 169.996 441.868 168.988C442.42 167.956 442.696 166.78 442.696 165.46C442.696 164.14 442.42 162.976 441.868 161.968C441.316 160.936 440.548 160.144 439.564 159.592C438.604 159.04 437.512 158.764 436.288 158.764C435.064 158.764 433.96 159.04 432.976 159.592C432.016 160.144 431.248 160.936 430.672 161.968C430.12 162.976 429.844 164.14 429.844 165.46C429.844 166.78 430.12 167.956 430.672 168.988C431.248 169.996 432.016 170.788 432.976 171.364C433.96 171.916 435.064 172.192 436.288 172.192ZM468.751 155.92V175H465.475V172.12C464.779 173.104 463.855 173.872 462.703 174.424C461.575 174.952 460.339 175.216 458.995 175.216C456.451 175.216 454.447 174.52 452.983 173.128C451.519 171.712 450.787 169.636 450.787 166.9V155.92H454.243V166.504C454.243 168.352 454.687 169.756 455.575 170.716C456.463 171.652 457.735 172.12 459.391 172.12C461.215 172.12 462.655 171.568 463.711 170.464C464.767 169.36 465.295 167.8 465.295 165.784V155.92H468.751ZM480.803 175.216C479.243 175.216 477.743 175.012 476.303 174.604C474.863 174.172 473.735 173.632 472.919 172.984L474.359 170.248C475.199 170.848 476.219 171.328 477.419 171.688C478.619 172.048 479.831 172.228 481.055 172.228C484.079 172.228 485.591 171.364 485.591 169.636C485.591 169.06 485.387 168.604 484.979 168.268C484.571 167.932 484.055 167.692 483.431 167.548C482.831 167.38 481.967 167.2 480.839 167.008C479.303 166.768 478.043 166.492 477.059 166.18C476.099 165.868 475.271 165.34 474.575 164.596C473.879 163.852 473.531 162.808 473.531 161.464C473.531 159.736 474.251 158.356 475.691 157.324C477.131 156.268 479.063 155.74 481.487 155.74C482.759 155.74 484.031 155.896 485.303 156.208C486.575 156.52 487.619 156.94 488.435 157.468L486.959 160.204C485.399 159.196 483.563 158.692 481.451 158.692C479.987 158.692 478.871 158.932 478.103 159.412C477.335 159.892 476.951 160.528 476.951 161.32C476.951 161.944 477.167 162.436 477.599 162.796C478.031 163.156 478.559 163.42 479.183 163.588C479.831 163.756 480.731 163.948 481.883 164.164C483.419 164.428 484.655 164.716 485.591 165.028C486.551 165.316 487.367 165.82 488.039 166.54C488.711 167.26 489.047 168.268 489.047 169.564C489.047 171.292 488.303 172.672 486.815 173.704C485.351 174.712 483.347 175.216 480.803 175.216ZM503.034 155.92H506.49V175H503.034V155.92ZM504.762 152.248C504.09 152.248 503.526 152.032 503.07 151.6C502.638 151.168 502.422 150.64 502.422 150.016C502.422 149.392 502.638 148.864 503.07 148.432C503.526 147.976 504.09 147.748 504.762 147.748C505.434 147.748 505.986 147.964 506.418 148.396C506.874 148.804 507.102 149.32 507.102 149.944C507.102 150.592 506.874 151.144 506.418 151.6C505.986 152.032 505.434 152.248 504.762 152.248ZM523.277 155.74C525.701 155.74 527.621 156.448 529.037 157.864C530.477 159.256 531.197 161.308 531.197 164.02V175H527.741V164.416C527.741 162.568 527.297 161.176 526.409 160.24C525.521 159.304 524.249 158.836 522.593 158.836C520.721 158.836 519.245 159.388 518.165 160.492C517.085 161.572 516.545 163.132 516.545 165.172V175H513.089V155.92H516.401V158.8C517.097 157.816 518.033 157.06 519.209 156.532C520.409 156.004 521.765 155.74 523.277 155.74ZM543.064 175.216C541.504 175.216 540.004 175.012 538.564 174.604C537.124 174.172 535.996 173.632 535.18 172.984L536.62 170.248C537.46 170.848 538.48 171.328 539.68 171.688C540.88 172.048 542.092 172.228 543.316 172.228C546.34 172.228 547.852 171.364 547.852 169.636C547.852 169.06 547.648 168.604 547.24 168.268C546.832 167.932 546.316 167.692 545.692 167.548C545.092 167.38 544.228 167.2 543.1 167.008C541.564 166.768 540.304 166.492 539.32 166.18C538.36 165.868 537.532 165.34 536.836 164.596C536.14 163.852 535.792 162.808 535.792 161.464C535.792 159.736 536.512 158.356 537.952 157.324C539.392 156.268 541.324 155.74 543.748 155.74C545.02 155.74 546.292 155.896 547.564 156.208C548.836 156.52 549.88 156.94 550.696 157.468L549.22 160.204C547.66 159.196 545.824 158.692 543.712 158.692C542.248 158.692 541.132 158.932 540.364 159.412C539.596 159.892 539.212 160.528 539.212 161.32C539.212 161.944 539.428 162.436 539.86 162.796C540.292 163.156 540.82 163.42 541.444 163.588C542.092 163.756 542.992 163.948 544.144 164.164C545.68 164.428 546.916 164.716 547.852 165.028C548.812 165.316 549.628 165.82 550.3 166.54C550.972 167.26 551.308 168.268 551.308 169.564C551.308 171.292 550.564 172.672 549.076 173.704C547.612 174.712 545.608 175.216 543.064 175.216ZM566.356 173.884C565.852 174.316 565.228 174.652 564.484 174.892C563.74 175.108 562.972 175.216 562.18 175.216C560.26 175.216 558.772 174.7 557.716 173.668C556.66 172.636 556.132 171.16 556.132 169.24V158.764H552.892V155.92H556.132V151.744H559.588V155.92H565.06V158.764H559.588V169.096C559.588 170.128 559.84 170.92 560.344 171.472C560.872 172.024 561.616 172.3 562.576 172.3C563.632 172.3 564.532 172 565.276 171.4L566.356 173.884ZM577.482 155.74C580.122 155.74 582.138 156.388 583.53 157.684C584.946 158.98 585.654 160.912 585.654 163.48V175H582.378V172.48C581.802 173.368 580.974 174.052 579.894 174.532C578.838 174.988 577.578 175.216 576.114 175.216C573.978 175.216 572.262 174.7 570.966 173.668C569.694 172.636 569.058 171.28 569.058 169.6C569.058 167.92 569.67 166.576 570.894 165.568C572.118 164.536 574.062 164.02 576.726 164.02H582.198V163.336C582.198 161.848 581.766 160.708 580.902 159.916C580.038 159.124 578.766 158.728 577.086 158.728C575.958 158.728 574.854 158.92 573.774 159.304C572.694 159.664 571.782 160.156 571.038 160.78L569.598 158.188C570.582 157.396 571.758 156.796 573.126 156.388C574.494 155.956 575.946 155.74 577.482 155.74ZM576.69 172.552C578.01 172.552 579.15 172.264 580.11 171.688C581.07 171.088 581.766 170.248 582.198 169.168V166.504H576.87C573.942 166.504 572.478 167.488 572.478 169.456C572.478 170.416 572.85 171.172 573.594 171.724C574.338 172.276 575.37 172.552 576.69 172.552ZM592.049 148.288H595.505V175H592.049V148.288ZM602.104 148.288H605.56V175H602.104V148.288ZM636.027 155.74C638.427 155.74 640.323 156.436 641.715 157.828C643.131 159.22 643.839 161.284 643.839 164.02V175H640.383V164.416C640.383 162.568 639.951 161.176 639.087 160.24C638.247 159.304 637.035 158.836 635.451 158.836C633.699 158.836 632.307 159.388 631.275 160.492C630.243 161.572 629.727 163.132 629.727 165.172V175H626.271V164.416C626.271 162.568 625.839 161.176 624.975 160.24C624.135 159.304 622.923 158.836 621.339 158.836C619.587 158.836 618.195 159.388 617.163 160.492C616.131 161.572 615.615 163.132 615.615 165.172V175H612.159V155.92H615.471V158.764C616.167 157.78 617.079 157.036 618.207 156.532C619.335 156.004 620.619 155.74 622.059 155.74C623.547 155.74 624.867 156.04 626.019 156.64C627.171 157.24 628.059 158.116 628.683 159.268C629.403 158.164 630.399 157.3 631.671 156.676C632.967 156.052 634.419 155.74 636.027 155.74ZM667.547 165.568C667.547 165.832 667.523 166.18 667.475 166.612H651.995C652.211 168.292 652.943 169.648 654.191 170.68C655.463 171.688 657.035 172.192 658.907 172.192C661.187 172.192 663.023 171.424 664.415 169.888L666.323 172.12C665.459 173.128 664.379 173.896 663.083 174.424C661.811 174.952 660.383 175.216 658.799 175.216C656.783 175.216 654.995 174.808 653.435 173.992C651.875 173.152 650.663 171.988 649.799 170.5C648.959 169.012 648.539 167.332 648.539 165.46C648.539 163.612 648.947 161.944 649.763 160.456C650.603 158.968 651.743 157.816 653.183 157C654.647 156.16 656.291 155.74 658.115 155.74C659.939 155.74 661.559 156.16 662.975 157C664.415 157.816 665.531 158.968 666.323 160.456C667.139 161.944 667.547 163.648 667.547 165.568ZM658.115 158.656C656.459 158.656 655.067 159.16 653.939 160.168C652.835 161.176 652.187 162.496 651.995 164.128H664.235C664.043 162.52 663.383 161.212 662.255 160.204C661.151 159.172 659.771 158.656 658.115 158.656ZM682.534 155.74C684.958 155.74 686.878 156.448 688.294 157.864C689.734 159.256 690.454 161.308 690.454 164.02V175H686.998V164.416C686.998 162.568 686.554 161.176 685.666 160.24C684.778 159.304 683.506 158.836 681.85 158.836C679.978 158.836 678.502 159.388 677.422 160.492C676.342 161.572 675.802 163.132 675.802 165.172V175H672.346V155.92H675.658V158.8C676.354 157.816 677.29 157.06 678.466 156.532C679.666 156.004 681.022 155.74 682.534 155.74ZM707.578 173.884C707.074 174.316 706.45 174.652 705.706 174.892C704.962 175.108 704.194 175.216 703.402 175.216C701.482 175.216 699.994 174.7 698.938 173.668C697.882 172.636 697.354 171.16 697.354 169.24V158.764H694.114V155.92H697.354V151.744H700.81V155.92H706.282V158.764H700.81V169.096C700.81 170.128 701.062 170.92 701.566 171.472C702.094 172.024 702.838 172.3 703.798 172.3C704.854 172.3 705.754 172 706.498 171.4L707.578 173.884ZM731.54 155.74C733.388 155.74 735.044 156.148 736.508 156.964C737.972 157.78 739.112 158.92 739.928 160.384C740.768 161.848 741.188 163.54 741.188 165.46C741.188 167.38 740.768 169.084 739.928 170.572C739.112 172.036 737.972 173.176 736.508 173.992C735.044 174.808 733.388 175.216 731.54 175.216C730.172 175.216 728.912 174.952 727.76 174.424C726.632 173.896 725.672 173.128 724.88 172.12V181.984H721.424V155.92H724.736V158.944C725.504 157.888 726.476 157.096 727.652 156.568C728.828 156.016 730.124 155.74 731.54 155.74ZM731.252 172.192C732.476 172.192 733.568 171.916 734.528 171.364C735.512 170.788 736.28 169.996 736.832 168.988C737.408 167.956 737.696 166.78 737.696 165.46C737.696 164.14 737.408 162.976 736.832 161.968C736.28 160.936 735.512 160.144 734.528 159.592C733.568 159.04 732.476 158.764 731.252 158.764C730.052 158.764 728.96 159.052 727.976 159.628C727.016 160.18 726.248 160.96 725.672 161.968C725.12 162.976 724.844 164.14 724.844 165.46C724.844 166.78 725.12 167.956 725.672 168.988C726.224 169.996 726.992 170.788 727.976 171.364C728.96 171.916 730.052 172.192 731.252 172.192ZM745.964 148.288H749.42V175H745.964V148.288ZM762.966 155.74C765.606 155.74 767.622 156.388 769.014 157.684C770.43 158.98 771.138 160.912 771.138 163.48V175H767.862V172.48C767.286 173.368 766.458 174.052 765.378 174.532C764.322 174.988 763.062 175.216 761.598 175.216C759.462 175.216 757.746 174.7 756.45 173.668C755.178 172.636 754.542 171.28 754.542 169.6C754.542 167.92 755.154 166.576 756.378 165.568C757.602 164.536 759.546 164.02 762.21 164.02H767.682V163.336C767.682 161.848 767.25 160.708 766.386 159.916C765.522 159.124 764.25 158.728 762.57 158.728C761.442 158.728 760.338 158.92 759.258 159.304C758.178 159.664 757.266 160.156 756.522 160.78L755.082 158.188C756.066 157.396 757.242 156.796 758.61 156.388C759.978 155.956 761.43 155.74 762.966 155.74ZM762.174 172.552C763.494 172.552 764.634 172.264 765.594 171.688C766.554 171.088 767.25 170.248 767.682 169.168V166.504H762.354C759.426 166.504 757.962 167.488 757.962 169.456C757.962 170.416 758.334 171.172 759.078 171.724C759.822 172.276 760.854 172.552 762.174 172.552ZM787.722 155.74C790.146 155.74 792.066 156.448 793.482 157.864C794.922 159.256 795.642 161.308 795.642 164.02V175H792.186V164.416C792.186 162.568 791.742 161.176 790.854 160.24C789.966 159.304 788.694 158.836 787.038 158.836C785.166 158.836 783.69 159.388 782.61 160.492C781.53 161.572 780.99 163.132 780.99 165.172V175H777.534V155.92H780.846V158.8C781.542 157.816 782.478 157.06 783.654 156.532C784.854 156.004 786.21 155.74 787.722 155.74ZM807.51 175.216C805.95 175.216 804.45 175.012 803.01 174.604C801.57 174.172 800.442 173.632 799.626 172.984L801.066 170.248C801.906 170.848 802.926 171.328 804.126 171.688C805.326 172.048 806.538 172.228 807.762 172.228C810.786 172.228 812.298 171.364 812.298 169.636C812.298 169.06 812.094 168.604 811.686 168.268C811.278 167.932 810.762 167.692 810.138 167.548C809.538 167.38 808.674 167.2 807.546 167.008C806.01 166.768 804.75 166.492 803.766 166.18C802.806 165.868 801.978 165.34 801.282 164.596C800.586 163.852 800.238 162.808 800.238 161.464C800.238 159.736 800.958 158.356 802.398 157.324C803.838 156.268 805.77 155.74 808.194 155.74C809.466 155.74 810.738 155.896 812.01 156.208C813.282 156.52 814.326 156.94 815.142 157.468L813.666 160.204C812.106 159.196 810.27 158.692 808.158 158.692C806.694 158.692 805.578 158.932 804.81 159.412C804.042 159.892 803.658 160.528 803.658 161.32C803.658 161.944 803.874 162.436 804.306 162.796C804.738 163.156 805.266 163.42 805.89 163.588C806.538 163.756 807.438 163.948 808.59 164.164C810.126 164.428 811.362 164.716 812.298 165.028C813.258 165.316 814.074 165.82 814.746 166.54C815.418 167.26 815.754 168.268 815.754 169.564C815.754 171.292 815.01 172.672 813.522 173.704C812.058 174.712 810.054 175.216 807.51 175.216ZM819.605 149.8H823.673L822.989 167.044H820.253L819.605 149.8ZM821.657 175.216C820.985 175.216 820.421 175 819.965 174.568C819.509 174.112 819.281 173.56 819.281 172.912C819.281 172.264 819.509 171.724 819.965 171.292C820.421 170.836 820.985 170.608 821.657 170.608C822.329 170.608 822.881 170.836 823.313 171.292C823.745 171.724 823.961 172.264 823.961 172.912C823.961 173.56 823.733 174.112 823.277 174.568C822.845 175 822.305 175.216 821.657 175.216ZM205.428 210.288V219H201.864V210.216L191.856 193.8H195.708L203.772 207.084L211.872 193.8H215.436L205.428 210.288ZM224.612 219.216C222.716 219.216 221.012 218.796 219.5 217.956C217.988 217.116 216.8 215.964 215.936 214.5C215.096 213.012 214.676 211.332 214.676 209.46C214.676 207.588 215.096 205.92 215.936 204.456C216.8 202.968 217.988 201.816 219.5 201C221.012 200.16 222.716 199.74 224.612 199.74C226.508 199.74 228.2 200.16 229.688 201C231.2 201.816 232.376 202.968 233.216 204.456C234.08 205.92 234.512 207.588 234.512 209.46C234.512 211.332 234.08 213.012 233.216 214.5C232.376 215.964 231.2 217.116 229.688 217.956C228.2 218.796 226.508 219.216 224.612 219.216ZM224.612 216.192C225.836 216.192 226.928 215.916 227.888 215.364C228.872 214.788 229.64 213.996 230.192 212.988C230.744 211.956 231.02 210.78 231.02 209.46C231.02 208.14 230.744 206.976 230.192 205.968C229.64 204.936 228.872 204.144 227.888 203.592C226.928 203.04 225.836 202.764 224.612 202.764C223.388 202.764 222.284 203.04 221.3 203.592C220.34 204.144 219.572 204.936 218.996 205.968C218.444 206.976 218.168 208.14 218.168 209.46C218.168 210.78 218.444 211.956 218.996 212.988C219.572 213.996 220.34 214.788 221.3 215.364C222.284 215.916 223.388 216.192 224.612 216.192ZM257.076 199.92V219H253.8V216.12C253.104 217.104 252.18 217.872 251.028 218.424C249.9 218.952 248.664 219.216 247.32 219.216C244.776 219.216 242.772 218.52 241.308 217.128C239.844 215.712 239.112 213.636 239.112 210.9V199.92H242.568V210.504C242.568 212.352 243.012 213.756 243.9 214.716C244.788 215.652 246.06 216.12 247.716 216.12C249.54 216.12 250.98 215.568 252.036 214.464C253.092 213.36 253.62 211.8 253.62 209.784V199.92H257.076ZM281.639 219.216C279.695 219.216 277.955 218.796 276.419 217.956C274.907 217.116 273.719 215.964 272.855 214.5C271.991 213.012 271.559 211.332 271.559 209.46C271.559 207.588 271.991 205.92 272.855 204.456C273.719 202.968 274.907 201.816 276.419 201C277.955 200.16 279.695 199.74 281.639 199.74C283.367 199.74 284.903 200.088 286.247 200.784C287.615 201.48 288.671 202.488 289.415 203.808L286.787 205.5C286.187 204.588 285.443 203.904 284.555 203.448C283.667 202.992 282.683 202.764 281.603 202.764C280.355 202.764 279.227 203.04 278.219 203.592C277.235 204.144 276.455 204.936 275.879 205.968C275.327 206.976 275.051 208.14 275.051 209.46C275.051 210.804 275.327 211.992 275.879 213.024C276.455 214.032 277.235 214.812 278.219 215.364C279.227 215.916 280.355 216.192 281.603 216.192C282.683 216.192 283.667 215.964 284.555 215.508C285.443 215.052 286.187 214.368 286.787 213.456L289.415 215.112C288.671 216.432 287.615 217.452 286.247 218.172C284.903 218.868 283.367 219.216 281.639 219.216ZM300.837 199.74C303.477 199.74 305.493 200.388 306.885 201.684C308.301 202.98 309.009 204.912 309.009 207.48V219H305.733V216.48C305.157 217.368 304.329 218.052 303.249 218.532C302.193 218.988 300.933 219.216 299.469 219.216C297.333 219.216 295.617 218.7 294.321 217.668C293.049 216.636 292.413 215.28 292.413 213.6C292.413 211.92 293.025 210.576 294.249 209.568C295.473 208.536 297.417 208.02 300.081 208.02H305.553V207.336C305.553 205.848 305.121 204.708 304.257 203.916C303.393 203.124 302.121 202.728 300.441 202.728C299.313 202.728 298.209 202.92 297.129 203.304C296.049 203.664 295.137 204.156 294.393 204.78L292.953 202.188C293.937 201.396 295.113 200.796 296.481 200.388C297.849 199.956 299.301 199.74 300.837 199.74ZM300.045 216.552C301.365 216.552 302.505 216.264 303.465 215.688C304.425 215.088 305.121 214.248 305.553 213.168V210.504H300.225C297.297 210.504 295.833 211.488 295.833 213.456C295.833 214.416 296.205 215.172 296.949 215.724C297.693 216.276 298.725 216.552 300.045 216.552ZM325.593 199.74C328.017 199.74 329.937 200.448 331.353 201.864C332.793 203.256 333.513 205.308 333.513 208.02V219H330.057V208.416C330.057 206.568 329.613 205.176 328.725 204.24C327.837 203.304 326.565 202.836 324.909 202.836C323.037 202.836 321.561 203.388 320.481 204.492C319.401 205.572 318.861 207.132 318.861 209.172V219H315.405V199.92H318.717V202.8C319.413 201.816 320.349 201.06 321.525 200.532C322.725 200.004 324.081 199.74 325.593 199.74ZM357.893 219.216C355.949 219.216 354.209 218.796 352.673 217.956C351.161 217.116 349.973 215.964 349.109 214.5C348.245 213.012 347.813 211.332 347.813 209.46C347.813 207.588 348.245 205.92 349.109 204.456C349.973 202.968 351.161 201.816 352.673 201C354.209 200.16 355.949 199.74 357.893 199.74C359.621 199.74 361.157 200.088 362.501 200.784C363.869 201.48 364.925 202.488 365.669 203.808L363.041 205.5C362.441 204.588 361.697 203.904 360.809 203.448C359.921 202.992 358.937 202.764 357.857 202.764C356.609 202.764 355.481 203.04 354.473 203.592C353.489 204.144 352.709 204.936 352.133 205.968C351.581 206.976 351.305 208.14 351.305 209.46C351.305 210.804 351.581 211.992 352.133 213.024C352.709 214.032 353.489 214.812 354.473 215.364C355.481 215.916 356.609 216.192 357.857 216.192C358.937 216.192 359.921 215.964 360.809 215.508C361.697 215.052 362.441 214.368 363.041 213.456L365.669 215.112C364.925 216.432 363.869 217.452 362.501 218.172C361.157 218.868 359.621 219.216 357.893 219.216ZM380.085 199.74C382.509 199.74 384.429 200.448 385.845 201.864C387.285 203.256 388.005 205.308 388.005 208.02V219H384.549V208.416C384.549 206.568 384.105 205.176 383.217 204.24C382.329 203.304 381.057 202.836 379.401 202.836C377.529 202.836 376.053 203.388 374.973 204.492C373.893 205.572 373.353 207.132 373.353 209.172V219H369.897V192.288H373.353V202.62C374.073 201.708 375.009 201 376.161 200.496C377.337 199.992 378.645 199.74 380.085 199.74ZM402.678 219.216C400.782 219.216 399.078 218.796 397.566 217.956C396.054 217.116 394.866 215.964 394.002 214.5C393.162 213.012 392.742 211.332 392.742 209.46C392.742 207.588 393.162 205.92 394.002 204.456C394.866 202.968 396.054 201.816 397.566 201C399.078 200.16 400.782 199.74 402.678 199.74C404.574 199.74 406.266 200.16 407.754 201C409.266 201.816 410.442 202.968 411.282 204.456C412.146 205.92 412.578 207.588 412.578 209.46C412.578 211.332 412.146 213.012 411.282 214.5C410.442 215.964 409.266 217.116 407.754 217.956C406.266 218.796 404.574 219.216 402.678 219.216ZM402.678 216.192C403.902 216.192 404.994 215.916 405.954 215.364C406.938 214.788 407.706 213.996 408.258 212.988C408.81 211.956 409.086 210.78 409.086 209.46C409.086 208.14 408.81 206.976 408.258 205.968C407.706 204.936 406.938 204.144 405.954 203.592C404.994 203.04 403.902 202.764 402.678 202.764C401.454 202.764 400.35 203.04 399.366 203.592C398.406 204.144 397.638 204.936 397.062 205.968C396.51 206.976 396.234 208.14 396.234 209.46C396.234 210.78 396.51 211.956 397.062 212.988C397.638 213.996 398.406 214.788 399.366 215.364C400.35 215.916 401.454 216.192 402.678 216.192ZM425.53 219.216C423.634 219.216 421.93 218.796 420.418 217.956C418.906 217.116 417.718 215.964 416.854 214.5C416.014 213.012 415.594 211.332 415.594 209.46C415.594 207.588 416.014 205.92 416.854 204.456C417.718 202.968 418.906 201.816 420.418 201C421.93 200.16 423.634 199.74 425.53 199.74C427.426 199.74 429.118 200.16 430.606 201C432.118 201.816 433.294 202.968 434.134 204.456C434.998 205.92 435.43 207.588 435.43 209.46C435.43 211.332 434.998 213.012 434.134 214.5C433.294 215.964 432.118 217.116 430.606 217.956C429.118 218.796 427.426 219.216 425.53 219.216ZM425.53 216.192C426.754 216.192 427.846 215.916 428.806 215.364C429.79 214.788 430.558 213.996 431.11 212.988C431.662 211.956 431.938 210.78 431.938 209.46C431.938 208.14 431.662 206.976 431.11 205.968C430.558 204.936 429.79 204.144 428.806 203.592C427.846 203.04 426.754 202.764 425.53 202.764C424.306 202.764 423.202 203.04 422.218 203.592C421.258 204.144 420.49 204.936 419.914 205.968C419.362 206.976 419.086 208.14 419.086 209.46C419.086 210.78 419.362 211.956 419.914 212.988C420.49 213.996 421.258 214.788 422.218 215.364C423.202 215.916 424.306 216.192 425.53 216.192ZM445.682 219.216C444.122 219.216 442.622 219.012 441.182 218.604C439.742 218.172 438.614 217.632 437.798 216.984L439.238 214.248C440.078 214.848 441.098 215.328 442.298 215.688C443.498 216.048 444.71 216.228 445.934 216.228C448.958 216.228 450.47 215.364 450.47 213.636C450.47 213.06 450.266 212.604 449.858 212.268C449.45 211.932 448.934 211.692 448.31 211.548C447.71 211.38 446.846 211.2 445.718 211.008C444.182 210.768 442.922 210.492 441.938 210.18C440.978 209.868 440.15 209.34 439.454 208.596C438.758 207.852 438.41 206.808 438.41 205.464C438.41 203.736 439.13 202.356 440.57 201.324C442.01 200.268 443.942 199.74 446.366 199.74C447.638 199.74 448.91 199.896 450.182 200.208C451.454 200.52 452.498 200.94 453.314 201.468L451.838 204.204C450.278 203.196 448.442 202.692 446.33 202.692C444.866 202.692 443.75 202.932 442.982 203.412C442.214 203.892 441.83 204.528 441.83 205.32C441.83 205.944 442.046 206.436 442.478 206.796C442.91 207.156 443.438 207.42 444.062 207.588C444.71 207.756 445.61 207.948 446.762 208.164C448.298 208.428 449.534 208.716 450.47 209.028C451.43 209.316 452.246 209.82 452.918 210.54C453.59 211.26 453.926 212.268 453.926 213.564C453.926 215.292 453.182 216.672 451.694 217.704C450.23 218.712 448.226 219.216 445.682 219.216ZM475.489 209.568C475.489 209.832 475.465 210.18 475.417 210.612H459.937C460.153 212.292 460.885 213.648 462.133 214.68C463.405 215.688 464.977 216.192 466.849 216.192C469.129 216.192 470.965 215.424 472.357 213.888L474.265 216.12C473.401 217.128 472.321 217.896 471.025 218.424C469.753 218.952 468.325 219.216 466.741 219.216C464.725 219.216 462.937 218.808 461.377 217.992C459.817 217.152 458.605 215.988 457.741 214.5C456.901 213.012 456.481 211.332 456.481 209.46C456.481 207.612 456.889 205.944 457.705 204.456C458.545 202.968 459.685 201.816 461.125 201C462.589 200.16 464.233 199.74 466.057 199.74C467.881 199.74 469.501 200.16 470.917 201C472.357 201.816 473.473 202.968 474.265 204.456C475.081 205.944 475.489 207.648 475.489 209.568ZM466.057 202.656C464.401 202.656 463.009 203.16 461.881 204.168C460.777 205.176 460.129 206.496 459.937 208.128H472.177C471.985 206.52 471.325 205.212 470.197 204.204C469.093 203.172 467.713 202.656 466.057 202.656ZM498.056 204.384C500.528 204.624 502.412 205.392 503.708 206.688C505.004 207.96 505.652 209.592 505.652 211.584C505.652 213.024 505.292 214.332 504.572 215.508C503.852 216.66 502.772 217.584 501.332 218.28C499.916 218.952 498.176 219.288 496.112 219.288C494.312 219.288 492.584 219.024 490.928 218.496C489.272 217.944 487.916 217.188 486.86 216.228L488.516 213.384C489.38 214.2 490.484 214.86 491.828 215.364C493.172 215.844 494.6 216.084 496.112 216.084C497.984 216.084 499.436 215.688 500.468 214.896C501.524 214.104 502.052 213.012 502.052 211.62C502.052 210.228 501.536 209.148 500.504 208.38C499.472 207.612 497.912 207.228 495.824 207.228H493.808V204.708L500.144 196.932H488.012V193.8H504.644V196.248L498.056 204.384ZM511.421 214.284C512.093 214.284 512.645 214.524 513.077 215.004C513.533 215.46 513.761 216.036 513.761 216.732C513.761 217.092 513.713 217.44 513.617 217.776C513.545 218.112 513.389 218.628 513.149 219.324L511.457 224.328H509.189L510.521 218.964C510.065 218.796 509.693 218.52 509.405 218.136C509.141 217.728 509.009 217.26 509.009 216.732C509.009 216.012 509.237 215.424 509.693 214.968C510.149 214.512 510.725 214.284 511.421 214.284ZM548.757 212.808H543.969V219H540.477V212.808H526.473V210.288L539.361 193.8H543.249L530.901 209.712H540.585V204.24H543.969V209.712H548.757V212.808ZM570.303 219.216C568.407 219.216 566.703 218.796 565.191 217.956C563.679 217.116 562.491 215.964 561.627 214.5C560.787 213.012 560.367 211.332 560.367 209.46C560.367 207.588 560.787 205.92 561.627 204.456C562.491 202.968 563.679 201.816 565.191 201C566.703 200.16 568.407 199.74 570.303 199.74C572.199 199.74 573.891 200.16 575.379 201C576.891 201.816 578.067 202.968 578.907 204.456C579.771 205.92 580.203 207.588 580.203 209.46C580.203 211.332 579.771 213.012 578.907 214.5C578.067 215.964 576.891 217.116 575.379 217.956C573.891 218.796 572.199 219.216 570.303 219.216ZM570.303 216.192C571.527 216.192 572.619 215.916 573.579 215.364C574.563 214.788 575.331 213.996 575.883 212.988C576.435 211.956 576.711 210.78 576.711 209.46C576.711 208.14 576.435 206.976 575.883 205.968C575.331 204.936 574.563 204.144 573.579 203.592C572.619 203.04 571.527 202.764 570.303 202.764C569.079 202.764 567.975 203.04 566.991 203.592C566.031 204.144 565.263 204.936 564.687 205.968C564.135 206.976 563.859 208.14 563.859 209.46C563.859 210.78 564.135 211.956 564.687 212.988C565.263 213.996 566.031 214.788 566.991 215.364C567.975 215.916 569.079 216.192 570.303 216.192ZM588.295 203.124C588.895 202.02 589.783 201.18 590.959 200.604C592.135 200.028 593.563 199.74 595.243 199.74V203.088C595.051 203.064 594.787 203.052 594.451 203.052C592.579 203.052 591.103 203.616 590.023 204.744C588.967 205.848 588.439 207.432 588.439 209.496V219H584.983V199.92H588.295V203.124ZM618.741 203.7C620.397 203.7 621.873 204.012 623.169 204.636C624.489 205.26 625.521 206.16 626.265 207.336C627.009 208.488 627.381 209.82 627.381 211.332C627.381 212.916 626.985 214.308 626.193 215.508C625.425 216.708 624.357 217.644 622.989 218.316C621.645 218.964 620.133 219.288 618.453 219.288C615.069 219.288 612.453 218.196 610.605 216.012C608.781 213.828 607.869 210.732 607.869 206.724C607.869 203.916 608.361 201.528 609.345 199.56C610.353 197.568 611.745 196.068 613.521 195.06C615.321 194.028 617.409 193.512 619.785 193.512C621.009 193.512 622.161 193.644 623.241 193.908C624.321 194.148 625.257 194.508 626.049 194.988L624.681 197.796C623.481 197.004 621.873 196.608 619.857 196.608C617.241 196.608 615.189 197.424 613.701 199.056C612.213 200.664 611.469 203.016 611.469 206.112C611.469 206.496 611.481 206.796 611.505 207.012C612.225 205.932 613.209 205.116 614.457 204.564C615.729 203.988 617.157 203.7 618.741 203.7ZM618.309 216.372C619.965 216.372 621.309 215.928 622.341 215.04C623.373 214.152 623.889 212.964 623.889 211.476C623.889 209.988 623.361 208.812 622.305 207.948C621.273 207.06 619.881 206.616 618.129 206.616C617.001 206.616 615.993 206.832 615.105 207.264C614.241 207.696 613.557 208.284 613.053 209.028C612.573 209.772 612.333 210.6 612.333 211.512C612.333 212.4 612.561 213.216 613.017 213.96C613.497 214.68 614.181 215.268 615.069 215.724C615.981 216.156 617.061 216.372 618.309 216.372ZM665.171 199.74C667.571 199.74 669.467 200.436 670.859 201.828C672.275 203.22 672.983 205.284 672.983 208.02V219H669.527V208.416C669.527 206.568 669.095 205.176 668.231 204.24C667.391 203.304 666.179 202.836 664.595 202.836C662.843 202.836 661.451 203.388 660.419 204.492C659.387 205.572 658.871 207.132 658.871 209.172V219H655.415V208.416C655.415 206.568 654.983 205.176 654.119 204.24C653.279 203.304 652.067 202.836 650.483 202.836C648.731 202.836 647.339 203.388 646.307 204.492C645.275 205.572 644.759 207.132 644.759 209.172V219H641.303V199.92H644.615V202.764C645.311 201.78 646.223 201.036 647.351 200.532C648.479 200.004 649.763 199.74 651.203 199.74C652.691 199.74 654.011 200.04 655.163 200.64C656.315 201.24 657.203 202.116 657.827 203.268C658.547 202.164 659.543 201.3 660.815 200.676C662.111 200.052 663.563 199.74 665.171 199.74ZM687.62 219.216C685.724 219.216 684.02 218.796 682.508 217.956C680.996 217.116 679.808 215.964 678.944 214.5C678.104 213.012 677.684 211.332 677.684 209.46C677.684 207.588 678.104 205.92 678.944 204.456C679.808 202.968 680.996 201.816 682.508 201C684.02 200.16 685.724 199.74 687.62 199.74C689.516 199.74 691.208 200.16 692.696 201C694.208 201.816 695.384 202.968 696.224 204.456C697.088 205.92 697.52 207.588 697.52 209.46C697.52 211.332 697.088 213.012 696.224 214.5C695.384 215.964 694.208 217.116 692.696 217.956C691.208 218.796 689.516 219.216 687.62 219.216ZM687.62 216.192C688.844 216.192 689.936 215.916 690.896 215.364C691.88 214.788 692.648 213.996 693.2 212.988C693.752 211.956 694.028 210.78 694.028 209.46C694.028 208.14 693.752 206.976 693.2 205.968C692.648 204.936 691.88 204.144 690.896 203.592C689.936 203.04 688.844 202.764 687.62 202.764C686.396 202.764 685.292 203.04 684.308 203.592C683.348 204.144 682.58 204.936 682.004 205.968C681.452 206.976 681.176 208.14 681.176 209.46C681.176 210.78 681.452 211.956 682.004 212.988C682.58 213.996 683.348 214.788 684.308 215.364C685.292 215.916 686.396 216.192 687.62 216.192ZM712.487 199.74C714.911 199.74 716.831 200.448 718.247 201.864C719.687 203.256 720.407 205.308 720.407 208.02V219H716.951V208.416C716.951 206.568 716.507 205.176 715.619 204.24C714.731 203.304 713.459 202.836 711.803 202.836C709.931 202.836 708.455 203.388 707.375 204.492C706.295 205.572 705.755 207.132 705.755 209.172V219H702.299V199.92H705.611V202.8C706.307 201.816 707.243 201.06 708.419 200.532C709.619 200.004 710.975 199.74 712.487 199.74ZM737.531 217.884C737.027 218.316 736.403 218.652 735.659 218.892C734.915 219.108 734.147 219.216 733.355 219.216C731.435 219.216 729.947 218.7 728.891 217.668C727.835 216.636 727.307 215.16 727.307 213.24V202.764H724.067V199.92H727.307V195.744H730.763V199.92H736.235V202.764H730.763V213.096C730.763 214.128 731.015 214.92 731.519 215.472C732.047 216.024 732.791 216.3 733.751 216.3C734.807 216.3 735.707 216 736.451 215.4L737.531 217.884ZM751.898 199.74C754.322 199.74 756.242 200.448 757.658 201.864C759.098 203.256 759.818 205.308 759.818 208.02V219H756.362V208.416C756.362 206.568 755.918 205.176 755.03 204.24C754.142 203.304 752.87 202.836 751.214 202.836C749.342 202.836 747.866 203.388 746.786 204.492C745.706 205.572 745.166 207.132 745.166 209.172V219H741.71V192.288H745.166V202.62C745.886 201.708 746.822 201 747.974 200.496C749.15 199.992 750.458 199.74 751.898 199.74ZM205.392 243.74C207.24 243.74 208.896 244.148 210.36 244.964C211.824 245.78 212.964 246.92 213.78 248.384C214.62 249.848 215.04 251.54 215.04 253.46C215.04 255.38 214.62 257.084 213.78 258.572C212.964 260.036 211.824 261.176 210.36 261.992C208.896 262.808 207.24 263.216 205.392 263.216C204.024 263.216 202.764 262.952 201.612 262.424C200.484 261.896 199.524 261.128 198.732 260.12V269.984H195.276V243.92H198.588V246.944C199.356 245.888 200.328 245.096 201.504 244.568C202.68 244.016 203.976 243.74 205.392 243.74ZM205.104 260.192C206.328 260.192 207.42 259.916 208.38 259.364C209.364 258.788 210.132 257.996 210.684 256.988C211.26 255.956 211.548 254.78 211.548 253.46C211.548 252.14 211.26 250.976 210.684 249.968C210.132 248.936 209.364 248.144 208.38 247.592C207.42 247.04 206.328 246.764 205.104 246.764C203.904 246.764 202.812 247.052 201.828 247.628C200.868 248.18 200.1 248.96 199.524 249.968C198.972 250.976 198.696 252.14 198.696 253.46C198.696 254.78 198.972 255.956 199.524 256.988C200.076 257.996 200.844 258.788 201.828 259.364C202.812 259.916 203.904 260.192 205.104 260.192ZM219.815 236.288H223.271V263H219.815V236.288ZM236.818 243.74C239.458 243.74 241.474 244.388 242.866 245.684C244.282 246.98 244.99 248.912 244.99 251.48V263H241.714V260.48C241.138 261.368 240.31 262.052 239.23 262.532C238.174 262.988 236.914 263.216 235.45 263.216C233.314 263.216 231.598 262.7 230.302 261.668C229.03 260.636 228.394 259.28 228.394 257.6C228.394 255.92 229.006 254.576 230.23 253.568C231.454 252.536 233.398 252.02 236.062 252.02H241.534V251.336C241.534 249.848 241.102 248.708 240.238 247.916C239.374 247.124 238.102 246.728 236.422 246.728C235.294 246.728 234.19 246.92 233.11 247.304C232.03 247.664 231.118 248.156 230.374 248.78L228.934 246.188C229.918 245.396 231.094 244.796 232.462 244.388C233.83 243.956 235.282 243.74 236.818 243.74ZM236.026 260.552C237.346 260.552 238.486 260.264 239.446 259.688C240.406 259.088 241.102 258.248 241.534 257.168V254.504H236.206C233.278 254.504 231.814 255.488 231.814 257.456C231.814 258.416 232.186 259.172 232.93 259.724C233.674 260.276 234.706 260.552 236.026 260.552ZM261.573 243.74C263.997 243.74 265.917 244.448 267.333 245.864C268.773 247.256 269.493 249.308 269.493 252.02V263H266.037V252.416C266.037 250.568 265.593 249.176 264.705 248.24C263.817 247.304 262.545 246.836 260.889 246.836C259.017 246.836 257.541 247.388 256.461 248.492C255.381 249.572 254.841 251.132 254.841 253.172V263H251.385V243.92H254.697V246.8C255.393 245.816 256.329 245.06 257.505 244.532C258.705 244.004 260.061 243.74 261.573 243.74ZM281.361 263.216C279.801 263.216 278.301 263.012 276.861 262.604C275.421 262.172 274.293 261.632 273.477 260.984L274.917 258.248C275.757 258.848 276.777 259.328 277.977 259.688C279.177 260.048 280.389 260.228 281.613 260.228C284.637 260.228 286.149 259.364 286.149 257.636C286.149 257.06 285.945 256.604 285.537 256.268C285.129 255.932 284.613 255.692 283.989 255.548C283.389 255.38 282.525 255.2 281.397 255.008C279.861 254.768 278.601 254.492 277.617 254.18C276.657 253.868 275.829 253.34 275.133 252.596C274.437 251.852 274.089 250.808 274.089 249.464C274.089 247.736 274.809 246.356 276.249 245.324C277.689 244.268 279.621 243.74 282.045 243.74C283.317 243.74 284.589 243.896 285.861 244.208C287.133 244.52 288.177 244.94 288.993 245.468L287.517 248.204C285.957 247.196 284.121 246.692 282.009 246.692C280.545 246.692 279.429 246.932 278.661 247.412C277.893 247.892 277.509 248.528 277.509 249.32C277.509 249.944 277.725 250.436 278.157 250.796C278.589 251.156 279.117 251.42 279.741 251.588C280.389 251.756 281.289 251.948 282.441 252.164C283.977 252.428 285.213 252.716 286.149 253.028C287.109 253.316 287.925 253.82 288.597 254.54C289.269 255.26 289.605 256.268 289.605 257.564C289.605 259.292 288.861 260.672 287.373 261.704C285.909 262.712 283.905 263.216 281.361 263.216ZM310.54 243.74C313.18 243.74 315.196 244.388 316.588 245.684C318.004 246.98 318.712 248.912 318.712 251.48V263H315.436V260.48C314.86 261.368 314.032 262.052 312.952 262.532C311.896 262.988 310.636 263.216 309.172 263.216C307.036 263.216 305.32 262.7 304.024 261.668C302.752 260.636 302.116 259.28 302.116 257.6C302.116 255.92 302.728 254.576 303.952 253.568C305.176 252.536 307.12 252.02 309.784 252.02H315.256V251.336C315.256 249.848 314.824 248.708 313.96 247.916C313.096 247.124 311.824 246.728 310.144 246.728C309.016 246.728 307.912 246.92 306.832 247.304C305.752 247.664 304.84 248.156 304.096 248.78L302.656 246.188C303.64 245.396 304.816 244.796 306.184 244.388C307.552 243.956 309.004 243.74 310.54 243.74ZM309.748 260.552C311.068 260.552 312.208 260.264 313.168 259.688C314.128 259.088 314.824 258.248 315.256 257.168V254.504H309.928C307 254.504 305.536 255.488 305.536 257.456C305.536 258.416 305.908 259.172 306.652 259.724C307.396 260.276 308.428 260.552 309.748 260.552ZM335.296 243.74C337.72 243.74 339.64 244.448 341.056 245.864C342.496 247.256 343.216 249.308 343.216 252.02V263H339.76V252.416C339.76 250.568 339.316 249.176 338.428 248.24C337.54 247.304 336.268 246.836 334.612 246.836C332.74 246.836 331.264 247.388 330.184 248.492C329.104 249.572 328.564 251.132 328.564 253.172V263H325.108V243.92H328.42V246.8C329.116 245.816 330.052 245.06 331.228 244.532C332.428 244.004 333.784 243.74 335.296 243.74ZM367.717 236.288V263H364.405V259.976C363.637 261.032 362.665 261.836 361.489 262.388C360.313 262.94 359.017 263.216 357.601 263.216C355.753 263.216 354.097 262.808 352.633 261.992C351.169 261.176 350.017 260.036 349.177 258.572C348.361 257.084 347.953 255.38 347.953 253.46C347.953 251.54 348.361 249.848 349.177 248.384C350.017 246.92 351.169 245.78 352.633 244.964C354.097 244.148 355.753 243.74 357.601 243.74C358.969 243.74 360.229 244.004 361.381 244.532C362.533 245.036 363.493 245.792 364.261 246.8V236.288H367.717ZM357.889 260.192C359.089 260.192 360.181 259.916 361.165 259.364C362.149 258.788 362.917 257.996 363.469 256.988C364.021 255.956 364.297 254.78 364.297 253.46C364.297 252.14 364.021 250.976 363.469 249.968C362.917 248.936 362.149 248.144 361.165 247.592C360.181 247.04 359.089 246.764 357.889 246.764C356.665 246.764 355.561 247.04 354.577 247.592C353.617 248.144 352.849 248.936 352.273 249.968C351.721 250.976 351.445 252.14 351.445 253.46C351.445 254.78 351.721 255.956 352.273 256.988C352.849 257.996 353.617 258.788 354.577 259.364C355.561 259.916 356.665 260.192 357.889 260.192ZM394.04 243.74C395.888 243.74 397.544 244.148 399.008 244.964C400.472 245.78 401.612 246.92 402.428 248.384C403.268 249.848 403.688 251.54 403.688 253.46C403.688 255.38 403.268 257.084 402.428 258.572C401.612 260.036 400.472 261.176 399.008 261.992C397.544 262.808 395.888 263.216 394.04 263.216C392.672 263.216 391.412 262.952 390.26 262.424C389.132 261.896 388.172 261.128 387.38 260.12V269.984H383.924V243.92H387.236V246.944C388.004 245.888 388.976 245.096 390.152 244.568C391.328 244.016 392.624 243.74 394.04 243.74ZM393.752 260.192C394.976 260.192 396.068 259.916 397.028 259.364C398.012 258.788 398.78 257.996 399.332 256.988C399.908 255.956 400.196 254.78 400.196 253.46C400.196 252.14 399.908 250.976 399.332 249.968C398.78 248.936 398.012 248.144 397.028 247.592C396.068 247.04 394.976 246.764 393.752 246.764C392.552 246.764 391.46 247.052 390.476 247.628C389.516 248.18 388.748 248.96 388.172 249.968C387.62 250.976 387.344 252.14 387.344 253.46C387.344 254.78 387.62 255.956 388.172 256.988C388.724 257.996 389.492 258.788 390.476 259.364C391.46 259.916 392.552 260.192 393.752 260.192ZM415.236 243.74C417.876 243.74 419.892 244.388 421.284 245.684C422.7 246.98 423.408 248.912 423.408 251.48V263H420.132V260.48C419.556 261.368 418.728 262.052 417.648 262.532C416.592 262.988 415.332 263.216 413.868 263.216C411.732 263.216 410.016 262.7 408.72 261.668C407.448 260.636 406.812 259.28 406.812 257.6C406.812 255.92 407.424 254.576 408.648 253.568C409.872 252.536 411.816 252.02 414.48 252.02H419.952V251.336C419.952 249.848 419.52 248.708 418.656 247.916C417.792 247.124 416.52 246.728 414.84 246.728C413.712 246.728 412.608 246.92 411.528 247.304C410.448 247.664 409.536 248.156 408.792 248.78L407.352 246.188C408.336 245.396 409.512 244.796 410.88 244.388C412.248 243.956 413.7 243.74 415.236 243.74ZM414.444 260.552C415.764 260.552 416.904 260.264 417.864 259.688C418.824 259.088 419.52 258.248 419.952 257.168V254.504H414.624C411.696 254.504 410.232 255.488 410.232 257.456C410.232 258.416 410.604 259.172 411.348 259.724C412.092 260.276 413.124 260.552 414.444 260.552ZM446.336 243.92L437.084 264.908C436.268 266.852 435.308 268.22 434.204 269.012C433.124 269.804 431.816 270.2 430.28 270.2C429.344 270.2 428.432 270.044 427.544 269.732C426.68 269.444 425.96 269.012 425.384 268.436L426.86 265.844C427.844 266.78 428.984 267.248 430.28 267.248C431.12 267.248 431.816 267.02 432.368 266.564C432.944 266.132 433.46 265.376 433.916 264.296L434.528 262.964L426.104 243.92H429.704L436.364 259.184L442.952 243.92H446.336ZM469.417 243.74C471.841 243.74 473.761 244.448 475.177 245.864C476.617 247.256 477.337 249.308 477.337 252.02V263H473.881V252.416C473.881 250.568 473.437 249.176 472.549 248.24C471.661 247.304 470.389 246.836 468.733 246.836C466.861 246.836 465.385 247.388 464.305 248.492C463.225 249.572 462.685 251.132 462.685 253.172V263H459.229V236.288H462.685V246.62C463.405 245.708 464.341 245 465.493 244.496C466.669 243.992 467.977 243.74 469.417 243.74ZM492.011 263.216C490.115 263.216 488.411 262.796 486.899 261.956C485.387 261.116 484.199 259.964 483.335 258.5C482.495 257.012 482.075 255.332 482.075 253.46C482.075 251.588 482.495 249.92 483.335 248.456C484.199 246.968 485.387 245.816 486.899 245C488.411 244.16 490.115 243.74 492.011 243.74C493.907 243.74 495.599 244.16 497.087 245C498.599 245.816 499.775 246.968 500.615 248.456C501.479 249.92 501.911 251.588 501.911 253.46C501.911 255.332 501.479 257.012 500.615 258.5C499.775 259.964 498.599 261.116 497.087 261.956C495.599 262.796 493.907 263.216 492.011 263.216ZM492.011 260.192C493.235 260.192 494.327 259.916 495.287 259.364C496.271 258.788 497.039 257.996 497.591 256.988C498.143 255.956 498.419 254.78 498.419 253.46C498.419 252.14 498.143 250.976 497.591 249.968C497.039 248.936 496.271 248.144 495.287 247.592C494.327 247.04 493.235 246.764 492.011 246.764C490.787 246.764 489.683 247.04 488.699 247.592C487.739 248.144 486.971 248.936 486.395 249.968C485.843 250.976 485.567 252.14 485.567 253.46C485.567 254.78 485.843 255.956 486.395 256.988C486.971 257.996 487.739 258.788 488.699 259.364C489.683 259.916 490.787 260.192 492.011 260.192ZM535.035 243.92L527.907 263H524.595L519.087 248.528L513.507 263H510.195L503.103 243.92H506.379L511.923 259.112L517.683 243.92H520.599L526.251 259.184L531.939 243.92H535.035ZM565.094 243.92L555.842 264.908C555.026 266.852 554.066 268.22 552.962 269.012C551.882 269.804 550.574 270.2 549.038 270.2C548.102 270.2 547.19 270.044 546.302 269.732C545.438 269.444 544.718 269.012 544.142 268.436L545.618 265.844C546.602 266.78 547.742 267.248 549.038 267.248C549.878 267.248 550.574 267.02 551.126 266.564C551.702 266.132 552.218 265.376 552.674 264.296L553.286 262.964L544.862 243.92H548.462L555.122 259.184L561.71 243.92H565.094ZM575.964 263.216C574.068 263.216 572.364 262.796 570.852 261.956C569.34 261.116 568.152 259.964 567.288 258.5C566.448 257.012 566.028 255.332 566.028 253.46C566.028 251.588 566.448 249.92 567.288 248.456C568.152 246.968 569.34 245.816 570.852 245C572.364 244.16 574.068 243.74 575.964 243.74C577.86 243.74 579.552 244.16 581.04 245C582.552 245.816 583.728 246.968 584.568 248.456C585.432 249.92 585.864 251.588 585.864 253.46C585.864 255.332 585.432 257.012 584.568 258.5C583.728 259.964 582.552 261.116 581.04 261.956C579.552 262.796 577.86 263.216 575.964 263.216ZM575.964 260.192C577.188 260.192 578.28 259.916 579.24 259.364C580.224 258.788 580.992 257.996 581.544 256.988C582.096 255.956 582.372 254.78 582.372 253.46C582.372 252.14 582.096 250.976 581.544 249.968C580.992 248.936 580.224 248.144 579.24 247.592C578.28 247.04 577.188 246.764 575.964 246.764C574.74 246.764 573.636 247.04 572.652 247.592C571.692 248.144 570.924 248.936 570.348 249.968C569.796 250.976 569.52 252.14 569.52 253.46C569.52 254.78 569.796 255.956 570.348 256.988C570.924 257.996 571.692 258.788 572.652 259.364C573.636 259.916 574.74 260.192 575.964 260.192ZM608.427 243.92V263H605.151V260.12C604.455 261.104 603.531 261.872 602.379 262.424C601.251 262.952 600.015 263.216 598.671 263.216C596.127 263.216 594.123 262.52 592.659 261.128C591.195 259.712 590.463 257.636 590.463 254.9V243.92H593.919V254.504C593.919 256.352 594.363 257.756 595.251 258.716C596.139 259.652 597.411 260.12 599.067 260.12C600.891 260.12 602.331 259.568 603.387 258.464C604.443 257.36 604.971 255.8 604.971 253.784V243.92H608.427ZM624.674 236.288H628.13V263H624.674V236.288ZM634.729 243.92H638.185V263H634.729V243.92ZM636.457 240.248C635.785 240.248 635.221 240.032 634.765 239.6C634.333 239.168 634.117 238.64 634.117 238.016C634.117 237.392 634.333 236.864 634.765 236.432C635.221 235.976 635.785 235.748 636.457 235.748C637.129 235.748 637.681 235.964 638.113 236.396C638.569 236.804 638.797 237.32 638.797 237.944C638.797 238.592 638.569 239.144 638.113 239.6C637.681 240.032 637.129 240.248 636.457 240.248ZM652.2 254.108L648.24 257.78V263H644.784V236.288H648.24V253.424L658.644 243.92H662.82L654.792 251.804L663.612 263H659.364L652.2 254.108ZM683.403 253.568C683.403 253.832 683.379 254.18 683.331 254.612H667.851C668.067 256.292 668.799 257.648 670.047 258.68C671.319 259.688 672.891 260.192 674.763 260.192C677.043 260.192 678.879 259.424 680.271 257.888L682.179 260.12C681.315 261.128 680.235 261.896 678.939 262.424C677.667 262.952 676.239 263.216 674.655 263.216C672.639 263.216 670.851 262.808 669.291 261.992C667.731 261.152 666.519 259.988 665.655 258.5C664.815 257.012 664.395 255.332 664.395 253.46C664.395 251.612 664.803 249.944 665.619 248.456C666.459 246.968 667.599 245.816 669.039 245C670.503 244.16 672.147 243.74 673.971 243.74C675.795 243.74 677.415 244.16 678.831 245C680.271 245.816 681.387 246.968 682.179 248.456C682.995 249.944 683.403 251.648 683.403 253.568ZM673.971 246.656C672.315 246.656 670.923 247.16 669.795 248.168C668.691 249.176 668.043 250.496 667.851 252.128H680.091C679.899 250.52 679.239 249.212 678.111 248.204C677.007 247.172 675.627 246.656 673.971 246.656ZM689.03 263.216C688.358 263.216 687.782 262.988 687.302 262.532C686.822 262.052 686.582 261.452 686.582 260.732C686.582 260.036 686.822 259.46 687.302 259.004C687.782 258.524 688.358 258.284 689.03 258.284C689.702 258.284 690.266 258.512 690.722 258.968C691.178 259.424 691.406 260.012 691.406 260.732C691.406 261.452 691.166 262.052 690.686 262.532C690.23 262.988 689.678 263.216 689.03 263.216Z" fill="white"/>
<path d="M212.064 47.576C208.64 47.576 205.536 46.84 202.752 45.368C200 43.864 197.824 41.8 196.224 39.176C194.656 36.52 193.872 33.528 193.872 30.2C193.872 26.872 194.656 23.896 196.224 21.272C197.824 18.616 200 16.552 202.752 15.08C205.536 13.576 208.656 12.824 212.112 12.824C215.024 12.824 217.648 13.336 219.984 14.36C222.352 15.384 224.336 16.856 225.936 18.776L220.944 23.384C218.672 20.76 215.856 19.448 212.496 19.448C210.416 19.448 208.56 19.912 206.928 20.84C205.296 21.736 204.016 23 203.088 24.632C202.192 26.264 201.744 28.12 201.744 30.2C201.744 32.28 202.192 34.136 203.088 35.768C204.016 37.4 205.296 38.68 206.928 39.608C208.56 40.504 210.416 40.952 212.496 40.952C215.856 40.952 218.672 39.624 220.944 36.968L225.936 41.576C224.336 43.528 222.352 45.016 219.984 46.04C217.616 47.064 214.976 47.576 212.064 47.576ZM246.355 20.792C249.555 20.792 252.131 21.752 254.083 23.672C256.067 25.592 257.059 28.44 257.059 32.216V47H249.571V33.368C249.571 31.32 249.123 29.8 248.227 28.808C247.331 27.784 246.035 27.272 244.339 27.272C242.451 27.272 240.947 27.864 239.827 29.048C238.707 30.2 238.147 31.928 238.147 34.232V47H230.659V11.384H238.147V23.864C239.139 22.872 240.339 22.12 241.747 21.608C243.155 21.064 244.691 20.792 246.355 20.792ZM276.416 47.384C273.696 47.384 271.248 46.824 269.072 45.704C266.928 44.552 265.248 42.968 264.032 40.952C262.816 38.936 262.208 36.648 262.208 34.088C262.208 31.528 262.816 29.24 264.032 27.224C265.248 25.208 266.928 23.64 269.072 22.52C271.248 21.368 273.696 20.792 276.416 20.792C279.136 20.792 281.568 21.368 283.712 22.52C285.856 23.64 287.536 25.208 288.752 27.224C289.968 29.24 290.576 31.528 290.576 34.088C290.576 36.648 289.968 38.936 288.752 40.952C287.536 42.968 285.856 44.552 283.712 45.704C281.568 46.824 279.136 47.384 276.416 47.384ZM276.416 41.24C278.336 41.24 279.904 40.6 281.12 39.32C282.368 38.008 282.992 36.264 282.992 34.088C282.992 31.912 282.368 30.184 281.12 28.904C279.904 27.592 278.336 26.936 276.416 26.936C274.496 26.936 272.912 27.592 271.664 28.904C270.416 30.184 269.792 31.912 269.792 34.088C269.792 36.264 270.416 38.008 271.664 39.32C272.912 40.6 274.496 41.24 276.416 41.24ZM307.869 47.384C305.149 47.384 302.701 46.824 300.525 45.704C298.381 44.552 296.701 42.968 295.485 40.952C294.269 38.936 293.661 36.648 293.661 34.088C293.661 31.528 294.269 29.24 295.485 27.224C296.701 25.208 298.381 23.64 300.525 22.52C302.701 21.368 305.149 20.792 307.869 20.792C310.589 20.792 313.021 21.368 315.165 22.52C317.309 23.64 318.989 25.208 320.205 27.224C321.421 29.24 322.029 31.528 322.029 34.088C322.029 36.648 321.421 38.936 320.205 40.952C318.989 42.968 317.309 44.552 315.165 45.704C313.021 46.824 310.589 47.384 307.869 47.384ZM307.869 41.24C309.789 41.24 311.357 40.6 312.573 39.32C313.821 38.008 314.445 36.264 314.445 34.088C314.445 31.912 313.821 30.184 312.573 28.904C311.357 27.592 309.789 26.936 307.869 26.936C305.949 26.936 304.365 27.592 303.117 28.904C301.869 30.184 301.245 31.912 301.245 34.088C301.245 36.264 301.869 38.008 303.117 39.32C304.365 40.6 305.949 41.24 307.869 41.24ZM335.722 47.384C333.578 47.384 331.482 47.128 329.434 46.616C327.386 46.072 325.754 45.4 324.538 44.6L327.034 39.224C328.186 39.96 329.578 40.568 331.21 41.048C332.842 41.496 334.442 41.72 336.01 41.72C339.178 41.72 340.762 40.936 340.762 39.368C340.762 38.632 340.33 38.104 339.466 37.784C338.602 37.464 337.274 37.192 335.482 36.968C333.37 36.648 331.626 36.28 330.25 35.864C328.874 35.448 327.674 34.712 326.65 33.656C325.658 32.6 325.162 31.096 325.162 29.144C325.162 27.512 325.626 26.072 326.554 24.824C327.514 23.544 328.89 22.552 330.682 21.848C332.506 21.144 334.65 20.792 337.114 20.792C338.938 20.792 340.746 21 342.538 21.416C344.362 21.8 345.866 22.344 347.05 23.048L344.554 28.376C342.282 27.096 339.802 26.456 337.114 26.456C335.514 26.456 334.314 26.68 333.514 27.128C332.714 27.576 332.314 28.152 332.314 28.856C332.314 29.656 332.746 30.216 333.61 30.536C334.474 30.856 335.85 31.16 337.738 31.448C339.85 31.8 341.578 32.184 342.922 32.6C344.266 32.984 345.434 33.704 346.426 34.76C347.418 35.816 347.914 37.288 347.914 39.176C347.914 40.776 347.434 42.2 346.474 43.448C345.514 44.696 344.106 45.672 342.25 46.376C340.426 47.048 338.25 47.384 335.722 47.384ZM377.83 34.184C377.83 34.28 377.782 34.952 377.686 36.2H358.15C358.502 37.8 359.334 39.064 360.646 39.992C361.958 40.92 363.59 41.384 365.542 41.384C366.886 41.384 368.07 41.192 369.094 40.808C370.15 40.392 371.126 39.752 372.022 38.888L376.006 43.208C373.574 45.992 370.022 47.384 365.35 47.384C362.438 47.384 359.862 46.824 357.622 45.704C355.382 44.552 353.654 42.968 352.438 40.952C351.222 38.936 350.614 36.648 350.614 34.088C350.614 31.56 351.206 29.288 352.39 27.272C353.606 25.224 355.254 23.64 357.334 22.52C359.446 21.368 361.798 20.792 364.39 20.792C366.918 20.792 369.206 21.336 371.254 22.424C373.302 23.512 374.902 25.08 376.054 27.128C377.238 29.144 377.83 31.496 377.83 34.184ZM364.438 26.456C362.742 26.456 361.318 26.936 360.166 27.896C359.014 28.856 358.31 30.168 358.054 31.832H370.774C370.518 30.2 369.814 28.904 368.662 27.944C367.51 26.952 366.102 26.456 364.438 26.456ZM413.065 45.752C412.329 46.296 411.417 46.712 410.329 47C409.273 47.256 408.153 47.384 406.969 47.384C403.897 47.384 401.513 46.6 399.817 45.032C398.153 43.464 397.321 41.16 397.321 38.12V27.512H393.337V21.752H397.321V15.464H404.809V21.752H411.241V27.512H404.809V38.024C404.809 39.112 405.081 39.96 405.625 40.568C406.201 41.144 407.001 41.432 408.025 41.432C409.209 41.432 410.217 41.112 411.049 40.472L413.065 45.752ZM432.965 20.792C436.165 20.792 438.741 21.752 440.693 23.672C442.677 25.592 443.669 28.44 443.669 32.216V47H436.181V33.368C436.181 31.32 435.733 29.8 434.837 28.808C433.941 27.784 432.645 27.272 430.949 27.272C429.061 27.272 427.557 27.864 426.437 29.048C425.317 30.2 424.757 31.928 424.757 34.232V47H417.269V11.384H424.757V23.864C425.749 22.872 426.949 22.12 428.357 21.608C429.765 21.064 431.301 20.792 432.965 20.792ZM476.033 34.184C476.033 34.28 475.985 34.952 475.889 36.2H456.353C456.705 37.8 457.537 39.064 458.849 39.992C460.161 40.92 461.793 41.384 463.745 41.384C465.089 41.384 466.273 41.192 467.297 40.808C468.353 40.392 469.329 39.752 470.225 38.888L474.209 43.208C471.777 45.992 468.225 47.384 463.553 47.384C460.641 47.384 458.065 46.824 455.825 45.704C453.585 44.552 451.857 42.968 450.641 40.952C449.425 38.936 448.817 36.648 448.817 34.088C448.817 31.56 449.409 29.288 450.593 27.272C451.809 25.224 453.457 23.64 455.537 22.52C457.649 21.368 460.001 20.792 462.593 20.792C465.121 20.792 467.409 21.336 469.457 22.424C471.505 23.512 473.105 25.08 474.257 27.128C475.441 29.144 476.033 31.496 476.033 34.184ZM462.641 26.456C460.945 26.456 459.521 26.936 458.369 27.896C457.217 28.856 456.513 30.168 456.257 31.832H468.977C468.721 30.2 468.017 28.904 466.865 27.944C465.713 26.952 464.305 26.456 462.641 26.456ZM509.876 20.792C512.276 20.792 514.452 21.352 516.404 22.472C518.388 23.56 519.94 25.112 521.06 27.128C522.18 29.112 522.74 31.432 522.74 34.088C522.74 36.744 522.18 39.08 521.06 41.096C519.94 43.08 518.388 44.632 516.404 45.752C514.452 46.84 512.276 47.384 509.876 47.384C506.58 47.384 503.988 46.344 502.1 44.264V56.312H494.612V21.176H501.764V24.152C503.62 21.912 506.324 20.792 509.876 20.792ZM508.58 41.24C510.5 41.24 512.068 40.6 513.284 39.32C514.532 38.008 515.156 36.264 515.156 34.088C515.156 31.912 514.532 30.184 513.284 28.904C512.068 27.592 510.5 26.936 508.58 26.936C506.66 26.936 505.076 27.592 503.828 28.904C502.612 30.184 502.004 31.912 502.004 34.088C502.004 36.264 502.612 38.008 503.828 39.32C505.076 40.6 506.66 41.24 508.58 41.24ZM527.753 11.384H535.241V47H527.753V11.384ZM552.606 20.792C556.606 20.792 559.678 21.752 561.822 23.672C563.966 25.56 565.038 28.424 565.038 32.264V47H558.03V43.784C556.622 46.184 553.998 47.384 550.158 47.384C548.174 47.384 546.446 47.048 544.974 46.376C543.534 45.704 542.43 44.776 541.662 43.592C540.894 42.408 540.51 41.064 540.51 39.56C540.51 37.16 541.406 35.272 543.198 33.896C545.022 32.52 547.822 31.832 551.598 31.832H557.55C557.55 30.2 557.054 28.952 556.062 28.088C555.07 27.192 553.582 26.744 551.598 26.744C550.222 26.744 548.862 26.968 547.518 27.416C546.206 27.832 545.086 28.408 544.158 29.144L541.47 23.912C542.878 22.92 544.558 22.152 546.51 21.608C548.494 21.064 550.526 20.792 552.606 20.792ZM552.03 42.344C553.31 42.344 554.446 42.056 555.438 41.48C556.43 40.872 557.134 39.992 557.55 38.84V36.2H552.414C549.342 36.2 547.806 37.208 547.806 39.224C547.806 40.184 548.174 40.952 548.91 41.528C549.678 42.072 550.718 42.344 552.03 42.344ZM587.511 20.792C590.711 20.792 593.287 21.752 595.239 23.672C597.223 25.592 598.215 28.44 598.215 32.216V47H590.727V33.368C590.727 31.32 590.279 29.8 589.383 28.808C588.487 27.784 587.191 27.272 585.495 27.272C583.607 27.272 582.103 27.864 580.983 29.048C579.863 30.2 579.303 31.928 579.303 34.232V47H571.815V21.176H578.967V24.2C579.959 23.112 581.191 22.28 582.663 21.704C584.135 21.096 585.751 20.792 587.511 20.792ZM607.883 38.072C609.227 38.072 610.331 38.504 611.195 39.368C612.059 40.2 612.491 41.304 612.491 42.68C612.491 43.32 612.411 43.96 612.251 44.6C612.091 45.24 611.739 46.2 611.195 47.48L608.459 54.392H603.707L605.819 46.76C605.019 46.44 604.379 45.928 603.899 45.224C603.451 44.488 603.227 43.64 603.227 42.68C603.227 41.304 603.659 40.2 604.523 39.368C605.419 38.504 606.539 38.072 607.883 38.072ZM646.423 20.792C648.823 20.792 650.999 21.352 652.951 22.472C654.935 23.56 656.487 25.112 657.607 27.128C658.727 29.112 659.287 31.432 659.287 34.088C659.287 36.744 658.727 39.08 657.607 41.096C656.487 43.08 654.935 44.632 652.951 45.752C650.999 46.84 648.823 47.384 646.423 47.384C643.127 47.384 640.535 46.344 638.647 44.264V56.312H631.159V21.176H638.311V24.152C640.167 21.912 642.871 20.792 646.423 20.792ZM645.127 41.24C647.047 41.24 648.615 40.6 649.831 39.32C651.079 38.008 651.703 36.264 651.703 34.088C651.703 31.912 651.079 30.184 649.831 28.904C648.615 27.592 647.047 26.936 645.127 26.936C643.207 26.936 641.623 27.592 640.375 28.904C639.159 30.184 638.551 31.912 638.551 34.088C638.551 36.264 639.159 38.008 640.375 39.32C641.623 40.6 643.207 41.24 645.127 41.24ZM674.294 20.792C678.294 20.792 681.366 21.752 683.51 23.672C685.654 25.56 686.726 28.424 686.726 32.264V47H679.718V43.784C678.31 46.184 675.686 47.384 671.846 47.384C669.862 47.384 668.134 47.048 666.662 46.376C665.222 45.704 664.118 44.776 663.35 43.592C662.582 42.408 662.198 41.064 662.198 39.56C662.198 37.16 663.094 35.272 664.886 33.896C666.71 32.52 669.51 31.832 673.286 31.832H679.238C679.238 30.2 678.742 28.952 677.75 28.088C676.758 27.192 675.27 26.744 673.286 26.744C671.91 26.744 670.55 26.968 669.206 27.416C667.894 27.832 666.774 28.408 665.846 29.144L663.158 23.912C664.566 22.92 666.246 22.152 668.198 21.608C670.182 21.064 672.214 20.792 674.294 20.792ZM673.718 42.344C674.998 42.344 676.134 42.056 677.126 41.48C678.118 40.872 678.822 39.992 679.238 38.84V36.2H674.102C671.03 36.2 669.494 37.208 669.494 39.224C669.494 40.184 669.862 40.952 670.598 41.528C671.366 42.072 672.406 42.344 673.718 42.344ZM718.666 21.176L707.002 48.584C705.818 51.56 704.346 53.656 702.586 54.872C700.858 56.088 698.762 56.696 696.298 56.696C694.954 56.696 693.626 56.488 692.314 56.072C691.002 55.656 689.93 55.08 689.098 54.344L691.834 49.016C692.41 49.528 693.066 49.928 693.802 50.216C694.57 50.504 695.322 50.648 696.058 50.648C697.082 50.648 697.914 50.392 698.554 49.88C699.194 49.4 699.77 48.584 700.282 47.432L700.378 47.192L689.194 21.176H696.922L704.17 38.696L711.466 21.176H718.666ZM734.355 30.488H747.939V36.488H734.355V30.488ZM211.152 79.792C214.352 79.792 216.928 80.752 218.88 82.672C220.864 84.592 221.856 87.44 221.856 91.216V106H214.368V92.368C214.368 90.32 213.92 88.8 213.024 87.808C212.128 86.784 210.832 86.272 209.136 86.272C207.248 86.272 205.744 86.864 204.624 88.048C203.504 89.2 202.944 90.928 202.944 93.232V106H195.456V80.176H202.608V83.2C203.6 82.112 204.832 81.28 206.304 80.704C207.776 80.096 209.392 79.792 211.152 79.792ZM241.213 106.384C238.493 106.384 236.045 105.824 233.869 104.704C231.725 103.552 230.045 101.968 228.829 99.952C227.613 97.936 227.005 95.648 227.005 93.088C227.005 90.528 227.613 88.24 228.829 86.224C230.045 84.208 231.725 82.64 233.869 81.52C236.045 80.368 238.493 79.792 241.213 79.792C243.933 79.792 246.365 80.368 248.509 81.52C250.653 82.64 252.333 84.208 253.549 86.224C254.765 88.24 255.373 90.528 255.373 93.088C255.373 95.648 254.765 97.936 253.549 99.952C252.333 101.968 250.653 103.552 248.509 104.704C246.365 105.824 243.933 106.384 241.213 106.384ZM241.213 100.24C243.133 100.24 244.701 99.6 245.917 98.32C247.165 97.008 247.789 95.264 247.789 93.088C247.789 90.912 247.165 89.184 245.917 87.904C244.701 86.592 243.133 85.936 241.213 85.936C239.293 85.936 237.709 86.592 236.461 87.904C235.213 89.184 234.589 90.912 234.589 93.088C234.589 95.264 235.213 97.008 236.461 98.32C237.709 99.6 239.293 100.24 241.213 100.24ZM273.972 80.176H281.46V106H273.972V80.176ZM277.716 76.576C276.34 76.576 275.22 76.176 274.356 75.376C273.492 74.576 273.06 73.584 273.06 72.4C273.06 71.216 273.492 70.224 274.356 69.424C275.22 68.624 276.34 68.224 277.716 68.224C279.092 68.224 280.212 68.608 281.076 69.376C281.94 70.144 282.372 71.104 282.372 72.256C282.372 73.504 281.94 74.544 281.076 75.376C280.212 76.176 279.092 76.576 277.716 76.576ZM304.105 79.792C307.305 79.792 309.881 80.752 311.833 82.672C313.817 84.592 314.809 87.44 314.809 91.216V106H307.321V92.368C307.321 90.32 306.873 88.8 305.977 87.808C305.081 86.784 303.785 86.272 302.089 86.272C300.201 86.272 298.697 86.864 297.577 88.048C296.457 89.2 295.897 90.928 295.897 93.232V106H288.409V80.176H295.561V83.2C296.553 82.112 297.785 81.28 299.257 80.704C300.729 80.096 302.345 79.792 304.105 79.792ZM338.253 104.752C337.517 105.296 336.605 105.712 335.517 106C334.461 106.256 333.341 106.384 332.157 106.384C329.085 106.384 326.701 105.6 325.005 104.032C323.341 102.464 322.509 100.16 322.509 97.12V86.512H318.525V80.752H322.509V74.464H329.997V80.752H336.429V86.512H329.997V97.024C329.997 98.112 330.269 98.96 330.813 99.568C331.389 100.144 332.189 100.432 333.213 100.432C334.397 100.432 335.405 100.112 336.237 99.472L338.253 104.752ZM366.955 93.184C366.955 93.28 366.907 93.952 366.811 95.2H347.275C347.627 96.8 348.459 98.064 349.771 98.992C351.083 99.92 352.715 100.384 354.667 100.384C356.011 100.384 357.195 100.192 358.219 99.808C359.275 99.392 360.251 98.752 361.147 97.888L365.131 102.208C362.699 104.992 359.147 106.384 354.475 106.384C351.563 106.384 348.987 105.824 346.747 104.704C344.507 103.552 342.779 101.968 341.563 99.952C340.347 97.936 339.739 95.648 339.739 93.088C339.739 90.56 340.331 88.288 341.515 86.272C342.731 84.224 344.379 82.64 346.459 81.52C348.571 80.368 350.923 79.792 353.515 79.792C356.043 79.792 358.331 80.336 360.379 81.424C362.427 82.512 364.027 84.08 365.179 86.128C366.363 88.144 366.955 90.496 366.955 93.184ZM353.563 85.456C351.867 85.456 350.443 85.936 349.291 86.896C348.139 87.856 347.435 89.168 347.179 90.832H359.899C359.643 89.2 358.939 87.904 357.787 86.944C356.635 85.952 355.227 85.456 353.563 85.456ZM379.092 83.584C379.988 82.336 381.188 81.392 382.692 80.752C384.228 80.112 385.988 79.792 387.972 79.792V86.704C387.14 86.64 386.58 86.608 386.292 86.608C384.148 86.608 382.468 87.216 381.252 88.432C380.036 89.616 379.428 91.408 379.428 93.808V106H371.94V80.176H379.092V83.584ZM417.486 93.184C417.486 93.28 417.438 93.952 417.342 95.2H397.806C398.158 96.8 398.99 98.064 400.302 98.992C401.614 99.92 403.246 100.384 405.198 100.384C406.542 100.384 407.726 100.192 408.75 99.808C409.806 99.392 410.782 98.752 411.678 97.888L415.662 102.208C413.23 104.992 409.678 106.384 405.006 106.384C402.094 106.384 399.518 105.824 397.278 104.704C395.038 103.552 393.31 101.968 392.094 99.952C390.878 97.936 390.27 95.648 390.27 93.088C390.27 90.56 390.862 88.288 392.046 86.272C393.262 84.224 394.91 82.64 396.99 81.52C399.102 80.368 401.454 79.792 404.046 79.792C406.574 79.792 408.862 80.336 410.91 81.424C412.958 82.512 414.558 84.08 415.71 86.128C416.894 88.144 417.486 90.496 417.486 93.184ZM404.094 85.456C402.398 85.456 400.974 85.936 399.822 86.896C398.67 87.856 397.966 89.168 397.71 90.832H410.43C410.174 89.2 409.47 87.904 408.318 86.944C407.166 85.952 405.758 85.456 404.094 85.456ZM431.16 106.384C429.016 106.384 426.92 106.128 424.872 105.616C422.824 105.072 421.192 104.4 419.976 103.6L422.472 98.224C423.624 98.96 425.016 99.568 426.648 100.048C428.28 100.496 429.88 100.72 431.448 100.72C434.616 100.72 436.2 99.936 436.2 98.368C436.2 97.632 435.768 97.104 434.904 96.784C434.04 96.464 432.712 96.192 430.92 95.968C428.808 95.648 427.064 95.28 425.688 94.864C424.312 94.448 423.112 93.712 422.088 92.656C421.096 91.6 420.6 90.096 420.6 88.144C420.6 86.512 421.064 85.072 421.992 83.824C422.952 82.544 424.328 81.552 426.12 80.848C427.944 80.144 430.088 79.792 432.552 79.792C434.376 79.792 436.184 80 437.976 80.416C439.8 80.8 441.304 81.344 442.488 82.048L439.992 87.376C437.72 86.096 435.24 85.456 432.552 85.456C430.952 85.456 429.752 85.68 428.952 86.128C428.152 86.576 427.752 87.152 427.752 87.856C427.752 88.656 428.184 89.216 429.048 89.536C429.912 89.856 431.288 90.16 433.176 90.448C435.288 90.8 437.016 91.184 438.36 91.6C439.704 91.984 440.872 92.704 441.864 93.76C442.856 94.816 443.352 96.288 443.352 98.176C443.352 99.776 442.872 101.2 441.912 102.448C440.952 103.696 439.544 104.672 437.688 105.376C435.864 106.048 433.688 106.384 431.16 106.384ZM464.628 104.752C463.892 105.296 462.98 105.712 461.892 106C460.836 106.256 459.716 106.384 458.532 106.384C455.46 106.384 453.076 105.6 451.38 104.032C449.716 102.464 448.884 100.16 448.884 97.12V86.512H444.9V80.752H448.884V74.464H456.372V80.752H462.804V86.512H456.372V97.024C456.372 98.112 456.644 98.96 457.188 99.568C457.764 100.144 458.564 100.432 459.588 100.432C460.772 100.432 461.78 100.112 462.612 99.472L464.628 104.752ZM490.633 80.752H497.257V86.512H490.825V106H483.337V86.512H479.353V80.752H483.337V79.6C483.337 76.656 484.201 74.32 485.929 72.592C487.689 70.864 490.153 70 493.321 70C494.441 70 495.497 70.128 496.489 70.384C497.513 70.608 498.361 70.944 499.033 71.392L497.065 76.816C496.201 76.208 495.193 75.904 494.041 75.904C491.769 75.904 490.633 77.152 490.633 79.648V80.752ZM525.955 93.184C525.955 93.28 525.907 93.952 525.811 95.2H506.275C506.627 96.8 507.459 98.064 508.771 98.992C510.083 99.92 511.715 100.384 513.667 100.384C515.011 100.384 516.195 100.192 517.219 99.808C518.275 99.392 519.251 98.752 520.147 97.888L524.131 102.208C521.699 104.992 518.147 106.384 513.475 106.384C510.563 106.384 507.987 105.824 505.747 104.704C503.507 103.552 501.779 101.968 500.563 99.952C499.347 97.936 498.739 95.648 498.739 93.088C498.739 90.56 499.331 88.288 500.515 86.272C501.731 84.224 503.379 82.64 505.459 81.52C507.571 80.368 509.923 79.792 512.515 79.792C515.043 79.792 517.331 80.336 519.379 81.424C521.427 82.512 523.027 84.08 524.179 86.128C525.363 88.144 525.955 90.496 525.955 93.184ZM512.563 85.456C510.867 85.456 509.443 85.936 508.291 86.896C507.139 87.856 506.435 89.168 506.179 90.832H518.899C518.643 89.2 517.939 87.904 516.787 86.944C515.635 85.952 514.227 85.456 512.563 85.456ZM556.236 93.184C556.236 93.28 556.188 93.952 556.092 95.2H536.556C536.908 96.8 537.74 98.064 539.052 98.992C540.364 99.92 541.996 100.384 543.948 100.384C545.292 100.384 546.476 100.192 547.5 99.808C548.556 99.392 549.532 98.752 550.428 97.888L554.412 102.208C551.98 104.992 548.428 106.384 543.756 106.384C540.844 106.384 538.268 105.824 536.028 104.704C533.788 103.552 532.06 101.968 530.844 99.952C529.628 97.936 529.02 95.648 529.02 93.088C529.02 90.56 529.612 88.288 530.796 86.272C532.012 84.224 533.66 82.64 535.74 81.52C537.852 80.368 540.204 79.792 542.796 79.792C545.324 79.792 547.612 80.336 549.66 81.424C551.708 82.512 553.308 84.08 554.46 86.128C555.644 88.144 556.236 90.496 556.236 93.184ZM542.844 85.456C541.148 85.456 539.724 85.936 538.572 86.896C537.42 87.856 536.716 89.168 536.46 90.832H549.18C548.924 89.2 548.22 87.904 547.068 86.944C545.916 85.952 544.508 85.456 542.844 85.456ZM569.91 106.384C567.766 106.384 565.67 106.128 563.622 105.616C561.574 105.072 559.942 104.4 558.726 103.6L561.222 98.224C562.374 98.96 563.766 99.568 565.398 100.048C567.03 100.496 568.63 100.72 570.198 100.72C573.366 100.72 574.95 99.936 574.95 98.368C574.95 97.632 574.518 97.104 573.654 96.784C572.79 96.464 571.462 96.192 569.67 95.968C567.558 95.648 565.814 95.28 564.438 94.864C563.062 94.448 561.862 93.712 560.838 92.656C559.846 91.6 559.35 90.096 559.35 88.144C559.35 86.512 559.814 85.072 560.742 83.824C561.702 82.544 563.078 81.552 564.87 80.848C566.694 80.144 568.838 79.792 571.302 79.792C573.126 79.792 574.934 80 576.726 80.416C578.55 80.8 580.054 81.344 581.238 82.048L578.742 87.376C576.47 86.096 573.99 85.456 571.302 85.456C569.702 85.456 568.502 85.68 567.702 86.128C566.902 86.576 566.502 87.152 566.502 87.856C566.502 88.656 566.934 89.216 567.798 89.536C568.662 89.856 570.038 90.16 571.926 90.448C574.038 90.8 575.766 91.184 577.11 91.6C578.454 91.984 579.622 92.704 580.614 93.76C581.606 94.816 582.102 96.288 582.102 98.176C582.102 99.776 581.622 101.2 580.662 102.448C579.702 103.696 578.294 104.672 576.438 105.376C574.614 106.048 572.438 106.384 569.91 106.384ZM585.762 72.4H594.69L593.202 94.336H587.25L585.762 72.4ZM590.226 106.384C588.914 106.384 587.81 105.968 586.914 105.136C586.05 104.272 585.618 103.232 585.618 102.016C585.618 100.8 586.05 99.792 586.914 98.992C587.778 98.16 588.882 97.744 590.226 97.744C591.57 97.744 592.674 98.16 593.538 98.992C594.402 99.792 594.834 100.8 594.834 102.016C594.834 103.232 594.386 104.272 593.49 105.136C592.626 105.968 591.538 106.384 590.226 106.384Z" fill="white"/>
<circle cx="67.5" cy="67.5" r="67.5" fill="white"/>
<path d="M91.5266 62.6949V86.7213C91.5266 87.3585 91.2735 87.9697 90.8229 88.4202C90.3723 88.8708 89.7612 89.124 89.124 89.124H45.8765C45.2393 89.124 44.6282 88.8708 44.1776 88.4202C43.727 87.9697 43.4739 87.3585 43.4739 86.7213V62.6949H91.5266ZM91.5266 57.8897H43.4739V48.2791C43.4739 47.6419 43.727 47.0308 44.1776 46.5802C44.6282 46.1296 45.2393 45.8765 45.8765 45.8765H89.124C89.7612 45.8765 90.3723 46.1296 90.8229 46.5802C91.2735 47.0308 91.5266 47.6419 91.5266 48.2791V57.8897ZM74.7082 77.1108V81.916H84.3187V77.1108H74.7082Z" fill="#03053D"/>
</svg>
