<svg width="39" height="40" viewBox="0 0 39 40" fill="none" xmlns="http://www.w3.org/2000/svg">
<path d="M19.5 15.0002C18.2071 15.0002 16.9671 15.5269 16.0529 16.4646C15.1386 17.4023 14.625 18.6741 14.625 20.0002C14.625 21.3262 15.1386 22.598 16.0529 23.5357C16.9671 24.4734 18.2071 25.0002 19.5 25.0002C20.7929 25.0002 22.0329 24.4734 22.9471 23.5357C23.8614 22.598 24.375 21.3262 24.375 20.0002C24.375 18.6741 23.8614 17.4023 22.9471 16.4646C22.0329 15.5269 20.7929 15.0002 19.5 15.0002ZM19.5 11.6668C21.6549 11.6668 23.7215 12.5448 25.2452 14.1076C26.769 15.6704 27.625 17.79 27.625 20.0002C27.625 22.2103 26.769 24.3299 25.2452 25.8927C23.7215 27.4555 21.6549 28.3335 19.5 28.3335C17.3451 28.3335 15.2785 27.4555 13.7548 25.8927C12.231 24.3299 11.375 22.2103 11.375 20.0002C11.375 17.79 12.231 15.6704 13.7548 14.1076C15.2785 12.5448 17.3451 11.6668 19.5 11.6668ZM30.0625 11.2502C30.0625 11.8027 29.8485 12.3326 29.4676 12.7233C29.0866 13.114 28.57 13.3335 28.0313 13.3335C27.4925 13.3335 26.9759 13.114 26.5949 12.7233C26.214 12.3326 26 11.8027 26 11.2502C26 10.6976 26.214 10.1677 26.5949 9.77702C26.9759 9.38632 27.4925 9.16683 28.0313 9.16683C28.57 9.16683 29.0866 9.38632 29.4676 9.77702C29.8485 10.1677 30.0625 10.6976 30.0625 11.2502ZM19.5 6.66683C15.4798 6.66683 14.8233 6.6785 12.9529 6.7635C11.6789 6.82516 10.8241 7.00016 10.0311 7.31683C9.32588 7.59683 8.81725 7.93183 8.27613 8.4885C7.76751 8.99249 7.37645 9.6078 7.13213 10.2885C6.82338 11.1052 6.65275 11.9802 6.59425 13.2852C6.50975 15.1252 6.5 15.7685 6.5 20.0002C6.5 24.1235 6.51138 24.7968 6.59425 26.7152C6.65438 28.0202 6.825 28.8985 7.13213 29.7102C7.40838 30.4352 7.73338 30.9568 8.27288 31.5102C8.8205 32.0702 9.32913 32.4052 10.0279 32.6818C10.8306 33.0002 11.6854 33.1768 12.9529 33.2368C14.7469 33.3235 15.3741 33.3335 19.5 33.3335C23.5203 33.3335 24.1768 33.3218 26.0471 33.2368C27.3179 33.1752 28.1743 33.0002 28.9673 32.6852C29.6709 32.4035 30.1828 32.0685 30.7223 31.5152C31.2699 30.9535 31.5965 30.4318 31.8663 29.7152C32.175 28.8935 32.3473 28.0152 32.4058 26.7152C32.4903 24.8752 32.5 24.2318 32.5 20.0002C32.5 15.8768 32.4886 15.2035 32.4058 13.2852C32.3456 11.9818 32.175 11.1018 31.8663 10.2885C31.6214 9.6085 31.231 8.99343 30.7239 8.4885C30.2327 7.96657 29.6327 7.56544 28.9689 7.31516C28.1726 6.9985 27.3179 6.8235 26.0471 6.7635C24.2531 6.67683 23.6259 6.66683 19.5 6.66683ZM19.5 3.3335C23.9151 3.3335 24.466 3.35016 26.1983 3.4335C27.9289 3.51683 29.107 3.79516 30.1438 4.2085C31.2163 4.63183 32.1198 5.20516 33.0233 6.13016C33.8496 6.96332 34.4889 7.97114 34.8969 9.0835C35.2983 10.1452 35.5713 11.3552 35.6525 13.1302C35.7289 14.9068 35.75 15.4718 35.75 20.0002C35.75 24.5285 35.7338 25.0935 35.6525 26.8702C35.5713 28.6452 35.2983 29.8535 34.8969 30.9168C34.4901 32.0298 33.8506 33.0379 33.0233 33.8702C32.2107 34.7174 31.2281 35.3731 30.1438 35.7918C29.1086 36.2035 27.9289 36.4835 26.1983 36.5668C24.466 36.6452 23.9151 36.6668 19.5 36.6668C15.0849 36.6668 14.534 36.6502 12.8018 36.5668C11.0711 36.4835 9.893 36.2035 8.85625 35.7918C7.77128 35.3743 6.78848 34.7184 5.97675 33.8702C5.15029 33.0371 4.51089 32.0293 4.10313 30.9168C3.70013 29.8552 3.42875 28.6452 3.3475 26.8702C3.27112 25.0935 3.25 24.5285 3.25 20.0002C3.25 15.4718 3.26625 14.9068 3.3475 13.1302C3.42875 11.3535 3.70013 10.1468 4.10313 9.0835C4.50976 7.97046 5.14931 6.96236 5.97675 6.13016C6.78872 5.28221 7.77145 4.62638 8.85625 4.2085C9.893 3.79516 11.0695 3.51683 12.8018 3.4335C14.534 3.35516 15.0849 3.3335 19.5 3.3335Z" fill="#F2F2F2"/>
</svg>
