<svg width="38" height="40" viewBox="0 0 38 40" fill="none" xmlns="http://www.w3.org/2000/svg">
<path d="M6.33333 5H31.6667C32.0866 5 32.4893 5.17559 32.7863 5.48816C33.0832 5.80072 33.25 6.22464 33.25 6.66667V33.3333C33.25 33.7754 33.0832 34.1993 32.7863 34.5118C32.4893 34.8244 32.0866 35 31.6667 35H6.33333C5.91341 35 5.51068 34.8244 5.21375 34.5118C4.91681 34.1993 4.75 33.7754 4.75 33.3333V6.66667C4.75 6.22464 4.91681 5.80072 5.21375 5.48816C5.51068 5.17559 5.91341 5 6.33333 5ZM7.91667 8.33333V31.6667H30.0833V8.33333H7.91667ZM11.875 15C11.2451 15 10.641 14.7366 10.1956 14.2678C9.75022 13.7989 9.5 13.163 9.5 12.5C9.5 11.837 9.75022 11.2011 10.1956 10.7322C10.641 10.2634 11.2451 10 11.875 10C12.5049 10 13.109 10.2634 13.5544 10.7322C13.9998 11.2011 14.25 11.837 14.25 12.5C14.25 13.163 13.9998 13.7989 13.5544 14.2678C13.109 14.7366 12.5049 15 11.875 15ZM10.2917 16.6667H13.4583V29.1667H10.2917V16.6667ZM19 17.3833C19.9247 16.4417 21.0045 15.8333 22.1667 15.8333C25.4458 15.8333 27.7083 18.6317 27.7083 22.0833V29.1667H24.5417V22.0833C24.5417 21.3098 24.2497 20.5679 23.7301 20.0209C23.2105 19.474 22.5057 19.1667 21.7708 19.1667C21.036 19.1667 20.3312 19.474 19.8116 20.0209C19.2919 20.5679 19 21.3098 19 22.0833V29.1667H15.8333V16.6667H19V17.3833Z" fill="#F2F2F2"/>
</svg>
