<svg width="103" height="124" viewBox="0 0 103 124" fill="none" xmlns="http://www.w3.org/2000/svg">
<path d="M46.5274 15.652L46.7529 15.8557L46.7622 15.8639L68.9929 35.1528V21.5112L54.6233 9.04306H54.6139C54.5106 8.95341 54.4072 8.87192 54.2945 8.79858C52.6228 7.38879 50.8195 6.16642 48.9412 5.13963C46.9501 4.06395 44.8275 3.18384 42.611 2.51562C31.3595 -0.907011 18.3048 1.2688 9.34494 9.04306L9.33554 9.0512C9.22284 9.14899 9.12892 9.24678 9.035 9.34457C3.0148 14.7067 0 21.6986 0 28.6824C0 35.7721 3.10872 42.8863 9.32615 48.2892L9.33554 48.2973L9.32615 48.3055L9.34494 48.3218L15.9287 54.0262C18.0888 55.9086 21.6201 55.9086 23.7897 54.0262C25.9592 52.1437 25.9592 49.0959 23.7897 47.2135L17.2153 41.501L17.1872 41.4847L17.1778 41.4928C13.1393 37.9724 11.1106 33.3274 11.1106 28.6743C11.1106 24.1108 13.0547 19.5554 16.943 16.0594L17.1966 15.8557L17.206 15.8476C23.0571 10.7625 31.6037 9.34457 38.9576 11.5774C40.357 12.0012 41.747 12.5716 43.0806 13.2969C44.311 13.9733 45.4662 14.7556 46.5274 15.652Z" fill="white"/>
<path d="M68.9926 89.0413L64.9635 92.5378C64.7569 90.0845 64.1934 87.6639 63.2448 85.3248C62.4747 83.4013 61.4603 81.5593 60.2206 79.8314C59.0466 78.1851 57.6378 76.6283 56.013 75.1776C55.9285 75.0879 55.8346 74.9901 55.7313 74.9086L55.7219 74.9005L50.763 70.5971C48.5935 68.7144 45.0715 68.7144 42.902 70.5971C40.7325 72.4798 40.7325 75.5281 42.902 77.4189L47.8609 81.7223L47.8703 81.7305L48.1051 81.9261C49.1288 82.847 50.0304 83.8495 50.8006 84.9172C51.6364 86.0746 52.3033 87.2727 52.7916 88.4871C55.2899 94.6895 53.8153 101.862 48.3774 106.931L47.8797 107.363H47.8703L46.7057 108.374C44.5456 110.257 44.5456 113.313 46.7057 115.188C48.8846 117.07 52.4066 117.07 54.5667 115.188L54.6324 115.139L69.002 102.669V89.0413H68.9926Z" fill="white"/>
<path d="M71.1624 37.0239L64.9731 31.6626C64.4378 38.0913 61.3572 44.3814 55.7127 49.2702L17.2059 82.6765L17.1966 82.6846L17.1872 82.6765C13.1486 86.2045 11.12 90.8488 11.12 95.5013C11.12 100.154 13.1393 104.798 17.1872 108.318L17.1966 108.31L17.2153 108.326H17.2247L17.2341 108.334L17.2247 108.342C18.3518 109.32 19.5915 110.159 20.9064 110.868C22.24 111.585 23.63 112.172 25.02 112.596C32.3832 114.828 40.9205 113.402 46.781 108.326L85.5695 74.6671L85.5789 74.6753C85.8419 74.439 86.0767 74.219 86.2739 74.0316C87.2789 73.0376 88.1429 71.9457 88.8661 70.7806C89.608 69.591 90.181 68.3851 90.5754 67.1955C92.6228 61.0276 90.8666 54.0856 85.2972 49.2539L71.1624 37.0239ZM48.2462 17.1431L47.8705 16.8171L47.8611 16.8253L47.8517 16.8171L46.6871 15.8068L54.4824 8.94629L54.5387 8.98703H54.5481L54.6139 9.03592L79.0046 30.2041L88.4998 38.4335H88.4716L93.1206 42.4748C101.62 49.8487 104.306 60.4328 101.188 69.8354C100.54 71.7746 99.6855 73.6242 98.6149 75.3353C97.5254 77.0871 96.1824 78.7737 94.5857 80.3543C94.1913 80.7454 93.8156 81.104 93.4493 81.4217L93.4118 81.4788L54.6139 115.138C45.654 122.903 32.5993 125.078 21.3478 121.664C19.1407 120.988 17.0087 120.116 15.0176 119.041C13.0266 117.957 11.1294 116.661 9.37311 115.138H9.35433L9.34493 115.13L9.32615 115.113V115.097C3.10872 109.703 0 102.598 0 95.5013C0 88.3963 3.10872 81.2914 9.33554 75.8893V75.873L9.34493 75.8649L47.8611 42.4585C52.388 38.5313 54.3885 33.1862 53.8719 28.0123C53.7592 26.9531 53.5714 25.9509 53.2896 25.0221C52.4443 22.1459 50.7444 19.4245 48.2462 17.1431Z" fill="white"/>
</svg>
