<svg width="353" height="258" viewBox="0 0 353 258" fill="none" xmlns="http://www.w3.org/2000/svg">
<path d="M31.01 228.31C31.51 227.25 32.25 226.45 33.23 225.91C34.23 225.37 35.46 225.1 36.92 225.1V227.17L36.41 227.14C34.75 227.14 33.45 227.65 32.51 228.67C31.57 229.69 31.1 231.12 31.1 232.96V241H28.97V225.22H31.01V228.31ZM54.3702 233.77H41.1702C41.2902 235.41 41.9202 236.74 43.0602 237.76C44.2002 238.76 45.6402 239.26 47.3802 239.26C48.3602 239.26 49.2602 239.09 50.0802 238.75C50.9002 238.39 51.6102 237.87 52.2102 237.19L53.4102 238.57C52.7102 239.41 51.8302 240.05 50.7702 240.49C49.7302 240.93 48.5802 241.15 47.3202 241.15C45.7002 241.15 44.2602 240.81 43.0002 240.13C41.7602 239.43 40.7902 238.47 40.0902 237.25C39.3902 236.03 39.0402 234.65 39.0402 233.11C39.0402 231.57 39.3702 230.19 40.0302 228.97C40.7102 227.75 41.6302 226.8 42.7902 226.12C43.9702 225.44 45.2902 225.1 46.7502 225.1C48.2102 225.1 49.5202 225.44 50.6802 226.12C51.8402 226.8 52.7502 227.75 53.4102 228.97C54.0702 230.17 54.4002 231.55 54.4002 233.11L54.3702 233.77ZM46.7502 226.93C45.2302 226.93 43.9502 227.42 42.9102 228.4C41.8902 229.36 41.3102 230.62 41.1702 232.18H52.3602C52.2202 230.62 51.6302 229.36 50.5902 228.4C49.5702 227.42 48.2902 226.93 46.7502 226.93ZM66.8656 225.1C68.3456 225.1 69.6856 225.44 70.8856 226.12C72.0856 226.78 73.0256 227.72 73.7056 228.94C74.3856 230.16 74.7256 231.55 74.7256 233.11C74.7256 234.69 74.3856 236.09 73.7056 237.31C73.0256 238.53 72.0856 239.48 70.8856 240.16C69.7056 240.82 68.3656 241.15 66.8656 241.15C65.5856 241.15 64.4256 240.89 63.3856 240.37C62.3656 239.83 61.5256 239.05 60.8656 238.03V246.82H58.7356V225.22H60.7756V228.34C61.4156 227.3 62.2556 226.5 63.2956 225.94C64.3556 225.38 65.5456 225.1 66.8656 225.1ZM66.7156 239.26C67.8156 239.26 68.8156 239.01 69.7156 238.51C70.6156 237.99 71.3156 237.26 71.8156 236.32C72.3356 235.38 72.5956 234.31 72.5956 233.11C72.5956 231.91 72.3356 230.85 71.8156 229.93C71.3156 228.99 70.6156 228.26 69.7156 227.74C68.8156 227.22 67.8156 226.96 66.7156 226.96C65.5956 226.96 64.5856 227.22 63.6856 227.74C62.8056 228.26 62.1056 228.99 61.5856 229.93C61.0856 230.85 60.8356 231.91 60.8356 233.11C60.8356 234.31 61.0856 235.38 61.5856 236.32C62.1056 237.26 62.8056 237.99 63.6856 238.51C64.5856 239.01 65.5956 239.26 66.7156 239.26ZM92.8077 233.77H79.6077C79.7277 235.41 80.3577 236.74 81.4977 237.76C82.6377 238.76 84.0777 239.26 85.8177 239.26C86.7977 239.26 87.6977 239.09 88.5177 238.75C89.3377 238.39 90.0477 237.87 90.6477 237.19L91.8477 238.57C91.1477 239.41 90.2677 240.05 89.2077 240.49C88.1677 240.93 87.0177 241.15 85.7577 241.15C84.1377 241.15 82.6977 240.81 81.4377 240.13C80.1977 239.43 79.2277 238.47 78.5277 237.25C77.8277 236.03 77.4777 234.65 77.4777 233.11C77.4777 231.57 77.8077 230.19 78.4677 228.97C79.1477 227.75 80.0677 226.8 81.2277 226.12C82.4077 225.44 83.7277 225.1 85.1877 225.1C86.6477 225.1 87.9577 225.44 89.1177 226.12C90.2777 226.8 91.1877 227.75 91.8477 228.97C92.5077 230.17 92.8377 231.55 92.8377 233.11L92.8077 233.77ZM85.1877 226.93C83.6677 226.93 82.3877 227.42 81.3477 228.4C80.3277 229.36 79.7477 230.62 79.6077 232.18H90.7977C90.6577 230.62 90.0677 229.36 89.0277 228.4C88.0077 227.42 86.7277 226.93 85.1877 226.93ZM102.254 225.1C104.314 225.1 105.894 225.62 106.994 226.66C108.094 227.68 108.644 229.2 108.644 231.22V241H106.604V238.54C106.124 239.36 105.414 240 104.474 240.46C103.554 240.92 102.454 241.15 101.174 241.15C99.4137 241.15 98.0137 240.73 96.9737 239.89C95.9337 239.05 95.4137 237.94 95.4137 236.56C95.4137 235.22 95.8937 234.14 96.8537 233.32C97.8337 232.5 99.3837 232.09 101.504 232.09H106.514V231.13C106.514 229.77 106.134 228.74 105.374 228.04C104.614 227.32 103.504 226.96 102.044 226.96C101.044 226.96 100.084 227.13 99.1637 227.47C98.2437 227.79 97.4537 228.24 96.7937 228.82L95.8337 227.23C96.6337 226.55 97.5937 226.03 98.7137 225.67C99.8337 225.29 101.014 225.1 102.254 225.1ZM101.504 239.47C102.704 239.47 103.734 239.2 104.594 238.66C105.454 238.1 106.094 237.3 106.514 236.26V233.68H101.564C98.8637 233.68 97.5137 234.62 97.5137 236.5C97.5137 237.42 97.8637 238.15 98.5637 238.69C99.2637 239.21 100.244 239.47 101.504 239.47ZM122.739 240.04C122.339 240.4 121.839 240.68 121.239 240.88C120.659 241.06 120.049 241.15 119.409 241.15C117.929 241.15 116.789 240.75 115.989 239.95C115.189 239.15 114.789 238.02 114.789 236.56V227.02H111.969V225.22H114.789V221.77H116.919V225.22H121.719V227.02H116.919V236.44C116.919 237.38 117.149 238.1 117.609 238.6C118.089 239.08 118.769 239.32 119.649 239.32C120.089 239.32 120.509 239.25 120.909 239.11C121.329 238.97 121.689 238.77 121.989 238.51L122.739 240.04ZM142.598 225.1C144.078 225.1 145.418 225.44 146.618 226.12C147.818 226.78 148.758 227.72 149.438 228.94C150.118 230.16 150.458 231.55 150.458 233.11C150.458 234.69 150.118 236.09 149.438 237.31C148.758 238.53 147.818 239.48 146.618 240.16C145.438 240.82 144.098 241.15 142.598 241.15C141.318 241.15 140.158 240.89 139.118 240.37C138.098 239.83 137.258 239.05 136.598 238.03V246.82H134.468V225.22H136.508V228.34C137.148 227.3 137.988 226.5 139.028 225.94C140.088 225.38 141.278 225.1 142.598 225.1ZM142.448 239.26C143.548 239.26 144.548 239.01 145.448 238.51C146.348 237.99 147.048 237.26 147.548 236.32C148.068 235.38 148.328 234.31 148.328 233.11C148.328 231.91 148.068 230.85 147.548 229.93C147.048 228.99 146.348 228.26 145.448 227.74C144.548 227.22 143.548 226.96 142.448 226.96C141.328 226.96 140.318 227.22 139.418 227.74C138.538 228.26 137.838 228.99 137.318 229.93C136.818 230.85 136.568 231.91 136.568 233.11C136.568 234.31 136.818 235.38 137.318 236.32C137.838 237.26 138.538 237.99 139.418 238.51C140.318 239.01 141.328 239.26 142.448 239.26ZM169.02 225.22V241H166.98V238.12C166.42 239.08 165.65 239.83 164.67 240.37C163.69 240.89 162.57 241.15 161.31 241.15C159.25 241.15 157.62 240.58 156.42 239.44C155.24 238.28 154.65 236.59 154.65 234.37V225.22H156.78V234.16C156.78 235.82 157.19 237.08 158.01 237.94C158.83 238.8 160 239.23 161.52 239.23C163.18 239.23 164.49 238.73 165.45 237.73C166.41 236.71 166.89 235.3 166.89 233.5V225.22H169.02ZM177.026 228.31C177.526 227.25 178.266 226.45 179.246 225.91C180.246 225.37 181.476 225.1 182.936 225.1V227.17L182.426 227.14C180.766 227.14 179.466 227.65 178.526 228.67C177.586 229.69 177.116 231.12 177.116 232.96V241H174.986V225.22H177.026V228.31ZM193.186 241.15C191.626 241.15 190.226 240.81 188.986 240.13C187.766 239.45 186.806 238.5 186.106 237.28C185.406 236.04 185.056 234.65 185.056 233.11C185.056 231.57 185.406 230.19 186.106 228.97C186.806 227.75 187.766 226.8 188.986 226.12C190.226 225.44 191.626 225.1 193.186 225.1C194.546 225.1 195.756 225.37 196.816 225.91C197.896 226.43 198.746 227.2 199.366 228.22L197.776 229.3C197.256 228.52 196.596 227.94 195.796 227.56C194.996 227.16 194.126 226.96 193.186 226.96C192.046 226.96 191.016 227.22 190.096 227.74C189.196 228.24 188.486 228.96 187.966 229.9C187.466 230.84 187.216 231.91 187.216 233.11C187.216 234.33 187.466 235.41 187.966 236.35C188.486 237.27 189.196 237.99 190.096 238.51C191.016 239.01 192.046 239.26 193.186 239.26C194.126 239.26 194.996 239.07 195.796 238.69C196.596 238.31 197.256 237.73 197.776 236.95L199.366 238.03C198.746 239.05 197.896 239.83 196.816 240.37C195.736 240.89 194.526 241.15 193.186 241.15ZM211.356 225.1C213.336 225.1 214.906 225.68 216.066 226.84C217.246 227.98 217.836 229.65 217.836 231.85V241H215.706V232.06C215.706 230.42 215.296 229.17 214.476 228.31C213.656 227.45 212.486 227.02 210.966 227.02C209.266 227.02 207.916 227.53 206.916 228.55C205.936 229.55 205.446 230.94 205.446 232.72V241H203.316V218.74H205.446V227.98C206.026 227.06 206.826 226.35 207.846 225.85C208.866 225.35 210.036 225.1 211.356 225.1ZM229.138 225.1C231.198 225.1 232.778 225.62 233.878 226.66C234.978 227.68 235.528 229.2 235.528 231.22V241H233.488V238.54C233.008 239.36 232.298 240 231.358 240.46C230.438 240.92 229.338 241.15 228.058 241.15C226.298 241.15 224.898 240.73 223.858 239.89C222.818 239.05 222.298 237.94 222.298 236.56C222.298 235.22 222.778 234.14 223.738 233.32C224.718 232.5 226.268 232.09 228.388 232.09H233.398V231.13C233.398 229.77 233.018 228.74 232.258 228.04C231.498 227.32 230.388 226.96 228.928 226.96C227.928 226.96 226.968 227.13 226.048 227.47C225.128 227.79 224.338 228.24 223.678 228.82L222.718 227.23C223.518 226.55 224.478 226.03 225.598 225.67C226.718 225.29 227.898 225.1 229.138 225.1ZM228.388 239.47C229.588 239.47 230.618 239.2 231.478 238.66C232.338 238.1 232.978 237.3 233.398 236.26V233.68H228.448C225.748 233.68 224.398 234.62 224.398 236.5C224.398 237.42 224.748 238.15 225.448 238.69C226.148 239.21 227.128 239.47 228.388 239.47ZM245.544 241.15C244.264 241.15 243.034 240.97 241.854 240.61C240.694 240.23 239.784 239.76 239.124 239.2L240.084 237.52C240.744 238.04 241.574 238.47 242.574 238.81C243.574 239.13 244.614 239.29 245.694 239.29C247.134 239.29 248.194 239.07 248.874 238.63C249.574 238.17 249.924 237.53 249.924 236.71C249.924 236.13 249.734 235.68 249.354 235.36C248.974 235.02 248.494 234.77 247.914 234.61C247.334 234.43 246.564 234.26 245.604 234.1C244.324 233.86 243.294 233.62 242.514 233.38C241.734 233.12 241.064 232.69 240.504 232.09C239.964 231.49 239.694 230.66 239.694 229.6C239.694 228.28 240.244 227.2 241.344 226.36C242.444 225.52 243.974 225.1 245.934 225.1C246.954 225.1 247.974 225.24 248.994 225.52C250.014 225.78 250.854 226.13 251.514 226.57L250.584 228.28C249.284 227.38 247.734 226.93 245.934 226.93C244.574 226.93 243.544 227.17 242.844 227.65C242.164 228.13 241.824 228.76 241.824 229.54C241.824 230.14 242.014 230.62 242.394 230.98C242.794 231.34 243.284 231.61 243.864 231.79C244.444 231.95 245.244 232.12 246.264 232.3C247.524 232.54 248.534 232.78 249.294 233.02C250.054 233.26 250.704 233.67 251.244 234.25C251.784 234.83 252.054 235.63 252.054 236.65C252.054 238.03 251.474 239.13 250.314 239.95C249.174 240.75 247.584 241.15 245.544 241.15ZM269.731 233.77H256.531C256.651 235.41 257.281 236.74 258.421 237.76C259.561 238.76 261.001 239.26 262.741 239.26C263.721 239.26 264.621 239.09 265.441 238.75C266.261 238.39 266.971 237.87 267.571 237.19L268.771 238.57C268.071 239.41 267.191 240.05 266.131 240.49C265.091 240.93 263.941 241.15 262.681 241.15C261.061 241.15 259.621 240.81 258.361 240.13C257.121 239.43 256.151 238.47 255.451 237.25C254.751 236.03 254.401 234.65 254.401 233.11C254.401 231.57 254.731 230.19 255.391 228.97C256.071 227.75 256.991 226.8 258.151 226.12C259.331 225.44 260.651 225.1 262.111 225.1C263.571 225.1 264.881 225.44 266.041 226.12C267.201 226.8 268.111 227.75 268.771 228.97C269.431 230.17 269.761 231.55 269.761 233.11L269.731 233.77ZM262.111 226.93C260.591 226.93 259.311 227.42 258.271 228.4C257.251 229.36 256.671 230.62 256.531 232.18H267.721C267.581 230.62 266.991 229.36 265.951 228.4C264.931 227.42 263.651 226.93 262.111 226.93ZM278.327 241.15C277.047 241.15 275.817 240.97 274.637 240.61C273.477 240.23 272.567 239.76 271.907 239.2L272.867 237.52C273.527 238.04 274.357 238.47 275.357 238.81C276.357 239.13 277.397 239.29 278.477 239.29C279.917 239.29 280.977 239.07 281.657 238.63C282.357 238.17 282.707 237.53 282.707 236.71C282.707 236.13 282.517 235.68 282.137 235.36C281.757 235.02 281.277 234.77 280.697 234.61C280.117 234.43 279.347 234.26 278.387 234.1C277.107 233.86 276.077 233.62 275.297 233.38C274.517 233.12 273.847 232.69 273.287 232.09C272.747 231.49 272.477 230.66 272.477 229.6C272.477 228.28 273.027 227.2 274.127 226.36C275.227 225.52 276.757 225.1 278.717 225.1C279.737 225.1 280.757 225.24 281.777 225.52C282.797 225.78 283.637 226.13 284.297 226.57L283.367 228.28C282.067 227.38 280.517 226.93 278.717 226.93C277.357 226.93 276.327 227.17 275.627 227.65C274.947 228.13 274.607 228.76 274.607 229.54C274.607 230.14 274.797 230.62 275.177 230.98C275.577 231.34 276.067 231.61 276.647 231.79C277.227 231.95 278.027 232.12 279.047 232.3C280.307 232.54 281.317 232.78 282.077 233.02C282.837 233.26 283.487 233.67 284.027 234.25C284.567 234.83 284.837 235.63 284.837 236.65C284.837 238.03 284.257 239.13 283.097 239.95C281.957 240.75 280.367 241.15 278.327 241.15Z" fill="white"/>
<path d="M111.448 48.6513H119.771L101.014 14.2096H92.6904L111.448 48.6513Z" fill="white"/>
<path d="M30.229 48.6513H38.5532L57.3095 14.2096H48.986L30.229 48.6513Z" fill="white"/>
<path d="M19.5332 61.9612L34.34 113.183H49.0592C49.0592 108.709 50.1979 104.497 52.1998 100.82L44.6175 61.9612H19.5332Z" fill="white"/>
<path d="M54.8313 96.9035C59.262 91.4252 65.8735 87.804 73.333 87.3263V61.9612H48.0132L54.8313 96.9035Z" fill="white"/>
<path d="M76.667 87.3263C84.1265 87.804 90.7378 91.4252 95.1685 96.9036L101.987 61.9612H76.667V87.3263Z" fill="white"/>
<path d="M105.383 61.9612L97.8003 100.82C99.8024 104.497 100.941 108.71 100.941 113.183H115.66L130.467 61.9612H105.383Z" fill="white"/>
<path d="M137.039 51.9856H12.9593C11.1281 51.9856 9.63818 53.4757 9.63818 55.3066C9.63818 57.1378 11.1281 58.6278 12.9593 58.6278H137.039C138.87 58.6278 140.36 57.1378 140.36 55.3066C140.36 53.4757 138.87 51.9856 137.039 51.9856Z" fill="white"/>
<path d="M52.3921 113.183C52.3921 125.649 62.5338 135.79 74.9996 135.79C87.4654 135.79 97.6069 125.649 97.6069 113.183C97.6069 100.717 87.4654 90.5753 74.9996 90.5753C62.5338 90.5753 52.3921 100.717 52.3921 113.183ZM83.7995 99.7378C83.8021 99.7383 83.8044 99.7378 83.8071 99.7383C83.9986 99.7709 84.1762 99.8458 84.3433 99.941C84.3786 99.9609 84.4114 99.9805 84.4454 100.003C84.5963 100.104 84.7372 100.221 84.8506 100.369C84.8584 100.38 84.8623 100.392 84.8699 100.402C84.8743 100.408 84.8813 100.411 84.8856 100.418C84.897 100.433 84.8978 100.453 84.9086 100.469C85.0083 100.621 85.0787 100.785 85.1241 100.956C85.1336 100.992 85.1471 101.026 85.1541 101.062C85.1896 101.245 85.1931 101.43 85.1666 101.615C85.1607 101.656 85.1489 101.693 85.1403 101.734C85.1251 101.803 85.1183 101.874 85.0939 101.942L81.4246 112.192C81.1813 112.873 80.54 113.298 79.8555 113.298C79.6691 113.298 79.4796 113.267 79.2939 113.2C78.4272 112.89 77.9764 111.936 78.2865 111.069L80.1748 105.794L71.6051 111.859L77.4719 117.825C77.8079 118.167 77.9813 118.638 77.9463 119.115C77.9113 119.594 77.6721 120.034 77.2897 120.323L67.4801 127.746C67.179 127.973 66.8258 128.084 66.4757 128.084C65.9713 128.084 65.4732 127.855 65.1453 127.423C64.5895 126.688 64.7343 125.643 65.4683 125.088L73.765 118.81L67.8551 112.799C67.5126 112.451 67.3401 111.969 67.3831 111.483C67.4263 110.996 67.6818 110.553 68.0806 110.27L77.6486 103.498L72.7868 103.866C71.8543 103.93 71.0681 103.249 70.999 102.331C70.929 101.413 71.6166 100.612 72.5346 100.543L83.3988 99.7184C83.535 99.7082 83.6689 99.7163 83.7995 99.7378Z" fill="white"/>
<path d="M53.55 194.15H45.1V202.4H37.4V194.15H28.9V186.85H37.4V178.6H45.1V186.85H53.55V194.15ZM84.3398 200.15V208H57.0898V201.8L70.1898 189.55C71.4565 188.35 72.3065 187.333 72.7398 186.5C73.1732 185.633 73.3898 184.767 73.3898 183.9C73.3898 182.767 73.0065 181.883 72.2398 181.25C71.4732 180.617 70.3565 180.3 68.8898 180.3C67.5898 180.3 66.3898 180.6 65.2898 181.2C64.2232 181.767 63.3398 182.6 62.6398 183.7L55.2898 179.6C56.6565 177.333 58.5732 175.55 61.0398 174.25C63.5065 172.95 66.4232 172.3 69.7898 172.3C72.4565 172.3 74.8065 172.733 76.8398 173.6C78.9065 174.467 80.5065 175.717 81.6398 177.35C82.8065 178.95 83.3898 180.817 83.3898 182.95C83.3898 184.85 82.9732 186.65 82.1398 188.35C81.3398 190.017 79.7732 191.917 77.4398 194.05L70.8398 200.15H84.3398ZM102.623 208.7C99.6227 208.7 96.956 207.983 94.6227 206.55C92.2893 205.117 90.456 203.033 89.1227 200.3C87.8227 197.533 87.1727 194.267 87.1727 190.5C87.1727 186.733 87.8227 183.483 89.1227 180.75C90.456 177.983 92.2893 175.883 94.6227 174.45C96.956 173.017 99.6227 172.3 102.623 172.3C105.589 172.3 108.239 173.017 110.573 174.45C112.906 175.883 114.723 177.983 116.023 180.75C117.356 183.483 118.023 186.733 118.023 190.5C118.023 194.267 117.356 197.533 116.023 200.3C114.723 203.033 112.906 205.117 110.573 206.55C108.239 207.983 105.589 208.7 102.623 208.7ZM102.623 200.6C104.289 200.6 105.606 199.8 106.573 198.2C107.573 196.567 108.073 194 108.073 190.5C108.073 187 107.573 184.45 106.573 182.85C105.606 181.217 104.289 180.4 102.623 180.4C100.923 180.4 99.5727 181.217 98.5727 182.85C97.606 184.45 97.1227 187 97.1227 190.5C97.1227 194 97.606 196.567 98.5727 198.2C99.5727 199.8 100.923 200.6 102.623 200.6ZM129.751 191.95C127.118 191.95 124.968 191.083 123.301 189.35C121.635 187.617 120.801 185.25 120.801 182.25C120.801 180.283 121.185 178.567 121.951 177.1C122.718 175.633 123.768 174.517 125.101 173.75C126.468 172.95 128.018 172.55 129.751 172.55C132.418 172.55 134.585 173.433 136.251 175.2C137.918 176.933 138.751 179.283 138.751 182.25C138.751 185.25 137.918 187.617 136.251 189.35C134.585 191.083 132.418 191.95 129.751 191.95ZM150.451 173H157.651L133.751 208H126.551L150.451 173ZM129.751 187.2C130.651 187.2 131.368 186.8 131.901 186C132.435 185.2 132.701 183.95 132.701 182.25C132.701 180.55 132.435 179.3 131.901 178.5C131.368 177.7 130.651 177.3 129.751 177.3C128.885 177.3 128.168 177.717 127.601 178.55C127.068 179.35 126.801 180.583 126.801 182.25C126.801 183.917 127.068 185.167 127.601 186C128.168 186.8 128.885 187.2 129.751 187.2ZM154.451 208.45C151.785 208.45 149.618 207.583 147.951 205.85C146.318 204.117 145.501 201.75 145.501 198.75C145.501 195.783 146.335 193.433 148.001 191.7C149.668 189.933 151.818 189.05 154.451 189.05C157.118 189.05 159.285 189.933 160.951 191.7C162.618 193.433 163.451 195.783 163.451 198.75C163.451 201.75 162.618 204.117 160.951 205.85C159.285 207.583 157.118 208.45 154.451 208.45ZM154.451 203.7C155.351 203.7 156.068 203.3 156.601 202.5C157.135 201.7 157.401 200.45 157.401 198.75C157.401 197.05 157.135 195.8 156.601 195C156.068 194.2 155.351 193.8 154.451 193.8C153.551 193.8 152.835 194.2 152.301 195C151.768 195.8 151.501 197.05 151.501 198.75C151.501 200.45 151.768 201.7 152.301 202.5C152.835 203.3 153.551 203.7 154.451 203.7Z" fill="white"/>
</svg>
