<svg width="452" height="279" viewBox="0 0 452 279" fill="none" xmlns="http://www.w3.org/2000/svg">
<path d="M38.55 213.15H30.1V221.4H22.4V213.15H13.9V205.85H22.4V197.6H30.1V205.85H38.55V213.15ZM60.1422 206C63.0422 206.6 65.2589 207.8 66.7922 209.6C68.3589 211.367 69.1422 213.517 69.1422 216.05C69.1422 218.117 68.5755 220.033 67.4422 221.8C66.3422 223.567 64.6422 225 62.3422 226.1C60.0755 227.167 57.2589 227.7 53.8922 227.7C51.4255 227.7 48.9755 227.4 46.5422 226.8C44.1422 226.2 42.0589 225.35 40.2922 224.25L43.8922 216.8C45.2589 217.733 46.7922 218.45 48.4922 218.95C50.2255 219.45 51.9255 219.7 53.5922 219.7C55.2922 219.7 56.6422 219.383 57.6422 218.75C58.6422 218.117 59.1422 217.217 59.1422 216.05C59.1422 213.783 57.3589 212.65 53.7922 212.65H49.6422V206.4L55.8922 199.65H42.0922V192H67.3922V198.2L60.1422 206ZM87.7691 227.7C84.7691 227.7 82.1025 226.983 79.7691 225.55C77.4358 224.117 75.6025 222.033 74.2691 219.3C72.9691 216.533 72.3191 213.267 72.3191 209.5C72.3191 205.733 72.9691 202.483 74.2691 199.75C75.6025 196.983 77.4358 194.883 79.7691 193.45C82.1025 192.017 84.7691 191.3 87.7691 191.3C90.7358 191.3 93.3858 192.017 95.7191 193.45C98.0525 194.883 99.8691 196.983 101.169 199.75C102.502 202.483 103.169 205.733 103.169 209.5C103.169 213.267 102.502 216.533 101.169 219.3C99.8691 222.033 98.0525 224.117 95.7191 225.55C93.3858 226.983 90.7358 227.7 87.7691 227.7ZM87.7691 219.6C89.4358 219.6 90.7525 218.8 91.7191 217.2C92.7191 215.567 93.2191 213 93.2191 209.5C93.2191 206 92.7191 203.45 91.7191 201.85C90.7525 200.217 89.4358 199.4 87.7691 199.4C86.0691 199.4 84.7191 200.217 83.7191 201.85C82.7525 203.45 82.2691 206 82.2691 209.5C82.2691 213 82.7525 215.567 83.7191 217.2C84.7191 218.8 86.0691 219.6 87.7691 219.6ZM114.898 210.95C112.264 210.95 110.114 210.083 108.448 208.35C106.781 206.617 105.948 204.25 105.948 201.25C105.948 199.283 106.331 197.567 107.098 196.1C107.864 194.633 108.914 193.517 110.248 192.75C111.614 191.95 113.164 191.55 114.898 191.55C117.564 191.55 119.731 192.433 121.398 194.2C123.064 195.933 123.898 198.283 123.898 201.25C123.898 204.25 123.064 206.617 121.398 208.35C119.731 210.083 117.564 210.95 114.898 210.95ZM135.598 192H142.798L118.898 227H111.698L135.598 192ZM114.898 206.2C115.798 206.2 116.514 205.8 117.048 205C117.581 204.2 117.848 202.95 117.848 201.25C117.848 199.55 117.581 198.3 117.048 197.5C116.514 196.7 115.798 196.3 114.898 196.3C114.031 196.3 113.314 196.717 112.748 197.55C112.214 198.35 111.948 199.583 111.948 201.25C111.948 202.917 112.214 204.167 112.748 205C113.314 205.8 114.031 206.2 114.898 206.2ZM139.598 227.45C136.931 227.45 134.764 226.583 133.098 224.85C131.464 223.117 130.648 220.75 130.648 217.75C130.648 214.783 131.481 212.433 133.148 210.7C134.814 208.933 136.964 208.05 139.598 208.05C142.264 208.05 144.431 208.933 146.098 210.7C147.764 212.433 148.598 214.783 148.598 217.75C148.598 220.75 147.764 223.117 146.098 224.85C144.431 226.583 142.264 227.45 139.598 227.45ZM139.598 222.7C140.498 222.7 141.214 222.3 141.748 221.5C142.281 220.7 142.548 219.45 142.548 217.75C142.548 216.05 142.281 214.8 141.748 214C141.214 213.2 140.498 212.8 139.598 212.8C138.698 212.8 137.981 213.2 137.448 214C136.914 214.8 136.648 216.05 136.648 217.75C136.648 219.45 136.914 220.7 137.448 221.5C137.981 222.3 138.698 222.7 139.598 222.7Z" fill="white"/>
<path d="M20.51 262.15C18.95 262.15 17.55 261.81 16.31 261.13C15.09 260.45 14.13 259.5 13.43 258.28C12.73 257.04 12.38 255.65 12.38 254.11C12.38 252.57 12.73 251.19 13.43 249.97C14.13 248.75 15.09 247.8 16.31 247.12C17.55 246.44 18.95 246.1 20.51 246.1C21.87 246.1 23.08 246.37 24.14 246.91C25.22 247.43 26.07 248.2 26.69 249.22L25.1 250.3C24.58 249.52 23.92 248.94 23.12 248.56C22.32 248.16 21.45 247.96 20.51 247.96C19.37 247.96 18.34 248.22 17.42 248.74C16.52 249.24 15.81 249.96 15.29 250.9C14.79 251.84 14.54 252.91 14.54 254.11C14.54 255.33 14.79 256.41 15.29 257.35C15.81 258.27 16.52 258.99 17.42 259.51C18.34 260.01 19.37 260.26 20.51 260.26C21.45 260.26 22.32 260.07 23.12 259.69C23.92 259.31 24.58 258.73 25.1 257.95L26.69 259.03C26.07 260.05 25.22 260.83 24.14 261.37C23.06 261.89 21.85 262.15 20.51 262.15ZM37.0606 262.15C35.5406 262.15 34.1706 261.81 32.9506 261.13C31.7306 260.43 30.7706 259.47 30.0706 258.25C29.3706 257.03 29.0206 255.65 29.0206 254.11C29.0206 252.57 29.3706 251.19 30.0706 249.97C30.7706 248.75 31.7306 247.8 32.9506 247.12C34.1706 246.44 35.5406 246.1 37.0606 246.1C38.5806 246.1 39.9506 246.44 41.1706 247.12C42.3906 247.8 43.3406 248.75 44.0206 249.97C44.7206 251.19 45.0706 252.57 45.0706 254.11C45.0706 255.65 44.7206 257.03 44.0206 258.25C43.3406 259.47 42.3906 260.43 41.1706 261.13C39.9506 261.81 38.5806 262.15 37.0606 262.15ZM37.0606 260.26C38.1806 260.26 39.1806 260.01 40.0606 259.51C40.9606 258.99 41.6606 258.26 42.1606 257.32C42.6606 256.38 42.9106 255.31 42.9106 254.11C42.9106 252.91 42.6606 251.84 42.1606 250.9C41.6606 249.96 40.9606 249.24 40.0606 248.74C39.1806 248.22 38.1806 247.96 37.0606 247.96C35.9406 247.96 34.9306 248.22 34.0306 248.74C33.1506 249.24 32.4506 249.96 31.9306 250.9C31.4306 251.84 31.1806 252.91 31.1806 254.11C31.1806 255.31 31.4306 256.38 31.9306 257.32C32.4506 258.26 33.1506 258.99 34.0306 259.51C34.9306 260.01 35.9406 260.26 37.0606 260.26ZM57.4592 246.1C59.4392 246.1 61.0092 246.68 62.1692 247.84C63.3492 248.98 63.9392 250.65 63.9392 252.85V262H61.8092V253.06C61.8092 251.42 61.3992 250.17 60.5792 249.31C59.7592 248.45 58.5892 248.02 57.0692 248.02C55.3692 248.02 54.0192 248.53 53.0192 249.55C52.0392 250.55 51.5492 251.94 51.5492 253.72V262H49.4192V246.22H51.4592V249.13C52.0392 248.17 52.8392 247.43 53.8592 246.91C54.8992 246.37 56.0992 246.1 57.4592 246.1ZM82.689 246.22L75.669 262H73.479L66.489 246.22H68.709L74.619 259.66L80.589 246.22H82.689ZM98.9893 254.77H85.7893C85.9093 256.41 86.5393 257.74 87.6793 258.76C88.8193 259.76 90.2593 260.26 91.9993 260.26C92.9793 260.26 93.8793 260.09 94.6993 259.75C95.5193 259.39 96.2293 258.87 96.8293 258.19L98.0293 259.57C97.3293 260.41 96.4493 261.05 95.3893 261.49C94.3493 261.93 93.1993 262.15 91.9393 262.15C90.3193 262.15 88.8793 261.81 87.6193 261.13C86.3793 260.43 85.4093 259.47 84.7093 258.25C84.0093 257.03 83.6593 255.65 83.6593 254.11C83.6593 252.57 83.9893 251.19 84.6493 249.97C85.3293 248.75 86.2493 247.8 87.4093 247.12C88.5893 246.44 89.9093 246.1 91.3693 246.1C92.8293 246.1 94.1393 246.44 95.2993 247.12C96.4593 247.8 97.3693 248.75 98.0293 249.97C98.6893 251.17 99.0193 252.55 99.0193 254.11L98.9893 254.77ZM91.3693 247.93C89.8493 247.93 88.5693 248.42 87.5293 249.4C86.5093 250.36 85.9293 251.62 85.7893 253.18H96.9793C96.8393 251.62 96.2493 250.36 95.2093 249.4C94.1893 248.42 92.9093 247.93 91.3693 247.93ZM105.395 249.31C105.895 248.25 106.635 247.45 107.615 246.91C108.615 246.37 109.845 246.1 111.305 246.1V248.17L110.795 248.14C109.135 248.14 107.835 248.65 106.895 249.67C105.955 250.69 105.485 252.12 105.485 253.96V262H103.355V246.22H105.395V249.31ZM119.509 262.15C118.229 262.15 116.999 261.97 115.819 261.61C114.659 261.23 113.749 260.76 113.089 260.2L114.049 258.52C114.709 259.04 115.539 259.47 116.539 259.81C117.539 260.13 118.579 260.29 119.659 260.29C121.099 260.29 122.159 260.07 122.839 259.63C123.539 259.17 123.889 258.53 123.889 257.71C123.889 257.13 123.699 256.68 123.319 256.36C122.939 256.02 122.459 255.77 121.879 255.61C121.299 255.43 120.529 255.26 119.569 255.1C118.289 254.86 117.259 254.62 116.479 254.38C115.699 254.12 115.029 253.69 114.469 253.09C113.929 252.49 113.659 251.66 113.659 250.6C113.659 249.28 114.209 248.2 115.309 247.36C116.409 246.52 117.939 246.1 119.899 246.1C120.919 246.1 121.939 246.24 122.959 246.52C123.979 246.78 124.819 247.13 125.479 247.57L124.549 249.28C123.249 248.38 121.699 247.93 119.899 247.93C118.539 247.93 117.509 248.17 116.809 248.65C116.129 249.13 115.789 249.76 115.789 250.54C115.789 251.14 115.979 251.62 116.359 251.98C116.759 252.34 117.249 252.61 117.829 252.79C118.409 252.95 119.209 253.12 120.229 253.3C121.489 253.54 122.499 253.78 123.259 254.02C124.019 254.26 124.669 254.67 125.209 255.25C125.749 255.83 126.019 256.63 126.019 257.65C126.019 259.03 125.439 260.13 124.279 260.95C123.139 261.75 121.549 262.15 119.509 262.15ZM129.956 246.22H132.086V262H129.956V246.22ZM131.036 242.77C130.596 242.77 130.226 242.62 129.926 242.32C129.626 242.02 129.476 241.66 129.476 241.24C129.476 240.84 129.626 240.49 129.926 240.19C130.226 239.89 130.596 239.74 131.036 239.74C131.476 239.74 131.846 239.89 132.146 240.19C132.446 240.47 132.596 240.81 132.596 241.21C132.596 241.65 132.446 242.02 132.146 242.32C131.846 242.62 131.476 242.77 131.036 242.77ZM144.463 262.15C142.943 262.15 141.573 261.81 140.353 261.13C139.133 260.43 138.173 259.47 137.473 258.25C136.773 257.03 136.423 255.65 136.423 254.11C136.423 252.57 136.773 251.19 137.473 249.97C138.173 248.75 139.133 247.8 140.353 247.12C141.573 246.44 142.943 246.1 144.463 246.1C145.983 246.1 147.353 246.44 148.573 247.12C149.793 247.8 150.743 248.75 151.423 249.97C152.123 251.19 152.473 252.57 152.473 254.11C152.473 255.65 152.123 257.03 151.423 258.25C150.743 259.47 149.793 260.43 148.573 261.13C147.353 261.81 145.983 262.15 144.463 262.15ZM144.463 260.26C145.583 260.26 146.583 260.01 147.463 259.51C148.363 258.99 149.063 258.26 149.563 257.32C150.063 256.38 150.313 255.31 150.313 254.11C150.313 252.91 150.063 251.84 149.563 250.9C149.063 249.96 148.363 249.24 147.463 248.74C146.583 248.22 145.583 247.96 144.463 247.96C143.343 247.96 142.333 248.22 141.433 248.74C140.553 249.24 139.853 249.96 139.333 250.9C138.833 251.84 138.583 252.91 138.583 254.11C138.583 255.31 138.833 256.38 139.333 257.32C139.853 258.26 140.553 258.99 141.433 259.51C142.333 260.01 143.343 260.26 144.463 260.26ZM164.862 246.1C166.842 246.1 168.412 246.68 169.572 247.84C170.752 248.98 171.342 250.65 171.342 252.85V262H169.212V253.06C169.212 251.42 168.802 250.17 167.982 249.31C167.162 248.45 165.992 248.02 164.472 248.02C162.772 248.02 161.422 248.53 160.422 249.55C159.442 250.55 158.952 251.94 158.952 253.72V262H156.822V246.22H158.862V249.13C159.442 248.17 160.242 247.43 161.262 246.91C162.302 246.37 163.502 246.1 164.862 246.1ZM190.496 246.1C192.556 246.1 194.136 246.62 195.236 247.66C196.336 248.68 196.886 250.2 196.886 252.22V262H194.846V259.54C194.366 260.36 193.656 261 192.716 261.46C191.796 261.92 190.696 262.15 189.416 262.15C187.656 262.15 186.256 261.73 185.216 260.89C184.176 260.05 183.656 258.94 183.656 257.56C183.656 256.22 184.136 255.14 185.096 254.32C186.076 253.5 187.626 253.09 189.746 253.09H194.756V252.13C194.756 250.77 194.376 249.74 193.616 249.04C192.856 248.32 191.746 247.96 190.286 247.96C189.286 247.96 188.326 248.13 187.406 248.47C186.486 248.79 185.696 249.24 185.036 249.82L184.076 248.23C184.876 247.55 185.836 247.03 186.956 246.67C188.076 246.29 189.256 246.1 190.496 246.1ZM189.746 260.47C190.946 260.47 191.976 260.2 192.836 259.66C193.696 259.1 194.336 258.3 194.756 257.26V254.68H189.806C187.106 254.68 185.756 255.62 185.756 257.5C185.756 258.42 186.106 259.15 186.806 259.69C187.506 260.21 188.486 260.47 189.746 260.47ZM210.981 261.04C210.581 261.4 210.081 261.68 209.481 261.88C208.901 262.06 208.291 262.15 207.651 262.15C206.171 262.15 205.031 261.75 204.231 260.95C203.431 260.15 203.031 259.02 203.031 257.56V248.02H200.211V246.22H203.031V242.77H205.161V246.22H209.961V248.02H205.161V257.44C205.161 258.38 205.391 259.1 205.851 259.6C206.331 260.08 207.011 260.32 207.891 260.32C208.331 260.32 208.751 260.25 209.151 260.11C209.571 259.97 209.931 259.77 210.231 259.51L210.981 261.04ZM229.25 262.15C227.69 262.15 226.29 261.81 225.05 261.13C223.83 260.45 222.87 259.5 222.17 258.28C221.47 257.04 221.12 255.65 221.12 254.11C221.12 252.57 221.47 251.19 222.17 249.97C222.87 248.75 223.83 247.8 225.05 247.12C226.29 246.44 227.69 246.1 229.25 246.1C230.61 246.1 231.82 246.37 232.88 246.91C233.96 247.43 234.81 248.2 235.43 249.22L233.84 250.3C233.32 249.52 232.66 248.94 231.86 248.56C231.06 248.16 230.19 247.96 229.25 247.96C228.11 247.96 227.08 248.22 226.16 248.74C225.26 249.24 224.55 249.96 224.03 250.9C223.53 251.84 223.28 252.91 223.28 254.11C223.28 255.33 223.53 256.41 224.03 257.35C224.55 258.27 225.26 258.99 226.16 259.51C227.08 260.01 228.11 260.26 229.25 260.26C230.19 260.26 231.06 260.07 231.86 259.69C232.66 259.31 233.32 258.73 233.84 257.95L235.43 259.03C234.81 260.05 233.96 260.83 232.88 261.37C231.8 261.89 230.59 262.15 229.25 262.15ZM247.42 246.1C249.4 246.1 250.97 246.68 252.13 247.84C253.31 248.98 253.9 250.65 253.9 252.85V262H251.77V253.06C251.77 251.42 251.36 250.17 250.54 249.31C249.72 248.45 248.55 248.02 247.03 248.02C245.33 248.02 243.98 248.53 242.98 249.55C242 250.55 241.51 251.94 241.51 253.72V262H239.38V239.74H241.51V248.98C242.09 248.06 242.89 247.35 243.91 246.85C244.93 246.35 246.1 246.1 247.42 246.1ZM273.481 254.77H260.281C260.401 256.41 261.031 257.74 262.171 258.76C263.311 259.76 264.751 260.26 266.491 260.26C267.471 260.26 268.371 260.09 269.191 259.75C270.011 259.39 270.721 258.87 271.321 258.19L272.521 259.57C271.821 260.41 270.941 261.05 269.881 261.49C268.841 261.93 267.691 262.15 266.431 262.15C264.811 262.15 263.371 261.81 262.111 261.13C260.871 260.43 259.901 259.47 259.201 258.25C258.501 257.03 258.151 255.65 258.151 254.11C258.151 252.57 258.481 251.19 259.141 249.97C259.821 248.75 260.741 247.8 261.901 247.12C263.081 246.44 264.401 246.1 265.861 246.1C267.321 246.1 268.631 246.44 269.791 247.12C270.951 247.8 271.861 248.75 272.521 249.97C273.181 251.17 273.511 252.55 273.511 254.11L273.481 254.77ZM265.861 247.93C264.341 247.93 263.061 248.42 262.021 249.4C261.001 250.36 260.421 251.62 260.281 253.18H271.471C271.331 251.62 270.741 250.36 269.701 249.4C268.681 248.42 267.401 247.93 265.861 247.93ZM284.387 262.15C282.827 262.15 281.427 261.81 280.187 261.13C278.967 260.45 278.007 259.5 277.307 258.28C276.607 257.04 276.257 255.65 276.257 254.11C276.257 252.57 276.607 251.19 277.307 249.97C278.007 248.75 278.967 247.8 280.187 247.12C281.427 246.44 282.827 246.1 284.387 246.1C285.747 246.1 286.957 246.37 288.017 246.91C289.097 247.43 289.947 248.2 290.567 249.22L288.977 250.3C288.457 249.52 287.797 248.94 286.997 248.56C286.197 248.16 285.327 247.96 284.387 247.96C283.247 247.96 282.217 248.22 281.297 248.74C280.397 249.24 279.687 249.96 279.167 250.9C278.667 251.84 278.417 252.91 278.417 254.11C278.417 255.33 278.667 256.41 279.167 257.35C279.687 258.27 280.397 258.99 281.297 259.51C282.217 260.01 283.247 260.26 284.387 260.26C285.327 260.26 286.197 260.07 286.997 259.69C287.797 259.31 288.457 258.73 288.977 257.95L290.567 259.03C289.947 260.05 289.097 260.83 288.017 261.37C286.937 261.89 285.727 262.15 284.387 262.15ZM300.367 254.08L296.647 257.5V262H294.517V239.74H296.647V254.83L306.067 246.22H308.707L301.957 252.67L309.337 262H306.727L300.367 254.08ZM318.34 262.15C316.82 262.15 315.45 261.81 314.23 261.13C313.01 260.43 312.05 259.47 311.35 258.25C310.65 257.03 310.3 255.65 310.3 254.11C310.3 252.57 310.65 251.19 311.35 249.97C312.05 248.75 313.01 247.8 314.23 247.12C315.45 246.44 316.82 246.1 318.34 246.1C319.86 246.1 321.23 246.44 322.45 247.12C323.67 247.8 324.62 248.75 325.3 249.97C326 251.19 326.35 252.57 326.35 254.11C326.35 255.65 326 257.03 325.3 258.25C324.62 259.47 323.67 260.43 322.45 261.13C321.23 261.81 319.86 262.15 318.34 262.15ZM318.34 260.26C319.46 260.26 320.46 260.01 321.34 259.51C322.24 258.99 322.94 258.26 323.44 257.32C323.94 256.38 324.19 255.31 324.19 254.11C324.19 252.91 323.94 251.84 323.44 250.9C322.94 249.96 322.24 249.24 321.34 248.74C320.46 248.22 319.46 247.96 318.34 247.96C317.22 247.96 316.21 248.22 315.31 248.74C314.43 249.24 313.73 249.96 313.21 250.9C312.71 251.84 312.46 252.91 312.46 254.11C312.46 255.31 312.71 256.38 313.21 257.32C313.73 258.26 314.43 258.99 315.31 259.51C316.21 260.01 317.22 260.26 318.34 260.26ZM344.919 246.22V262H342.879V259.12C342.319 260.08 341.549 260.83 340.569 261.37C339.589 261.89 338.469 262.15 337.209 262.15C335.149 262.15 333.519 261.58 332.319 260.44C331.139 259.28 330.549 257.59 330.549 255.37V246.22H332.679V255.16C332.679 256.82 333.089 258.08 333.909 258.94C334.729 259.8 335.899 260.23 337.419 260.23C339.079 260.23 340.389 259.73 341.349 258.73C342.309 257.71 342.789 256.3 342.789 254.5V246.22H344.919ZM359.194 261.04C358.794 261.4 358.294 261.68 357.694 261.88C357.114 262.06 356.504 262.15 355.864 262.15C354.384 262.15 353.244 261.75 352.444 260.95C351.644 260.15 351.244 259.02 351.244 257.56V248.02H348.424V246.22H351.244V242.77H353.374V246.22H358.174V248.02H353.374V257.44C353.374 258.38 353.604 259.1 354.064 259.6C354.544 260.08 355.224 260.32 356.104 260.32C356.544 260.32 356.964 260.25 357.364 260.11C357.784 259.97 358.144 259.77 358.444 259.51L359.194 261.04Z" fill="white"/>
<path d="M37.5 53.952H124.613L127.738 42.0455H50V30.1389H135.75C136.7 30.1389 137.638 30.3452 138.491 30.7422C139.345 31.1391 140.093 31.7162 140.677 32.4296C141.262 33.1431 141.668 33.974 141.864 34.8593C142.061 35.7446 142.043 36.661 141.813 37.5388L126.188 97.0716C125.849 98.359 125.068 99.5017 123.97 100.318C122.872 101.135 121.518 101.578 120.125 101.578H31.25C29.5924 101.578 28.0027 100.951 26.8306 99.8346C25.6585 98.7181 25 97.2039 25 95.625V24.1856H12.5V12.2791H31.25C32.9076 12.2791 34.4973 12.9063 35.6694 14.0227C36.8415 15.1392 37.5 16.6534 37.5 18.2323V53.952ZM37.5 137.298C34.1848 137.298 31.0054 136.044 28.6612 133.811C26.317 131.578 25 128.549 25 125.391C25 122.234 26.317 119.205 28.6612 116.972C31.0054 114.739 34.1848 113.485 37.5 113.485C40.8152 113.485 43.9946 114.739 46.3388 116.972C48.683 119.205 50 122.234 50 125.391C50 128.549 48.683 131.578 46.3388 133.811C43.9946 136.044 40.8152 137.298 37.5 137.298ZM112.5 137.298C109.185 137.298 106.005 136.044 103.661 133.811C101.317 131.578 100 128.549 100 125.391C100 122.234 101.317 119.205 103.661 116.972C106.005 114.739 109.185 113.485 112.5 113.485C115.815 113.485 118.995 114.739 121.339 116.972C123.683 119.205 125 122.234 125 125.391C125 128.549 123.683 131.578 121.339 133.811C118.995 136.044 115.815 137.298 112.5 137.298Z" fill="white"/>
</svg>
