<svg width="394" height="260" viewBox="0 0 394 260" fill="none" xmlns="http://www.w3.org/2000/svg">
<path d="M25.49 227.1C27.55 227.1 29.13 227.62 30.23 228.66C31.33 229.68 31.88 231.2 31.88 233.22V243H29.84V240.54C29.36 241.36 28.65 242 27.71 242.46C26.79 242.92 25.69 243.15 24.41 243.15C22.65 243.15 21.25 242.73 20.21 241.89C19.17 241.05 18.65 239.94 18.65 238.56C18.65 237.22 19.13 236.14 20.09 235.32C21.07 234.5 22.62 234.09 24.74 234.09H29.75V233.13C29.75 231.77 29.37 230.74 28.61 230.04C27.85 229.32 26.74 228.96 25.28 228.96C24.28 228.96 23.32 229.13 22.4 229.47C21.48 229.79 20.69 230.24 20.03 230.82L19.07 229.23C19.87 228.55 20.83 228.03 21.95 227.67C23.07 227.29 24.25 227.1 25.49 227.1ZM24.74 241.47C25.94 241.47 26.97 241.2 27.83 240.66C28.69 240.1 29.33 239.3 29.75 238.26V235.68H24.8C22.1 235.68 20.75 236.62 20.75 238.5C20.75 239.42 21.1 240.15 21.8 240.69C22.5 241.21 23.48 241.47 24.74 241.47ZM50.6323 227.22L43.6123 243H41.4223L34.4323 227.22H36.6523L42.5623 240.66L48.5323 227.22H50.6323ZM66.9327 235.77H53.7327C53.8527 237.41 54.4827 238.74 55.6227 239.76C56.7627 240.76 58.2027 241.26 59.9427 241.26C60.9227 241.26 61.8227 241.09 62.6427 240.75C63.4627 240.39 64.1727 239.87 64.7727 239.19L65.9727 240.57C65.2727 241.41 64.3927 242.05 63.3327 242.49C62.2927 242.93 61.1427 243.15 59.8827 243.15C58.2627 243.15 56.8227 242.81 55.5627 242.13C54.3227 241.43 53.3527 240.47 52.6527 239.25C51.9527 238.03 51.6027 236.65 51.6027 235.11C51.6027 233.57 51.9327 232.19 52.5927 230.97C53.2727 229.75 54.1927 228.8 55.3527 228.12C56.5327 227.44 57.8527 227.1 59.3127 227.1C60.7727 227.1 62.0827 227.44 63.2427 228.12C64.4027 228.8 65.3127 229.75 65.9727 230.97C66.6327 232.17 66.9627 233.55 66.9627 235.11L66.9327 235.77ZM59.3127 228.93C57.7927 228.93 56.5127 229.42 55.4727 230.4C54.4527 231.36 53.8727 232.62 53.7327 234.18H64.9227C64.7827 232.62 64.1927 231.36 63.1527 230.4C62.1327 229.42 60.8527 228.93 59.3127 228.93ZM73.3381 230.31C73.8381 229.25 74.5781 228.45 75.5581 227.91C76.5581 227.37 77.7881 227.1 79.2481 227.1V229.17L78.7381 229.14C77.0781 229.14 75.7781 229.65 74.8381 230.67C73.8981 231.69 73.4281 233.12 73.4281 234.96V243H71.2981V227.22H73.3381V230.31ZM88.5955 227.1C90.6555 227.1 92.2355 227.62 93.3355 228.66C94.4355 229.68 94.9855 231.2 94.9855 233.22V243H92.9455V240.54C92.4655 241.36 91.7555 242 90.8155 242.46C89.8955 242.92 88.7955 243.15 87.5155 243.15C85.7555 243.15 84.3555 242.73 83.3155 241.89C82.2755 241.05 81.7555 239.94 81.7555 238.56C81.7555 237.22 82.2355 236.14 83.1955 235.32C84.1755 234.5 85.7255 234.09 87.8455 234.09H92.8555V233.13C92.8555 231.77 92.4755 230.74 91.7155 230.04C90.9555 229.32 89.8455 228.96 88.3855 228.96C87.3855 228.96 86.4255 229.13 85.5055 229.47C84.5855 229.79 83.7955 230.24 83.1355 230.82L82.1755 229.23C82.9755 228.55 83.9355 228.03 85.0555 227.67C86.1755 227.29 87.3555 227.1 88.5955 227.1ZM87.8455 241.47C89.0455 241.47 90.0755 241.2 90.9355 240.66C91.7955 240.1 92.4355 239.3 92.8555 238.26V235.68H87.9055C85.2055 235.68 83.8555 236.62 83.8555 238.5C83.8555 239.42 84.2055 240.15 84.9055 240.69C85.6055 241.21 86.5855 241.47 87.8455 241.47ZM115.439 227.22V241.08C115.439 243.76 114.779 245.74 113.459 247.02C112.159 248.32 110.189 248.97 107.549 248.97C106.089 248.97 104.699 248.75 103.379 248.31C102.079 247.89 101.019 247.3 100.199 246.54L101.279 244.92C102.039 245.6 102.959 246.13 104.039 246.51C105.139 246.89 106.289 247.08 107.489 247.08C109.489 247.08 110.959 246.61 111.899 245.67C112.839 244.75 113.309 243.31 113.309 241.35V239.34C112.649 240.34 111.779 241.1 110.699 241.62C109.639 242.14 108.459 242.4 107.159 242.4C105.679 242.4 104.329 242.08 103.109 241.44C101.909 240.78 100.959 239.87 100.259 238.71C99.5794 237.53 99.2394 236.2 99.2394 234.72C99.2394 233.24 99.5794 231.92 100.259 230.76C100.959 229.6 101.909 228.7 103.109 228.06C104.309 227.42 105.659 227.1 107.159 227.1C108.499 227.1 109.709 227.37 110.789 227.91C111.869 228.45 112.739 229.23 113.399 230.25V227.22H115.439ZM107.369 240.51C108.509 240.51 109.539 240.27 110.459 239.79C111.379 239.29 112.089 238.6 112.589 237.72C113.109 236.84 113.369 235.84 113.369 234.72C113.369 233.6 113.109 232.61 112.589 231.75C112.089 230.87 111.379 230.19 110.459 229.71C109.559 229.21 108.529 228.96 107.369 228.96C106.229 228.96 105.199 229.2 104.279 229.68C103.379 230.16 102.669 230.84 102.149 231.72C101.649 232.6 101.399 233.6 101.399 234.72C101.399 235.84 101.649 236.84 102.149 237.72C102.669 238.6 103.379 239.29 104.279 239.79C105.199 240.27 106.229 240.51 107.369 240.51ZM135.136 235.77H121.936C122.056 237.41 122.686 238.74 123.826 239.76C124.966 240.76 126.406 241.26 128.146 241.26C129.126 241.26 130.026 241.09 130.846 240.75C131.666 240.39 132.376 239.87 132.976 239.19L134.176 240.57C133.476 241.41 132.596 242.05 131.536 242.49C130.496 242.93 129.346 243.15 128.086 243.15C126.466 243.15 125.026 242.81 123.766 242.13C122.526 241.43 121.556 240.47 120.856 239.25C120.156 238.03 119.806 236.65 119.806 235.11C119.806 233.57 120.136 232.19 120.796 230.97C121.476 229.75 122.396 228.8 123.556 228.12C124.736 227.44 126.056 227.1 127.516 227.1C128.976 227.1 130.286 227.44 131.446 228.12C132.606 228.8 133.516 229.75 134.176 230.97C134.836 232.17 135.166 233.55 135.166 235.11L135.136 235.77ZM127.516 228.93C125.996 228.93 124.716 229.42 123.676 230.4C122.656 231.36 122.076 232.62 121.936 234.18H133.126C132.986 232.62 132.396 231.36 131.356 230.4C130.336 229.42 129.056 228.93 127.516 228.93ZM153.803 243.15C152.283 243.15 150.913 242.81 149.693 242.13C148.473 241.43 147.513 240.47 146.813 239.25C146.113 238.03 145.763 236.65 145.763 235.11C145.763 233.57 146.113 232.19 146.813 230.97C147.513 229.75 148.473 228.8 149.693 228.12C150.913 227.44 152.283 227.1 153.803 227.1C155.323 227.1 156.693 227.44 157.913 228.12C159.133 228.8 160.083 229.75 160.763 230.97C161.463 232.19 161.813 233.57 161.813 235.11C161.813 236.65 161.463 238.03 160.763 239.25C160.083 240.47 159.133 241.43 157.913 242.13C156.693 242.81 155.323 243.15 153.803 243.15ZM153.803 241.26C154.923 241.26 155.923 241.01 156.803 240.51C157.703 239.99 158.403 239.26 158.903 238.32C159.403 237.38 159.653 236.31 159.653 235.11C159.653 233.91 159.403 232.84 158.903 231.9C158.403 230.96 157.703 230.24 156.803 229.74C155.923 229.22 154.923 228.96 153.803 228.96C152.683 228.96 151.673 229.22 150.773 229.74C149.893 230.24 149.193 230.96 148.673 231.9C148.173 232.84 147.923 233.91 147.923 235.11C147.923 236.31 148.173 237.38 148.673 238.32C149.193 239.26 149.893 239.99 150.773 240.51C151.673 241.01 152.683 241.26 153.803 241.26ZM168.201 230.31C168.701 229.25 169.441 228.45 170.421 227.91C171.421 227.37 172.651 227.1 174.111 227.1V229.17L173.601 229.14C171.941 229.14 170.641 229.65 169.701 230.67C168.761 231.69 168.291 233.12 168.291 234.96V243H166.161V227.22H168.201V230.31ZM192.222 220.74V243H190.182V239.88C189.542 240.94 188.692 241.75 187.632 242.31C186.592 242.87 185.412 243.15 184.092 243.15C182.612 243.15 181.272 242.81 180.072 242.13C178.872 241.45 177.932 240.5 177.252 239.28C176.572 238.06 176.232 236.67 176.232 235.11C176.232 233.55 176.572 232.16 177.252 230.94C177.932 229.72 178.872 228.78 180.072 228.12C181.272 227.44 182.612 227.1 184.092 227.1C185.372 227.1 186.522 227.37 187.542 227.91C188.582 228.43 189.432 229.2 190.092 230.22V220.74H192.222ZM184.272 241.26C185.372 241.26 186.362 241.01 187.242 240.51C188.142 239.99 188.842 239.26 189.342 238.32C189.862 237.38 190.122 236.31 190.122 235.11C190.122 233.91 189.862 232.84 189.342 231.9C188.842 230.96 188.142 230.24 187.242 229.74C186.362 229.22 185.372 228.96 184.272 228.96C183.152 228.96 182.142 229.22 181.242 229.74C180.362 230.24 179.662 230.96 179.142 231.9C178.642 232.84 178.392 233.91 178.392 235.11C178.392 236.31 178.642 237.38 179.142 238.32C179.662 239.26 180.362 239.99 181.242 240.51C182.142 241.01 183.152 241.26 184.272 241.26ZM211.894 235.77H198.694C198.814 237.41 199.444 238.74 200.584 239.76C201.724 240.76 203.164 241.26 204.904 241.26C205.884 241.26 206.784 241.09 207.604 240.75C208.424 240.39 209.134 239.87 209.734 239.19L210.934 240.57C210.234 241.41 209.354 242.05 208.294 242.49C207.254 242.93 206.104 243.15 204.844 243.15C203.224 243.15 201.784 242.81 200.524 242.13C199.284 241.43 198.314 240.47 197.614 239.25C196.914 238.03 196.564 236.65 196.564 235.11C196.564 233.57 196.894 232.19 197.554 230.97C198.234 229.75 199.154 228.8 200.314 228.12C201.494 227.44 202.814 227.1 204.274 227.1C205.734 227.1 207.044 227.44 208.204 228.12C209.364 228.8 210.274 229.75 210.934 230.97C211.594 232.17 211.924 233.55 211.924 235.11L211.894 235.77ZM204.274 228.93C202.754 228.93 201.474 229.42 200.434 230.4C199.414 231.36 198.834 232.62 198.694 234.18H209.884C209.744 232.62 209.154 231.36 208.114 230.4C207.094 229.42 205.814 228.93 204.274 228.93ZM218.299 230.31C218.799 229.25 219.539 228.45 220.519 227.91C221.519 227.37 222.749 227.1 224.209 227.1V229.17L223.699 229.14C222.039 229.14 220.739 229.65 219.799 230.67C218.859 231.69 218.389 233.12 218.389 234.96V243H216.259V227.22H218.299V230.31ZM249.412 227.22L242.392 243H240.202L233.212 227.22H235.432L241.342 240.66L247.312 227.22H249.412ZM257.463 227.1C259.523 227.1 261.103 227.62 262.203 228.66C263.303 229.68 263.853 231.2 263.853 233.22V243H261.813V240.54C261.333 241.36 260.623 242 259.683 242.46C258.763 242.92 257.663 243.15 256.383 243.15C254.623 243.15 253.223 242.73 252.183 241.89C251.143 241.05 250.623 239.94 250.623 238.56C250.623 237.22 251.103 236.14 252.063 235.32C253.043 234.5 254.593 234.09 256.713 234.09H261.723V233.13C261.723 231.77 261.343 230.74 260.583 230.04C259.823 229.32 258.713 228.96 257.253 228.96C256.253 228.96 255.293 229.13 254.373 229.47C253.453 229.79 252.663 230.24 252.003 230.82L251.043 229.23C251.843 228.55 252.803 228.03 253.923 227.67C255.043 227.29 256.223 227.1 257.463 227.1ZM256.713 241.47C257.913 241.47 258.943 241.2 259.803 240.66C260.663 240.1 261.303 239.3 261.723 238.26V235.68H256.773C254.073 235.68 252.723 236.62 252.723 238.5C252.723 239.42 253.073 240.15 253.773 240.69C254.473 241.21 255.453 241.47 256.713 241.47ZM269.638 220.74H271.768V243H269.638V220.74ZM291.915 227.22V243H289.875V240.12C289.315 241.08 288.545 241.83 287.565 242.37C286.585 242.89 285.465 243.15 284.205 243.15C282.145 243.15 280.515 242.58 279.315 241.44C278.135 240.28 277.545 238.59 277.545 236.37V227.22H279.675V236.16C279.675 237.82 280.085 239.08 280.905 239.94C281.725 240.8 282.895 241.23 284.415 241.23C286.075 241.23 287.385 240.73 288.345 239.73C289.305 238.71 289.785 237.3 289.785 235.5V227.22H291.915ZM311.62 235.77H298.42C298.54 237.41 299.17 238.74 300.31 239.76C301.45 240.76 302.89 241.26 304.63 241.26C305.61 241.26 306.51 241.09 307.33 240.75C308.15 240.39 308.86 239.87 309.46 239.19L310.66 240.57C309.96 241.41 309.08 242.05 308.02 242.49C306.98 242.93 305.83 243.15 304.57 243.15C302.95 243.15 301.51 242.81 300.25 242.13C299.01 241.43 298.04 240.47 297.34 239.25C296.64 238.03 296.29 236.65 296.29 235.11C296.29 233.57 296.62 232.19 297.28 230.97C297.96 229.75 298.88 228.8 300.04 228.12C301.22 227.44 302.54 227.1 304 227.1C305.46 227.1 306.77 227.44 307.93 228.12C309.09 228.8 310 229.75 310.66 230.97C311.32 232.17 311.65 233.55 311.65 235.11L311.62 235.77ZM304 228.93C302.48 228.93 301.2 229.42 300.16 230.4C299.14 231.36 298.56 232.62 298.42 234.18H309.61C309.47 232.62 308.88 231.36 307.84 230.4C306.82 229.42 305.54 228.93 304 228.93Z" fill="white"/>
<path d="M44.55 196.15H36.1V204.4H28.4V196.15H19.9V188.85H28.4V180.6H36.1V188.85H44.55V196.15ZM74.3688 191.55C75.9688 192.483 77.2021 193.633 78.0688 195C78.9354 196.367 79.3688 197.933 79.3688 199.7C79.3688 201.9 78.7354 203.833 77.4688 205.5C76.2021 207.167 74.4188 208.45 72.1188 209.35C69.8188 210.25 67.1688 210.7 64.1688 210.7C61.1688 210.7 58.5188 210.25 56.2188 209.35C53.9188 208.45 52.1354 207.167 50.8688 205.5C49.6021 203.833 48.9688 201.9 48.9688 199.7C48.9688 197.933 49.4021 196.367 50.2688 195C51.1354 193.633 52.3688 192.483 53.9688 191.55C52.7688 190.717 51.8354 189.7 51.1688 188.5C50.5354 187.3 50.2188 185.967 50.2188 184.5C50.2188 182.467 50.8021 180.683 51.9688 179.15C53.1354 177.583 54.7688 176.383 56.8688 175.55C59.0021 174.717 61.4354 174.3 64.1688 174.3C66.9021 174.3 69.3188 174.717 71.4188 175.55C73.5521 176.383 75.2021 177.583 76.3688 179.15C77.5354 180.683 78.1188 182.467 78.1188 184.5C78.1188 185.967 77.7854 187.3 77.1188 188.5C76.4854 189.7 75.5688 190.717 74.3688 191.55ZM64.1688 181.25C62.9354 181.25 61.9354 181.583 61.1688 182.25C60.4021 182.883 60.0188 183.783 60.0188 184.95C60.0188 186.083 60.3854 186.983 61.1188 187.65C61.8854 188.283 62.9021 188.6 64.1688 188.6C65.4354 188.6 66.4521 188.283 67.2188 187.65C67.9854 186.983 68.3688 186.083 68.3688 184.95C68.3688 183.783 67.9854 182.883 67.2188 182.25C66.4521 181.583 65.4354 181.25 64.1688 181.25ZM64.1688 203.75C65.7688 203.75 67.0354 203.367 67.9688 202.6C68.9354 201.8 69.4188 200.733 69.4188 199.4C69.4188 198.067 68.9354 197.017 67.9688 196.25C67.0354 195.45 65.7688 195.05 64.1688 195.05C62.5688 195.05 61.2854 195.45 60.3187 196.25C59.3854 197.017 58.9188 198.067 58.9188 199.4C58.9188 200.733 59.3854 201.8 60.3187 202.6C61.2854 203.367 62.5688 203.75 64.1688 203.75ZM98.066 210.7C95.066 210.7 92.3993 209.983 90.066 208.55C87.7327 207.117 85.8993 205.033 84.566 202.3C83.266 199.533 82.616 196.267 82.616 192.5C82.616 188.733 83.266 185.483 84.566 182.75C85.8993 179.983 87.7327 177.883 90.066 176.45C92.3993 175.017 95.066 174.3 98.066 174.3C101.033 174.3 103.683 175.017 106.016 176.45C108.349 177.883 110.166 179.983 111.466 182.75C112.799 185.483 113.466 188.733 113.466 192.5C113.466 196.267 112.799 199.533 111.466 202.3C110.166 205.033 108.349 207.117 106.016 208.55C103.683 209.983 101.033 210.7 98.066 210.7ZM98.066 202.6C99.7327 202.6 101.049 201.8 102.016 200.2C103.016 198.567 103.516 196 103.516 192.5C103.516 189 103.016 186.45 102.016 184.85C101.049 183.217 99.7327 182.4 98.066 182.4C96.366 182.4 95.016 183.217 94.016 184.85C93.0493 186.45 92.566 189 92.566 192.5C92.566 196 93.0493 198.567 94.016 200.2C95.016 201.8 96.366 202.6 98.066 202.6ZM125.195 193.95C122.561 193.95 120.411 193.083 118.745 191.35C117.078 189.617 116.245 187.25 116.245 184.25C116.245 182.283 116.628 180.567 117.395 179.1C118.161 177.633 119.211 176.517 120.545 175.75C121.911 174.95 123.461 174.55 125.195 174.55C127.861 174.55 130.028 175.433 131.695 177.2C133.361 178.933 134.195 181.283 134.195 184.25C134.195 187.25 133.361 189.617 131.695 191.35C130.028 193.083 127.861 193.95 125.195 193.95ZM145.895 175H153.095L129.195 210H121.995L145.895 175ZM125.195 189.2C126.095 189.2 126.811 188.8 127.345 188C127.878 187.2 128.145 185.95 128.145 184.25C128.145 182.55 127.878 181.3 127.345 180.5C126.811 179.7 126.095 179.3 125.195 179.3C124.328 179.3 123.611 179.717 123.045 180.55C122.511 181.35 122.245 182.583 122.245 184.25C122.245 185.917 122.511 187.167 123.045 188C123.611 188.8 124.328 189.2 125.195 189.2ZM149.895 210.45C147.228 210.45 145.061 209.583 143.395 207.85C141.761 206.117 140.945 203.75 140.945 200.75C140.945 197.783 141.778 195.433 143.445 193.7C145.111 191.933 147.261 191.05 149.895 191.05C152.561 191.05 154.728 191.933 156.395 193.7C158.061 195.433 158.895 197.783 158.895 200.75C158.895 203.75 158.061 206.117 156.395 207.85C154.728 209.583 152.561 210.45 149.895 210.45ZM149.895 205.7C150.795 205.7 151.511 205.3 152.045 204.5C152.578 203.7 152.845 202.45 152.845 200.75C152.845 199.05 152.578 197.8 152.045 197C151.511 196.2 150.795 195.8 149.895 195.8C148.995 195.8 148.278 196.2 147.745 197C147.211 197.8 146.945 199.05 146.945 200.75C146.945 202.45 147.211 203.7 147.745 204.5C148.278 205.3 148.995 205.7 149.895 205.7Z" fill="white"/>
<g clip-path="url(#clip0)">
<path d="M80.5503 85.7999H23.4003C23.1003 85.7999 22.8003 85.4999 22.8003 85.1999V27.6H111.9V83.3999C113.85 83.9999 115.65 85.0499 117.15 86.3999C117.9 86.2499 118.5 86.2499 119.25 86.2499C120.3 86.2499 121.35 86.3999 122.4 86.5499V11.85C122.4 7.35 118.8 3.75 114.3 3.75H20.4003C15.9003 3.75 12.3003 7.35 12.3003 11.85V88.1999C12.3003 92.6999 15.9003 96.2999 20.4003 96.2999H80.5503V85.7999ZM47.1003 12.15C49.0503 12.15 50.5503 13.65 50.5503 15.6C50.5503 17.55 49.0503 19.05 47.1003 19.05C45.1503 19.05 43.6503 17.55 43.6503 15.6C43.6503 13.65 45.1503 12.15 47.1003 12.15ZM36.4503 12.15C38.4003 12.15 39.9003 13.65 39.9003 15.6C39.9003 17.55 38.4003 19.05 36.4503 19.05C34.5003 19.05 33.0003 17.55 33.0003 15.6C33.0003 13.65 34.5003 12.15 36.4503 12.15ZM25.8003 12.15C27.7503 12.15 29.2503 13.65 29.2503 15.6C29.2503 17.55 27.7503 19.05 25.8003 19.05C23.8503 19.05 22.3503 17.55 22.3503 15.6C22.3503 13.65 23.8503 12.15 25.8003 12.15Z" fill="white"/>
<path d="M137.7 104.7C137.7 101.1 134.85 98.25 131.25 98.25C129 98.25 126.9 99.45 125.7 101.25V101.1C125.7 97.5 122.85 94.65 119.25 94.65C117 94.65 114.9 95.85 113.85 97.65V97.5C113.85 93.9 111 91.0501 107.4 91.0501C105.15 91.0501 103.05 92.25 101.85 94.05V72.4501C101.85 70.6501 101.1 69.1501 99.9004 67.8001C98.7004 66.6001 97.0504 65.8501 95.4004 65.8501C91.8004 65.8501 88.9504 68.7001 88.9504 72.3001V114.6C88.9504 114.9 88.8004 115.35 88.3504 115.5C88.0504 115.65 87.6004 115.5 87.3004 115.35L80.7004 108.9C78.4504 106.65 75.0004 106.35 72.4504 108.15C70.9504 109.2 69.9004 110.85 69.6004 112.65C69.3004 114.45 69.9004 116.4 71.1004 117.75L87.4504 137.4C92.1004 142.95 98.8504 146.25 106.2 146.25H116.4C122.1 146.25 127.5 144 131.4 139.95C135.45 135.9 137.7 130.5 137.7 124.95V104.7Z" fill="white"/>
<path d="M78.9001 64.05L83.2501 46.35C83.4001 45.75 83.2501 45 82.8001 44.4C82.3501 43.8 81.7501 43.5 81.0001 43.5H51.1501L50.1001 39.15C49.8001 38.1 48.9001 37.5 48.0001 37.5H41.8501C40.6501 37.5 39.6001 38.55 39.6001 39.75C39.6001 40.95 40.6501 42 41.8501 42H46.3501L47.4001 46.2V46.35L51.9001 64.05C52.2001 65.1 53.1001 65.7 54.0001 65.7H76.8001C77.7001 65.7 78.6001 65.1 78.9001 64.05Z" fill="white"/>
<path d="M57.0001 76.05C59.154 76.05 60.9001 74.3039 60.9001 72.15C60.9001 69.9961 59.154 68.25 57.0001 68.25C54.8462 68.25 53.1001 69.9961 53.1001 72.15C53.1001 74.3039 54.8462 76.05 57.0001 76.05Z" fill="white"/>
<path d="M72.4503 76.05C74.6042 76.05 76.3503 74.3039 76.3503 72.15C76.3503 69.9961 74.6042 68.25 72.4503 68.25C70.2964 68.25 68.5503 69.9961 68.5503 72.15C68.5503 74.3039 70.2964 76.05 72.4503 76.05Z" fill="white"/>
<path d="M43.6505 47.85C43.6505 46.65 42.7505 45.75 41.5505 45.75H33.6005C32.4005 45.75 31.5005 46.65 31.5005 47.85C31.5005 49.05 32.4005 49.95 33.6005 49.95H41.5505C42.7505 49.95 43.6505 49.05 43.6505 47.85Z" fill="white"/>
<path d="M35.5507 57.1499H43.5007C44.7007 57.1499 45.6007 56.2499 45.6007 55.0499C45.6007 53.85 44.7007 52.95 43.5007 52.95H35.5507C34.3507 52.95 33.4507 53.85 33.4507 55.0499C33.4507 56.0999 34.3507 57.1499 35.5507 57.1499Z" fill="white"/>
<path d="M37.3505 64.2H45.3005C46.5005 64.2 47.4005 63.3 47.4005 62.1C47.4005 60.9 46.5005 60 45.3005 60H37.3505C36.1505 60 35.2505 60.9 35.2505 62.1C35.2505 63.3 36.3005 64.2 37.3505 64.2Z" fill="white"/>
</g>
<defs>
<clipPath id="clip0">
<rect width="150" height="150" fill="white"/>
</clipPath>
</defs>
</svg>
