<svg width="150" height="150" viewBox="0 0 150 150" fill="none" xmlns="http://www.w3.org/2000/svg">
<g clip-path="url(#clip0)">
<path d="M80.5508 85.7999H23.4008C23.1008 85.7999 22.8008 85.4999 22.8008 85.1999V27.6H111.901V83.3999C113.851 83.9999 115.651 85.0499 117.151 86.3999C117.901 86.2499 118.501 86.2499 119.251 86.2499C120.301 86.2499 121.351 86.3999 122.401 86.5499V11.85C122.401 7.35 118.801 3.75 114.301 3.75H20.4008C15.9008 3.75 12.3008 7.35 12.3008 11.85V88.1999C12.3008 92.6999 15.9008 96.2999 20.4008 96.2999H80.5508V85.7999ZM47.1008 12.15C49.0508 12.15 50.5508 13.65 50.5508 15.6C50.5508 17.55 49.0508 19.05 47.1008 19.05C45.1508 19.05 43.6508 17.55 43.6508 15.6C43.6508 13.65 45.1508 12.15 47.1008 12.15ZM36.4508 12.15C38.4008 12.15 39.9008 13.65 39.9008 15.6C39.9008 17.55 38.4008 19.05 36.4508 19.05C34.5008 19.05 33.0008 17.55 33.0008 15.6C33.0008 13.65 34.5008 12.15 36.4508 12.15ZM25.8008 12.15C27.7508 12.15 29.2508 13.65 29.2508 15.6C29.2508 17.55 27.7508 19.05 25.8008 19.05C23.8508 19.05 22.3508 17.55 22.3508 15.6C22.3508 13.65 23.8508 12.15 25.8008 12.15Z" fill="white"/>
<path d="M137.7 104.7C137.7 101.1 134.85 98.25 131.25 98.25C129 98.25 126.9 99.45 125.7 101.25V101.1C125.7 97.5 122.85 94.65 119.25 94.65C117 94.65 114.9 95.85 113.85 97.65V97.5C113.85 93.9 111 91.0501 107.4 91.0501C105.15 91.0501 103.05 92.25 101.85 94.05V72.4501C101.85 70.6501 101.1 69.1501 99.8999 67.8001C98.6999 66.6001 97.0499 65.8501 95.3999 65.8501C91.7999 65.8501 88.9499 68.7001 88.9499 72.3001V114.6C88.9499 114.9 88.7999 115.35 88.3499 115.5C88.0499 115.65 87.5999 115.5 87.2999 115.35L80.6999 108.9C78.4499 106.65 74.9999 106.35 72.4499 108.15C70.9499 109.2 69.8999 110.85 69.5999 112.65C69.2999 114.45 69.8999 116.4 71.0999 117.75L87.4499 137.4C92.0999 142.95 98.8499 146.25 106.2 146.25H116.4C122.1 146.25 127.5 144 131.4 139.95C135.45 135.9 137.7 130.5 137.7 124.95V104.7Z" fill="white"/>
<path d="M78.9016 64.05L83.2516 46.35C83.4016 45.75 83.2516 45 82.8016 44.4C82.3516 43.8 81.7516 43.5 81.0016 43.5H51.1516L50.1016 39.15C49.8016 38.1 48.9016 37.5 48.0016 37.5H41.8516C40.6516 37.5 39.6016 38.55 39.6016 39.75C39.6016 40.95 40.6516 42 41.8516 42H46.3516L47.4016 46.2V46.35L51.9016 64.05C52.2016 65.1 53.1016 65.7 54.0016 65.7H76.8016C77.7016 65.7 78.6016 65.1 78.9016 64.05Z" fill="white"/>
<path d="M57.0016 76.05C59.1555 76.05 60.9016 74.3039 60.9016 72.15C60.9016 69.9961 59.1555 68.25 57.0016 68.25C54.8477 68.25 53.1016 69.9961 53.1016 72.15C53.1016 74.3039 54.8477 76.05 57.0016 76.05Z" fill="white"/>
<path d="M72.4508 76.05C74.6047 76.05 76.3508 74.3039 76.3508 72.15C76.3508 69.9961 74.6047 68.25 72.4508 68.25C70.2969 68.25 68.5508 69.9961 68.5508 72.15C68.5508 74.3039 70.2969 76.05 72.4508 76.05Z" fill="white"/>
<path d="M43.65 47.85C43.65 46.65 42.75 45.75 41.55 45.75H33.6C32.4 45.75 31.5 46.65 31.5 47.85C31.5 49.05 32.4 49.95 33.6 49.95H41.55C42.75 49.95 43.65 49.05 43.65 47.85Z" fill="white"/>
<path d="M35.5512 57.1502H43.5012C44.7012 57.1502 45.6012 56.2502 45.6012 55.0502C45.6012 53.8502 44.7012 52.9502 43.5012 52.9502H35.5512C34.3512 52.9502 33.4512 53.8502 33.4512 55.0502C33.4512 56.1002 34.3512 57.1502 35.5512 57.1502Z" fill="white"/>
<path d="M37.35 64.2H45.3C46.5 64.2 47.4 63.3 47.4 62.1C47.4 60.9 46.5 60 45.3 60H37.35C36.15 60 35.25 60.9 35.25 62.1C35.25 63.3 36.3 64.2 37.35 64.2Z" fill="white"/>
</g>
<defs>
<clipPath id="clip0">
<rect width="150" height="150" fill="white"/>
</clipPath>
</defs>
</svg>
