<svg width="150" height="150" viewBox="0 0 150 150" fill="none" xmlns="http://www.w3.org/2000/svg">
<path d="M111.447 48.6511H119.77L101.013 14.2095H92.6895L111.447 48.6511Z" fill="white"/>
<path d="M30.2285 48.6511H38.5527L57.309 14.2095H48.9855L30.2285 48.6511Z" fill="white"/>
<path d="M19.5332 61.9609L34.34 113.182H49.0592C49.0592 108.709 50.1979 104.497 52.1998 100.819L44.6175 61.9609H19.5332Z" fill="white"/>
<path d="M54.8318 96.9033C59.2625 91.425 65.874 87.8038 73.3335 87.3261V61.9609H48.0137L54.8318 96.9033Z" fill="white"/>
<path d="M76.668 87.326C84.1275 87.8037 90.7388 91.4249 95.1695 96.9034L101.988 61.9609H76.668V87.326Z" fill="white"/>
<path d="M105.383 61.9609L97.8008 100.82C99.8029 104.497 100.941 108.709 100.941 113.182H115.661L130.467 61.9609H105.383Z" fill="white"/>
<path d="M137.04 51.9858H12.9597C11.1286 51.9858 9.63867 53.4759 9.63867 55.3069C9.63867 57.138 11.1286 58.6281 12.9597 58.6281H137.04C138.871 58.6281 140.361 57.138 140.361 55.3069C140.361 53.4759 138.871 51.9858 137.04 51.9858Z" fill="white"/>
<path d="M52.3926 113.183C52.3926 125.648 62.5343 135.79 75.0001 135.79C87.4659 135.79 97.6074 125.648 97.6074 113.183C97.6074 100.717 87.4659 90.5752 75.0001 90.5752C62.5343 90.5752 52.3926 100.717 52.3926 113.183ZM83.7999 99.7377C83.8026 99.7382 83.8049 99.7377 83.8076 99.7382C83.9991 99.7707 84.1767 99.8457 84.3438 99.9409C84.3791 99.9608 84.4119 99.9804 84.4459 100.003C84.5968 100.104 84.7376 100.221 84.8511 100.369C84.8589 100.38 84.8628 100.392 84.8704 100.402C84.8748 100.408 84.8818 100.411 84.8861 100.417C84.8975 100.433 84.8983 100.453 84.9091 100.469C85.0087 100.621 85.0791 100.785 85.1246 100.956C85.1341 100.992 85.1476 101.026 85.1546 101.062C85.1901 101.244 85.1936 101.43 85.1671 101.615C85.1612 101.656 85.1494 101.693 85.1408 101.733C85.1256 101.803 85.1188 101.874 85.0944 101.942L81.4251 112.192C81.1817 112.873 80.5405 113.298 79.856 113.298C79.6696 113.298 79.4801 113.266 79.2944 113.2C78.4277 112.89 77.9769 111.936 78.2869 111.069L80.1753 105.794L71.6056 111.859L77.4724 117.825C77.8084 118.167 77.9818 118.637 77.9468 119.115C77.9118 119.594 77.6726 120.034 77.2901 120.323L67.4806 127.745C67.1795 127.973 66.8263 128.083 66.4762 128.083C65.9718 128.083 65.4737 127.855 65.1458 127.422C64.5899 126.688 64.7348 125.643 65.4688 125.088L73.7655 118.81L67.8556 112.799C67.5131 112.451 67.3406 111.969 67.3836 111.483C67.4268 110.996 67.6823 110.552 68.0811 110.27L77.6491 103.497L72.7873 103.866C71.8548 103.93 71.0686 103.249 70.9995 102.331C70.9295 101.413 71.6171 100.612 72.5351 100.543L83.3993 99.7182C83.5355 99.7081 83.6694 99.7162 83.7999 99.7377Z" fill="white"/>
</svg>
