<svg width="191" height="191" viewBox="0 0 191 191" fill="none" xmlns="http://www.w3.org/2000/svg">
<path d="M51.7292 15.9167H139.271C140.506 15.9167 141.725 16.2043 142.83 16.7569C143.935 17.3094 144.896 18.1116 145.637 19.1L167.125 47.75V167.125C167.125 169.236 166.287 171.26 164.794 172.752C163.302 174.245 161.277 175.083 159.167 175.083H31.8333C29.7227 175.083 27.6984 174.245 26.2059 172.752C24.7135 171.26 23.875 169.236 23.875 167.125V47.75L45.3625 19.1C46.1038 18.1116 47.065 17.3094 48.1701 16.7569C49.2752 16.2043 50.4937 15.9167 51.7292 15.9167ZM147.229 47.75L135.292 31.8334H55.7083L43.7708 47.75H147.229ZM71.625 79.5834H55.7083V95.5C55.7083 106.053 59.9007 116.175 67.363 123.637C74.8254 131.099 84.9466 135.292 95.5 135.292C106.053 135.292 116.175 131.099 123.637 123.637C131.099 116.175 135.292 106.053 135.292 95.5V79.5834H119.375V95.5C119.375 101.832 116.86 107.905 112.382 112.382C107.905 116.86 101.832 119.375 95.5 119.375C89.168 119.375 83.0953 116.86 78.6178 112.382C74.1404 107.905 71.625 101.832 71.625 95.5V79.5834Z" fill="#333333"/>
</svg>
