<svg width="39" height="40" viewBox="0 0 39 40" fill="none" xmlns="http://www.w3.org/2000/svg">
<path d="M24.8625 9.25003C23.6275 9.24982 22.4417 9.7469 21.5604 10.6343C20.679 11.5217 20.1726 12.7285 20.15 13.995L20.1045 16.62C20.1019 16.761 20.0702 16.8997 20.0116 17.0272C19.9529 17.1547 19.8687 17.2681 19.7643 17.3598C19.66 17.4516 19.5379 17.5197 19.4061 17.5596C19.2743 17.5996 19.1357 17.6105 18.9995 17.5917L16.4629 17.2384C13.1252 16.7717 9.92716 15.195 6.85916 12.5734C5.88741 18.09 7.78541 21.9117 12.3565 24.86L15.1954 26.69C15.3303 26.777 15.4424 26.8965 15.5218 27.0381C15.6012 27.1798 15.6456 27.3392 15.651 27.5025C15.6565 27.6658 15.6229 27.828 15.5531 27.9749C15.4833 28.1217 15.3794 28.2488 15.2507 28.345L12.6637 30.2834C14.2025 30.3817 15.6634 30.3117 16.8757 30.065C24.5424 28.495 29.64 22.5784 29.64 12.8184C29.64 12.0217 27.9955 9.25003 24.8625 9.25003ZM16.9 13.9334C16.9284 12.3268 17.4182 10.7645 18.3082 9.44206C19.1982 8.11965 20.4487 7.09589 21.9033 6.49897C23.3578 5.90205 24.9518 5.75849 26.4855 6.08627C28.0192 6.41405 29.4246 7.1986 30.5257 8.34169C31.681 8.33336 32.6642 8.63336 34.8628 7.2667C34.3184 10 34.0503 11.1867 32.89 12.8184C32.89 25.555 25.2574 31.7484 17.5127 33.3334C12.2022 34.42 4.48016 32.635 2.26691 30.265C3.39466 30.175 7.97716 29.67 10.6259 27.6817C8.38503 26.1667 -0.534593 20.7834 5.32678 6.31003C8.07791 9.60503 10.868 11.8484 13.6955 13.0384C15.5773 13.83 16.0388 13.8134 16.9017 13.935L16.9 13.9334Z" fill="#F2F2F2"/>
</svg>
